<svg xmlns="http://www.w3.org/2000/svg" xmlns:xlink="http://www.w3.org/1999/xlink" width="404.3671875" height="84.375"><path fill="#111111" d="M24.75 46.76L12.69 46.76L12.69 66.80L5.94 66.80L5.94 15.61L24.82 15.61Q30.30 15.61 34.38 17.53Q38.46 19.44 40.61 22.99L40.61 22.99Q42.75 26.51 42.75 31.25L42.75 31.25Q42.75 38.71 38.09 42.73Q33.43 46.76 24.75 46.76L24.75 46.76ZM12.69 21.16L12.69 40.57L30.80 40.57L30.80 21.16L12.69 21.16ZM47.18 47.64Q47.18 42.61 49.68 38.36Q52.17 34.10 56.44 31.61Q60.71 29.11 65.74 29.11L65.74 29.11Q70.77 29.11 75.02 31.61Q79.28 34.10 81.77 38.36Q84.27 42.61 84.27 47.64L84.27 47.64Q84.27 52.66 81.77 56.94Q79.28 61.21 75.02 63.70Q70.77 66.20 65.74 66.20L65.74 66.20Q60.71 66.20 56.44 63.70Q52.17 61.21 49.68 56.94Q47.18 52.66 47.18 47.64L47.18 47.64ZM54.39 58.25L76.78 58.25L76.78 36.95L54.39 36.95L54.39 58.25ZM78.05 28.76L84.80 28.76L84.80 57.90Q84.80 63.04 86.13 66.23L86.13 66.23L86.13 66.80L79.31 66.80Q78.75 65.74 78.40 62.79L78.40 62.79L78.29 43.73L78.05 28.76ZM111.97 28.76L111.83 34.38L99.74 34.35L99.74 66.80L93.23 66.80L93.23 28.76L111.97 28.76ZM139.75 56.71Q139.75 54.91 138.88 53.72Q138.02 52.52 136.13 51.64L136.13 51.64Q134.09 50.77 130.85 50.10L130.85 50.10Q125.96 49.04 123.05 47.58Q120.13 46.13 118.72 44.05L118.72 44.05Q117.32 42.01 117.32 39.20L117.32 39.20Q117.32 36.11 119.13 33.56Q120.94 31.01 124.17 29.53L124.17 29.53Q127.37 28.05 131.38 28.05L131.38 28.05Q135.60 28.05 138.92 29.57Q142.24 31.08 144.07 33.79L144.07 33.79Q145.90 36.46 145.90 39.94L145.90 39.94L139.36 39.94Q139.36 38.18 138.32 36.67Q137.29 35.16 135.46 34.28L135.46 34.28Q133.66 33.40 131.38 33.40L131.38 33.40Q127.90 33.40 125.86 34.93Q123.82 36.46 123.82 38.99L123.82 38.99Q123.82 41.31 125.68 42.54L125.68 42.54Q127.48 43.73 132.43 44.82L132.43 44.82Q137.29 45.91 140.31 47.43Q143.33 48.94 144.81 51.05L144.81 51.05Q146.25 53.23 146.25 56.25L146.25 56.25Q146.25 59.59 144.42 62.14Q142.59 64.69 139.25 66.09L139.25 66.09Q135.98 67.50 131.59 67.50L131.59 67.50Q127.09 67.50 123.56 65.90Q120.02 64.30 118.02 61.35L118.02 61.35Q116.02 58.43 116.02 55.09L116.02 55.09L122.52 55.09Q122.70 58.36 125.14 60.28Q127.58 62.19 131.59 62.19L131.59 62.19Q135.28 62.19 137.51 60.70Q139.75 59.20 139.75 56.71L139.75 56.71ZM174.55 46.76L162.49 46.76L162.49 66.80L155.74 66.80L155.74 15.61L174.62 15.61Q180.11 15.61 184.18 17.53Q188.26 19.44 190.41 22.99L190.41 22.99Q192.55 26.51 192.55 31.25L192.55 31.25Q192.55 38.71 187.89 42.73Q183.23 46.76 174.55 46.76L174.55 46.76ZM162.49 21.16L162.49 40.57L180.60 40.57L180.60 21.16L162.49 21.16ZM218.88 28.76L218.74 34.38L206.65 34.35L206.65 66.80L200.14 66.80L200.14 28.76L218.88 28.76ZM221.38 47.64Q221.38 42.61 223.88 38.36Q226.37 34.10 230.64 31.61Q234.91 29.11 239.94 29.11L239.94 29.11Q244.97 29.11 249.22 31.61Q253.48 34.10 255.97 38.36Q258.47 42.61 258.47 47.64L258.47 47.64Q258.47 52.66 255.97 56.94Q253.48 61.21 249.22 63.70Q244.97 66.20 239.94 66.20L239.94 66.20Q234.91 66.20 230.64 63.70Q226.37 61.21 223.88 56.94Q221.38 52.66 221.38 47.64L221.38 47.64ZM227.95 47.39Q227.95 50.70 229.62 53.53Q231.29 56.36 234.12 58.03Q236.95 59.70 240.26 59.70L240.26 59.70Q243.60 59.70 246.43 58.03Q249.26 56.36 250.91 53.54Q252.56 50.73 252.56 47.39L252.56 47.39Q252.56 44.05 250.91 41.22Q249.26 38.39 246.43 36.74Q243.60 35.09 240.26 35.09L240.26 35.09Q236.95 35.09 234.12 36.74Q231.29 38.39 229.62 41.22Q227.95 44.05 227.95 47.39L227.95 47.39ZM301.25 15.61L301.25 21.16L284.80 21.16L284.80 66.80L278.09 66.80L278.09 21.16L261.67 21.16L261.67 15.61L301.25 15.61ZM301.92 47.64Q301.92 42.61 304.42 38.36Q306.91 34.10 311.19 31.61Q315.46 29.11 320.48 29.11L320.48 29.11Q325.51 29.11 329.77 31.61Q334.02 34.10 336.52 38.36Q339.01 42.61 339.01 47.64L339.01 47.64Q339.01 52.66 336.52 56.94Q334.02 61.21 329.77 63.70Q325.51 66.20 320.48 66.20L320.48 66.20Q315.46 66.20 311.19 63.70Q306.91 61.21 304.42 56.94Q301.92 52.66 301.92 47.64L301.92 47.64ZM308.50 47.39Q308.50 50.70 310.17 53.53Q311.84 56.36 314.67 58.03Q317.50 59.70 320.80 59.70L320.80 59.70Q324.14 59.70 326.97 58.03Q329.80 56.36 331.45 53.54Q333.11 50.73 333.11 47.39L333.11 47.39Q333.11 44.05 331.45 41.22Q329.80 38.39 326.97 36.74Q324.14 35.09 320.80 35.09L320.80 35.09Q317.50 35.09 314.67 36.74Q311.84 38.39 310.17 41.22Q308.50 44.05 308.50 47.39L308.50 47.39ZM347.73 19.55L354.23 19.55L354.23 28.76L361.34 28.76L361.34 33.79L354.23 33.79L354.23 57.38Q354.23 59.73 355.22 60.84Q356.20 61.95 358.42 61.95L358.42 61.95Q359.54 61.95 361.51 61.52L361.51 61.52L361.51 66.80Q358.80 67.50 356.52 67.50L356.52 67.50Q352.23 67.50 349.98 64.88Q347.73 62.26 347.73 57.38L347.73 57.38L347.73 33.79L340.80 33.79L340.80 28.76L347.73 28.76L347.73 19.55ZM365.80 47.64Q365.80 42.61 368.30 38.36Q370.79 34.10 375.06 31.61Q379.34 29.11 384.36 29.11L384.36 29.11Q389.39 29.11 393.64 31.61Q397.90 34.10 400.39 38.36Q402.89 42.61 402.89 47.64L402.89 47.64Q402.89 52.66 400.39 56.94Q397.90 61.21 393.64 63.70Q389.39 66.20 384.36 66.20L384.36 66.20Q379.34 66.20 375.06 63.70Q370.79 61.21 368.30 56.94Q365.80 52.66 365.80 47.64L365.80 47.64ZM372.38 47.39Q372.38 50.70 374.04 53.53Q375.71 56.36 378.54 58.03Q381.38 59.70 384.68 59.70L384.68 59.70Q388.02 59.70 390.85 58.03Q393.68 56.36 395.33 53.54Q396.98 50.73 396.98 47.39L396.98 47.39Q396.98 44.05 395.33 41.22Q393.68 38.39 390.85 36.74Q388.02 35.09 384.68 35.09L384.68 35.09Q381.38 35.09 378.54 36.74Q375.71 38.39 374.04 41.22Q372.38 44.05 372.38 47.39L372.38 47.39Z"/></svg>