<svg xmlns="http://www.w3.org/2000/svg" xmlns:xlink="http://www.w3.org/1999/xlink" width="653.112" height="72.00000000000001"><path fill="#111111" d="M11.30 31.97L37.01 31.97L37.01 54.00L44.42 54.00L44.42 9.86L37.01 2.52L11.30 2.52L3.96 9.86L3.96 54.00L11.30 54.00L11.30 31.97ZM11.30 9.86L37.01 9.86L37.01 24.62L11.30 24.62L11.30 9.86ZM89.14 24.55L81.79 17.21L52.34 17.21L52.34 24.55L81.79 24.55L81.79 31.90L63.43 31.90C57.31 31.90 52.34 36.86 52.34 42.98C52.34 49.10 57.31 54.00 63.43 54.00L89.14 54.00ZM81.79 46.66L63.43 46.66C61.34 46.66 59.69 45.00 59.69 42.98C59.69 40.97 61.34 39.31 63.43 39.31L81.79 39.31ZM137.52 39.31C137.52 34.92 135.58 30.96 132.55 28.30C135.58 25.56 137.52 21.60 137.52 17.21C137.52 9.07 130.90 2.52 122.83 2.52L97.06 2.52L97.06 54.00L122.83 54.00C130.90 54.00 137.52 47.45 137.52 39.31ZM104.40 9.86L122.83 9.86C126.86 9.86 130.18 13.18 130.18 17.21C130.18 21.31 126.86 24.62 122.83 24.62L104.40 24.62ZM104.40 31.97L122.83 31.97C126.86 31.97 130.18 35.21 130.18 39.31C130.18 43.42 126.86 46.66 122.83 46.66L104.40 46.66ZM145.44 2.52L145.44 54.00L174.89 54.00L182.23 46.66L182.23 17.21L152.78 17.21L152.78 2.52L145.44 2.52ZM174.89 24.55L174.89 46.66L152.78 46.66L152.78 24.55L174.89 24.55ZM230.69 9.86L230.69 2.52L197.50 2.52L190.15 9.86L190.15 46.66L197.50 54.00L230.69 54.00L230.69 46.66L197.50 46.66L197.50 9.86ZM257.33 23.69C262.66 23.69 267.12 27.14 268.70 31.97L276.26 31.97C274.54 23.04 266.69 16.27 257.33 16.27C246.60 16.27 237.96 24.98 237.96 35.64C237.96 46.30 246.60 54.94 257.33 54.94C266.69 54.94 274.54 48.24 276.26 39.31L268.70 39.31C267.12 44.14 262.66 47.59 257.33 47.59C250.70 47.59 245.30 42.26 245.30 35.64C245.30 29.02 250.70 23.69 257.33 23.69ZM324.86 28.30C324.86 14.04 313.27 2.52 299.09 2.52L283.46 2.52L283.46 54.00L299.09 54.00C313.27 54.00 324.86 42.48 324.86 28.30ZM290.81 9.86L299.09 9.86C309.24 9.86 317.45 18.14 317.45 28.30C317.45 38.45 309.24 46.66 299.09 46.66L290.81 46.66ZM369.58 54.00L369.58 2.52L362.23 2.52L362.23 17.21L340.13 17.21L332.78 24.55L332.78 46.66L340.13 54.00ZM340.13 24.55L362.23 24.55L362.23 46.66L340.13 46.66ZM417.96 46.58L384.84 46.58L384.84 31.90L417.96 31.90L417.96 24.55L384.84 24.55L384.84 9.79L417.96 9.79L417.96 2.45L377.50 2.45L377.50 54.00L417.96 54.00ZM462.67 46.66L433.22 46.66L433.22 39.31L462.67 39.31L462.67 17.21L433.22 17.21L425.88 24.55L425.88 54.00L462.67 54.00ZM433.22 24.55L455.33 24.55L455.33 31.90L433.22 31.90ZM511.13 19.08C511.13 9.86 503.71 2.52 494.57 2.52L470.59 2.52L470.59 54.00L477.94 54.00L477.94 35.64L487.30 35.64L505.66 54.00L511.13 54.00L511.13 48.60L497.81 35.28C505.37 33.77 511.13 27.07 511.13 19.08ZM494.57 28.30L477.94 28.30L477.94 9.86L494.57 9.86C499.61 9.86 503.71 13.97 503.71 19.08C503.71 24.12 499.61 28.30 494.57 28.30ZM526.46 24.55L555.91 24.55L555.91 17.21L519.05 17.21L519.05 54.00L526.46 54.00ZM589.18 54.94C595.37 54.94 601.13 52.78 605.74 49.18L605.74 24.62L589.18 24.62L589.18 31.97L598.32 31.97L598.32 45.29C595.58 46.73 592.49 47.59 589.18 47.59C578.45 47.59 569.81 38.95 569.81 28.30C569.81 17.57 578.45 8.93 589.18 8.93C593.42 8.93 597.31 10.30 600.48 12.67L605.74 7.42L605.74 7.34C601.13 3.74 595.37 1.58 589.18 1.58C574.42 1.58 562.46 13.54 562.46 28.30C562.46 42.98 574.42 54.94 589.18 54.94ZM612.29 61.42L612.29 68.76L641.74 68.76L649.15 61.42L649.15 35.64C649.15 25.06 640.15 16.27 629.78 16.27C619.13 16.27 610.49 24.98 610.49 35.64C610.49 46.30 619.13 54.94 629.78 54.94C634.32 54.94 638.50 53.42 641.74 50.83L641.74 61.42ZM629.78 47.59C623.23 47.59 617.83 42.26 617.83 35.64C617.83 29.02 623.23 23.69 629.78 23.69C636.41 23.69 641.74 29.02 641.74 35.64C641.74 42.26 636.41 47.59 629.78 47.59Z"/></svg>