<svg xmlns="http://www.w3.org/2000/svg" xmlns:xlink="http://www.w3.org/1999/xlink" width="652.248" height="72.00000000000001"><path fill="#111111" d="M11.38 31.90L37.08 31.90L37.08 54.00L44.50 54.00L44.50 21.74C44.50 10.58 35.42 1.51 24.19 1.51C13.03 1.51 3.96 10.58 3.96 21.74L3.96 54.00L11.38 54.00L11.38 31.90ZM11.38 21.74C11.38 14.69 17.14 8.86 24.19 8.86C31.32 8.86 37.08 14.69 37.08 21.74L37.08 24.55L11.38 24.55L11.38 21.74ZM81.79 17.21L52.42 17.21L52.42 24.55L81.79 24.55L81.79 31.90L52.42 31.90L52.42 39.31L81.79 39.31L81.79 54.00L89.21 54.00L89.21 24.55ZM137.59 46.58L137.59 24.55L130.25 24.55L130.25 2.45L97.13 2.45L97.13 54.00L130.25 54.00ZM104.47 9.79L122.90 9.79L122.90 24.55L104.47 24.55ZM104.47 31.90L130.25 31.90L130.25 46.58L104.47 46.58ZM164.81 54.94C175.46 54.94 184.10 46.30 184.10 35.64C184.10 24.91 175.46 16.27 164.81 16.27C160.27 16.27 156.10 17.86 152.86 20.45L152.86 2.52L145.51 2.52L145.51 35.64C145.51 46.30 154.15 54.94 164.81 54.94ZM164.81 23.62C171.43 23.62 176.76 29.02 176.76 35.64C176.76 42.19 171.43 47.59 164.81 47.59C158.18 47.59 152.86 42.19 152.86 35.64C152.86 29.02 158.18 23.62 164.81 23.62ZM215.57 54.86C221.76 54.86 227.52 52.78 232.13 49.10L226.87 43.85C223.70 46.15 219.82 47.52 215.57 47.52C204.84 47.52 196.20 38.88 196.20 28.22C196.20 17.57 204.84 8.86 215.57 8.86C219.82 8.86 223.70 10.22 226.87 12.60L232.13 7.27C227.52 3.67 221.76 1.51 215.57 1.51C200.81 1.51 188.86 13.46 188.86 28.22C188.86 42.91 200.81 54.86 215.57 54.86ZM275.47 54.00L275.47 46.66L246.02 46.66L246.02 24.55L275.47 24.55L275.47 17.21L246.02 17.21L238.68 24.55L238.68 46.66L246.02 54.00ZM323.86 46.58L323.86 9.79L316.51 2.45L283.39 2.45L283.39 54.00L316.51 54.00ZM290.74 9.79L316.51 9.79L316.51 46.58L290.74 46.58ZM349.34 54.94C360.00 54.94 368.64 46.30 368.64 35.64L368.64 2.52L361.30 2.52L361.30 20.45C357.98 17.86 353.81 16.27 349.34 16.27C338.62 16.27 329.98 24.91 329.98 35.64C329.98 46.30 338.62 54.94 349.34 54.94ZM349.34 23.62C355.90 23.62 361.30 29.02 361.30 35.64C361.30 42.19 355.90 47.59 349.34 47.59C342.72 47.59 337.39 42.19 337.39 35.64C337.39 29.02 342.72 23.62 349.34 23.62ZM417.02 46.58L383.90 46.58L383.90 31.90L417.02 31.90L417.02 24.55L383.90 24.55L383.90 9.79L417.02 9.79L417.02 2.45L376.56 2.45L376.56 54.00L417.02 54.00ZM424.94 54.00L461.81 54.00L461.81 46.66L432.36 46.66L432.36 39.31L461.81 39.31L461.81 31.90L432.36 31.90L432.36 24.55L461.81 24.55L461.81 17.21L424.94 17.21ZM508.32 28.30L508.32 2.52L469.73 2.52L469.73 54.00L477.07 54.00L477.07 35.64L486.43 35.64L504.94 54.07L510.26 48.74L497.16 35.64L500.98 35.64ZM477.07 28.30L477.07 9.86L500.98 9.86L500.98 28.30ZM518.18 54.00L525.60 54.00L525.60 31.90C525.60 27.86 528.84 24.55 532.94 24.55L555.05 24.55L555.05 17.21L532.94 17.21C524.81 17.21 518.18 23.76 518.18 31.90ZM603.50 54.00L603.50 24.55L583.20 24.55L583.20 31.90L596.09 31.90L596.09 46.58L570.31 46.58L570.31 9.79L603.50 9.79L603.50 2.45L570.31 2.45L562.97 9.79L562.97 46.58L570.31 54.00ZM611.42 54.00L640.94 54.00L640.94 61.34L611.42 61.34L611.42 68.76L640.94 68.76L648.29 61.34L648.29 17.21L611.42 17.21ZM618.84 24.55L640.94 24.55L640.94 46.66L618.84 46.66Z"/></svg>