<svg xmlns="http://www.w3.org/2000/svg" xmlns:xlink="http://www.w3.org/1999/xlink" width="553.6080000000001" height="87.19200000000001"><path fill="#111111" d="M51.19 65.66Q51.55 65.66 51.55 66.10Q51.55 66.53 51.19 66.53L51.19 66.53Q49.82 66.53 46.80 66.38L46.80 66.38Q43.78 66.24 42.41 66.24L42.41 66.24Q40.61 66.24 38.16 66.38L38.16 66.38Q35.71 66.53 34.34 66.53L34.34 66.53Q34.06 66.53 34.06 66.10Q34.06 65.66 34.34 65.66L34.34 65.66Q36.43 65.66 37.40 65.20Q38.38 64.73 38.38 63.65L38.38 63.65Q38.38 62.57 37.15 59.98L37.15 59.98L29.38 44.21L16.34 44.21L10.80 56.66Q9.86 58.82 9.86 60.55L9.86 60.55Q9.86 63.07 11.66 64.37Q13.46 65.66 16.70 65.66L16.70 65.66Q17.06 65.66 17.06 66.10Q17.06 66.53 16.70 66.53L16.70 66.53Q15.41 66.53 12.96 66.38L12.96 66.38Q10.22 66.24 8.21 66.24L8.21 66.24Q6.26 66.24 3.67 66.38L3.67 66.38Q1.37 66.53-0.14 66.53L-0.14 66.53Q-0.50 66.53-0.50 66.10Q-0.50 65.66-0.14 65.66L-0.14 65.66Q1.87 65.66 3.24 64.87Q4.61 64.08 5.90 62.03Q7.20 59.98 9.00 55.94L9.00 55.94L24.48 21.10Q24.62 20.88 25.13 20.88L25.13 20.88Q25.63 20.88 25.70 21.10L25.70 21.10L43.34 56.66Q45.86 61.85 47.56 63.76Q49.25 65.66 51.19 65.66L51.19 65.66ZM22.54 30.31L17.14 42.41L28.51 42.41L22.54 30.31ZM81.14 62.64L81.29 62.64Q81.58 62.64 81.65 62.96Q81.72 63.29 81.43 63.43L81.43 63.43L74.02 66.96Q73.73 67.10 73.37 67.10L73.37 67.10Q72.36 67.10 71.42 65.95Q70.49 64.80 70.13 62.86L70.13 62.86L66.38 64.87Q62.21 67.03 59.26 67.03L59.26 67.03Q56.95 67.03 55.69 65.84Q54.43 64.66 54.43 62.57L54.43 62.57Q54.43 60.34 56.02 59.22Q57.60 58.10 62.06 56.59L62.06 56.59L69.91 53.93L69.91 48.17Q69.91 43.78 68.90 41.72Q67.90 39.67 65.88 39.67L65.88 39.67Q61.99 39.67 61.42 45.36L61.42 45.36Q61.06 48.96 57.74 48.96L57.74 48.96Q54.65 48.96 54.65 46.30L54.65 46.30Q54.65 44.42 56.99 42.52Q59.33 40.61 62.64 39.35Q65.95 38.09 68.54 38.09L68.54 38.09Q71.78 38.09 73.76 40.07Q75.74 42.05 75.74 46.01L75.74 46.01L75.74 58.75Q75.74 60.98 76.46 62.14Q77.18 63.29 78.55 63.29L78.55 63.29Q79.63 63.29 81.14 62.64L81.14 62.64ZM67.82 62.86L69.98 61.70Q69.91 61.42 69.91 60.62L69.91 60.62L69.91 55.08L64.80 56.95Q62.93 57.67 62.14 58.50Q61.34 59.33 61.34 60.55L61.34 60.55Q61.34 62.06 62.21 62.93Q63.07 63.79 64.44 63.79L64.44 63.79Q65.95 63.79 67.82 62.86L67.82 62.86ZM106.70 41.26Q112.61 41.90 116.14 45.22Q119.66 48.53 119.66 53.42L119.66 53.42Q119.66 57.17 117.61 60.23Q115.56 63.29 111.92 65.05Q108.29 66.82 103.82 66.82L103.82 66.82Q101.74 66.82 99.00 66.60L99.00 66.60Q98.06 66.53 96.62 66.46Q95.18 66.38 93.38 66.38L93.38 66.38L88.20 66.46Q86.83 66.53 84.46 66.53L84.46 66.53Q84.24 66.53 84.24 66.10Q84.24 65.66 84.46 65.66L84.46 65.66Q86.76 65.66 87.91 65.27Q89.06 64.87 89.53 63.86Q90.00 62.86 90.00 60.70L90.00 60.70L90.00 27.36Q90.00 25.27 89.53 24.23Q89.06 23.18 87.95 22.79Q86.83 22.39 84.53 22.39L84.53 22.39Q84.38 22.39 84.38 21.96Q84.38 21.53 84.53 21.53L84.53 21.53L88.27 21.60Q91.44 21.74 93.38 21.74L93.38 21.74Q95.40 21.74 97.63 21.53L97.63 21.53Q98.42 21.46 99.54 21.38Q100.66 21.31 102.10 21.31L102.10 21.31Q108.50 21.31 111.92 23.80Q115.34 26.28 115.34 30.67L115.34 30.67Q115.34 34.06 113.08 36.86Q110.81 39.67 106.70 41.26L106.70 41.26ZM100.87 22.75Q98.57 22.75 97.74 23.69Q96.91 24.62 96.91 27.50L96.91 27.50L96.91 41.18L99.94 41.26Q104.18 41.26 106.34 38.48Q108.50 35.71 108.50 31.32L108.50 31.32Q108.50 27.22 106.56 24.98Q104.62 22.75 100.87 22.75L100.87 22.75ZM102.67 65.16Q112.39 65.16 112.39 55.15L112.39 55.15Q112.39 49.68 109.55 46.37Q106.70 43.06 101.23 43.06L101.23 43.06Q98.64 43.06 96.91 43.20L96.91 43.20L96.91 60.70Q96.91 62.35 97.34 63.29Q97.78 64.22 99.00 64.69Q100.22 65.16 102.67 65.16L102.67 65.16ZM146.16 37.80Q149.33 37.80 152.03 39.31Q154.73 40.82 156.35 43.85Q157.97 46.87 157.97 51.19L157.97 51.19Q157.97 56.38 155.77 60.05Q153.58 63.72 149.98 65.59Q146.38 67.46 142.34 67.46L142.34 67.46Q136.73 67.46 132.26 64.15L132.26 64.15L126.14 66.96L126.00 66.96Q125.71 66.96 125.64 66.71Q125.57 66.46 125.78 66.31L125.78 66.31Q127.73 65.09 128.63 63.47Q129.53 61.85 129.53 59.11L129.53 59.11L129.53 23.90Q129.53 21.38 129.02 20.27Q128.52 19.15 127.30 19.15L127.30 19.15Q126.43 19.15 124.49 20.02L124.49 20.02L124.42 20.02Q124.13 20.02 123.98 19.66Q123.84 19.30 123.98 19.15L123.98 19.15L133.99 14.40L134.35 14.33Q134.64 14.33 135.00 14.62Q135.36 14.90 135.36 15.12L135.36 15.12L135.36 43.13Q137.74 40.68 140.33 39.24Q142.92 37.80 146.16 37.80L146.16 37.80ZM144.22 66.02Q147.74 66.02 149.62 62.86Q151.49 59.69 151.49 53.86L151.49 53.86Q151.49 47.52 149.22 44.32Q146.95 41.11 143.14 41.11L143.14 41.11Q139.46 41.11 135.36 44.42L135.36 44.42L135.36 55.44Q135.36 59.18 136.76 61.56Q138.17 63.94 140.22 64.98Q142.27 66.02 144.22 66.02L144.22 66.02ZM190.58 20.74Q193.82 20.74 197.32 21.31Q200.81 21.89 202.82 22.90L202.82 22.90Q203.47 23.11 203.65 23.44Q203.83 23.76 203.90 24.55L203.90 24.55L204.77 33.91Q204.77 34.13 204.41 34.20Q204.05 34.27 203.98 33.98L203.98 33.98Q201.89 28.37 197.68 25.42Q193.46 22.46 187.78 22.46L187.78 22.46Q180.29 22.46 176.04 27.72Q171.79 32.98 171.79 41.83L171.79 41.83Q171.79 48.46 174.13 54Q176.47 59.54 180.61 62.78Q184.75 66.02 189.86 66.02L189.86 66.02Q199.58 66.02 204.62 53.93L204.62 53.93Q204.70 53.64 205.09 53.71Q205.49 53.78 205.49 54L205.49 54L204.41 63.22Q204.26 64.08 204.08 64.33Q203.90 64.58 203.26 64.87L203.26 64.87Q196.99 67.39 189.94 67.39L189.94 67.39Q181.15 67.39 175.32 63.90Q169.49 60.41 166.72 55.01Q163.94 49.61 163.94 43.78L163.94 43.78Q163.94 37.01 167.65 31.75Q171.36 26.50 177.48 23.62Q183.60 20.74 190.58 20.74L190.58 20.74ZM225.36 67.39Q220.68 67.39 217.40 65.34Q214.13 63.29 212.54 60.01Q210.96 56.74 210.96 53.14L210.96 53.14Q210.96 48.60 213.41 45.18Q215.86 41.76 219.71 39.92Q223.56 38.09 227.52 38.09L227.52 38.09Q230.90 38.09 233.64 39.46Q236.38 40.82 236.38 43.13L236.38 43.13Q236.38 44.35 235.44 45.25Q234.50 46.15 232.85 46.15L232.85 46.15Q230.11 46.15 228.89 42.91L228.89 42.91Q228.17 41.11 227.38 40.36Q226.58 39.60 224.86 39.60L224.86 39.60Q221.47 39.60 219.49 42.66Q217.51 45.72 217.51 50.83L217.51 50.83Q217.51 56.81 220.28 60.52Q223.06 64.22 228.96 64.22L228.96 64.22Q230.98 64.22 232.56 63.72Q234.14 63.22 236.02 62.14L236.02 62.14L236.09 62.14Q236.30 62.14 236.48 62.35Q236.66 62.57 236.52 62.71L236.52 62.71Q233.86 65.09 231.26 66.24Q228.67 67.39 225.36 67.39L225.36 67.39ZM261.72 66.82Q259.49 66.82 256.54 66.60L256.54 66.60Q255.46 66.53 253.80 66.46Q252.14 66.38 250.06 66.38L250.06 66.38L244.94 66.46Q243.58 66.53 241.13 66.53L241.13 66.53Q240.98 66.53 240.98 66.10Q240.98 65.66 241.13 65.66L241.13 65.66Q243.58 65.66 244.69 65.30Q245.81 64.94 246.24 63.90Q246.67 62.86 246.67 60.70L246.67 60.70L246.67 27.36Q246.67 25.20 246.28 24.19Q245.88 23.18 244.73 22.79Q243.58 22.39 241.20 22.39L241.20 22.39Q241.06 22.39 241.06 21.96Q241.06 21.53 241.20 21.53L241.20 21.53L245.02 21.60Q248.18 21.74 250.06 21.74L250.06 21.74Q252.94 21.74 255.89 21.53L255.89 21.53Q259.49 21.38 260.71 21.38L260.71 21.38Q268.06 21.38 273.74 24.26Q279.43 27.14 282.56 32.11Q285.70 37.08 285.70 43.27L285.70 43.27Q285.70 50.26 282.46 55.62Q279.22 60.98 273.74 63.90Q268.27 66.82 261.72 66.82L261.72 66.82ZM261.00 65.38Q265.97 65.38 269.82 63.00Q273.67 60.62 275.83 55.98Q277.99 51.34 277.99 44.86L277.99 44.86Q277.99 38.66 275.94 33.66Q273.89 28.66 270.14 25.74Q266.40 22.82 261.43 22.82L261.43 22.82Q258.41 22.82 256.75 23.18Q255.10 23.54 254.34 24.52Q253.58 25.49 253.58 27.50L253.58 27.50L253.58 59.90Q253.58 62.86 255.10 64.12Q256.61 65.38 261.00 65.38L261.00 65.38ZM325.15 62.06L325.22 62.06Q325.44 62.06 325.62 62.42Q325.80 62.78 325.58 62.86L325.58 62.86L316.37 67.32L315.94 67.39Q315.22 67.39 314.60 65.95Q313.99 64.51 313.92 62.06L313.92 62.06Q311.33 64.51 308.59 65.99Q305.86 67.46 302.62 67.46L302.62 67.46Q299.52 67.46 296.93 65.77Q294.34 64.08 292.82 60.91Q291.31 57.74 291.31 53.50L291.31 53.50Q291.31 48.17 293.83 44.64Q296.35 41.11 300.17 39.46Q303.98 37.80 307.80 37.80L307.80 37.80Q310.97 37.80 313.85 38.95L313.85 38.95L313.85 23.90Q313.85 21.38 313.38 20.27Q312.91 19.15 311.69 19.15L311.69 19.15Q310.90 19.15 308.81 20.02L308.81 20.02L308.66 20.02Q308.38 20.02 308.23 19.66Q308.09 19.30 308.23 19.22L308.23 19.22L318.38 14.40L318.67 14.33Q318.96 14.33 319.32 14.62Q319.68 14.90 319.68 15.12L319.68 15.12L319.68 58.32Q319.68 60.84 320.18 61.88Q320.69 62.93 321.91 62.93L321.91 62.93Q323.35 62.93 325.15 62.06L325.15 62.06ZM306.22 64.30Q308.30 64.30 310.14 63.36Q311.98 62.42 313.85 60.70L313.85 60.70L313.85 60.62L313.85 43.49Q312.41 41.47 310.64 40.50Q308.88 39.53 306.43 39.53L306.43 39.53Q302.33 39.53 300.10 42.37Q297.86 45.22 297.86 51.26L297.86 51.26Q297.86 57.31 300.20 60.80Q302.54 64.30 306.22 64.30L306.22 64.30ZM360.94 55.30Q360.94 55.15 361.22 55.15L361.22 55.15Q361.44 55.15 361.62 55.26Q361.80 55.37 361.80 55.44L361.80 55.44Q361.08 60.91 361.08 65.45L361.08 65.45Q361.08 66.02 360.86 66.28Q360.65 66.53 360.00 66.53L360.00 66.53L328.75 66.53Q328.54 66.53 328.54 66.10Q328.54 65.66 328.75 65.66L328.75 65.66Q331.20 65.66 332.32 65.30Q333.43 64.94 333.83 63.90Q334.22 62.86 334.22 60.70L334.22 60.70L334.22 27.36Q334.22 25.20 333.83 24.19Q333.43 23.18 332.28 22.79Q331.13 22.39 328.75 22.39L328.75 22.39Q328.54 22.39 328.54 21.96Q328.54 21.53 328.75 21.53L328.75 21.53L358.70 21.53Q359.42 21.53 359.42 22.18L359.42 22.18L359.57 31.54Q359.57 31.68 359.17 31.75Q358.78 31.82 358.70 31.61L358.70 31.61Q356.98 23.40 348.70 23.40L348.70 23.40L345.82 23.40Q343.22 23.40 342.14 24.34Q341.06 25.27 341.06 27.50L341.06 27.50L341.06 42.19L347.98 42.19Q355.90 42.19 355.90 36.86L355.90 36.86Q355.90 36.65 356.29 36.65Q356.69 36.65 356.69 36.86L356.69 36.86L356.62 43.13L356.69 46.51Q356.83 48.82 356.83 50.26L356.83 50.26Q356.83 50.40 356.40 50.40Q355.97 50.40 355.97 50.26L355.97 50.26Q355.97 44.06 347.90 44.06L347.90 44.06L341.06 44.06L341.06 60.41Q341.06 62.78 341.96 63.72Q342.86 64.66 345.17 64.66L345.17 64.66L348.70 64.66Q358.34 64.66 360.94 55.30L360.94 55.30ZM392.33 62.06L392.47 61.99Q392.62 61.99 392.80 62.28Q392.98 62.57 392.83 62.71L392.83 62.71Q390.24 65.16 387.58 66.28Q384.91 67.39 381.74 67.39L381.74 67.39Q377.28 67.39 374.08 65.48Q370.87 63.58 369.18 60.37Q367.49 57.17 367.49 53.50L367.49 53.50Q367.49 49.25 369.61 45.72Q371.74 42.19 375.44 40.14Q379.15 38.09 383.62 38.09L383.62 38.09Q387.86 38.09 390.17 40.00Q392.47 41.90 392.47 45.22L392.47 45.22Q392.47 47.16 391.68 47.16L391.68 47.16L387.72 47.16L374.18 47.30Q373.97 48.82 373.97 50.54L373.97 50.54Q373.97 56.81 376.88 60.52Q379.80 64.22 384.98 64.22L384.98 64.22Q386.86 64.22 388.80 63.68Q390.74 63.14 392.33 62.06L392.33 62.06ZM381.02 39.53Q378.65 39.53 376.92 41.26Q375.19 42.98 374.47 46.01L374.47 46.01L385.70 45.79Q385.56 42.84 384.41 41.18Q383.26 39.53 381.02 39.53L381.02 39.53ZM445.32 65.66Q445.54 65.66 445.54 66.10Q445.54 66.53 445.32 66.53L445.32 66.53L433.73 66.53Q432.07 66.53 427.57 60.52Q423.07 54.50 416.59 43.70L416.59 43.70Q415.44 43.92 414.22 43.92L414.22 43.92Q411.55 43.92 410.47 43.85L410.47 43.85L410.47 60.70Q410.47 62.93 410.87 63.94Q411.26 64.94 412.38 65.30Q413.50 65.66 415.94 65.66L415.94 65.66Q416.09 65.66 416.09 66.10Q416.09 66.53 415.94 66.53L415.94 66.53Q413.57 66.53 412.27 66.46L412.27 66.46L406.94 66.38L401.76 66.46Q400.39 66.53 398.02 66.53L398.02 66.53Q397.80 66.53 397.80 66.10Q397.80 65.66 398.02 65.66L398.02 65.66Q400.46 65.66 401.58 65.30Q402.70 64.94 403.13 63.90Q403.56 62.86 403.56 60.70L403.56 60.70L403.56 27.36Q403.56 25.20 403.16 24.19Q402.77 23.18 401.62 22.79Q400.46 22.39 398.09 22.39L398.09 22.39Q397.94 22.39 397.94 21.96Q397.94 21.53 398.09 21.53L398.09 21.53L401.83 21.60Q405.00 21.74 406.94 21.74L406.94 21.74Q409.10 21.74 411.48 21.53L411.48 21.53Q412.34 21.46 413.57 21.38Q414.79 21.31 416.23 21.31L416.23 21.31Q422.64 21.31 426.10 23.69Q429.55 26.06 429.55 30.38L429.55 30.38Q429.55 33.77 427.54 36.79Q425.52 39.82 422.28 41.69L422.28 41.69Q428.18 50.76 432.18 55.91Q436.18 61.06 439.27 63.36Q442.37 65.66 445.32 65.66L445.32 65.66ZM410.47 41.83Q412.20 42.12 414.65 42.12L414.65 42.12Q418.97 42.12 420.70 40.18Q422.42 38.23 422.42 33.05L422.42 33.05Q422.42 27.22 420.48 24.95Q418.54 22.68 415.01 22.68L415.01 22.68Q412.42 22.68 411.44 23.69Q410.47 24.70 410.47 27.50L410.47 27.50L410.47 41.83ZM463.97 38.02Q465.62 38.02 467.14 39.10Q468.65 40.18 468.65 41.69L468.65 41.69Q468.65 43.06 467.82 43.92Q466.99 44.78 465.55 44.78L465.55 44.78Q464.62 44.78 464.00 44.39Q463.39 43.99 462.74 43.27L462.74 43.27Q462.10 42.62 461.59 42.30Q461.09 41.98 460.37 41.98L460.37 41.98Q459.58 41.98 458.68 42.59Q457.78 43.20 455.90 45.14L455.90 45.14L455.90 60.70Q455.90 62.71 456.48 63.76Q457.06 64.80 458.42 65.23Q459.79 65.66 462.46 65.66L462.46 65.66Q462.74 65.66 462.74 66.10Q462.74 66.53 462.46 66.53L462.46 66.53Q460.08 66.53 458.64 66.46L458.64 66.46L452.95 66.38L448.78 66.46Q447.77 66.53 445.97 66.53L445.97 66.53Q445.75 66.53 445.75 66.10Q445.75 65.66 445.97 65.66L445.97 65.66Q448.42 65.66 449.21 64.66Q450.00 63.65 450.00 60.70L450.00 60.70L450.00 46.94Q450.00 44.64 449.46 43.56Q448.92 42.48 447.70 42.48L447.70 42.48Q446.62 42.48 444.10 43.56L444.10 43.56L444.02 43.56Q443.74 43.56 443.59 43.20Q443.45 42.84 443.66 42.77L443.66 42.77L453.10 38.16Q453.53 38.02 453.60 38.02L453.60 38.02Q454.32 38.02 455.04 39.56Q455.76 41.11 455.90 43.63L455.90 43.63Q458.71 40.46 460.58 39.24Q462.46 38.02 463.97 38.02L463.97 38.02ZM499.32 67.39Q491.40 67.39 485.53 64.37Q479.66 61.34 476.57 56.12Q473.47 50.90 473.47 44.50L473.47 44.50Q473.47 37.58 477.04 32.15Q480.60 26.71 486.83 23.72Q493.06 20.74 500.83 20.74L500.83 20.74Q504.22 20.74 507.60 21.31Q510.98 21.89 513.07 22.90L513.07 22.90Q513.65 23.18 513.83 23.47Q514.01 23.76 514.08 24.55L514.08 24.55L514.94 33.91Q514.94 34.13 514.58 34.20Q514.22 34.27 514.08 33.98L514.08 33.98Q511.92 28.58 507.60 25.56Q503.28 22.54 497.45 22.54L497.45 22.54Q489.53 22.54 485.28 27.68Q481.03 32.83 481.03 41.83L481.03 41.83Q481.03 48.89 483.62 54.43Q486.22 59.98 490.79 63.07Q495.36 66.17 501.05 66.17L501.05 66.17Q504.22 66.17 505.94 65.52Q507.67 64.87 508.50 63.00Q509.33 61.13 509.33 57.46L509.33 57.46Q509.33 53.71 508.90 52.24Q508.46 50.76 506.99 50.26Q505.51 49.75 501.84 49.75L501.84 49.75Q501.41 49.75 501.41 49.18L501.41 49.18Q501.41 48.96 501.52 48.78Q501.62 48.60 501.77 48.60L501.77 48.60Q507.74 48.96 511.34 48.96L511.34 48.96Q514.94 48.96 518.83 48.74L518.83 48.74Q518.98 48.74 519.08 48.92Q519.19 49.10 519.19 49.25L519.19 49.25Q519.19 49.75 518.83 49.75L518.83 49.75Q517.39 49.68 516.82 50.22Q516.24 50.76 516.06 52.42Q515.88 54.07 515.88 58.18L515.88 58.18Q515.88 61.42 516.13 62.78Q516.38 64.15 516.38 64.51L516.38 64.51Q516.38 64.94 516.20 65.05Q516.02 65.16 515.52 65.38L515.52 65.38Q506.45 67.39 499.32 67.39L499.32 67.39ZM539.21 63.65Q543.74 64.37 546.26 65.05Q548.78 65.74 550.69 67.46Q552.60 69.19 552.60 72.36L552.60 72.36Q552.60 76.03 550.12 79.38Q547.63 82.73 543.46 84.78Q539.28 86.83 534.46 86.83L534.46 86.83Q529.20 86.83 525.89 84.49Q522.58 82.15 522.58 78.41L522.58 78.41Q522.58 75.82 524.34 73.15Q526.10 70.49 530.35 67.54L530.35 67.54Q525.67 66.17 525.67 62.42L525.67 62.42Q525.67 60.55 527.08 58.64Q528.48 56.74 531.14 55.15L531.14 55.15Q528.19 54.07 526.54 51.88Q524.88 49.68 524.88 47.09L524.88 47.09Q524.88 44.35 526.64 42.34Q528.41 40.32 531.14 39.28Q533.88 38.23 536.83 38.23L536.83 38.23Q541.58 38.23 544.61 40.54L544.61 40.54Q546.55 39.31 548.42 38.70Q550.30 38.09 552.46 38.09L552.46 38.09Q552.96 38.09 552.96 39.96L552.96 39.96Q552.96 40.97 552.71 42.05Q552.46 43.13 552.17 42.91L552.17 42.91Q549.14 41.76 546.98 41.76L546.98 41.76Q546.34 41.76 545.98 41.83L545.98 41.83Q547.92 43.99 547.92 46.87L547.92 46.87Q547.92 49.46 546.23 51.52Q544.54 53.57 541.80 54.72Q539.06 55.87 535.97 55.87L535.97 55.87Q533.95 55.87 532.30 55.44L532.30 55.44Q530.42 56.88 530.42 58.90L530.42 58.90Q530.42 61.13 532.58 62.03Q534.74 62.93 539.21 63.65L539.21 63.65ZM534.67 39.53Q532.94 39.53 531.97 41.00Q531.00 42.48 531.00 45.29L531.00 45.29Q531.00 49.18 532.94 51.91Q534.89 54.65 537.77 54.65L537.77 54.65Q539.42 54.65 540.58 53.14Q541.73 51.62 541.73 48.46L541.73 48.46Q541.73 44.64 539.64 42.08Q537.55 39.53 534.67 39.53L534.67 39.53ZM537.98 84.60Q542.23 84.60 544.79 82.22Q547.34 79.85 547.34 76.10L547.34 76.10Q547.34 73.37 545.72 71.86Q544.10 70.34 541.76 69.73Q539.42 69.12 535.54 68.62L535.54 68.62Q534.96 68.54 533.84 68.36Q532.73 68.18 531.94 67.97L531.94 67.97Q530.42 69.34 529.60 71.03Q528.77 72.72 528.77 75.31L528.77 75.31Q528.77 79.70 531.29 82.15Q533.81 84.60 537.98 84.60L537.98 84.60Z"/></svg>