<svg xmlns="http://www.w3.org/2000/svg" xmlns:xlink="http://www.w3.org/1999/xlink" width="484.4160000000001" height="87.19200000000001"><path fill="#111111" d="M40.39 65.66Q40.68 65.66 40.68 66.10Q40.68 66.53 40.39 66.53L40.39 66.53Q39.31 66.53 37.15 66.38L37.15 66.38Q34.70 66.24 33.26 66.24L33.26 66.24Q31.90 66.24 29.59 66.38L29.59 66.38Q27.43 66.53 26.42 66.53L26.42 66.53Q26.21 66.53 26.21 66.10Q26.21 65.66 26.42 65.66L26.42 65.66Q29.30 65.66 30.35 64.98Q31.39 64.30 31.39 62.42L31.39 62.42Q31.39 61.92 31.25 60.48L31.25 60.48L28.51 42.12L17.42 42.12L9.29 56.95Q6.91 61.20 6.91 63.22L6.91 63.22Q6.91 64.66 8.03 65.16Q9.14 65.66 11.38 65.66L11.38 65.66Q11.66 65.66 11.63 66.10Q11.59 66.53 11.30 66.53L11.30 66.53Q10.51 66.53 8.21 66.38L8.21 66.38Q5.62 66.24 4.18 66.24L4.18 66.24Q2.66 66.24 0.65 66.38L0.65 66.38Q-1.37 66.53-2.45 66.53L-2.45 66.53Q-2.74 66.53-2.74 66.10Q-2.74 65.66-2.45 65.66L-2.45 65.66Q2.30 65.66 6.77 57.89L6.77 57.89L27.50 20.81Q27.65 20.59 28.01 20.59L28.01 20.59Q28.66 20.59 28.80 20.95L28.80 20.95L34.78 60.48Q35.06 62.64 35.53 63.68Q36.00 64.73 37.08 65.20Q38.16 65.66 40.39 65.66L40.39 65.66ZM26.14 26.28L18.14 40.75L28.30 40.75L26.14 26.28ZM72.50 60.98Q72.58 60.91 72.72 60.91L72.72 60.91Q72.94 60.91 73.08 61.16Q73.22 61.42 73.08 61.56L73.08 61.56Q70.56 64.44 68.65 65.81Q66.74 67.18 65.02 67.18L65.02 67.18Q63.86 67.18 63.36 66.49Q62.86 65.81 62.86 64.22L62.86 64.22Q62.86 62.71 63.29 60.12L63.29 60.12L64.66 52.13Q61.27 59.04 56.99 63.25Q52.70 67.46 48.89 67.46L48.89 67.46Q44.57 67.46 44.57 62.14L44.57 62.14Q44.57 61.56 44.71 59.98L44.71 59.98Q45.43 54.86 48.49 49.68Q51.55 44.50 55.66 41.15Q59.76 37.80 63.43 37.80L63.43 37.80Q64.80 37.80 66.02 38.30Q67.25 38.81 68.04 39.82L68.04 39.82Q69.41 38.59 69.62 37.22L69.62 37.22Q69.70 37.01 70.13 37.08Q70.56 37.15 70.49 37.30L70.49 37.30L66.31 60.12Q66.10 61.27 66.10 62.14L66.10 62.14Q66.10 64.51 67.46 64.51L67.46 64.51Q69.12 64.51 72.50 60.98L72.50 60.98ZM50.98 64.37Q53.64 64.37 56.74 61.63Q59.83 58.90 62.32 54.61Q64.80 50.33 65.66 46.15L65.66 46.15Q65.81 45.58 65.81 44.57L65.81 44.57Q65.81 42.55 64.66 41.33Q63.50 40.10 61.34 40.10L61.34 40.10Q58.68 40.10 55.87 42.41Q53.06 44.71 50.94 48.67Q48.82 52.63 48.10 57.38L48.10 57.38Q47.88 58.90 47.88 60.12L47.88 60.12Q47.88 64.37 50.98 64.37L50.98 64.37ZM97.63 41.11Q102.31 41.40 105.01 44.14Q107.71 46.87 107.71 51.05L107.71 51.05Q107.71 52.20 107.50 53.50L107.50 53.50Q106.85 57.10 104.58 60.16Q102.31 63.22 98.96 65.02Q95.62 66.82 91.94 66.82L91.94 66.82Q89.71 66.82 87.19 66.60L87.19 66.60Q86.33 66.53 85.10 66.46Q83.88 66.38 82.37 66.38L82.37 66.38L77.98 66.46Q76.82 66.53 74.88 66.53L74.88 66.53Q74.66 66.53 74.66 66.10Q74.66 65.66 74.88 65.66L74.88 65.66Q77.40 65.66 78.73 65.27Q80.06 64.87 80.71 63.83Q81.36 62.78 81.72 60.62L81.72 60.62L87.62 27.29Q87.84 25.99 87.84 25.20L87.84 25.20Q87.84 23.47 86.76 22.93Q85.68 22.39 82.73 22.39L82.73 22.39Q82.44 22.39 82.44 21.96Q82.44 21.53 82.73 21.53L82.73 21.53L85.97 21.60Q88.70 21.74 90.14 21.74L90.14 21.74Q91.44 21.74 92.56 21.67Q93.67 21.60 94.39 21.53L94.39 21.53Q96.34 21.31 97.78 21.31L97.78 21.31Q102.82 21.31 105.26 23.36Q107.71 25.42 107.71 28.80L107.71 28.80Q107.71 29.59 107.42 31.18L107.42 31.18Q106.63 34.70 104.11 37.22Q101.59 39.74 97.63 41.11L97.63 41.11ZM90.94 27.65L88.56 41.18L91.51 41.26Q96.98 41.26 100.08 38.48Q103.18 35.71 103.97 31.18L103.97 31.18Q104.18 29.95 104.18 28.87L104.18 28.87Q104.18 25.85 102.31 24.05Q100.44 22.25 96.26 22.25L96.26 22.25Q94.39 22.25 93.49 22.54Q92.59 22.82 91.98 23.98Q91.37 25.13 90.94 27.65L90.94 27.65ZM103.46 54.72Q103.68 53.28 103.68 52.13L103.68 52.13Q103.68 47.74 101.09 45.22Q98.50 42.70 93.67 42.62L93.67 42.62Q91.15 42.55 88.27 42.77L88.27 42.77L85.10 60.77Q84.89 61.70 84.89 62.50L84.89 62.50Q84.89 64.30 86.22 64.98Q87.55 65.66 91.08 65.66L91.08 65.66Q96.41 65.66 99.54 62.68Q102.67 59.69 103.46 54.72L103.46 54.72ZM134.86 37.80Q137.59 37.80 139.18 39.82Q140.76 41.83 140.76 45.22L140.76 45.22Q140.76 46.51 140.40 48.46L140.40 48.46Q139.25 54.36 136.04 58.68Q132.84 63.00 128.88 65.23Q124.92 67.46 121.46 67.46L121.46 67.46Q118.37 67.46 116.46 66.06Q114.55 64.66 114.55 62.28L114.55 62.28Q114.55 61.99 114.70 61.13L114.70 61.13L122.26 21.38Q122.40 20.52 122.40 20.16L122.40 20.16Q122.40 18.29 120.74 18.29L120.74 18.29Q119.38 18.29 117.07 19.44L117.07 19.44L116.93 19.44Q116.64 19.44 116.57 19.08Q116.50 18.72 116.78 18.65L116.78 18.65L125.57 14.33L125.71 14.33Q126.00 14.33 126.22 14.54Q126.43 14.76 126.36 14.90L126.36 14.90L119.66 51.48Q122.11 45.50 126.29 41.65Q130.46 37.80 134.86 37.80L134.86 37.80ZM136.37 50.69Q136.80 48.53 136.80 46.73L136.80 46.73Q136.80 43.92 135.68 42.30Q134.57 40.68 132.19 40.68L132.19 40.68Q129.10 40.68 126.29 43.06Q123.48 45.43 121.36 49.72Q119.23 54 118.15 59.62L118.15 59.62Q118.08 59.98 118.08 60.55L118.08 60.55Q118.08 62.86 119.84 64.26Q121.61 65.66 124.49 65.66L124.49 65.66Q126.94 65.66 129.35 63.86Q131.76 62.06 133.63 58.68Q135.50 55.30 136.37 50.69L136.37 50.69ZM164.74 67.46Q155.30 67.46 150.84 62.17Q146.38 56.88 146.38 48.96L146.38 48.96Q146.38 46.73 146.88 43.56L146.88 43.56Q148.03 37.01 152.06 31.79Q156.10 26.57 161.75 23.65Q167.40 20.74 173.16 20.74L173.16 20.74Q176.18 20.74 179.03 21.46Q181.87 22.18 183.53 23.40L183.53 23.40Q183.96 23.76 184.07 24.05Q184.18 24.34 184.10 25.13L184.10 25.13L183.53 32.69Q183.46 32.98 183.10 32.98Q182.74 32.98 182.74 32.69L182.74 32.69Q182.38 27.14 179.21 24.70Q176.04 22.25 170.50 22.25L170.50 22.25Q165.74 22.25 161.71 24.66Q157.68 27.07 154.98 31.46Q152.28 35.86 151.27 41.62L151.27 41.62Q150.70 44.93 150.70 47.59L150.70 47.59Q150.70 53.06 152.50 57.38Q154.30 61.70 157.57 64.15Q160.85 66.60 165.17 66.60L165.17 66.60Q169.49 66.60 173.41 63.86Q177.34 61.13 180.14 55.80L180.14 55.80Q180.29 55.66 180.36 55.66L180.36 55.66Q180.58 55.66 180.76 55.80Q180.94 55.94 180.86 56.09L180.86 56.09L178.70 63.72Q178.42 64.66 178.24 64.94Q178.06 65.23 177.41 65.45L177.41 65.45Q171.07 67.46 164.74 67.46L164.74 67.46ZM195.34 67.46Q190.80 67.46 188.53 64.22Q186.26 60.98 186.26 56.30L186.26 56.30Q186.26 54 186.70 51.98L186.70 51.98Q187.63 47.59 190.04 44.39Q192.46 41.18 195.62 39.49Q198.79 37.80 201.96 37.80L201.96 37.80Q204.62 37.80 206.42 38.99Q208.22 40.18 208.01 41.90L208.01 41.90Q207.94 42.77 207.43 43.38Q206.93 43.99 205.99 43.99L205.99 43.99Q204.41 43.99 203.62 41.90L203.62 41.90Q203.33 40.90 202.32 40.07Q201.31 39.24 199.58 39.24L199.58 39.24Q195.91 39.24 193.64 42.19Q191.38 45.14 190.51 49.82L190.51 49.82Q190.01 52.70 190.01 54.58L190.01 54.58Q190.01 59.26 192.02 62.24Q194.04 65.23 198 65.23L198 65.23Q200.38 65.23 202.18 64.30Q203.98 63.36 205.99 61.70L205.99 61.70L206.14 61.63Q206.35 61.63 206.53 61.92Q206.71 62.21 206.57 62.35L206.57 62.35Q200.74 67.46 195.34 67.46L195.34 67.46ZM225.65 66.82Q223.85 66.82 221.69 66.60L221.69 66.60Q220.82 66.53 219.60 66.46Q218.38 66.38 216.86 66.38L216.86 66.38L212.54 66.46Q211.54 66.53 209.74 66.53L209.74 66.53Q209.52 66.53 209.52 66.10Q209.52 65.66 209.74 65.66L209.74 65.66Q212.11 65.66 213.30 65.30Q214.49 64.94 215.10 63.90Q215.71 62.86 216.07 60.70L216.07 60.70L221.98 27.36Q222.26 25.49 222.26 25.06L222.26 25.06Q222.26 23.47 221.22 22.93Q220.18 22.39 217.44 22.39L217.44 22.39Q217.30 22.39 217.30 21.96Q217.30 21.53 217.44 21.53L217.44 21.53L220.39 21.60Q223.13 21.74 224.71 21.74L224.71 21.74Q226.94 21.74 229.18 21.53L229.18 21.53Q231.91 21.38 232.78 21.38L232.78 21.38Q238.46 21.38 242.68 23.65Q246.89 25.92 249.12 29.92Q251.35 33.91 251.35 39.02L251.35 39.02Q251.35 41.47 250.99 43.27L250.99 43.27Q249.77 50.26 245.92 55.62Q242.06 60.98 236.70 63.90Q231.34 66.82 225.65 66.82L225.65 66.82ZM225.22 65.88Q230.33 65.88 234.76 63.43Q239.18 60.98 242.24 56.23Q245.30 51.48 246.53 44.86L246.53 44.86Q247.03 42.05 247.03 39.10L247.03 39.10Q247.03 31.61 243.40 26.96Q239.76 22.32 233.21 22.32L233.21 22.32Q230.47 22.32 229.00 22.68Q227.52 23.04 226.66 24.16Q225.79 25.27 225.36 27.50L225.36 27.50L219.67 59.90Q219.38 61.63 219.38 62.14L219.38 62.14Q219.38 64.08 220.68 64.98Q221.98 65.88 225.22 65.88L225.22 65.88ZM284.90 14.90L276.48 60.12Q276.26 61.27 276.26 62.14L276.26 62.14Q276.26 64.51 277.78 64.51L277.78 64.51Q279.22 64.51 282.74 60.98L282.74 60.98Q282.89 60.84 282.96 60.84L282.96 60.84Q283.18 60.84 283.36 61.09Q283.54 61.34 283.32 61.56L283.32 61.56Q280.73 64.44 278.86 65.81Q276.98 67.18 275.26 67.18L275.26 67.18Q274.03 67.18 273.49 66.49Q272.95 65.81 272.95 64.22L272.95 64.22Q272.95 62.57 273.46 60.12L273.46 60.12L274.90 52.56Q271.58 59.54 267.84 63.50Q264.10 67.46 260.06 67.46L260.06 67.46Q257.54 67.46 255.92 65.77Q254.30 64.08 254.30 60.48L254.30 60.48Q254.30 58.90 254.59 57.46L254.59 57.46Q255.53 52.20 258.48 47.70Q261.43 43.20 265.54 40.50Q269.64 37.80 273.82 37.80L273.82 37.80Q275.90 37.80 277.49 38.95L277.49 38.95L280.80 21.38Q280.94 20.52 280.94 20.16L280.94 20.16Q280.94 18.29 279.29 18.29L279.29 18.29Q277.92 18.29 275.62 19.44L275.62 19.44L275.47 19.44Q275.26 19.44 275.15 19.08Q275.04 18.72 275.33 18.65L275.33 18.65L284.18 14.33L284.33 14.33Q284.54 14.33 284.76 14.54Q284.98 14.76 284.90 14.90L284.90 14.90ZM262.08 64.37Q265.39 64.37 268.67 60.66Q271.94 56.95 274.07 52.09Q276.19 47.23 276.19 44.50L276.19 44.50Q276.19 42.41 275.04 41.26Q273.89 40.10 271.80 40.10L271.80 40.10Q266.76 40.10 262.98 43.96Q259.20 47.81 257.98 54.79L257.98 54.79Q257.69 56.45 257.69 58.10L257.69 58.10Q257.69 61.20 258.84 62.78Q259.99 64.37 262.08 64.37L262.08 64.37ZM320.69 21.53Q321.26 21.53 321.12 22.18L321.12 22.18L320.47 26.42Q320.26 27.50 320.11 28.69Q319.97 29.88 319.75 30.96L319.75 30.96Q319.68 31.25 319.25 31.18Q318.82 31.10 318.89 30.89L318.89 30.89Q319.10 29.59 319.10 28.44L319.10 28.44Q319.10 25.70 317.88 24.12Q316.66 22.54 314.42 22.54L314.42 22.54L307.30 22.54Q304.92 22.54 303.80 22.90Q302.69 23.26 302.11 24.26Q301.54 25.27 301.18 27.43L301.18 27.43L298.51 42.41L309.17 42.41Q311.90 42.41 313.13 41.33Q314.35 40.25 314.78 37.44L314.78 37.44Q314.78 37.22 315.22 37.22L315.22 37.22Q315.36 37.22 315.54 37.33Q315.72 37.44 315.65 37.58L315.65 37.58Q315.29 39.74 315.07 40.61L315.07 40.61L314.64 43.13L314.21 45.94L313.63 49.68Q313.56 49.97 313.13 49.93Q312.70 49.90 312.77 49.61L312.77 49.61Q313.06 47.74 313.06 47.23L313.06 47.23Q313.06 45.36 312.05 44.57Q311.04 43.78 308.66 43.78L308.66 43.78L298.30 43.78L295.34 60.41Q295.13 61.70 295.13 62.57L295.13 62.57Q295.13 64.15 296.10 64.69Q297.07 65.23 299.81 65.23L299.81 65.23L309.24 65.23Q311.62 65.23 313.78 62.64Q315.94 60.05 317.16 55.94L317.16 55.94Q317.23 55.73 317.63 55.80Q318.02 55.87 317.95 56.09L317.95 56.09Q316.73 59.98 315.79 65.45L315.79 65.45Q315.65 66.02 315.40 66.28Q315.14 66.53 314.64 66.53L314.64 66.53L285.55 66.53Q285.41 66.53 285.41 66.10Q285.41 65.66 285.55 65.66L285.55 65.66Q288.00 65.66 289.15 65.30Q290.30 64.94 290.88 63.94Q291.46 62.93 291.89 60.70L291.89 60.70L297.79 27.36Q298.01 26.06 298.01 25.13L298.01 25.13Q298.01 23.47 297.00 22.93Q295.99 22.39 293.26 22.39L293.26 22.39Q293.04 22.39 293.04 21.96Q293.04 21.53 293.26 21.53L293.26 21.53L320.69 21.53ZM344.45 40.90Q344.45 43.13 342.07 45.18Q339.70 47.23 335.74 48.78Q331.78 50.33 327.24 51.05L327.24 51.05Q326.88 52.85 326.88 55.08L326.88 55.08Q326.88 59.69 328.90 62.39Q330.91 65.09 334.66 65.09L334.66 65.09Q338.83 65.09 342.07 62.71L342.07 62.71L342.22 62.71Q342.43 62.71 342.61 62.93Q342.79 63.14 342.58 63.36L342.58 63.36Q337.46 67.39 332.28 67.39L332.28 67.39Q327.82 67.39 325.51 64.51Q323.21 61.63 323.21 57.02L323.21 57.02Q323.21 55.37 323.57 53.21L323.57 53.21Q324.22 49.61 326.59 46.01Q328.97 42.41 332.46 40.10Q335.95 37.80 339.77 37.80L339.77 37.80Q342.00 37.80 343.22 38.63Q344.45 39.46 344.45 40.90L344.45 40.90ZM336.67 39.74Q333.07 39.74 330.73 42.62Q328.39 45.50 327.46 50.04L327.46 50.04Q332.78 49.18 336.17 47.45Q339.55 45.72 340.20 43.20L340.20 43.20Q340.34 42.84 340.34 42.19L340.34 42.19Q340.34 40.90 339.26 40.32Q338.18 39.74 336.67 39.74L336.67 39.74ZM387.50 65.66Q387.79 65.66 387.79 66.10Q387.79 66.53 387.50 66.53L387.50 66.53L380.52 66.53Q378.79 66.53 375.23 60.23Q371.66 53.93 367.13 42.91L367.13 42.91Q365.04 43.63 362.66 43.63L362.66 43.63Q361.58 43.63 360.00 43.49L360.00 43.49L356.90 60.70Q356.62 62.06 356.62 63.14L356.62 63.14Q356.62 64.66 357.62 65.16Q358.63 65.66 361.58 65.66L361.58 65.66Q361.87 65.66 361.87 66.10Q361.87 66.53 361.66 66.53L361.66 66.53Q359.64 66.53 358.56 66.46L358.56 66.46L354.17 66.38L349.85 66.46Q348.62 66.53 346.61 66.53L346.61 66.53Q346.32 66.53 346.32 66.10Q346.32 65.66 346.61 65.66L346.61 65.66Q349.13 65.66 350.46 65.27Q351.79 64.87 352.44 63.86Q353.09 62.86 353.52 60.70L353.52 60.70L359.42 27.36Q359.71 25.49 359.71 25.13L359.71 25.13Q359.71 23.47 358.63 22.93Q357.55 22.39 354.60 22.39L354.60 22.39Q354.31 22.39 354.31 21.96Q354.31 21.53 354.60 21.53L354.60 21.53L357.70 21.60Q360.43 21.74 362.02 21.74L362.02 21.74Q363.17 21.74 364.21 21.67Q365.26 21.60 366.05 21.53L366.05 21.53Q368.06 21.31 369.72 21.31L369.72 21.31Q374.11 21.31 376.45 23.11Q378.79 24.91 378.79 28.22L378.79 28.22Q378.79 32.26 376.34 35.93Q373.90 39.60 370.01 41.69L370.01 41.69Q374.11 50.98 376.96 56.05Q379.80 61.13 382.28 63.40Q384.77 65.66 387.50 65.66L387.50 65.66ZM360.29 41.76Q362.59 42.05 364.03 42.05L364.03 42.05Q368.78 42.05 371.23 39.85Q373.68 37.66 374.54 32.76L374.54 32.76Q374.90 30.74 374.90 29.38L374.90 29.38Q374.90 25.70 373.07 23.98Q371.23 22.25 367.99 22.25L367.99 22.25Q366.12 22.25 365.26 22.54Q364.39 22.82 363.82 23.90Q363.24 24.98 362.81 27.50L362.81 27.50L360.29 41.76ZM408.38 38.09Q409.82 38.09 411.05 39.24Q412.27 40.39 411.98 41.83L411.98 41.83Q411.55 43.56 409.90 43.56L409.90 43.56Q409.10 43.56 408.67 43.20Q408.24 42.84 407.81 42.12L407.81 42.12Q407.59 41.76 407.27 41.44Q406.94 41.11 406.51 41.11L406.51 41.11Q404.86 41.11 402.59 45.36Q400.32 49.61 398.27 55.58Q396.22 61.56 395.28 66.10L395.28 66.10Q395.21 66.53 394.74 66.82Q394.27 67.10 393.48 67.10L393.48 67.10Q392.54 67.10 392.29 67.00Q392.04 66.89 392.04 66.67L392.04 66.67L392.40 65.02L393.12 61.20L395.35 48.60Q395.86 46.08 395.86 44.28L395.86 44.28Q395.86 40.75 393.98 40.75L393.98 40.75Q392.33 40.75 389.59 43.34L389.59 43.34L389.45 43.42Q389.30 43.42 389.12 43.16Q388.94 42.91 389.02 42.77L389.02 42.77Q393.12 38.09 396.50 38.09L396.50 38.09Q397.80 38.09 398.48 39.02Q399.17 39.96 399.17 42.26L399.17 42.26Q399.17 44.71 398.45 48.60L398.45 48.60L396.94 56.81Q399.46 49.10 402.55 43.60Q405.65 38.09 408.38 38.09L408.38 38.09ZM435.67 67.39Q429.55 67.39 425.27 65.09Q420.98 62.78 418.75 58.72Q416.52 54.65 416.52 49.32L416.52 49.32Q416.52 46.94 416.95 44.35L416.95 44.35Q418.18 37.51 422.35 32.15Q426.53 26.78 432.61 23.76Q438.70 20.74 445.61 20.74L445.61 20.74Q448.56 20.74 451.12 21.46Q453.67 22.18 455.18 23.47L455.18 23.47Q455.62 23.90 455.62 24.41L455.62 24.41L455.54 25.13L454.97 32.69Q454.90 32.98 454.50 32.98Q454.10 32.98 454.10 32.69L454.10 32.69Q453.89 27.58 450.97 24.91Q448.06 22.25 442.80 22.25L442.80 22.25Q434.38 22.25 428.76 27.50Q423.14 32.76 421.42 41.76L421.42 41.76Q420.84 45.07 420.84 47.74L420.84 47.74Q420.84 53.28 422.89 57.46Q424.94 61.63 428.69 63.90Q432.43 66.17 437.40 66.17L437.40 66.17Q440.71 66.17 442.58 65.52Q444.46 64.87 445.61 63.00Q446.76 61.13 447.34 57.46L447.34 57.46Q447.91 54.36 447.91 52.92L447.91 52.92Q447.91 51.55 447.37 50.87Q446.83 50.18 445.54 49.97Q444.24 49.75 441.72 49.75L441.72 49.75Q441.58 49.75 441.47 49.57Q441.36 49.39 441.36 49.18L441.36 49.18Q441.36 48.96 441.47 48.78Q441.58 48.60 441.72 48.60L441.72 48.60Q446.26 48.96 449.21 48.96L449.21 48.96Q452.02 48.96 455.11 48.74L455.11 48.74Q455.40 48.74 455.40 49.25Q455.40 49.75 455.11 49.75L455.11 49.75Q453.53 49.68 452.77 50.22Q452.02 50.76 451.51 52.42Q451.01 54.07 450.29 58.18L450.29 58.18Q449.78 61.34 449.75 62.64Q449.71 63.94 449.64 64.51L449.64 64.51Q449.57 64.94 449.42 65.05Q449.28 65.16 448.78 65.38L448.78 65.38Q441.36 67.39 435.67 67.39L435.67 67.39ZM484.78 38.23Q485.14 38.23 485.14 39.02L485.14 39.02Q485.14 39.82 484.81 40.68Q484.49 41.54 484.20 41.40L484.20 41.40Q482.69 40.75 480.74 40.75L480.74 40.75Q480.10 40.75 478.66 40.90L478.66 40.90Q480.17 42.84 480.17 45.94L480.17 45.94Q480.17 47.16 479.81 48.82L479.81 48.82Q479.16 51.91 477.36 54.36Q475.56 56.81 473.08 58.14Q470.59 59.47 468.07 59.47L468.07 59.47Q467.14 59.47 466.27 59.26L466.27 59.26Q465.12 60.48 465.05 61.85L465.05 61.85Q464.83 63.72 466.49 65.09Q468.14 66.46 471.60 68.18L471.60 68.18Q475.63 70.27 477.72 72.04Q479.81 73.80 479.81 76.46L479.81 76.46Q479.81 79.06 477.79 81.43Q475.78 83.81 472.32 85.28Q468.86 86.76 464.90 86.76L464.90 86.76Q459.94 86.76 457.06 84.64Q454.18 82.51 454.18 79.42L454.18 79.42Q454.18 76.25 456.80 73.84Q459.43 71.42 464.69 68.40L464.69 68.40Q462.10 66.53 462.10 64.37L462.10 64.37Q462.10 63.86 462.17 63.58L462.17 63.58Q462.46 62.42 463.18 61.34Q463.90 60.26 465.26 58.97L465.26 58.97Q463.18 58.18 462.02 56.23Q460.87 54.29 460.87 51.70L460.87 51.70Q460.87 50.47 461.23 48.82L461.23 48.82Q462.10 44.28 465.48 41.29Q468.86 38.30 473.11 38.30L473.11 38.30Q475.99 38.30 477.86 39.96L477.86 39.96Q481.54 38.23 484.78 38.23L484.78 38.23ZM476.57 51.12Q476.78 49.82 476.78 48.38L476.78 48.38Q476.78 44.78 475.38 42.16Q473.98 39.53 471.31 39.53L471.31 39.53Q469.01 39.53 467.03 41.58Q465.05 43.63 464.54 46.66L464.54 46.66Q464.26 47.88 464.26 49.46L464.26 49.46Q464.26 52.99 465.73 55.58Q467.21 58.18 469.87 58.18L469.87 58.18Q472.18 58.18 474.05 56.27Q475.92 54.36 476.57 51.12L476.57 51.12ZM476.93 78.91Q476.93 76.39 474.91 74.70Q472.90 73.01 469.08 70.99L469.08 70.99Q466.92 69.91 465.41 68.90L465.41 68.90Q462.82 70.34 461.30 71.39Q459.79 72.43 458.71 73.98Q457.63 75.53 457.63 77.54L457.63 77.54Q457.63 80.71 460.58 82.76Q463.54 84.82 468.29 84.82L468.29 84.82Q472.32 84.82 474.62 83.16Q476.93 81.50 476.93 78.91L476.93 78.91Z"/></svg>