<svg xmlns="http://www.w3.org/2000/svg" xmlns:xlink="http://www.w3.org/1999/xlink" width="496.51200000000006" height="87.19200000000001"><path fill="#111111" d="M41.04 65.66Q41.33 65.66 41.33 66.10Q41.33 66.53 41.04 66.53L41.04 66.53Q39.96 66.53 37.51 66.38L37.51 66.38Q34.92 66.24 33.26 66.24L33.26 66.24Q31.68 66.24 29.23 66.38L29.23 66.38Q26.93 66.53 25.85 66.53L25.85 66.53Q25.56 66.53 25.56 66.10Q25.56 65.66 25.85 65.66L25.85 65.66Q28.15 65.66 29.16 65.02Q30.17 64.37 30.17 62.71L30.17 62.71Q30.17 62.21 29.88 60.48L29.88 60.48L26.86 44.42L16.34 44.42L9.36 57.17Q7.34 60.70 7.34 62.64L7.34 62.64Q7.34 64.30 8.64 64.98Q9.94 65.66 12.60 65.66L12.60 65.66Q12.89 65.66 12.85 66.10Q12.82 66.53 12.53 66.53L12.53 66.53Q11.59 66.53 9.00 66.38L9.00 66.38Q5.83 66.24 4.18 66.24L4.18 66.24Q2.66 66.24 0.65 66.38L0.65 66.38Q-1.37 66.53-2.45 66.53L-2.45 66.53Q-2.74 66.53-2.74 66.10Q-2.74 65.66-2.45 65.66L-2.45 65.66Q-0.43 65.66 2.20 63.50Q4.82 61.34 7.27 57.02L7.27 57.02L27.50 20.88Q27.65 20.66 28.08 20.66L28.08 20.66Q28.30 20.66 28.51 20.74Q28.73 20.81 28.80 20.95L28.80 20.95L36.14 60.48Q36.58 62.78 36.94 63.76Q37.30 64.73 38.20 65.20Q39.10 65.66 41.04 65.66L41.04 65.66ZM24.19 30.17L17.35 42.62L26.57 42.62L24.19 30.17ZM73.15 60.98Q73.22 60.91 73.37 60.91L73.37 60.91Q73.58 60.91 73.73 61.16Q73.87 61.42 73.73 61.56L73.73 61.56Q71.35 64.37 69.41 65.77Q67.46 67.18 65.66 67.18L65.66 67.18Q64.01 67.18 63.22 66.20Q62.42 65.23 62.42 63.14L62.42 63.14Q62.42 61.63 62.71 60.12L62.71 60.12L63.72 54.36Q60.84 60.41 56.92 63.94Q52.99 67.46 49.32 67.46L49.32 67.46Q47.09 67.46 45.86 66.13Q44.64 64.80 44.64 62.06L44.64 62.06Q44.64 57.10 47.77 51.37Q50.90 45.65 55.55 41.72Q60.19 37.80 64.37 37.80L64.37 37.80Q65.74 37.80 67.07 38.27Q68.40 38.74 69.34 39.67L69.34 39.67Q70.78 38.45 71.42 37.22L71.42 37.22Q71.57 37.08 71.71 37.08L71.71 37.08Q71.93 37.08 72.14 37.19Q72.36 37.30 72.29 37.37L72.29 37.37L68.11 60.12Q67.90 61.20 67.90 61.92L67.90 61.92Q67.90 62.78 68.18 63.29Q68.47 63.79 68.98 63.79L68.98 63.79Q70.34 63.79 73.15 60.98L73.15 60.98ZM53.28 62.78Q55.87 62.78 58.64 59.83Q61.42 56.88 63.29 52.78Q65.16 48.67 65.16 45.72L65.16 45.72Q65.16 43.49 64.08 42.23Q63.00 40.97 60.98 40.97L60.98 40.97Q58.68 40.97 56.52 42.80Q54.36 44.64 52.81 47.84Q51.26 51.05 50.62 55.01L50.62 55.01Q50.33 56.74 50.33 58.32L50.33 58.32Q50.33 62.78 53.28 62.78L53.28 62.78ZM101.09 41.26Q106.06 41.90 108.86 44.64Q111.67 47.38 111.67 51.41L111.67 51.41Q111.67 52.56 111.46 53.78L111.46 53.78Q110.74 57.38 108.18 60.37Q105.62 63.36 101.77 65.09Q97.92 66.82 93.60 66.82L93.60 66.82Q91.58 66.82 89.21 66.60L89.21 66.60Q88.27 66.53 87.01 66.46Q85.75 66.38 84.24 66.38L84.24 66.38L79.49 66.46Q78.26 66.53 76.10 66.53L76.10 66.53Q75.96 66.53 75.96 66.10Q75.96 65.66 76.10 65.66L76.10 65.66Q79.20 65.66 80.42 64.66Q81.65 63.65 82.15 60.55L82.15 60.55L88.06 27.22Q88.27 25.92 88.27 25.13L88.27 25.13Q88.27 23.47 87.37 22.93Q86.47 22.39 84.02 22.39L84.02 22.39Q83.81 22.39 83.84 21.96Q83.88 21.53 84.02 21.53L84.02 21.53L87.41 21.60Q90.29 21.74 91.94 21.74L91.94 21.74Q93.24 21.74 94.25 21.67Q95.26 21.60 95.98 21.53L95.98 21.53Q98.06 21.31 99.94 21.31L99.94 21.31Q105.70 21.31 108.76 23.36Q111.82 25.42 111.82 29.09L111.82 29.09Q111.82 30.02 111.60 31.03L111.60 31.03Q110.81 34.42 108.14 37.08Q105.48 39.74 101.09 41.26L101.09 41.26ZM94.10 27.72L91.73 41.18L94.39 41.26Q98.78 41.26 101.70 38.34Q104.62 35.42 105.55 30.89L105.55 30.89Q105.84 29.16 105.84 28.51L105.84 28.51Q105.84 25.63 104.04 24.12Q102.24 22.61 98.71 22.61L98.71 22.61Q96.62 22.61 95.62 23.69Q94.61 24.77 94.10 27.72L94.10 27.72ZM104.76 54.79Q105.12 52.85 105.12 51.48L105.12 51.48Q105.12 47.52 102.71 45.29Q100.30 43.06 95.40 43.06L95.40 43.06Q92.95 43.06 91.37 43.20L91.37 43.20L88.27 60.91Q88.06 61.99 88.06 62.78L88.06 62.78Q88.06 64.22 89.03 64.80Q90.00 65.38 92.52 65.38L92.52 65.38Q102.67 65.38 104.76 54.79L104.76 54.79ZM139.54 37.80Q142.34 37.80 143.96 39.89Q145.58 41.98 145.58 45.50L145.58 45.50Q145.58 46.44 145.30 48.46L145.30 48.46Q144.22 54.29 140.87 58.61Q137.52 62.93 133.31 65.20Q129.10 67.46 125.57 67.46L125.57 67.46Q121.97 67.46 119.88 65.95Q117.79 64.44 117.79 61.78L117.79 61.78Q117.79 61.34 117.94 60.48L117.94 60.48L124.78 23.40Q124.99 22.18 124.99 21.31L124.99 21.31Q124.99 19.30 123.55 19.30L123.55 19.30Q122.54 19.30 120.38 20.30L120.38 20.30L120.24 20.30Q119.95 20.30 119.88 19.94Q119.81 19.58 120.10 19.51L120.10 19.51L130.61 14.33L130.75 14.33Q131.04 14.33 131.29 14.54Q131.54 14.76 131.47 14.90L131.47 14.90L125.14 50.18Q127.58 44.71 131.51 41.26Q135.43 37.80 139.54 37.80L139.54 37.80ZM138.96 50.69Q139.39 48.74 139.39 47.16L139.39 47.16Q139.39 44.86 138.53 43.49Q137.66 42.12 135.86 42.12L135.86 42.12Q131.69 42.12 128.27 46.94Q124.85 51.77 123.41 59.62L123.41 59.62Q123.34 59.98 123.34 60.70L123.34 60.70Q123.34 62.86 124.74 64.19Q126.14 65.52 128.30 65.52L128.30 65.52Q130.54 65.52 132.70 63.76Q134.86 61.99 136.55 58.61Q138.24 55.22 138.96 50.69L138.96 50.69ZM169.63 67.39Q159.77 67.39 155.20 62.17Q150.62 56.95 150.62 49.10L150.62 49.10Q150.62 46.87 151.13 43.85L151.13 43.85Q152.35 36.86 156.46 31.61Q160.56 26.35 166.25 23.54Q171.94 20.74 177.98 20.74L177.98 20.74Q180.94 20.74 183.96 21.38Q186.98 22.03 188.64 22.97L188.64 22.97Q189.07 23.26 189.18 23.54Q189.29 23.83 189.22 24.62L189.22 24.62L188.21 33.77Q188.14 33.98 187.81 33.98Q187.49 33.98 187.42 33.77L187.42 33.77Q186.41 28.30 183.20 25.42Q180.00 22.54 175.10 22.54L175.10 22.54Q168.62 22.54 164.09 27.65Q159.55 32.76 158.18 41.62L158.18 41.62Q157.75 44.64 157.75 47.52L157.75 47.52Q157.75 52.78 159.23 57.02Q160.70 61.27 163.51 63.68Q166.32 66.10 170.06 66.10L170.06 66.10Q177.77 66.10 185.26 55.22L185.26 55.22Q185.33 55.08 185.54 55.08L185.54 55.08Q185.76 55.08 185.94 55.19Q186.12 55.30 186.05 55.44L186.05 55.44L184.03 63.58Q183.82 64.44 183.60 64.76Q183.38 65.09 182.74 65.23L182.74 65.23Q176.26 67.39 169.63 67.39L169.63 67.39ZM200.38 67.46Q195.48 67.46 193.14 64.19Q190.80 60.91 190.80 56.02L190.80 56.02Q190.80 54.29 191.16 51.98L191.16 51.98Q191.95 47.81 194.47 44.57Q196.99 41.33 200.38 39.56Q203.76 37.80 207.07 37.80L207.07 37.80Q209.66 37.80 211.64 38.92Q213.62 40.03 213.62 42.05L213.62 42.05Q213.62 43.56 212.80 44.46Q211.97 45.36 210.38 45.36L210.38 45.36Q207.65 45.36 207.14 42.41L207.14 42.41Q206.78 41.18 206.14 40.43Q205.49 39.67 204.12 39.67L204.12 39.67Q201.53 39.67 199.69 42.37Q197.86 45.07 197.14 49.54L197.14 49.54Q196.70 51.91 196.70 54.14L196.70 54.14Q196.70 58.75 198.61 61.52Q200.52 64.30 204.34 64.30L204.34 64.30Q205.99 64.30 207.86 63.54Q209.74 62.78 211.10 61.70L211.10 61.70L211.18 61.70Q211.39 61.70 211.61 61.92Q211.82 62.14 211.68 62.35L211.68 62.35Q208.94 64.94 206.03 66.20Q203.11 67.46 200.38 67.46L200.38 67.46ZM231.55 66.82Q229.75 66.82 227.59 66.60L227.59 66.60Q226.73 66.53 225.43 66.46Q224.14 66.38 222.48 66.38L222.48 66.38L217.87 66.46Q216.72 66.53 214.70 66.53L214.70 66.53Q214.49 66.53 214.49 66.10Q214.49 65.66 214.70 65.66L214.70 65.66Q216.79 65.66 217.84 65.30Q218.88 64.94 219.42 63.90Q219.96 62.86 220.39 60.70L220.39 60.70L226.30 27.36Q226.58 25.49 226.58 25.06L226.58 25.06Q226.58 23.47 225.68 22.93Q224.78 22.39 222.41 22.39L222.41 22.39Q222.26 22.39 222.26 21.96Q222.26 21.53 222.41 21.53L222.41 21.53L225.72 21.60Q228.60 21.74 230.33 21.74L230.33 21.74Q232.42 21.74 234.58 21.53L234.58 21.53Q237.46 21.38 238.61 21.38L238.61 21.38Q244.58 21.38 249.01 23.58Q253.44 25.78 255.85 29.77Q258.26 33.77 258.26 38.95L258.26 38.95Q258.26 40.97 257.83 43.27L257.83 43.27Q256.61 50.18 252.61 55.55Q248.62 60.91 243.00 63.86Q237.38 66.82 231.55 66.82L231.55 66.82ZM231.19 65.52Q235.87 65.52 239.90 63.11Q243.94 60.70 246.74 56.02Q249.55 51.34 250.70 44.86L250.70 44.86Q251.21 42.12 251.21 38.95L251.21 38.95Q251.21 31.82 248.00 27.25Q244.80 22.68 238.25 22.68L238.25 22.68Q235.30 22.68 234.07 23.72Q232.85 24.77 232.34 27.50L232.34 27.50L226.66 59.90Q226.44 61.06 226.44 61.99L226.44 61.99Q226.44 63.79 227.52 64.66Q228.60 65.52 231.19 65.52L231.19 65.52ZM292.75 14.90L284.62 60.12Q284.40 61.27 284.40 61.99L284.40 61.99Q284.40 63.79 285.55 63.79L285.55 63.79Q286.27 63.79 287.28 63.11Q288.29 62.42 289.73 60.98L289.73 60.98Q289.87 60.84 289.94 60.84L289.94 60.84Q290.16 60.84 290.34 61.09Q290.52 61.34 290.30 61.56L290.30 61.56Q287.78 64.44 285.91 65.81Q284.04 67.18 282.10 67.18L282.10 67.18Q278.93 67.18 278.93 63.29L278.93 63.29Q278.93 62.14 279.29 60.12L279.29 60.12L280.30 54.50Q277.27 60.62 273.82 64.04Q270.36 67.46 266.76 67.46L266.76 67.46Q264.10 67.46 262.33 65.70Q260.57 63.94 260.57 60.26L260.57 60.26Q260.57 58.97 260.78 57.46L260.78 57.46Q261.72 52.34 264.82 47.81Q267.91 43.27 272.09 40.54Q276.26 37.80 280.22 37.80L280.22 37.80Q281.81 37.80 283.32 38.38L283.32 38.38L286.13 23.40Q286.34 22.18 286.34 21.38L286.34 21.38Q286.34 20.30 285.98 19.80Q285.62 19.30 284.83 19.30L284.83 19.30Q283.82 19.30 281.66 20.30L281.66 20.30L281.52 20.30Q281.23 20.30 281.16 19.94Q281.09 19.58 281.38 19.51L281.38 19.51L291.96 14.33L292.10 14.33Q292.39 14.33 292.61 14.54Q292.82 14.76 292.75 14.90L292.75 14.90ZM269.93 62.93Q272.52 62.93 274.97 60.37Q277.42 57.82 279.22 54.22Q281.02 50.62 281.59 47.74L281.59 47.74L281.66 47.30Q281.81 46.30 281.81 45.94L281.81 45.94Q281.81 43.56 280.37 42.26Q278.93 40.97 276.62 40.97L276.62 40.97Q272.66 41.04 270.04 44.35Q267.41 47.66 266.33 53.93L266.33 53.93Q266.04 55.66 266.04 57.31L266.04 57.31Q266.04 60.12 267.05 61.52Q268.06 62.93 269.93 62.93L269.93 62.93ZM328.39 21.53Q328.97 21.53 328.82 22.18L328.82 22.18L327.31 31.61Q327.31 31.82 327.02 31.82L327.02 31.82Q326.81 31.82 326.63 31.72Q326.45 31.61 326.45 31.54L326.45 31.54Q326.45 27.58 324.25 25.24Q322.06 22.90 318.46 22.90L318.46 22.90L315.65 22.90Q313.49 22.90 312.48 23.22Q311.47 23.54 311.04 24.48Q310.61 25.42 310.25 27.43L310.25 27.43L307.66 42.19L316.44 42.19Q319.54 42.19 321.19 40.97Q322.85 39.74 323.42 36.86L323.42 36.86Q323.50 36.50 323.93 36.54Q324.36 36.58 324.29 36.94L324.29 36.94L323.64 40.61Q323.42 41.62 323.14 43.13L323.14 43.13Q322.85 44.57 322.63 46.44L322.63 46.44Q322.49 47.16 322.34 48.13Q322.20 49.10 321.98 50.33L321.98 50.33Q321.91 50.62 321.48 50.58Q321.05 50.54 321.12 50.26L321.12 50.26Q321.26 49.61 321.26 48.53L321.26 48.53Q321.26 44.06 315.94 44.06L315.94 44.06L307.30 44.06L304.42 60.41Q304.20 61.70 304.20 62.57L304.20 62.57Q304.20 64.08 305.06 64.58Q305.93 65.09 308.16 65.09L308.16 65.09L312.05 65.09Q315.72 65.09 319.25 62.42Q322.78 59.76 325.08 55.30L325.08 55.30Q325.08 55.15 325.37 55.15L325.37 55.15Q325.58 55.15 325.76 55.26Q325.94 55.37 325.87 55.44L325.87 55.44Q324.58 59.62 323.50 65.45L323.50 65.45Q323.35 66.02 323.10 66.28Q322.85 66.53 322.34 66.53L322.34 66.53L292.68 66.53Q292.46 66.53 292.46 66.10Q292.46 65.66 292.68 65.66L292.68 65.66Q294.77 65.66 295.78 65.30Q296.78 64.94 297.29 63.94Q297.79 62.93 298.22 60.70L298.22 60.70L304.13 27.36Q304.42 25.49 304.42 25.06L304.42 25.06Q304.42 23.47 303.52 22.93Q302.62 22.39 300.31 22.39L300.31 22.39Q300.17 22.39 300.17 21.96Q300.17 21.53 300.31 21.53L300.31 21.53L328.39 21.53ZM348.34 37.80Q350.93 37.80 352.37 38.70Q353.81 39.60 353.81 41.26L353.81 41.26Q353.81 44.57 348.95 47.38Q344.09 50.18 337.25 51.41L337.25 51.41Q336.96 53.71 336.96 54.79L336.96 54.79Q336.96 59.18 338.83 61.81Q340.70 64.44 344.23 64.44L344.23 64.44Q345.89 64.44 347.69 63.90Q349.49 63.36 351 62.21L351 62.21L351.07 62.21Q351.29 62.21 351.47 62.42Q351.65 62.64 351.50 62.78L351.50 62.78Q346.54 67.39 340.49 67.39L340.49 67.39Q335.74 67.39 333.29 64.44Q330.84 61.49 330.84 56.88L330.84 56.88Q330.84 55.22 331.20 53.21L331.20 53.21Q331.92 49.39 334.33 45.83Q336.74 42.26 340.45 40.03Q344.16 37.80 348.34 37.80L348.34 37.80ZM347.33 43.20Q347.47 42.48 347.47 42.26L347.47 42.26Q347.47 41.04 346.68 40.39Q345.89 39.74 344.74 39.74L344.74 39.74Q342.07 39.74 340.16 42.70Q338.26 45.65 337.39 50.33L337.39 50.33Q346.46 48.31 347.33 43.20L347.33 43.20ZM397.87 65.66Q398.16 65.66 398.16 66.10Q398.16 66.53 397.87 66.53L397.87 66.53L388.08 66.53Q386.42 66.53 383.40 60.62Q380.38 54.72 376.63 43.20L376.63 43.20Q374.26 43.70 372.38 43.70L372.38 43.70Q371.74 43.70 371.02 43.56L371.02 43.56L367.99 60.70Q367.70 62.06 367.70 63.22L367.70 63.22Q367.70 64.66 368.60 65.16Q369.50 65.66 371.95 65.66L371.95 65.66Q372.24 65.66 372.24 66.10Q372.24 66.53 372.02 66.53L372.02 66.53Q369.79 66.53 368.57 66.46L368.57 66.46L363.89 66.38L359.14 66.46Q357.91 66.53 355.75 66.53L355.75 66.53Q355.46 66.53 355.46 66.10Q355.46 65.66 355.75 65.66L355.75 65.66Q357.98 65.66 359.14 65.27Q360.29 64.87 360.86 63.86Q361.44 62.86 361.87 60.70L361.87 60.70L367.78 27.36Q368.06 25.49 368.06 24.98L368.06 24.98Q368.06 23.47 367.13 22.93Q366.19 22.39 363.74 22.39L363.74 22.39Q363.46 22.39 363.46 21.96Q363.46 21.53 363.74 21.53L363.74 21.53L367.06 21.60Q369.94 21.74 371.74 21.74L371.74 21.74Q372.89 21.74 373.93 21.67Q374.98 21.60 375.77 21.53L375.77 21.53Q377.78 21.31 379.44 21.31L379.44 21.31Q384.91 21.31 387.72 23.15Q390.53 24.98 390.53 28.37L390.53 28.37Q390.53 32.11 388.01 35.57Q385.49 39.02 381.53 41.26L381.53 41.26Q385.20 50.47 387.90 55.73Q390.60 60.98 392.98 63.32Q395.35 65.66 397.87 65.66L397.87 65.66ZM371.38 41.69Q372.46 41.90 373.75 41.90L373.75 41.90Q378.22 41.90 380.52 39.78Q382.82 37.66 383.54 32.76L383.54 32.76Q383.83 31.10 383.83 29.52L383.83 29.52Q383.83 25.99 382.36 24.34Q380.88 22.68 378.50 22.68L378.50 22.68Q376.70 22.68 375.95 22.93Q375.19 23.18 374.76 24.16Q374.33 25.13 373.90 27.50L373.90 27.50L371.38 41.69ZM419.18 38.09Q420.91 38.09 422.50 39.38Q424.08 40.68 423.79 42.34L423.79 42.34Q423.65 43.34 422.86 44.17Q422.06 45 420.91 45L420.91 45Q419.62 45 418.32 43.70L418.32 43.70Q417.89 43.34 417.46 43.06Q417.02 42.77 416.52 42.77L416.52 42.77Q415.15 42.77 413.21 46.69Q411.26 50.62 409.54 56.12Q407.81 61.63 407.09 65.81L407.09 65.81Q406.94 66.38 406.04 66.74Q405.14 67.10 403.63 67.10L403.63 67.10Q401.47 67.10 401.47 66.60L401.47 66.60L401.83 65.09Q401.98 64.51 402.19 63.54Q402.41 62.57 402.62 61.20L402.62 61.20L405.36 46.08Q405.65 44.21 405.65 43.70L405.65 43.70Q405.65 41.40 404.21 41.40L404.21 41.40Q402.62 41.40 399.96 44.21L399.96 44.21Q399.89 44.28 399.74 44.28L399.74 44.28Q399.53 44.28 399.38 44.03Q399.24 43.78 399.38 43.56L399.38 43.56Q401.90 40.68 403.88 39.38Q405.86 38.09 407.88 38.09L407.88 38.09Q409.54 38.09 410.29 39.06Q411.05 40.03 411.05 42.05L411.05 42.05Q411.05 43.27 410.69 45.43L410.69 45.43L409.25 53.64Q411.34 46.73 413.86 42.41Q416.38 38.09 419.18 38.09L419.18 38.09ZM447.05 67.39Q440.78 67.39 436.36 65.02Q431.93 62.64 429.66 58.46Q427.39 54.29 427.39 48.82L427.39 48.82Q427.39 46.37 427.82 43.78L427.82 43.78Q429.05 37.08 433.15 31.82Q437.26 26.57 443.23 23.65Q449.21 20.74 455.90 20.74L455.90 20.74Q458.93 20.74 461.84 21.35Q464.76 21.96 466.49 22.97L466.49 22.97Q466.92 23.26 466.99 23.54Q467.06 23.83 466.99 24.62L466.99 24.62L465.98 33.77Q465.91 33.98 465.55 33.98Q465.19 33.98 465.19 33.77L465.19 33.77Q464.18 28.37 461.05 25.42Q457.92 22.46 452.88 22.46L452.88 22.46Q445.90 22.46 441.18 27.47Q436.46 32.47 435.02 41.11L435.02 41.11Q434.52 44.21 434.52 47.45L434.52 47.45Q434.52 56.02 438.48 60.98Q442.44 65.95 449.28 65.95L449.28 65.95Q451.87 65.95 453.42 65.23Q454.97 64.51 455.87 62.68Q456.77 60.84 457.20 57.46L457.20 57.46Q457.63 54.86 457.63 53.35L457.63 53.35Q457.63 51.77 457.06 51.01Q456.48 50.26 455.15 50.00Q453.82 49.75 451.15 49.75L451.15 49.75Q451.01 49.75 450.90 49.57Q450.79 49.39 450.79 49.18L450.79 49.18Q450.79 48.96 450.90 48.78Q451.01 48.60 451.15 48.60L451.15 48.60Q456.34 48.96 459.65 48.96L459.65 48.96Q462.89 48.96 466.42 48.74L466.42 48.74Q466.63 48.74 466.67 49.25Q466.70 49.75 466.42 49.75L466.42 49.75Q465.26 49.68 464.76 50.22Q464.26 50.76 463.93 52.24Q463.61 53.71 462.96 58.18L462.96 58.18Q462.46 61.13 462.42 62.60Q462.38 64.08 462.24 64.51L462.24 64.51Q462.17 64.94 462.02 65.09Q461.88 65.23 461.45 65.38L461.45 65.38Q453.17 67.39 447.05 67.39L447.05 67.39ZM496.94 38.09Q497.30 38.09 497.30 39.10L497.30 39.10Q497.30 40.18 496.98 41.40Q496.66 42.62 496.37 42.41L496.37 42.41Q494.14 40.97 490.97 40.97L490.97 40.97Q492.55 42.98 492.55 46.15L492.55 46.15Q492.55 47.59 492.26 48.82L492.26 48.82Q491.62 51.98 489.71 54.40Q487.80 56.81 485.17 58.14Q482.54 59.47 479.81 59.47L479.81 59.47Q479.30 59.47 478.30 59.33L478.30 59.33Q477.65 60.41 477.65 61.49L477.65 61.49Q477.65 63.14 479.20 64.33Q480.74 65.52 483.84 67.03L483.84 67.03Q486.58 68.33 488.27 69.37Q489.96 70.42 491.15 72.04Q492.34 73.66 492.34 75.82L492.34 75.82Q492.34 78.91 490.18 81.43Q488.02 83.95 484.42 85.36Q480.82 86.76 476.64 86.76L476.64 86.76Q471.46 86.76 468.47 84.71Q465.48 82.66 465.48 79.49L465.48 79.49Q465.48 78.77 465.55 78.41L465.55 78.41Q466.13 75.82 468.61 73.58Q471.10 71.35 475.42 68.98L475.42 68.98Q472.82 67.10 472.82 65.23L472.82 65.23Q472.82 63.65 473.90 62.24Q474.98 60.84 477.14 59.11L477.14 59.11Q474.70 58.32 473.44 56.27Q472.18 54.22 472.18 51.41L472.18 51.41Q472.18 50.54 472.46 48.82L472.46 48.82Q473.33 44.28 476.86 41.29Q480.38 38.30 484.92 38.30L484.92 38.30Q487.94 38.30 489.89 39.82L489.89 39.82Q493.70 38.09 496.94 38.09L496.94 38.09ZM486.79 49.90Q486.94 48.31 486.94 47.45L486.94 47.45Q486.94 44.28 485.96 42.01Q484.99 39.74 483.12 39.74L483.12 39.74Q481.32 39.74 479.81 42.08Q478.30 44.42 477.94 47.88L477.94 47.88Q477.72 49.25 477.72 50.54L477.72 50.54Q477.72 53.78 478.84 55.87Q479.95 57.96 481.68 57.96L481.68 57.96Q483.48 57.96 484.92 55.76Q486.36 53.57 486.79 49.90L486.79 49.90ZM487.30 78.98Q487.30 76.39 485.28 74.74Q483.26 73.08 479.45 71.21L479.45 71.21Q476.93 69.91 476.28 69.55L476.28 69.55Q473.98 71.21 472.57 73.08Q471.17 74.95 471.17 77.47L471.17 77.47Q471.17 80.57 473.76 82.58Q476.35 84.60 480.24 84.60L480.24 84.60Q483.77 84.60 485.53 82.98Q487.30 81.36 487.30 78.98L487.30 78.98Z"/></svg>