<svg xmlns="http://www.w3.org/2000/svg" xmlns:xlink="http://www.w3.org/1999/xlink" width="487.7280000000001" height="87.19200000000001"><path fill="#111111" d="M40.54 65.66Q40.82 65.66 40.82 66.10Q40.82 66.53 40.54 66.53L40.54 66.53Q39.46 66.53 37.30 66.38L37.30 66.38Q34.70 66.24 33.26 66.24L33.26 66.24Q31.75 66.24 29.45 66.38L29.45 66.38Q27.29 66.53 26.28 66.53L26.28 66.53Q26.06 66.53 26.06 66.10Q26.06 65.66 26.28 65.66L26.28 65.66Q28.94 65.66 29.99 64.98Q31.03 64.30 31.03 62.50L31.03 62.50Q31.03 61.27 30.89 60.48L30.89 60.48L28.01 42.77L17.14 42.77L9.29 57.02Q7.06 61.20 7.06 63.07L7.06 63.07Q7.06 64.58 8.21 65.12Q9.36 65.66 11.74 65.66L11.74 65.66Q12.02 65.66 11.99 66.10Q11.95 66.53 11.66 66.53L11.66 66.53Q10.87 66.53 8.42 66.38L8.42 66.38Q5.69 66.24 4.18 66.24L4.18 66.24Q2.66 66.24 0.65 66.38L0.65 66.38Q-1.37 66.53-2.45 66.53L-2.45 66.53Q-2.74 66.53-2.74 66.10Q-2.74 65.66-2.45 65.66L-2.45 65.66Q-0.36 65.66 2.02 63.83Q4.39 61.99 6.91 57.67L6.91 57.67L27.50 20.81Q27.65 20.59 28.01 20.59L28.01 20.59Q28.66 20.59 28.80 20.95L28.80 20.95L35.14 60.48Q35.50 62.71 35.93 63.72Q36.36 64.73 37.40 65.20Q38.45 65.66 40.54 65.66L40.54 65.66ZM25.56 27.36L17.93 41.26L27.79 41.26L25.56 27.36ZM72.65 60.98Q72.72 60.91 72.86 60.91L72.86 60.91Q73.08 60.91 73.22 61.16Q73.37 61.42 73.22 61.56L73.22 61.56Q70.78 64.37 68.87 65.77Q66.96 67.18 65.16 67.18L65.16 67.18Q63.94 67.18 63.32 66.42Q62.71 65.66 62.71 63.94L62.71 63.94Q62.71 62.50 63.14 60.12L63.14 60.12L64.44 52.63Q61.13 59.33 56.99 63.40Q52.85 67.46 49.03 67.46L49.03 67.46Q44.57 67.46 44.57 62.14L44.57 62.14Q44.57 61.56 44.71 59.98L44.71 59.98Q45.43 54.86 48.53 49.68Q51.62 44.50 55.80 41.15Q59.98 37.80 63.65 37.80L63.65 37.80Q65.02 37.80 66.31 38.30Q67.61 38.81 68.40 39.82L68.40 39.82Q69.70 38.74 70.13 37.22L70.13 37.22Q70.20 37.01 70.63 37.08Q71.06 37.15 70.99 37.30L70.99 37.30L66.82 60.12Q66.60 61.20 66.60 62.06L66.60 62.06Q66.60 64.30 67.90 64.30L67.90 64.30Q69.48 64.30 72.65 60.98L72.65 60.98ZM51.62 63.94Q54.22 63.94 57.13 61.27Q60.05 58.61 62.35 54.54Q64.66 50.47 65.45 46.58L65.45 46.58Q65.66 45.65 65.59 44.93L65.59 44.93Q65.59 42.77 64.48 41.54Q63.36 40.32 61.13 40.32L61.13 40.32Q58.61 40.39 55.98 42.59Q53.35 44.78 51.41 48.49Q49.46 52.20 48.82 56.74L48.82 56.74Q48.60 58.32 48.60 59.62L48.60 59.62Q48.60 63.94 51.62 63.94L51.62 63.94ZM98.50 41.18Q103.32 41.62 106.06 44.32Q108.79 47.02 108.79 51.19L108.79 51.19Q108.79 52.34 108.58 53.57L108.58 53.57Q107.93 57.17 105.55 60.19Q103.18 63.22 99.72 65.02Q96.26 66.82 92.38 66.82L92.38 66.82Q90.22 66.82 87.70 66.60L87.70 66.60Q86.83 66.53 85.61 66.46Q84.38 66.38 82.87 66.38L82.87 66.38L78.34 66.46Q77.18 66.53 75.17 66.53L75.17 66.53Q74.95 66.53 74.99 66.10Q75.02 65.66 75.17 65.66L75.17 65.66Q77.62 65.66 78.88 65.27Q80.14 64.87 80.78 63.83Q81.43 62.78 81.79 60.62L81.79 60.62L87.70 27.29Q87.91 25.99 87.91 25.13L87.91 25.13Q87.91 23.47 86.90 22.93Q85.90 22.39 83.02 22.39L83.02 22.39Q82.73 22.39 82.76 21.96Q82.80 21.53 83.02 21.53L83.02 21.53L86.33 21.60Q89.06 21.74 90.58 21.74L90.58 21.74Q91.87 21.74 92.92 21.67Q93.96 21.60 94.75 21.53L94.75 21.53Q96.84 21.31 98.35 21.31L98.35 21.31Q103.61 21.31 106.20 23.36Q108.79 25.42 108.79 28.87L108.79 28.87Q108.79 29.88 108.58 31.10L108.58 31.10Q107.78 34.63 105.19 37.19Q102.60 39.74 98.50 41.18L98.50 41.18ZM91.80 27.65L89.42 41.18L92.30 41.26Q97.42 41.26 100.48 38.45Q103.54 35.64 104.33 31.10L104.33 31.10Q104.54 29.88 104.54 28.73L104.54 28.73Q104.54 25.78 102.71 24.05Q100.87 22.32 96.91 22.32L96.91 22.32Q95.18 22.32 94.28 22.68Q93.38 23.04 92.77 24.16Q92.16 25.27 91.80 27.65L91.80 27.65ZM103.75 54.72Q103.97 53.21 103.97 51.91L103.97 51.91Q103.97 47.59 101.45 45.22Q98.93 42.84 94.10 42.77L94.10 42.77Q91.94 42.70 89.06 42.91L89.06 42.91L85.97 60.84Q85.75 61.78 85.75 62.64L85.75 62.64Q85.75 64.30 86.98 64.94Q88.20 65.59 91.44 65.59L91.44 65.59Q96.70 65.59 99.79 62.64Q102.89 59.69 103.75 54.72L103.75 54.72ZM136.08 37.80Q138.89 37.80 140.47 39.85Q142.06 41.90 142.06 45.29L142.06 45.29Q142.06 46.66 141.70 48.46L141.70 48.46Q140.54 54.29 137.30 58.61Q134.06 62.93 130.03 65.20Q126.00 67.46 122.54 67.46L122.54 67.46Q119.30 67.46 117.36 66.06Q115.42 64.66 115.42 62.21L115.42 62.21Q115.42 61.85 115.56 60.98L115.56 60.98L122.90 21.96Q123.05 20.81 123.05 20.52L123.05 20.52Q123.05 18.58 121.39 18.58L121.39 18.58Q120.24 18.58 117.94 19.66L117.94 19.66L117.79 19.66Q117.50 19.66 117.43 19.30Q117.36 18.94 117.65 18.86L117.65 18.86L126.94 14.33L127.08 14.33Q127.37 14.33 127.58 14.54Q127.80 14.76 127.73 14.90L127.73 14.90L121.18 50.83Q123.70 45.07 127.73 41.44Q131.76 37.80 136.08 37.80L136.08 37.80ZM137.02 50.69Q137.45 48.60 137.45 46.80L137.45 46.80Q137.45 44.14 136.40 42.62Q135.36 41.11 133.13 41.11L133.13 41.11Q130.18 41.11 127.44 43.42Q124.70 45.72 122.65 49.93Q120.60 54.14 119.59 59.62L119.59 59.62Q119.52 59.98 119.52 60.62L119.52 60.62Q119.52 62.86 121.14 64.22Q122.76 65.59 125.50 65.59L125.50 65.59Q127.87 65.59 130.21 63.83Q132.55 62.06 134.35 58.68Q136.15 55.30 137.02 50.69L137.02 50.69ZM166.03 67.46Q156.46 67.46 151.96 62.17Q147.46 56.88 147.46 48.89L147.46 48.89Q147.46 46.66 147.96 43.63L147.96 43.63Q149.18 36.94 153.22 31.72Q157.25 26.50 162.90 23.62Q168.55 20.74 174.46 20.74L174.46 20.74Q177.48 20.74 180.36 21.42Q183.24 22.10 184.90 23.26L184.90 23.26Q185.33 23.62 185.44 23.90Q185.54 24.19 185.47 24.98L185.47 24.98L184.75 32.98Q184.68 33.26 184.32 33.26Q183.96 33.26 183.96 32.98L183.96 32.98Q183.46 27.50 180.25 24.91Q177.05 22.32 171.72 22.32L171.72 22.32Q167.11 22.32 163.22 24.70Q159.34 27.07 156.71 31.43Q154.08 35.78 153.14 41.62L153.14 41.62Q152.64 44.57 152.64 47.66L152.64 47.66Q152.64 52.99 154.33 57.28Q156.02 61.56 159.19 64.01Q162.36 66.46 166.46 66.46L166.46 66.46Q170.64 66.46 174.53 63.76Q178.42 61.06 181.51 55.66L181.51 55.66Q181.66 55.51 181.73 55.51L181.73 55.51Q181.94 55.51 182.12 55.66Q182.30 55.80 182.23 55.94L182.23 55.94L180.07 63.65Q179.86 64.58 179.64 64.87Q179.42 65.16 178.78 65.38L178.78 65.38Q172.51 67.46 166.03 67.46L166.03 67.46ZM196.70 67.46Q192.02 67.46 189.76 64.26Q187.49 61.06 187.49 56.30L187.49 56.30Q187.49 54 187.92 51.98L187.92 51.98Q188.78 47.66 191.23 44.42Q193.68 41.18 196.92 39.49Q200.16 37.80 203.33 37.80L203.33 37.80Q205.99 37.80 207.86 39.02Q209.74 40.25 209.52 42.05L209.52 42.05Q209.45 43.06 208.84 43.70Q208.22 44.35 207.14 44.35L207.14 44.35Q205.27 44.35 204.55 42.05L204.55 42.05Q204.26 41.04 203.36 40.21Q202.46 39.38 200.81 39.38L200.81 39.38Q197.42 39.38 195.30 42.26Q193.18 45.14 192.31 49.75L192.31 49.75Q191.81 52.63 191.81 54.50L191.81 54.50Q191.81 59.11 193.82 62.03Q195.84 64.94 199.73 64.94L199.73 64.94Q203.40 64.94 207.36 61.70L207.36 61.70L207.50 61.63Q207.72 61.63 207.90 61.92Q208.08 62.21 207.94 62.35L207.94 62.35Q202.18 67.46 196.70 67.46L196.70 67.46ZM227.23 66.82Q225.50 66.82 223.20 66.60L223.20 66.60Q222.41 66.53 221.18 66.46Q219.96 66.38 218.38 66.38L218.38 66.38L213.98 66.46Q212.90 66.53 211.03 66.53L211.03 66.53Q210.82 66.53 210.82 66.10Q210.82 65.66 211.03 65.66L211.03 65.66Q213.34 65.66 214.52 65.30Q215.71 64.94 216.29 63.90Q216.86 62.86 217.22 60.70L217.22 60.70L223.13 27.36Q223.42 25.49 223.42 25.06L223.42 25.06Q223.42 23.47 222.41 22.93Q221.40 22.39 218.74 22.39L218.74 22.39Q218.59 22.39 218.59 21.96Q218.59 21.53 218.74 21.53L218.74 21.53L221.83 21.60Q224.57 21.74 226.22 21.74L226.22 21.74Q228.38 21.74 230.62 21.53L230.62 21.53Q233.35 21.38 234.36 21.38L234.36 21.38Q240.12 21.38 244.40 23.65Q248.69 25.92 250.96 29.92Q253.22 33.91 253.22 39.10L253.22 39.10Q253.22 40.90 252.86 43.27L252.86 43.27Q251.64 50.26 247.75 55.62Q243.86 60.98 238.43 63.90Q232.99 66.82 227.23 66.82L227.23 66.82ZM226.80 65.81Q231.84 65.81 236.12 63.36Q240.41 60.91 243.43 56.20Q246.46 51.48 247.61 44.86L247.61 44.86Q248.11 42.05 248.11 39.02L248.11 39.02Q248.11 31.68 244.62 27.04Q241.13 22.39 234.58 22.39L234.58 22.39Q230.90 22.39 229.36 23.40Q227.81 24.41 227.23 27.50L227.23 27.50L221.54 59.90Q221.26 61.49 221.26 62.14L221.26 62.14Q221.26 64.08 222.52 64.94Q223.78 65.81 226.80 65.81L226.80 65.81ZM286.99 14.90L278.64 60.12Q278.42 61.20 278.42 61.99L278.42 61.99Q278.42 64.30 279.86 64.30L279.86 64.30Q281.30 64.30 284.62 60.98L284.62 60.98Q284.76 60.84 284.83 60.84L284.83 60.84Q285.05 60.84 285.23 61.09Q285.41 61.34 285.19 61.56L285.19 61.56Q282.60 64.44 280.73 65.81Q278.86 67.18 277.06 67.18L277.06 67.18Q274.54 67.18 274.54 64.01L274.54 64.01Q274.54 62.86 275.04 60.12L275.04 60.12L276.41 52.99Q273.10 59.76 269.39 63.61Q265.68 67.46 261.86 67.46L261.86 67.46Q259.27 67.46 257.62 65.77Q255.96 64.08 255.96 60.41L255.96 60.41Q255.96 59.62 256.25 57.46L256.25 57.46Q257.18 52.27 260.17 47.74Q263.16 43.20 267.30 40.50Q271.44 37.80 275.54 37.80L275.54 37.80Q277.56 37.80 279.00 38.74L279.00 38.74L282.17 21.96Q282.31 20.81 282.31 20.45L282.31 20.45Q282.31 18.58 280.73 18.58L280.73 18.58Q279.58 18.58 277.20 19.66L277.20 19.66L277.06 19.66Q276.84 19.66 276.73 19.30Q276.62 18.94 276.91 18.86L276.91 18.86L286.27 14.33L286.42 14.33Q286.63 14.33 286.85 14.54Q287.06 14.76 286.99 14.90L286.99 14.90ZM264.17 63.94Q267.41 63.94 270.54 60.41Q273.67 56.88 275.69 52.20Q277.70 47.52 277.70 44.93L277.70 44.93Q277.70 42.70 276.41 41.51Q275.11 40.32 272.88 40.32L272.88 40.32Q268.20 40.46 264.78 44.14Q261.36 47.81 260.21 54.58L260.21 54.58Q259.92 56.23 259.92 57.82L259.92 57.82Q259.92 60.84 261.04 62.39Q262.15 63.94 264.17 63.94L264.17 63.94ZM322.70 21.53Q323.28 21.53 323.14 22.18L323.14 22.18L322.49 26.28Q322.20 28.87 321.77 31.10L321.77 31.10Q321.70 31.39 321.26 31.32Q320.83 31.25 320.90 31.03L320.90 31.03Q320.98 30.46 320.98 29.38L320.98 29.38Q320.98 26.28 319.54 24.44Q318.10 22.61 315.43 22.61L315.43 22.61L309.53 22.61Q307.22 22.61 306.11 22.97Q304.99 23.33 304.49 24.30Q303.98 25.27 303.62 27.43L303.62 27.43L300.96 42.34L311.11 42.34Q313.92 42.34 315.25 41.22Q316.58 40.10 317.09 37.30L317.09 37.30Q317.09 37.08 317.52 37.08L317.52 37.08Q317.66 37.08 317.84 37.19Q318.02 37.30 317.95 37.44L317.95 37.44Q317.66 39.46 317.30 40.90L317.30 40.90L316.87 43.13L316.44 45.94Q316.44 46.15 315.86 49.82L315.86 49.82Q315.79 50.11 315.36 50.08Q314.93 50.04 315.00 49.75L315.00 49.75Q315.22 48.53 315.22 47.59L315.22 47.59Q315.22 45.58 314.14 44.71Q313.06 43.85 310.61 43.85L310.61 43.85L300.74 43.85L297.79 60.41Q297.58 61.70 297.58 62.57L297.58 62.57Q297.58 64.08 298.51 64.62Q299.45 65.16 302.04 65.16L302.04 65.16L309.89 65.16Q312.62 65.16 315.22 62.57Q317.81 59.98 319.25 55.80L319.25 55.80Q319.32 55.58 319.72 55.66Q320.11 55.73 320.04 55.94L320.04 55.94Q318.96 59.33 317.81 65.45L317.81 65.45Q317.66 66.02 317.41 66.28Q317.16 66.53 316.66 66.53L316.66 66.53L287.42 66.53Q287.28 66.53 287.28 66.10Q287.28 65.66 287.42 65.66L287.42 65.66Q289.80 65.66 290.92 65.30Q292.03 64.94 292.57 63.94Q293.11 62.93 293.54 60.70L293.54 60.70L299.45 27.36Q299.66 25.92 299.66 25.06L299.66 25.06Q299.66 23.47 298.73 22.93Q297.79 22.39 295.13 22.39L295.13 22.39Q294.91 22.39 294.91 21.96Q294.91 21.53 295.13 21.53L295.13 21.53L322.70 21.53ZM346.97 41.04Q346.97 43.27 344.63 45.32Q342.29 47.38 338.36 48.89Q334.44 50.40 329.90 51.12L329.90 51.12Q329.54 53.42 329.54 55.08L329.54 55.08Q329.54 59.54 331.56 62.24Q333.58 64.94 337.25 64.94L337.25 64.94Q341.28 64.94 344.45 62.57L344.45 62.57L344.59 62.57Q344.81 62.57 344.99 62.78Q345.17 63.00 344.95 63.22L344.95 63.22Q339.91 67.39 334.44 67.39L334.44 67.39Q329.90 67.39 327.56 64.48Q325.22 61.56 325.22 56.95L325.22 56.95Q325.22 55.37 325.58 53.21L325.58 53.21Q326.23 49.54 328.61 45.97Q330.98 42.41 334.55 40.10Q338.11 37.80 342.00 37.80L342.00 37.80Q344.38 37.80 345.67 38.66Q346.97 39.53 346.97 41.04L346.97 41.04ZM338.83 39.74Q335.52 39.74 333.25 42.66Q330.98 45.58 330.12 50.11L330.12 50.11Q335.16 49.25 338.29 47.52Q341.42 45.79 342.07 43.20L342.07 43.20Q342.22 42.48 342.22 42.19L342.22 42.19Q342.22 40.97 341.21 40.36Q340.20 39.74 338.83 39.74L338.83 39.74ZM390.31 65.66Q390.60 65.66 390.60 66.10Q390.60 66.53 390.31 66.53L390.31 66.53L382.54 66.53Q380.81 66.53 377.39 60.30Q373.97 54.07 369.65 42.98L369.65 42.98Q367.63 43.63 365.26 43.63L365.26 43.63L362.95 43.49L359.93 60.70Q359.64 62.06 359.64 63.14L359.64 63.14Q359.64 64.66 360.65 65.16Q361.66 65.66 364.39 65.66L364.39 65.66Q364.68 65.66 364.68 66.10Q364.68 66.53 364.46 66.53L364.46 66.53Q362.38 66.53 361.22 66.46L361.22 66.46L356.76 66.38L352.37 66.46Q351.14 66.53 349.06 66.53L349.06 66.53Q348.77 66.53 348.77 66.10Q348.77 65.66 349.06 65.66L349.06 65.66Q351.50 65.66 352.76 65.27Q354.02 64.87 354.67 63.86Q355.32 62.86 355.75 60.70L355.75 60.70L361.66 27.36Q361.94 25.49 361.94 25.06L361.94 25.06Q361.94 23.47 360.90 22.93Q359.86 22.39 357.05 22.39L357.05 22.39Q356.76 22.39 356.76 21.96Q356.76 21.53 357.05 21.53L357.05 21.53L360.22 21.60Q362.95 21.74 364.61 21.74L364.61 21.74Q365.76 21.74 366.80 21.67Q367.85 21.60 368.64 21.53L368.64 21.53Q370.73 21.31 372.31 21.31L372.31 21.31Q376.99 21.31 379.48 23.15Q381.96 24.98 381.96 28.30L381.96 28.30Q381.96 32.26 379.48 35.86Q376.99 39.46 373.10 41.54L373.10 41.54Q377.14 50.83 379.94 55.98Q382.75 61.13 385.16 63.40Q387.58 65.66 390.31 65.66L390.31 65.66ZM363.31 41.76Q364.82 41.98 366.62 41.98L366.62 41.98Q371.30 41.98 373.72 39.82Q376.13 37.66 376.99 32.76L376.99 32.76Q377.28 31.10 377.28 29.45L377.28 29.45Q377.28 25.78 375.55 24.08Q373.82 22.39 370.80 22.39L370.80 22.39Q369.00 22.39 368.14 22.64Q367.27 22.90 366.73 23.98Q366.19 25.06 365.83 27.50L365.83 27.50L363.31 41.76ZM411.34 38.09Q412.70 38.09 414.00 39.10Q415.30 40.10 415.30 41.47L415.30 41.47Q415.30 42.55 414.61 43.27Q413.93 43.99 412.92 43.99L412.92 43.99Q412.13 43.99 411.66 43.63Q411.19 43.27 410.69 42.55L410.69 42.55Q410.40 42.19 410.04 41.87Q409.68 41.54 409.25 41.54L409.25 41.54Q407.66 41.54 405.47 45.72Q403.27 49.90 401.33 55.73Q399.38 61.56 398.52 66.02L398.52 66.02Q398.45 66.53 397.84 66.82Q397.22 67.10 396.22 67.10L396.22 67.10Q395.28 67.10 394.96 67.00Q394.63 66.89 394.63 66.67L394.63 66.67L394.99 65.02L395.71 61.20L398.09 47.88Q398.52 45.50 398.52 44.14L398.52 44.14Q398.52 40.90 396.79 40.90L396.79 40.90Q395.21 40.90 392.40 43.56L392.40 43.56L392.26 43.63Q392.04 43.63 391.90 43.38Q391.75 43.13 391.82 42.98L391.82 42.98Q394.06 40.54 395.93 39.31Q397.80 38.09 399.60 38.09L399.60 38.09Q401.04 38.09 401.72 39.02Q402.41 39.96 402.41 42.26L402.41 42.26Q402.41 44.06 401.83 47.74L401.83 47.74L400.32 55.94Q402.77 48.38 405.68 43.24Q408.60 38.09 411.34 38.09L411.34 38.09ZM438.77 67.39Q432.65 67.39 428.29 65.09Q423.94 62.78 421.70 58.64Q419.47 54.50 419.47 49.18L419.47 49.18Q419.47 46.80 419.90 44.21L419.90 44.21Q421.13 37.44 425.27 32.08Q429.41 26.71 435.49 23.72Q441.58 20.74 448.42 20.74L448.42 20.74Q451.44 20.74 454.07 21.42Q456.70 22.10 458.28 23.33L458.28 23.33Q458.71 23.76 458.71 24.19L458.71 24.19L458.64 24.98L457.99 32.98Q457.92 33.26 457.52 33.26Q457.13 33.26 457.13 32.98L457.13 32.98Q456.70 27.79 453.71 25.06Q450.72 22.32 445.54 22.32L445.54 22.32Q437.54 22.32 432.14 27.50Q426.74 32.69 425.16 41.62L425.16 41.62Q424.58 45.07 424.58 47.66L424.58 47.66Q424.58 53.21 426.56 57.38Q428.54 61.56 432.18 63.83Q435.82 66.10 440.64 66.10L440.64 66.10Q443.74 66.10 445.50 65.41Q447.26 64.73 448.34 62.89Q449.42 61.06 450.00 57.46L450.00 57.46Q450.50 54.14 450.50 53.06L450.50 53.06Q450.50 51.62 449.96 50.94Q449.42 50.26 448.13 50.00Q446.83 49.75 444.24 49.75L444.24 49.75Q444.10 49.75 443.99 49.57Q443.88 49.39 443.88 49.18L443.88 49.18Q443.88 48.96 443.99 48.78Q444.10 48.60 444.24 48.60L444.24 48.60Q449.06 48.96 452.02 48.96L452.02 48.96Q454.97 48.96 458.21 48.74L458.21 48.74Q458.42 48.74 458.46 49.25Q458.50 49.75 458.21 49.75L458.21 49.75Q456.70 49.68 456.01 50.22Q455.33 50.76 454.90 52.42Q454.46 54.07 453.74 58.18L453.74 58.18Q453.24 61.34 453.20 62.64Q453.17 63.94 453.10 64.51L453.10 64.51Q453.02 64.94 452.88 65.05Q452.74 65.16 452.23 65.38L452.23 65.38Q444.53 67.39 438.77 67.39L438.77 67.39ZM488.09 38.16Q488.45 38.16 488.45 39.02L488.45 39.02Q488.45 39.89 488.12 40.86Q487.80 41.83 487.51 41.69L487.51 41.69Q485.86 40.82 483.48 40.82L483.48 40.82Q482.54 40.82 482.04 40.90L482.04 40.90Q483.55 42.98 483.55 46.08L483.55 46.08Q483.55 47.59 483.26 48.82L483.26 48.82Q482.62 51.98 480.74 54.40Q478.87 56.81 476.39 58.14Q473.90 59.47 471.31 59.47L471.31 59.47Q470.59 59.47 469.58 59.33L469.58 59.33Q468.65 60.41 468.50 61.63L468.50 61.63Q468.29 63.50 469.91 64.84Q471.53 66.17 474.98 67.90L474.98 67.90Q477.72 69.34 479.34 70.34Q480.96 71.35 482.15 72.86Q483.34 74.38 483.34 76.32L483.34 76.32Q483.34 79.06 481.25 81.47Q479.16 83.88 475.67 85.32Q472.18 86.76 468.14 86.76L468.14 86.76Q463.18 86.76 460.22 84.64Q457.27 82.51 457.27 79.49L457.27 79.49Q457.27 76.32 459.94 73.87Q462.60 71.42 467.64 68.54L467.64 68.54Q465.05 66.67 465.05 64.51L465.05 64.51Q465.05 63.07 465.91 61.81Q466.78 60.55 468.50 59.04L468.50 59.04Q466.34 58.25 465.16 56.23Q463.97 54.22 463.97 51.62L463.97 51.62Q463.97 50.40 464.33 48.82L464.33 48.82Q465.19 44.28 468.65 41.29Q472.10 38.30 476.35 38.30L476.35 38.30Q479.30 38.30 481.18 39.96L481.18 39.96Q484.99 38.16 488.09 38.16L488.09 38.16ZM479.38 50.76Q479.59 49.46 479.59 48.10L479.59 48.10Q479.59 44.64 478.30 42.12Q477.00 39.60 474.55 39.60L474.55 39.60Q472.39 39.60 470.56 41.72Q468.72 43.85 468.22 47.02L468.22 47.02Q468.00 48.38 468.00 49.75L468.00 49.75Q468.00 53.21 469.37 55.66Q470.74 58.10 473.11 58.10L473.11 58.10Q475.27 58.10 477.04 56.12Q478.80 54.14 479.38 50.76L479.38 50.76ZM479.74 78.91Q479.74 76.39 477.72 74.70Q475.70 73.01 471.82 70.92L471.82 70.92Q469.80 69.98 468.36 69.05L468.36 69.05Q464.90 71.21 463.14 72.97Q461.38 74.74 461.38 77.54L461.38 77.54Q461.38 80.64 464.18 82.69Q466.99 84.74 471.60 84.74L471.60 84.74Q475.49 84.74 477.61 83.09Q479.74 81.43 479.74 78.91L479.74 78.91Z"/></svg>