<svg xmlns="http://www.w3.org/2000/svg" xmlns:xlink="http://www.w3.org/1999/xlink" width="545.5440000000001" height="87.19200000000001"><path fill="#111111" d="M50.33 65.66Q50.62 65.66 50.62 66.10Q50.62 66.53 50.33 66.53L50.33 66.53Q48.96 66.53 46.08 66.38L46.08 66.38Q43.20 66.24 41.90 66.24L41.90 66.24Q40.32 66.24 37.87 66.38L37.87 66.38Q35.57 66.53 34.34 66.53L34.34 66.53Q34.06 66.53 34.06 66.10Q34.06 65.66 34.34 65.66L34.34 65.66Q37.01 65.66 38.23 65.16Q39.46 64.66 39.46 63.43L39.46 63.43Q39.46 62.42 38.52 60.34L38.52 60.34L30.24 42.70L16.63 42.70L10.44 57.38Q9.43 59.83 9.43 61.42L9.43 61.42Q9.43 65.66 16.49 65.66L16.49 65.66Q16.85 65.66 16.85 66.10Q16.85 66.53 16.49 66.53L16.49 66.53Q15.19 66.53 12.74 66.38L12.74 66.38Q10.01 66.24 7.99 66.24L7.99 66.24Q6.12 66.24 3.67 66.38L3.67 66.38Q1.51 66.53 0.07 66.53L0.07 66.53Q-0.29 66.53-0.29 66.10Q-0.29 65.66 0.07 65.66L0.07 65.66Q2.09 65.66 3.49 64.91Q4.90 64.15 6.16 62.24Q7.42 60.34 8.93 56.74L8.93 56.74L24.12 20.88Q24.26 20.66 24.62 20.66Q24.98 20.66 25.06 20.88L25.06 20.88L42.05 56.66Q44.50 61.99 46.22 63.83Q47.95 65.66 50.33 65.66L50.33 65.66ZM23.04 27.50L17.28 41.18L29.52 41.18L23.04 27.50ZM80.28 62.64L80.42 62.64Q80.71 62.64 80.78 62.96Q80.86 63.29 80.57 63.43L80.57 63.43L73.15 66.96Q72.86 67.10 72.58 67.10L72.58 67.10Q71.64 67.10 70.92 65.88Q70.20 64.66 69.98 62.50L69.98 62.50L65.52 64.87Q63.29 66.02 61.85 66.53Q60.41 67.03 59.04 67.03L59.04 67.03Q56.81 67.03 55.62 65.84Q54.43 64.66 54.43 62.86L54.43 62.86Q54.43 60.91 55.91 59.72Q57.38 58.54 61.20 57.24L61.20 57.24L69.91 54.14L69.91 48.17Q69.91 43.42 68.69 41.51Q67.46 39.60 65.30 39.60L65.30 39.60Q62.86 39.60 61.49 41.33Q60.12 43.06 59.83 45.50L59.83 45.50Q59.54 48.24 57.17 48.24L57.17 48.24Q56.02 48.24 55.37 47.66Q54.72 47.09 54.72 46.08L54.72 46.08Q54.72 44.42 56.88 42.55Q59.04 40.68 62.10 39.38Q65.16 38.09 67.61 38.09L67.61 38.09Q70.49 38.09 72.22 40.07Q73.94 42.05 73.94 46.01L73.94 46.01L73.94 58.75Q73.94 61.27 74.59 62.42Q75.24 63.58 76.75 63.58L76.75 63.58Q78.12 63.58 80.28 62.64L80.28 62.64ZM65.52 63.72L69.91 61.49L69.91 61.06L69.91 55.01L62.50 57.82Q60.84 58.46 60.16 59.26Q59.47 60.05 59.47 61.27L59.47 61.27Q59.47 62.78 60.34 63.61Q61.20 64.44 62.57 64.44L62.57 64.44Q63.94 64.44 65.52 63.72L65.52 63.72ZM104.62 41.18Q110.30 41.62 113.80 44.96Q117.29 48.31 117.29 53.28L117.29 53.28Q117.29 57.10 115.42 60.19Q113.54 63.29 110.27 65.05Q106.99 66.82 102.96 66.82L102.96 66.82Q100.58 66.82 97.78 66.60L97.78 66.60Q96.77 66.53 95.40 66.46Q94.03 66.38 92.38 66.38L92.38 66.38L87.48 66.46Q86.18 66.53 83.81 66.53L83.81 66.53Q83.66 66.53 83.66 66.10Q83.66 65.66 83.81 65.66L83.81 65.66Q86.54 65.66 87.84 65.27Q89.14 64.87 89.64 63.86Q90.14 62.86 90.14 60.70L90.14 60.70L90.14 27.36Q90.14 25.20 89.68 24.19Q89.21 23.18 87.91 22.79Q86.62 22.39 83.95 22.39L83.95 22.39Q83.74 22.39 83.74 21.96Q83.74 21.53 83.95 21.53L83.95 21.53L87.48 21.60Q90.50 21.74 92.38 21.74L92.38 21.74Q93.67 21.74 94.79 21.67Q95.90 21.60 96.70 21.53L96.70 21.53Q98.93 21.31 100.87 21.31L100.87 21.31Q106.92 21.31 109.94 23.94Q112.97 26.57 112.97 30.82L112.97 30.82Q112.97 34.27 110.74 36.97Q108.50 39.67 104.62 41.18L104.62 41.18ZM99.29 22.39Q97.42 22.39 96.52 22.68Q95.62 22.97 95.18 24.05Q94.75 25.13 94.75 27.50L94.75 27.50L94.75 41.18L97.99 41.26Q103.25 41.26 105.77 38.56Q108.29 35.86 108.29 31.39L108.29 31.39Q108.29 27.36 106.09 24.88Q103.90 22.39 99.29 22.39L99.29 22.39ZM101.88 65.52Q107.14 65.52 109.69 62.82Q112.25 60.12 112.25 55.08L112.25 55.08Q112.25 49.61 109.04 46.22Q105.84 42.84 100.22 42.77L100.22 42.77Q97.92 42.70 94.75 42.91L94.75 42.91L94.75 60.70Q94.75 62.57 95.29 63.58Q95.83 64.58 97.38 65.05Q98.93 65.52 101.88 65.52L101.88 65.52ZM143.35 37.80Q146.45 37.80 149.11 39.31Q151.78 40.82 153.36 43.81Q154.94 46.80 154.94 51.12L154.94 51.12Q154.94 56.30 152.68 60.01Q150.41 63.72 146.77 65.59Q143.14 67.46 139.10 67.46L139.10 67.46Q133.56 67.46 129.31 64.30L129.31 64.30L123.84 66.89L123.70 66.89Q123.41 66.89 123.34 66.60Q123.26 66.31 123.48 66.17L123.48 66.17Q125.78 64.58 126.72 63.18Q127.66 61.78 127.66 59.11L127.66 59.11L127.66 23.54Q127.66 20.95 127.12 19.80Q126.58 18.65 125.28 18.65L125.28 18.65Q124.27 18.65 122.04 19.58L122.04 19.58L121.90 19.58Q121.68 19.58 121.57 19.22Q121.46 18.86 121.68 18.79L121.68 18.79L130.68 14.40L131.04 14.33Q131.18 14.33 131.44 14.51Q131.69 14.69 131.69 14.90L131.69 14.90L131.69 44.06Q134.42 41.18 137.16 39.49Q139.90 37.80 143.35 37.80L143.35 37.80ZM141.34 66.10Q145.51 66.10 147.85 62.86Q150.19 59.62 150.19 53.57L150.19 53.57Q150.19 47.09 147.67 43.63Q145.15 40.18 140.98 40.18L140.98 40.18Q138.53 40.18 136.30 41.51Q134.06 42.84 131.69 45.22L131.69 45.22L131.69 57.02Q131.69 60.19 133.24 62.21Q134.78 64.22 137.02 65.16Q139.25 66.10 141.34 66.10L141.34 66.10ZM187.49 20.74Q190.94 20.74 194.47 21.38Q198 22.03 200.09 23.26L200.09 23.26Q200.74 23.54 200.92 23.87Q201.10 24.19 201.17 24.98L201.17 24.98L201.96 33.05Q201.96 33.26 201.60 33.30Q201.24 33.34 201.17 33.12L201.17 33.12Q199.58 27.58 195.30 24.95Q191.02 22.32 184.68 22.32L184.68 22.32Q179.21 22.32 175.10 24.73Q171 27.14 168.77 31.54Q166.54 35.93 166.54 41.69L166.54 41.69Q166.54 48.38 169.31 54.07Q172.08 59.76 176.80 63.07Q181.51 66.38 186.98 66.38L186.98 66.38Q192.17 66.38 195.98 63.54Q199.80 60.70 201.82 54.79L201.82 54.79Q201.82 54.58 202.10 54.58L202.10 54.58Q202.32 54.58 202.50 54.65Q202.68 54.72 202.68 54.86L202.68 54.86L201.67 63.00Q201.53 63.86 201.35 64.12Q201.17 64.37 200.52 64.66L200.52 64.66Q194.04 67.39 186.84 67.39L186.84 67.39Q178.20 67.39 172.40 63.90Q166.61 60.41 163.87 55.01Q161.14 49.61 161.14 43.63L161.14 43.63Q161.14 37.01 164.81 31.75Q168.48 26.50 174.53 23.62Q180.58 20.74 187.49 20.74L187.49 20.74ZM222.41 67.39Q217.73 67.39 214.56 65.34Q211.39 63.29 209.88 60.05Q208.37 56.81 208.37 53.21L208.37 53.21Q208.37 48.60 210.67 45.18Q212.98 41.76 216.61 39.92Q220.25 38.09 224.06 38.09L224.06 38.09Q227.23 38.09 229.86 39.35Q232.49 40.61 232.49 42.48L232.49 42.48Q232.49 43.42 231.80 44.10Q231.12 44.78 229.97 44.78L229.97 44.78Q228.02 44.78 226.80 42.41L226.80 42.41Q225.86 40.97 224.78 40.25Q223.70 39.53 221.69 39.53L221.69 39.53Q217.66 39.53 215.39 42.66Q213.12 45.79 213.12 51.05L213.12 51.05Q213.12 57.10 216.14 60.98Q219.17 64.87 225.22 64.87L225.22 64.87Q229.61 64.87 232.56 62.50L232.56 62.50L232.63 62.50Q232.85 62.50 233.03 62.71Q233.21 62.93 233.06 63.07L233.06 63.07Q230.54 65.30 227.99 66.35Q225.43 67.39 222.41 67.39L222.41 67.39ZM257.18 66.82Q255.10 66.82 252.36 66.60L252.36 66.60Q251.35 66.53 249.80 66.46Q248.26 66.38 246.38 66.38L246.38 66.38L241.49 66.46Q240.19 66.53 237.89 66.53L237.89 66.53Q237.74 66.53 237.74 66.10Q237.74 65.66 237.89 65.66L237.89 65.66Q240.62 65.66 241.88 65.30Q243.14 64.94 243.61 63.90Q244.08 62.86 244.08 60.70L244.08 60.70L244.08 27.36Q244.08 25.20 243.65 24.19Q243.22 23.18 241.96 22.79Q240.70 22.39 237.96 22.39L237.96 22.39Q237.82 22.39 237.82 21.96Q237.82 21.53 237.96 21.53L237.96 21.53L241.56 21.60Q244.58 21.74 246.38 21.74L246.38 21.74Q249.12 21.74 251.78 21.53L251.78 21.53Q254.95 21.38 256.18 21.38L256.18 21.38Q263.66 21.38 269.42 24.26Q275.18 27.14 278.39 32.11Q281.59 37.08 281.59 43.27L281.59 43.27Q281.59 50.26 278.32 55.62Q275.04 60.98 269.42 63.90Q263.81 66.82 257.18 66.82L257.18 66.82ZM256.46 65.74Q262.22 65.74 266.69 63.32Q271.15 60.91 273.64 56.20Q276.12 51.48 276.12 44.86L276.12 44.86Q276.12 38.59 273.74 33.48Q271.37 28.37 266.98 25.42Q262.58 22.46 256.82 22.46L256.82 22.46Q253.73 22.46 252.04 22.82Q250.34 23.18 249.55 24.26Q248.76 25.34 248.76 27.50L248.76 27.50L248.76 59.90Q248.76 62.06 249.37 63.29Q249.98 64.51 251.68 65.12Q253.37 65.74 256.46 65.74L256.46 65.74ZM321.34 62.50L321.48 62.42Q321.77 62.42 321.88 62.78Q321.98 63.14 321.77 63.29L321.77 63.29L313.85 67.03Q313.42 67.18 313.27 67.18L313.27 67.18Q312.34 67.18 311.69 65.59Q311.04 64.01 310.97 61.20L310.97 61.20Q308.30 64.01 305.39 65.74Q302.47 67.46 298.87 67.46L298.87 67.46Q295.85 67.46 293.29 65.74Q290.74 64.01 289.19 60.88Q287.64 57.74 287.64 53.71L287.64 53.71Q287.64 48.60 290.16 45Q292.68 41.40 296.50 39.60Q300.31 37.80 304.06 37.80L304.06 37.80Q307.87 37.80 310.97 39.67L310.97 39.67L310.97 23.54Q310.97 20.95 310.43 19.80Q309.89 18.65 308.59 18.65L308.59 18.65Q307.66 18.65 305.28 19.66L305.28 19.66L305.14 19.66Q304.85 19.66 304.74 19.33Q304.63 19.01 304.85 18.86L304.85 18.86L313.99 14.40Q314.14 14.33 314.35 14.33L314.35 14.33Q314.50 14.33 314.75 14.51Q315 14.69 315 14.90L315 14.90L315 58.61Q315 61.20 315.61 62.35Q316.22 63.50 317.59 63.50L317.59 63.50Q319.68 63.50 321.34 62.50L321.34 62.50ZM301.68 64.87Q304.27 64.87 306.50 63.61Q308.74 62.35 310.97 60.05L310.97 60.05L310.97 44.21Q309.24 41.83 307.15 40.54Q305.06 39.24 302.11 39.24L302.11 39.24Q297.58 39.24 294.95 42.44Q292.32 45.65 292.32 51.55L292.32 51.55Q292.32 55.51 293.54 58.54Q294.77 61.56 296.89 63.22Q299.02 64.87 301.68 64.87L301.68 64.87ZM356.11 55.80Q356.11 55.66 356.40 55.66L356.40 55.66Q356.62 55.66 356.80 55.73Q356.98 55.80 356.98 55.94L356.98 55.94Q356.33 60.48 356.33 65.45L356.33 65.45Q356.33 66.02 356.08 66.28Q355.82 66.53 355.18 66.53L355.18 66.53L325.01 66.53Q324.86 66.53 324.86 66.10Q324.86 65.66 325.01 65.66L325.01 65.66Q327.74 65.66 329.00 65.30Q330.26 64.94 330.73 63.90Q331.20 62.86 331.20 60.70L331.20 60.70L331.20 27.36Q331.20 25.20 330.73 24.19Q330.26 23.18 329.00 22.79Q327.74 22.39 325.01 22.39L325.01 22.39Q324.86 22.39 324.86 21.96Q324.86 21.53 325.01 21.53L325.01 21.53L353.95 21.53Q354.60 21.53 354.60 22.18L354.60 22.18L354.74 31.03Q354.74 31.25 354.38 31.28Q354.02 31.32 353.95 31.10L353.95 31.10Q353.74 27.29 351.65 25.16Q349.56 23.04 346.10 23.04L346.10 23.04L341.71 23.04Q339.19 23.04 338.00 23.44Q336.82 23.83 336.35 24.80Q335.88 25.78 335.88 27.72L335.88 27.72L335.88 42.34L344.66 42.34Q348.12 42.34 349.60 41.18Q351.07 40.03 351.07 37.30L351.07 37.30Q351.07 37.15 351.50 37.15Q351.94 37.15 351.94 37.30L351.94 37.30L351.86 43.13Q351.86 45.22 351.94 46.30L351.94 46.30L352.01 49.75Q352.01 49.90 351.58 49.90Q351.14 49.90 351.14 49.75L351.14 49.75Q351.14 46.58 349.60 45.22Q348.05 43.85 344.45 43.85L344.45 43.85L335.88 43.85L335.88 60.41Q335.88 62.42 336.31 63.36Q336.74 64.30 337.90 64.66Q339.05 65.02 341.50 65.02L341.50 65.02L347.26 65.02Q350.71 65.02 353.02 62.57Q355.32 60.12 356.11 55.80L356.11 55.80ZM386.71 62.50L386.78 62.50Q387 62.50 387.18 62.75Q387.36 63.00 387.22 63.22L387.22 63.22Q382.32 67.39 376.70 67.39L376.70 67.39Q372.46 67.39 369.36 65.45Q366.26 63.50 364.72 60.37Q363.17 57.24 363.17 53.57L363.17 53.57Q363.17 49.25 365.22 45.72Q367.27 42.19 370.80 40.14Q374.33 38.09 378.65 38.09L378.65 38.09Q382.54 38.09 384.70 40.00Q386.86 41.90 386.86 45.22L386.86 45.22Q386.86 46.08 386.68 46.48Q386.50 46.87 385.99 46.87L385.99 46.87L368.28 47.02Q367.92 48.96 367.92 50.76L367.92 50.76Q367.92 57.02 370.94 60.95Q373.97 64.87 379.30 64.87L379.30 64.87Q383.40 64.87 386.71 62.50L386.71 62.50ZM376.20 39.53Q373.25 39.53 371.27 41.22Q369.29 42.91 368.50 46.01L368.50 46.01L381.89 45.72Q381.89 42.77 380.34 41.15Q378.79 39.53 376.20 39.53L376.20 39.53ZM439.13 65.66Q439.27 65.66 439.27 66.10Q439.27 66.53 439.13 66.53L439.13 66.53L429.84 66.53Q428.04 66.53 423.11 60.37Q418.18 54.22 411.12 43.20L411.12 43.20Q409.39 43.70 407.23 43.70L407.23 43.70Q405.86 43.70 403.99 43.56L403.99 43.56L403.99 60.70Q403.99 62.93 404.42 63.94Q404.86 64.94 406.12 65.30Q407.38 65.66 410.11 65.66L410.11 65.66Q410.33 65.66 410.33 66.10Q410.33 66.53 410.11 66.53L410.11 66.53Q407.88 66.53 406.58 66.46L406.58 66.46L401.62 66.38L396.72 66.46Q395.42 66.53 393.05 66.53L393.05 66.53Q392.90 66.53 392.90 66.10Q392.90 65.66 393.05 65.66L393.05 65.66Q395.78 65.66 397.08 65.27Q398.38 64.87 398.88 63.86Q399.38 62.86 399.38 60.70L399.38 60.70L399.38 27.36Q399.38 25.20 398.92 24.19Q398.45 23.18 397.19 22.79Q395.93 22.39 393.19 22.39L393.19 22.39Q392.98 22.39 392.98 21.96Q392.98 21.53 393.19 21.53L393.19 21.53L396.72 21.60Q399.74 21.74 401.62 21.74L401.62 21.74Q402.91 21.74 404.06 21.67Q405.22 21.60 406.08 21.53L406.08 21.53Q408.38 21.31 410.26 21.31L410.26 21.31Q416.09 21.31 419.26 23.69Q422.42 26.06 422.42 30.31L422.42 30.31Q422.42 33.77 420.41 36.83Q418.39 39.89 415.08 41.69L415.08 41.69Q421.20 50.83 425.38 55.98Q429.55 61.13 432.79 63.40Q436.03 65.66 439.13 65.66L439.13 65.66ZM403.99 41.76Q405.79 42.05 408.24 42.05L408.24 42.05Q413.21 42.05 415.37 39.92Q417.53 37.80 417.53 32.83L417.53 32.83Q417.53 22.39 408.74 22.39L408.74 22.39Q406.80 22.39 405.83 22.72Q404.86 23.04 404.42 24.08Q403.99 25.13 403.99 27.50L403.99 27.50L403.99 41.76ZM456.55 38.09Q458.14 38.09 459.58 38.95Q461.02 39.82 461.02 41.04L461.02 41.04Q461.02 41.98 460.40 42.62Q459.79 43.27 458.64 43.27L458.64 43.27Q457.99 43.27 457.52 43.02Q457.06 42.77 456.41 42.26L456.41 42.26Q455.76 41.69 455.18 41.40Q454.61 41.11 453.82 41.11L453.82 41.11Q452.88 41.11 451.84 41.87Q450.79 42.62 448.56 45.22L448.56 45.22L448.56 60.70Q448.56 62.86 449.10 63.86Q449.64 64.87 451.08 65.27Q452.52 65.66 455.54 65.66L455.54 65.66Q455.83 65.66 455.83 66.10Q455.83 66.53 455.54 66.53L455.54 66.53Q453.24 66.53 451.87 66.46L451.87 66.46L446.54 66.38L442.58 66.46Q441.65 66.53 439.99 66.53L439.99 66.53Q439.78 66.53 439.78 66.10Q439.78 65.66 439.99 65.66L439.99 65.66Q441.94 65.66 442.87 65.27Q443.81 64.87 444.13 63.86Q444.46 62.86 444.46 60.70L444.46 60.70L444.46 46.44Q444.46 43.99 443.88 42.91Q443.30 41.83 441.94 41.83L441.94 41.83Q440.78 41.83 438.05 42.91L438.05 42.91L437.90 42.91Q437.62 42.91 437.51 42.59Q437.40 42.26 437.69 42.12L437.69 42.12L446.04 38.16Q446.18 38.09 446.47 38.09L446.47 38.09Q447.12 38.09 447.84 39.74Q448.56 41.40 448.56 43.99L448.56 43.99L448.56 44.06Q451.51 40.61 453.24 39.35Q454.97 38.09 456.55 38.09L456.55 38.09ZM492.12 67.39Q484.27 67.39 478.44 64.37Q472.61 61.34 469.55 56.16Q466.49 50.98 466.49 44.57L466.49 44.57Q466.49 37.58 470.05 32.18Q473.62 26.78 479.84 23.76Q486.07 20.74 493.92 20.74L493.92 20.74Q497.45 20.74 500.65 21.42Q503.86 22.10 505.87 23.33L505.87 23.33Q506.45 23.69 506.56 23.94Q506.66 24.19 506.74 24.98L506.74 24.98L507.60 33.05Q507.60 33.26 507.20 33.30Q506.81 33.34 506.74 33.12L506.74 33.12Q505.15 27.94 501.01 25.13Q496.87 22.32 490.82 22.32L490.82 22.32Q481.75 22.32 476.78 27.58Q471.82 32.83 471.82 41.98L471.82 41.98Q471.82 48.96 474.66 54.47Q477.50 59.98 482.54 63.07Q487.58 66.17 493.85 66.17L493.85 66.17Q497.52 66.17 499.54 65.52Q501.55 64.87 502.49 63.00Q503.42 61.13 503.42 57.46L503.42 57.46Q503.42 53.71 502.96 52.24Q502.49 50.76 500.87 50.26Q499.25 49.75 495.29 49.75L495.29 49.75Q494.86 49.75 494.86 49.18L494.86 49.18Q494.86 48.96 494.96 48.78Q495.07 48.60 495.22 48.60L495.22 48.60Q500.83 48.96 504.29 48.96L504.29 48.96Q507.67 48.96 511.34 48.74L511.34 48.74Q511.49 48.74 511.60 48.92Q511.70 49.10 511.70 49.25L511.70 49.25Q511.70 49.75 511.34 49.75L511.34 49.75Q509.62 49.68 508.90 50.22Q508.18 50.76 507.96 52.42Q507.74 54.07 507.74 58.18L507.74 58.18Q507.74 61.42 508.00 62.78Q508.25 64.15 508.25 64.51L508.25 64.51Q508.25 64.94 508.10 65.09Q507.96 65.23 507.46 65.38L507.46 65.38Q498.74 67.39 492.12 67.39L492.12 67.39ZM530.35 64.22L531.79 64.44Q536.11 65.09 538.63 65.77Q541.15 66.46 542.95 68.15Q544.75 69.84 544.75 72.86L544.75 72.86Q544.75 76.10 542.30 79.38Q539.86 82.66 535.72 84.74Q531.58 86.83 526.82 86.83L526.82 86.83Q521.71 86.83 518.58 84.38Q515.45 81.94 515.45 78.12L515.45 78.12Q515.45 72.43 523.66 66.96L523.66 66.96Q518.76 65.52 518.76 62.06L518.76 62.06Q518.76 60.05 520.16 58.14Q521.57 56.23 523.94 54.65L523.94 54.65Q521.14 53.64 519.62 51.52Q518.11 49.39 518.11 46.73L518.11 46.73Q518.11 42.98 521.28 40.61Q524.45 38.23 529.27 38.23L529.27 38.23Q534.02 38.23 536.62 40.46L536.62 40.46Q540.43 38.16 544.32 38.16L544.32 38.16Q544.54 38.16 544.64 38.66Q544.75 39.17 544.75 39.74L544.75 39.74Q544.75 40.61 544.54 41.47Q544.32 42.34 544.03 42.19L544.03 42.19Q543.82 42.12 542.48 41.62Q541.15 41.11 539.28 41.11L539.28 41.11Q538.49 41.11 537.48 41.26L537.48 41.26Q539.35 43.42 539.35 46.37L539.35 46.37Q539.35 48.82 537.98 50.87Q536.62 52.92 534.17 54.14Q531.72 55.37 528.48 55.37L528.48 55.37Q526.39 55.37 524.81 54.94L524.81 54.94Q523.58 55.80 522.86 56.99Q522.14 58.18 522.14 59.54L522.14 59.54Q522.14 61.78 524.20 62.68Q526.25 63.58 530.35 64.22L530.35 64.22ZM527.47 39.31Q525.31 39.31 523.98 40.75Q522.65 42.19 522.65 45.22L522.65 45.22Q522.65 49.39 524.84 51.88Q527.04 54.36 529.99 54.36L529.99 54.36Q532.15 54.36 533.52 52.74Q534.89 51.12 534.89 47.81L534.89 47.81Q534.89 44.06 532.69 41.69Q530.50 39.31 527.47 39.31L527.47 39.31ZM529.70 84.67Q533.23 84.67 535.79 83.38Q538.34 82.08 539.68 79.96Q541.01 77.83 541.01 75.38L541.01 75.38Q541.01 72.58 539.21 71.06Q537.41 69.55 535.00 68.98Q532.58 68.40 528.19 67.82L528.19 67.82Q525.96 67.54 525.10 67.32L525.10 67.32Q522.50 68.98 521.10 70.92Q519.70 72.86 519.70 75.82L519.70 75.82Q519.70 79.85 522.40 82.26Q525.10 84.67 529.70 84.67L529.70 84.67Z"/></svg>