<svg xmlns="http://www.w3.org/2000/svg" xmlns:xlink="http://www.w3.org/1999/xlink" width="557.6400000000001" height="87.19200000000001"><path fill="#111111" d="M51.62 65.66Q51.98 65.66 51.98 66.10Q51.98 66.53 51.62 66.53L51.62 66.53Q50.18 66.53 47.16 66.38L47.16 66.38Q43.99 66.24 42.62 66.24L42.62 66.24Q40.82 66.24 38.23 66.38L38.23 66.38Q35.78 66.53 34.34 66.53L34.34 66.53Q34.06 66.53 34.06 66.10Q34.06 65.66 34.34 65.66L34.34 65.66Q36.22 65.66 37.04 65.27Q37.87 64.87 37.87 63.86L37.87 63.86Q37.87 62.64 36.43 59.76L36.43 59.76L28.94 45L16.13 45L11.02 56.30Q10.08 58.39 10.08 60.19L10.08 60.19Q10.08 62.78 11.92 64.22Q13.75 65.66 16.85 65.66L16.85 65.66Q17.21 65.66 17.21 66.10Q17.21 66.53 16.85 66.53L16.85 66.53Q15.55 66.53 13.10 66.38L13.10 66.38Q10.37 66.24 8.35 66.24L8.35 66.24Q6.41 66.24 3.67 66.38L3.67 66.38Q1.22 66.53-0.29 66.53L-0.29 66.53Q-0.58 66.53-0.58 66.10Q-0.58 65.66-0.29 65.66L-0.29 65.66Q1.73 65.66 3.10 64.84Q4.46 64.01 5.83 61.88Q7.20 59.76 9.07 55.58L9.07 55.58L24.70 21.24Q24.84 21.02 25.34 21.02L25.34 21.02Q25.92 21.02 25.99 21.24L25.99 21.24L43.99 56.66Q46.51 61.78 48.17 63.72Q49.82 65.66 51.62 65.66L51.62 65.66ZM22.18 31.61L17.06 42.98L27.94 42.98L22.18 31.61ZM81.65 62.64L81.72 62.64Q82.01 62.64 82.12 62.96Q82.22 63.29 81.94 63.43L81.94 63.43L74.52 66.96Q74.23 67.10 73.80 67.10L73.80 67.10Q72.72 67.10 71.68 66.02Q70.63 64.94 70.20 63.07L70.20 63.07L66.89 64.87Q65.02 65.81 63.00 66.42Q60.98 67.03 59.40 67.03L59.40 67.03Q57.10 67.03 55.76 65.84Q54.43 64.66 54.43 62.42L54.43 62.42Q54.43 60.77 55.26 59.76Q56.09 58.75 57.64 58.07Q59.18 57.38 62.57 56.23L62.57 56.23L69.91 53.86L69.91 48.17Q69.91 43.85 69.05 41.80Q68.18 39.74 66.24 39.74L66.24 39.74Q64.51 39.74 63.50 41.04Q62.50 42.34 62.28 45.29L62.28 45.29Q61.85 49.32 58.03 49.32L58.03 49.32Q54.65 49.32 54.65 46.37L54.65 46.37Q54.65 44.42 57.10 42.48Q59.54 40.54 63.00 39.31Q66.46 38.09 69.05 38.09L69.05 38.09Q72.43 38.09 74.56 40.10Q76.68 42.12 76.68 46.01L76.68 46.01L76.68 58.75Q76.68 60.84 77.44 61.99Q78.19 63.14 79.56 63.14L79.56 63.14Q80.57 63.14 81.65 62.64L81.65 62.64ZM69.05 62.42L69.98 61.92Q69.91 61.42 69.91 60.41L69.91 60.41L69.91 55.08L65.95 56.52Q64.01 57.24 63.18 58.10Q62.35 58.97 62.35 60.19L62.35 60.19Q62.35 61.70 63.22 62.57Q64.08 63.43 65.38 63.43L65.38 63.43Q66.96 63.43 69.05 62.42L69.05 62.42ZM107.78 41.26Q113.83 41.98 117.40 45.29Q120.96 48.60 120.96 53.50L120.96 53.50Q120.96 57.24 118.80 60.26Q116.64 63.29 112.82 65.05Q109.01 66.82 104.33 66.82L104.33 66.82Q102.31 66.82 99.72 66.60L99.72 66.60Q98.71 66.53 97.24 66.46Q95.76 66.38 93.96 66.38L93.96 66.38L88.70 66.46Q87.26 66.53 84.82 66.53L84.82 66.53Q84.60 66.53 84.60 66.10Q84.60 65.66 84.82 65.66L84.82 65.66Q86.90 65.66 87.98 65.27Q89.06 64.87 89.53 63.83Q90 62.78 90 60.70L90 60.70L90 27.36Q90 24.34 88.99 23.36Q87.98 22.39 84.89 22.39L84.89 22.39Q84.74 22.39 84.74 21.96Q84.74 21.53 84.89 21.53L84.89 21.53L88.70 21.60Q92.02 21.74 93.96 21.74L93.96 21.74Q95.98 21.74 98.14 21.53L98.14 21.53Q98.86 21.46 100.30 21.38Q101.74 21.31 102.82 21.31L102.82 21.31Q109.37 21.31 112.97 23.69Q116.57 26.06 116.57 30.60L116.57 30.60Q116.57 34.06 114.30 36.86Q112.03 39.67 107.78 41.26L107.78 41.26ZM101.74 22.90Q99.65 22.90 98.86 23.87Q98.06 24.84 98.06 27.50L98.06 27.50L98.06 41.18L100.94 41.26Q104.69 41.26 106.70 38.45Q108.72 35.64 108.72 31.25L108.72 31.25Q108.72 27.14 106.92 25.02Q105.12 22.90 101.74 22.90L101.74 22.90ZM103.10 65.02Q112.54 65.02 112.54 55.22L112.54 55.22Q112.54 49.68 109.87 46.44Q107.21 43.20 101.81 43.20L101.81 43.20Q99.72 43.20 98.06 43.34L98.06 43.34L98.06 60.70Q98.06 63.07 99 64.04Q99.94 65.02 103.10 65.02L103.10 65.02ZM147.60 37.80Q150.84 37.80 153.58 39.31Q156.31 40.82 157.93 43.85Q159.55 46.87 159.55 51.19L159.55 51.19Q159.55 56.38 157.36 60.05Q155.16 63.72 151.60 65.59Q148.03 67.46 144 67.46L144 67.46Q141.26 67.46 138.64 66.60Q136.01 65.74 133.85 64.08L133.85 64.08L127.30 67.03L127.15 67.03Q126.86 67.03 126.79 66.74Q126.72 66.46 127.01 66.38L127.01 66.38Q128.74 65.38 129.64 63.61Q130.54 61.85 130.54 59.11L130.54 59.11L130.54 24.12Q130.54 21.60 130.07 20.52Q129.60 19.44 128.38 19.44L128.38 19.44Q127.44 19.44 125.71 20.23L125.71 20.23L125.64 20.23Q125.35 20.23 125.21 19.84Q125.06 19.44 125.21 19.37L125.21 19.37L135.72 14.40L136.08 14.33Q136.44 14.33 136.84 14.65Q137.23 14.98 137.23 15.26L137.23 15.26L137.23 42.62Q139.61 40.39 142.06 39.10Q144.50 37.80 147.60 37.80L147.60 37.80ZM145.73 66.02Q148.82 66.02 150.48 62.86Q152.14 59.69 152.14 54L152.14 54Q152.14 47.74 150.05 44.68Q147.96 41.62 144.22 41.62L144.22 41.62Q140.83 41.62 137.23 44.06L137.23 44.06L137.23 54.65Q137.23 58.61 138.60 61.16Q139.97 63.72 141.91 64.87Q143.86 66.02 145.73 66.02L145.73 66.02ZM192.17 20.74Q195.34 20.74 198.79 21.28Q202.25 21.82 204.19 22.68L204.19 22.68Q204.84 22.90 205.02 23.22Q205.20 23.54 205.34 24.34L205.34 24.34L206.21 34.34Q206.21 34.56 205.85 34.63Q205.49 34.70 205.42 34.42L205.42 34.42Q202.97 28.73 198.86 25.63Q194.76 22.54 189.36 22.54L189.36 22.54Q182.23 22.54 178.34 27.79Q174.46 33.05 174.46 41.90L174.46 41.90Q174.46 48.53 176.58 54Q178.70 59.47 182.56 62.68Q186.41 65.88 191.30 65.88L191.30 65.88Q195.91 65.88 199.55 62.82Q203.18 59.76 206.06 53.50L206.06 53.50Q206.14 53.21 206.53 53.28Q206.93 53.35 206.93 53.57L206.93 53.57L205.85 63.36Q205.70 64.22 205.52 64.48Q205.34 64.73 204.70 65.02L204.70 65.02Q198.29 67.39 191.52 67.39L191.52 67.39Q182.74 67.39 176.83 63.90Q170.93 60.41 168.16 55.04Q165.38 49.68 165.38 43.85L165.38 43.85Q165.38 37.01 169.09 31.75Q172.80 26.50 178.96 23.62Q185.11 20.74 192.17 20.74L192.17 20.74ZM226.87 67.39Q222.12 67.39 218.84 65.34Q215.57 63.29 213.95 60.01Q212.33 56.74 212.33 53.14L212.33 53.14Q212.33 48.60 214.85 45.18Q217.37 41.76 221.29 39.92Q225.22 38.09 229.32 38.09L229.32 38.09Q232.78 38.09 235.55 39.53Q238.32 40.97 238.32 43.49L238.32 43.49Q238.32 44.86 237.28 45.83Q236.23 46.80 234.36 46.80L234.36 46.80Q232.63 46.80 231.62 45.90Q230.62 45 229.97 43.13L229.97 43.13Q229.32 41.11 228.71 40.36Q228.10 39.60 226.51 39.60L226.51 39.60Q223.42 39.60 221.58 42.66Q219.74 45.72 219.74 50.76L219.74 50.76Q219.74 56.74 222.41 60.30Q225.07 63.86 230.90 63.86L230.90 63.86Q232.85 63.86 234.25 63.43Q235.66 63.00 237.82 61.99L237.82 61.99L237.89 61.99Q238.10 61.99 238.28 62.21Q238.46 62.42 238.32 62.57L238.32 62.57Q235.66 65.02 232.99 66.20Q230.33 67.39 226.87 67.39L226.87 67.39ZM264.10 66.82Q261.79 66.82 258.62 66.60L258.62 66.60Q257.47 66.53 255.78 66.46Q254.09 66.38 252 66.38L252 66.38L246.67 66.46Q245.23 66.53 242.78 66.53L242.78 66.53Q242.64 66.53 242.64 66.10Q242.64 65.66 242.78 65.66L242.78 65.66Q245.09 65.66 246.17 65.30Q247.25 64.94 247.64 63.90Q248.04 62.86 248.04 60.70L248.04 60.70L248.04 27.36Q248.04 25.20 247.64 24.19Q247.25 23.18 246.20 22.79Q245.16 22.39 242.93 22.39L242.93 22.39Q242.71 22.39 242.71 21.96Q242.71 21.53 242.93 21.53L242.93 21.53L246.74 21.60Q250.06 21.74 252 21.74L252 21.74Q254.95 21.74 258.05 21.53L258.05 21.53Q261.79 21.38 263.09 21.38L263.09 21.38Q270.36 21.38 276.01 24.26Q281.66 27.14 284.76 32.11Q287.86 37.08 287.86 43.27L287.86 43.27Q287.86 50.26 284.65 55.62Q281.45 60.98 276.01 63.90Q270.58 66.82 264.10 66.82L264.10 66.82ZM263.38 65.16Q267.98 65.16 271.51 62.82Q275.04 60.48 277.02 55.87Q279 51.26 279 44.86L279 44.86Q279 38.74 277.13 33.73Q275.26 28.73 271.80 25.85Q268.34 22.97 263.81 22.97L263.81 22.97Q259.34 22.97 257.69 23.83Q256.03 24.70 256.03 27.50L256.03 27.50L256.03 59.90Q256.03 62.78 257.54 63.97Q259.06 65.16 263.38 65.16L263.38 65.16ZM327.10 61.85L327.17 61.85Q327.38 61.85 327.56 62.21Q327.74 62.57 327.60 62.64L327.60 62.64L317.66 67.46L317.30 67.54Q316.66 67.54 316.12 66.17Q315.58 64.80 315.43 62.42L315.43 62.42Q310.10 67.46 304.56 67.46L304.56 67.46Q301.39 67.46 298.84 65.81Q296.28 64.15 294.77 60.95Q293.26 57.74 293.26 53.42L293.26 53.42Q293.26 47.95 295.81 44.46Q298.37 40.97 302.15 39.38Q305.93 37.80 309.74 37.80L309.74 37.80Q312.41 37.80 315.36 38.66L315.36 38.66L315.36 24.12Q315.36 21.60 314.89 20.52Q314.42 19.44 313.27 19.44L313.27 19.44Q312.34 19.44 310.61 20.23L310.61 20.23L310.54 20.23Q310.25 20.23 310.07 19.84Q309.89 19.44 310.03 19.37L310.03 19.37L320.62 14.40L320.90 14.33Q321.26 14.33 321.70 14.65Q322.13 14.98 322.13 15.26L322.13 15.26L322.13 58.18Q322.13 60.62 322.60 61.63Q323.06 62.64 324.14 62.64L324.14 62.64Q325.08 62.64 327.10 61.85L327.10 61.85ZM308.52 64.01Q312.12 64.01 315.36 60.98L315.36 60.98L315.36 60.62L315.36 43.13Q314.06 41.33 312.44 40.50Q310.82 39.67 308.66 39.67L308.66 39.67Q304.78 39.67 302.72 42.37Q300.67 45.07 300.67 51.12L300.67 51.12Q300.67 57.17 302.83 60.59Q304.99 64.01 308.52 64.01L308.52 64.01ZM363.38 55.08Q363.38 54.94 363.67 54.94L363.67 54.94Q363.89 54.94 364.07 55.04Q364.25 55.15 364.25 55.22L364.25 55.22Q363.53 60.84 363.53 65.45L363.53 65.45Q363.53 66.02 363.31 66.28Q363.10 66.53 362.45 66.53L362.45 66.53L330.62 66.53Q330.41 66.53 330.41 66.10Q330.41 65.66 330.62 65.66L330.62 65.66Q332.93 65.66 333.97 65.30Q335.02 64.94 335.38 63.90Q335.74 62.86 335.74 60.70L335.74 60.70L335.74 27.36Q335.74 25.20 335.38 24.19Q335.02 23.18 333.94 22.79Q332.86 22.39 330.62 22.39L330.62 22.39Q330.41 22.39 330.41 21.96Q330.41 21.53 330.62 21.53L330.62 21.53L361.15 21.53Q361.87 21.53 361.87 22.18L361.87 22.18L362.02 31.75Q362.02 31.90 361.62 31.97Q361.22 32.04 361.15 31.82L361.15 31.82Q360 27.65 357.26 25.63Q354.53 23.62 350.06 23.62L350.06 23.62L347.90 23.62Q345.74 23.62 344.74 24.55Q343.73 25.49 343.73 27.43L343.73 27.43L343.73 42.12L349.70 42.12Q353.88 42.12 356.11 40.68Q358.34 39.24 358.34 36.65L358.34 36.65Q358.34 36.43 358.74 36.43Q359.14 36.43 359.14 36.65L359.14 36.65L359.06 43.13L359.14 46.58Q359.28 49.03 359.28 50.47L359.28 50.47Q359.28 50.62 358.85 50.62Q358.42 50.62 358.42 50.47L358.42 50.47Q358.42 47.52 356.15 45.83Q353.88 44.14 349.63 44.14L349.63 44.14L343.73 44.14L343.73 60.41Q343.73 62.50 344.52 63.50Q345.31 64.51 347.04 64.51L347.04 64.51L349.42 64.51Q355.03 64.51 358.42 62.21Q361.80 59.90 363.38 55.08L363.38 55.08ZM395.21 61.85L395.35 61.78Q395.50 61.78 395.68 62.06Q395.86 62.35 395.71 62.50L395.71 62.50Q393.05 65.09 390.31 66.24Q387.58 67.39 384.34 67.39L384.34 67.39Q379.80 67.39 376.49 65.48Q373.18 63.58 371.45 60.37Q369.72 57.17 369.72 53.50L369.72 53.50Q369.72 49.32 371.88 45.76Q374.04 42.19 377.78 40.14Q381.53 38.09 386.14 38.09L386.14 38.09Q390.60 38.09 392.98 40.00Q395.35 41.90 395.35 45.22L395.35 45.22Q395.35 47.30 394.56 47.30L394.56 47.30L390.17 47.30L377.21 47.45Q376.99 48.82 376.99 50.47L376.99 50.47Q376.99 56.66 379.91 60.26Q382.82 63.86 387.94 63.86L387.94 63.86Q389.74 63.86 391.68 63.36Q393.62 62.86 395.21 61.85L395.21 61.85ZM383.47 39.53Q381.31 39.53 379.73 41.26Q378.14 42.98 377.42 46.01L377.42 46.01L387.65 45.79Q387.43 39.53 383.47 39.53L383.47 39.53ZM448.49 65.66Q448.63 65.66 448.63 66.10Q448.63 66.53 448.49 66.53L448.49 66.53L435.67 66.53Q434.09 66.53 429.77 60.59Q425.45 54.65 419.33 43.99L419.33 43.99Q418.75 44.06 417.67 44.06L417.67 44.06Q414.86 44.06 413.71 43.99L413.71 43.99L413.71 60.70Q413.71 62.93 414.07 63.94Q414.43 64.94 415.48 65.30Q416.52 65.66 418.82 65.66L418.82 65.66Q418.97 65.66 418.97 66.10Q418.97 66.53 418.82 66.53L418.82 66.53Q416.45 66.53 415.08 66.46L415.08 66.46L409.61 66.38L404.35 66.46Q402.91 66.53 400.46 66.53L400.46 66.53Q400.25 66.53 400.25 66.10Q400.25 65.66 400.46 65.66L400.46 65.66Q402.77 65.66 403.81 65.30Q404.86 64.94 405.25 63.90Q405.65 62.86 405.65 60.70L405.65 60.70L405.65 27.36Q405.65 25.20 405.29 24.19Q404.93 23.18 403.85 22.79Q402.77 22.39 400.54 22.39L400.54 22.39Q400.39 22.39 400.39 21.96Q400.39 21.53 400.54 21.53L400.54 21.53L404.35 21.60Q407.66 21.74 409.61 21.74L409.61 21.74Q411.70 21.74 414.22 21.53L414.22 21.53Q415.01 21.46 416.27 21.38Q417.53 21.31 419.26 21.31L419.26 21.31Q425.88 21.31 429.52 23.72Q433.15 26.14 433.15 30.46L433.15 30.46Q433.15 33.77 431.14 36.79Q429.12 39.82 425.88 41.69L425.88 41.69Q431.64 50.76 435.56 55.87Q439.49 60.98 442.55 63.32Q445.61 65.66 448.49 65.66L448.49 65.66ZM413.71 41.90Q415.44 42.19 417.89 42.19L417.89 42.19Q420.48 42.19 421.99 41.40Q423.50 40.61 424.19 38.66Q424.87 36.72 424.87 33.19L424.87 33.19Q424.87 27.29 423.14 25.06Q421.42 22.82 418.18 22.82L418.18 22.82Q415.73 22.82 414.72 23.90Q413.71 24.98 413.71 27.50L413.71 27.50L413.71 41.90ZM467.64 38.02Q469.30 38.02 470.84 39.20Q472.39 40.39 472.39 42.05L472.39 42.05Q472.39 43.56 471.46 44.53Q470.52 45.50 469.01 45.50L469.01 45.50Q467.93 45.50 467.24 45.07Q466.56 44.64 465.84 43.78L465.84 43.78Q465.19 43.06 464.72 42.73Q464.26 42.41 463.61 42.41L463.61 42.41Q462.89 42.41 462.06 42.95Q461.23 43.49 459.50 45.22L459.50 45.22L459.50 60.70Q459.50 63.58 460.87 64.62Q462.24 65.66 465.91 65.66L465.91 65.66Q466.20 65.66 466.20 66.10Q466.20 66.53 465.91 66.53L465.91 66.53Q463.39 66.53 461.95 66.46L461.95 66.46L456.12 66.38L451.87 66.46Q450.79 66.53 448.92 66.53L448.92 66.53Q448.70 66.53 448.70 66.10Q448.70 65.66 448.92 65.66L448.92 65.66Q451.15 65.66 451.94 64.62Q452.74 63.58 452.74 60.70L452.74 60.70L452.74 47.16Q452.74 44.93 452.20 43.88Q451.66 42.84 450.50 42.84L450.50 42.84Q449.28 42.84 447.05 43.85L447.05 43.85L446.90 43.85Q446.69 43.85 446.58 43.49Q446.47 43.13 446.62 43.06L446.62 43.06L456.62 38.16Q457.06 38.02 457.13 38.02L457.13 38.02Q457.92 38.02 458.60 39.49Q459.29 40.97 459.43 43.49L459.43 43.49Q462.38 40.46 464.29 39.24Q466.20 38.02 467.64 38.02L467.64 38.02ZM502.85 67.39Q494.93 67.39 489.02 64.37Q483.12 61.34 480.02 56.12Q476.93 50.90 476.93 44.50L476.93 44.50Q476.93 37.58 480.49 32.15Q484.06 26.71 490.28 23.72Q496.51 20.74 504.22 20.74L504.22 20.74Q507.60 20.74 511.06 21.28Q514.51 21.82 516.60 22.68L516.60 22.68Q517.25 22.90 517.43 23.22Q517.61 23.54 517.68 24.34L517.68 24.34L518.62 34.34Q518.62 34.56 518.26 34.63Q517.90 34.70 517.75 34.42L517.75 34.42Q515.23 28.87 510.80 25.78Q506.38 22.68 500.69 22.68L500.69 22.68Q493.34 22.68 489.49 27.79Q485.64 32.90 485.64 41.76L485.64 41.76Q485.64 48.89 488.09 54.47Q490.54 60.05 494.89 63.11Q499.25 66.17 504.65 66.17L504.65 66.17Q507.60 66.17 509.18 65.52Q510.77 64.87 511.49 63.00Q512.21 61.13 512.21 57.46L512.21 57.46Q512.21 53.71 511.78 52.24Q511.34 50.76 509.94 50.26Q508.54 49.75 505.08 49.75L505.08 49.75Q504.65 49.75 504.65 49.18L504.65 49.18Q504.65 48.96 504.76 48.78Q504.86 48.60 505.01 48.60L505.01 48.60Q511.13 48.96 514.87 48.96L514.87 48.96Q518.54 48.96 522.50 48.74L522.50 48.74Q522.65 48.74 522.76 48.92Q522.86 49.10 522.86 49.25L522.86 49.25Q522.86 49.75 522.50 49.75L522.50 49.75Q521.21 49.68 520.70 50.22Q520.20 50.76 520.06 52.38Q519.91 54 519.91 58.18L519.91 58.18Q519.91 61.42 520.16 62.78Q520.42 64.15 520.42 64.51L520.42 64.51Q520.42 64.94 520.24 65.09Q520.06 65.23 519.55 65.38L519.55 65.38Q510.26 67.39 502.85 67.39L502.85 67.39ZM543.60 63.36Q547.85 64.08 550.37 64.80Q552.89 65.52 554.72 67.25Q556.56 68.98 556.56 72.14L556.56 72.14Q556.56 76.03 554.08 79.42Q551.59 82.80 547.38 84.82Q543.17 86.83 538.27 86.83L538.27 86.83Q532.94 86.83 529.56 84.53Q526.18 82.22 526.18 78.55L526.18 78.55Q526.18 76.10 527.76 73.51Q529.34 70.92 533.66 67.82L533.66 67.82Q531.50 67.18 530.32 65.95Q529.13 64.73 529.13 62.64L529.13 62.64Q529.13 60.84 530.53 58.93Q531.94 57.02 534.89 55.37L534.89 55.37Q531.72 54.29 529.99 52.06Q528.26 49.82 528.26 47.23L528.26 47.23Q528.26 44.35 530.14 42.34Q532.01 40.32 534.89 39.28Q537.77 38.23 540.65 38.23L540.65 38.23Q545.47 38.23 548.64 40.61L548.64 40.61Q550.58 39.31 552.46 38.66Q554.33 38.02 556.49 38.02L556.49 38.02Q557.06 38.02 557.06 40.03L557.06 40.03Q557.06 41.04 556.78 42.26Q556.49 43.49 556.27 43.27L556.27 43.27Q553.25 42.05 550.87 42.05L550.87 42.05L550.30 42.05Q552.17 44.28 552.17 47.09L552.17 47.09Q552.17 49.82 550.33 51.88Q548.50 53.93 545.62 55.01Q542.74 56.09 539.71 56.09L539.71 56.09Q537.77 56.09 536.04 55.66L536.04 55.66Q534.60 56.81 534.60 58.61L534.60 58.61Q534.60 60.19 535.79 61.06Q536.98 61.92 538.70 62.35Q540.43 62.78 543.60 63.36L543.60 63.36ZM538.27 39.60Q535.25 39.60 535.25 45.29L535.25 45.29Q535.25 49.03 537.05 51.91Q538.85 54.79 541.66 54.79L541.66 54.79Q543.02 54.79 544.07 53.35Q545.11 51.91 545.11 48.82L545.11 48.82Q545.11 44.93 543.10 42.26Q541.08 39.60 538.27 39.60L538.27 39.60ZM542.09 84.53Q545.83 84.53 548.17 82.33Q550.51 80.14 550.51 76.46L550.51 76.46Q550.51 73.73 548.96 72.25Q547.42 70.78 545.22 70.16Q543.02 69.55 539.21 68.98L539.21 68.98L535.32 68.33Q533.30 70.70 533.30 75.10L533.30 75.10Q533.30 79.63 535.75 82.08Q538.20 84.53 542.09 84.53L542.09 84.53Z"/></svg>