<svg xmlns="http://www.w3.org/2000/svg" xmlns:xlink="http://www.w3.org/1999/xlink" width="501.0480000000002" height="87.19200000000001"><path fill="#111111" d="M41.26 65.66Q41.54 65.66 41.54 66.10Q41.54 66.53 41.26 66.53L41.26 66.53Q40.10 66.53 37.66 66.38L37.66 66.38Q34.92 66.24 33.26 66.24L33.26 66.24Q31.68 66.24 29.09 66.38L29.09 66.38Q26.78 66.53 25.63 66.53L25.63 66.53Q25.34 66.53 25.34 66.10Q25.34 65.66 25.63 65.66L25.63 65.66Q27.79 65.66 28.73 65.02Q29.66 64.37 29.66 62.78L29.66 62.78Q29.66 61.63 29.38 60.48L29.38 60.48L26.28 45.29L15.91 45.29L9.36 57.24Q7.49 60.62 7.49 62.50L7.49 62.50Q7.49 64.15 8.86 64.91Q10.22 65.66 13.03 65.66L13.03 65.66Q13.32 65.66 13.28 66.10Q13.25 66.53 12.96 66.53L12.96 66.53Q12.02 66.53 9.29 66.38L9.29 66.38Q5.98 66.24 4.18 66.24L4.18 66.24Q2.66 66.24 0.65 66.38L0.65 66.38Q-1.37 66.53-2.45 66.53L-2.45 66.53Q-2.74 66.53-2.74 66.10Q-2.74 65.66-2.45 65.66L-2.45 65.66Q-0.43 65.66 2.30 63.36Q5.04 61.06 7.42 56.74L7.42 56.74L27.50 20.88Q27.65 20.66 28.08 20.66L28.08 20.66Q28.30 20.66 28.51 20.74Q28.73 20.81 28.80 20.95L28.80 20.95L36.65 60.48Q37.08 62.86 37.40 63.79Q37.73 64.73 38.59 65.20Q39.46 65.66 41.26 65.66L41.26 65.66ZM23.54 31.46L17.06 43.27L25.92 43.27L23.54 31.46ZM73.44 60.98Q73.51 60.91 73.66 60.91L73.66 60.91Q73.87 60.91 74.02 61.16Q74.16 61.42 74.02 61.56L74.02 61.56Q69.41 67.18 65.95 67.18L65.95 67.18Q64.08 67.18 63.22 66.13Q62.35 65.09 62.35 62.86L62.35 62.86Q62.35 61.63 62.57 60.12L62.57 60.12L63.43 55.22Q60.70 60.98 56.92 64.22Q53.14 67.46 49.54 67.46L49.54 67.46Q47.30 67.46 46.01 66.10Q44.71 64.73 44.71 61.99L44.71 61.99Q44.71 57.17 47.92 51.44Q51.12 45.72 55.84 41.76Q60.55 37.80 64.73 37.80L64.73 37.80Q66.02 37.80 67.43 38.27Q68.83 38.74 69.84 39.67L69.84 39.67Q71.21 38.66 72.07 37.22L72.07 37.22Q72.22 37.08 72.36 37.08L72.36 37.08Q72.58 37.08 72.79 37.22Q73.01 37.37 72.94 37.44L72.94 37.44L68.76 60.12Q68.54 61.06 68.54 61.78L68.54 61.78Q68.54 63.50 69.55 63.50L69.55 63.50Q70.92 63.50 73.44 60.98L73.44 60.98ZM54.14 62.21Q56.30 62.21 58.57 59.94Q60.84 57.67 62.53 54.40Q64.22 51.12 64.73 48.31L64.73 48.31Q64.94 47.09 64.94 46.15L64.94 46.15Q64.94 43.85 63.90 42.59Q62.86 41.33 60.98 41.33L60.98 41.33Q57.67 41.33 55.12 44.89Q52.56 48.46 51.55 54.14L51.55 54.14Q51.19 56.45 51.19 57.60L51.19 57.60Q51.19 59.98 51.98 61.09Q52.78 62.21 54.14 62.21L54.14 62.21ZM102.38 41.33Q107.50 42.05 110.34 44.82Q113.18 47.59 113.18 51.62L113.18 51.62Q113.18 52.70 112.97 53.93L112.97 53.93Q112.25 57.53 109.55 60.48Q106.85 63.43 102.82 65.12Q98.78 66.82 94.25 66.82L94.25 66.82Q92.30 66.82 89.93 66.60L89.93 66.60Q88.99 66.53 87.73 66.46Q86.47 66.38 84.96 66.38L84.96 66.38L80.06 66.46Q78.77 66.53 76.61 66.53L76.61 66.53Q76.46 66.53 76.46 66.10Q76.46 65.66 76.61 65.66L76.61 65.66Q79.42 65.66 80.60 64.62Q81.79 63.58 82.37 60.48L82.37 60.48L88.27 27.14Q88.49 25.85 88.49 25.06L88.49 25.06Q88.49 23.40 87.62 22.90Q86.76 22.39 84.53 22.39L84.53 22.39Q84.31 22.39 84.31 22.10L84.31 22.10Q84.31 21.89 84.38 21.74Q84.46 21.60 84.53 21.53L84.53 21.53L87.98 21.60Q90.86 21.74 92.59 21.74L92.59 21.74Q94.54 21.74 96.48 21.53L96.48 21.53Q97.13 21.46 98.42 21.38Q99.72 21.31 100.73 21.31L100.73 21.31Q106.78 21.31 110.05 23.33Q113.33 25.34 113.33 29.09L113.33 29.09Q113.33 29.95 113.11 30.96L113.11 30.96Q112.39 34.27 109.66 36.97Q106.92 39.67 102.38 41.33L102.38 41.33ZM99.65 22.75Q97.70 22.75 96.73 23.90Q95.76 25.06 95.33 27.79L95.33 27.79L92.95 41.18L95.47 41.26Q99.50 41.26 102.35 38.30Q105.19 35.35 106.13 30.82L106.13 30.82Q106.42 29.59 106.42 28.37L106.42 28.37Q106.42 25.56 104.69 24.16Q102.96 22.75 99.65 22.75L99.65 22.75ZM105.26 54.79Q105.70 52.92 105.70 51.34L105.70 51.34Q105.70 47.45 103.32 45.32Q100.94 43.20 96.05 43.20L96.05 43.20Q94.03 43.20 92.52 43.34L92.52 43.34L89.42 60.98Q89.21 62.06 89.21 62.86L89.21 62.86Q89.21 64.15 90.04 64.69Q90.86 65.23 93.10 65.23L93.10 65.23Q98.28 65.23 101.23 62.57Q104.18 59.90 105.26 54.79L105.26 54.79ZM141.26 37.80Q144.07 37.80 145.66 39.92Q147.24 42.05 147.24 45.65L147.24 45.65Q147.24 46.94 147.02 48.46L147.02 48.46Q145.94 54.29 142.56 58.61Q139.18 62.93 134.89 65.20Q130.61 67.46 127.01 67.46L127.01 67.46Q123.19 67.46 121.07 65.92Q118.94 64.37 118.94 61.63L118.94 61.63Q118.94 61.13 119.09 60.26L119.09 60.26L125.71 24.12Q125.93 22.68 125.93 21.74L125.93 21.74Q125.93 19.66 124.56 19.66L124.56 19.66Q123.70 19.66 121.54 20.66L121.54 20.66L121.46 20.66Q121.18 20.66 121.07 20.27Q120.96 19.87 121.25 19.80L121.25 19.80L132.41 14.33L132.55 14.33Q132.84 14.33 133.09 14.54Q133.34 14.76 133.27 14.90L133.27 14.90L127.08 49.75Q129.60 44.35 133.38 41.08Q137.16 37.80 141.26 37.80L141.26 37.80ZM139.90 50.69Q140.26 49.18 140.26 47.30L140.26 47.30Q140.26 45.14 139.50 43.88Q138.74 42.62 137.16 42.62L137.16 42.62Q133.20 42.62 129.96 47.34Q126.72 52.06 125.35 59.62L125.35 59.62Q125.28 59.98 125.28 60.77L125.28 60.77Q125.28 62.78 126.54 64.12Q127.80 65.45 129.67 65.45L129.67 65.45Q131.83 65.45 133.92 63.68Q136.01 61.92 137.59 58.57Q139.18 55.22 139.90 50.69L139.90 50.69ZM171.43 67.39Q161.42 67.39 156.82 62.17Q152.21 56.95 152.21 49.18L152.21 49.18Q152.21 46.87 152.71 43.99L152.71 43.99Q154.01 36.86 158.11 31.57Q162.22 26.28 167.94 23.51Q173.66 20.74 179.78 20.74L179.78 20.74Q182.66 20.74 185.72 21.35Q188.78 21.96 190.51 22.82L190.51 22.82Q190.94 23.11 191.05 23.40Q191.16 23.69 191.09 24.48L191.09 24.48L189.94 34.13Q189.94 34.34 189.58 34.34Q189.22 34.34 189.14 34.13L189.14 34.13Q187.92 28.73 184.72 25.70Q181.51 22.68 176.83 22.68L176.83 22.68Q170.57 22.68 166.28 27.72Q162.00 32.76 160.78 41.62L160.78 41.62Q160.34 44.64 160.34 47.52L160.34 47.52Q160.34 52.78 161.71 56.95Q163.08 61.13 165.71 63.54Q168.34 65.95 171.86 65.95L171.86 65.95Q175.46 65.95 179.21 63.29Q182.95 60.62 187.13 55.01L187.13 55.01Q187.20 54.86 187.42 54.86L187.42 54.86Q187.63 54.86 187.81 54.97Q187.99 55.08 187.92 55.22L187.92 55.22L185.98 63.50Q185.76 64.37 185.54 64.69Q185.33 65.02 184.68 65.16L184.68 65.16Q178.20 67.39 171.43 67.39L171.43 67.39ZM202.25 67.46Q197.21 67.46 194.83 64.19Q192.46 60.91 192.46 55.94L192.46 55.94Q192.46 54.14 192.82 51.98L192.82 51.98Q193.54 47.81 196.09 44.57Q198.65 41.33 202.10 39.56Q205.56 37.80 208.94 37.80L208.94 37.80Q211.61 37.80 213.66 38.95Q215.71 40.10 215.71 42.26L215.71 42.26Q215.71 43.92 214.74 44.89Q213.77 45.86 212.04 45.86L212.04 45.86Q210.31 45.86 209.52 44.96Q208.73 44.06 208.44 42.62L208.44 42.62Q208.08 41.26 207.54 40.54Q207.00 39.82 205.78 39.82L205.78 39.82Q203.62 39.82 201.96 42.44Q200.30 45.07 199.58 49.46L199.58 49.46Q199.15 51.84 199.15 54L199.15 54Q199.15 58.54 201.02 61.24Q202.90 63.94 206.64 63.94L206.64 63.94Q208.08 63.94 209.95 63.25Q211.82 62.57 212.98 61.70L212.98 61.70L213.05 61.70Q213.26 61.70 213.48 61.92Q213.70 62.14 213.55 62.35L213.55 62.35Q210.96 64.87 208.01 66.17Q205.06 67.46 202.25 67.46L202.25 67.46ZM233.78 66.82Q232.06 66.82 229.75 66.60L229.75 66.60Q228.89 66.53 227.59 66.46Q226.30 66.38 224.64 66.38L224.64 66.38L219.89 66.46Q218.74 66.53 216.65 66.53L216.65 66.53Q216.43 66.53 216.43 66.10Q216.43 65.66 216.65 65.66L216.65 65.66Q218.66 65.66 219.64 65.30Q220.61 64.94 221.11 63.94Q221.62 62.93 222.05 60.70L222.05 60.70L227.95 27.36Q228.24 25.49 228.24 24.98L228.24 24.98Q228.24 23.47 227.38 22.93Q226.51 22.39 224.35 22.39L224.35 22.39Q224.21 22.39 224.21 21.96Q224.21 21.53 224.35 21.53L224.35 21.53L227.74 21.60Q230.62 21.74 232.49 21.74L232.49 21.74Q234.50 21.74 236.66 21.53L236.66 21.53Q239.54 21.38 240.84 21.38L240.84 21.38Q246.89 21.38 251.42 23.58Q255.96 25.78 258.37 29.77Q260.78 33.77 260.78 39.02L260.78 39.02Q260.78 41.40 260.42 43.27L260.42 43.27Q259.20 50.18 255.13 55.55Q251.06 60.91 245.38 63.86Q239.69 66.82 233.78 66.82L233.78 66.82ZM233.50 65.38Q240.41 65.38 245.48 59.94Q250.56 54.50 252.29 44.86L252.29 44.86Q252.79 42.05 252.79 38.81L252.79 38.81Q252.79 31.82 249.77 27.32Q246.74 22.82 240.19 22.82L240.19 22.82Q237.60 22.82 236.52 23.87Q235.44 24.91 235.01 27.50L235.01 27.50L229.25 59.90Q229.03 61.06 229.03 61.92L229.03 61.92Q229.03 63.72 230.04 64.55Q231.05 65.38 233.50 65.38L233.50 65.38ZM295.70 14.90L287.64 60.12Q287.42 61.20 287.42 61.85L287.42 61.85Q287.42 63.50 288.50 63.50L288.50 63.50Q289.22 63.50 290.12 62.86Q291.02 62.21 292.32 60.98L292.32 60.98Q292.46 60.84 292.61 60.84L292.61 60.84Q292.82 60.84 292.97 61.09Q293.11 61.34 292.90 61.56L292.90 61.56Q290.45 64.44 288.58 65.81Q286.70 67.18 284.69 67.18L284.69 67.18Q281.23 67.18 281.23 63.07L281.23 63.07Q281.23 61.63 281.52 60.12L281.52 60.12L282.46 55.15Q279.50 60.98 276.16 64.22Q272.81 67.46 269.28 67.46L269.28 67.46Q266.54 67.46 264.71 65.70Q262.87 63.94 262.87 60.34L262.87 60.34Q262.87 58.90 263.16 57.46L263.16 57.46Q264.10 52.42 267.26 47.88Q270.43 43.34 274.61 40.57Q278.78 37.80 282.67 37.80L282.67 37.80Q284.33 37.80 285.55 38.30L285.55 38.30L288.14 24.12Q288.36 22.68 288.36 21.74L288.36 21.74Q288.36 19.66 286.99 19.66L286.99 19.66Q286.13 19.66 283.97 20.66L283.97 20.66L283.90 20.66Q283.54 20.66 283.46 20.27Q283.39 19.87 283.68 19.80L283.68 19.80L294.84 14.33L294.98 14.33Q295.27 14.33 295.52 14.54Q295.78 14.76 295.70 14.90L295.70 14.90ZM272.88 62.42Q275.18 62.42 277.38 60.26Q279.58 58.10 281.20 54.97Q282.82 51.84 283.54 49.03L283.54 49.03L283.90 47.09Q284.18 44.35 282.60 42.84Q281.02 41.33 278.57 41.33L278.57 41.33Q271.51 41.33 269.50 53.57L269.50 53.57Q269.21 55.30 269.21 57.10L269.21 57.10Q269.21 62.42 272.88 62.42L272.88 62.42ZM331.27 21.53Q331.85 21.53 331.70 22.18L331.70 22.18L330.19 31.82Q330.19 32.04 329.90 32.04L329.90 32.04Q329.69 32.04 329.51 31.93Q329.33 31.82 329.33 31.75L329.33 31.75Q329.04 27.79 326.52 25.42Q324.00 23.04 320.04 23.04L320.04 23.04L318.74 23.04Q316.66 23.04 315.72 23.36Q314.78 23.69 314.39 24.55Q313.99 25.42 313.63 27.43L313.63 27.43L311.04 42.12L319.18 42.12Q322.49 42.12 324.25 40.86Q326.02 39.60 326.66 36.65L326.66 36.65Q326.74 36.29 327.17 36.32Q327.60 36.36 327.53 36.72L327.53 36.72Q327.24 38.74 326.66 41.18L326.66 41.18Q326.66 41.47 326.30 43.13L326.30 43.13Q326.09 44.42 325.80 46.51L325.80 46.51Q325.66 47.30 325.51 48.31Q325.37 49.32 325.15 50.54L325.15 50.54Q325.08 50.83 324.65 50.80Q324.22 50.76 324.29 50.47L324.29 50.47Q324.43 49.46 324.43 49.03L324.43 49.03Q324.43 46.66 322.92 45.40Q321.41 44.14 318.67 44.14L318.67 44.14L310.68 44.14L307.80 60.41Q307.58 61.70 307.58 62.57L307.58 62.57Q307.58 64.01 308.38 64.51Q309.17 65.02 311.26 65.02L311.26 65.02L313.13 65.02Q317.30 65.02 321.34 62.32Q325.37 59.62 328.03 55.08L328.03 55.08Q328.10 54.86 328.54 54.97Q328.97 55.08 328.82 55.22L328.82 55.22Q327.67 58.97 326.38 65.45L326.38 65.45Q326.23 66.10 326.02 66.31Q325.80 66.53 325.22 66.53L325.22 66.53L295.34 66.53Q295.13 66.53 295.13 66.10Q295.13 65.66 295.34 65.66L295.34 65.66Q297.36 65.66 298.33 65.30Q299.30 64.94 299.77 63.94Q300.24 62.93 300.67 60.70L300.67 60.70L306.50 27.36Q306.79 25.99 306.79 24.91L306.79 24.91Q306.79 23.40 305.96 22.90Q305.14 22.39 302.98 22.39L302.98 22.39Q302.83 22.39 302.83 21.96Q302.83 21.53 302.98 21.53L302.98 21.53L331.27 21.53ZM351.58 37.80Q354.31 37.80 355.82 38.74Q357.34 39.67 357.34 41.33L357.34 41.33Q357.34 44.57 352.55 47.41Q347.76 50.26 340.99 51.55L340.99 51.55Q340.78 53.14 340.78 54.65L340.78 54.65Q340.78 58.97 342.58 61.60Q344.38 64.22 347.90 64.22L347.90 64.22Q349.42 64.22 351.18 63.68Q352.94 63.14 354.38 61.99L354.38 61.99L354.46 61.99Q354.67 61.99 354.85 62.21Q355.03 62.42 354.89 62.57L354.89 62.57Q352.30 65.09 349.42 66.24Q346.54 67.39 343.66 67.39L343.66 67.39Q338.69 67.39 336.20 64.37Q333.72 61.34 333.72 56.74L333.72 56.74Q333.72 55.15 334.08 53.21L334.08 53.21Q334.80 49.32 337.28 45.79Q339.77 42.26 343.51 40.03Q347.26 37.80 351.58 37.80L351.58 37.80ZM350.06 43.20Q350.14 42.91 350.14 42.34L350.14 42.34Q350.14 41.11 349.52 40.43Q348.91 39.74 347.83 39.74L347.83 39.74Q345.53 39.74 343.76 42.70Q342.00 45.65 341.14 50.40L341.14 50.40Q349.42 48.24 350.06 43.20L350.06 43.20ZM401.83 65.66Q402.05 65.66 402.05 66.10Q402.05 66.53 401.83 66.53L401.83 66.53L390.96 66.53Q389.38 66.53 386.53 60.77Q383.69 55.01 380.23 43.27L380.23 43.27Q378.29 43.78 376.06 43.78L376.06 43.78Q375.62 43.78 375.19 43.63L375.19 43.63L372.17 60.70Q371.88 62.06 371.88 63.14L371.88 63.14Q371.88 64.66 372.74 65.16Q373.61 65.66 375.84 65.66L375.84 65.66Q376.13 65.66 376.13 66.10Q376.13 66.53 375.91 66.53L375.91 66.53Q373.68 66.53 372.46 66.46L372.46 66.46L367.63 66.38L362.66 66.46Q361.44 66.53 359.21 66.53L359.21 66.53Q358.92 66.53 358.92 66.10Q358.92 65.66 359.21 65.66L359.21 65.66Q361.37 65.66 362.45 65.27Q363.53 64.87 364.10 63.83Q364.68 62.78 365.11 60.70L365.11 60.70L370.94 27.36Q371.23 25.99 371.23 24.91L371.23 24.91Q371.23 23.40 370.37 22.90Q369.50 22.39 367.20 22.39L367.20 22.39Q366.91 22.39 366.91 21.96Q366.91 21.53 367.20 21.53L367.20 21.53L370.66 21.60Q373.54 21.74 375.41 21.74L375.41 21.74Q376.63 21.74 377.68 21.67Q378.72 21.60 379.51 21.53L379.51 21.53Q381.60 21.31 383.11 21.31L383.11 21.31Q388.94 21.31 391.93 23.15Q394.92 24.98 394.92 28.37L394.92 28.37Q394.92 29.30 394.70 30.31L394.70 30.31Q393.98 33.48 391.64 36.32Q389.30 39.17 385.92 41.11L385.92 41.11Q389.45 50.40 392.08 55.69Q394.70 60.98 397.01 63.32Q399.31 65.66 401.83 65.66L401.83 65.66ZM375.55 41.62Q376.42 41.83 377.50 41.83L377.50 41.83Q381.82 41.83 384.05 39.74Q386.28 37.66 387.00 32.76L387.00 32.76Q387.29 30.46 387.29 29.59L387.29 29.59Q387.29 26.06 385.96 24.44Q384.62 22.82 382.46 22.82L382.46 22.82Q380.74 22.82 380.02 23.08Q379.30 23.33 378.90 24.23Q378.50 25.13 378.07 27.50L378.07 27.50L375.55 41.62ZM423.29 38.09Q425.16 38.09 426.85 39.46Q428.54 40.82 428.26 42.55L428.26 42.55Q428.11 43.63 427.25 44.57Q426.38 45.50 425.09 45.50L425.09 45.50Q423.79 45.50 422.28 44.28L422.28 44.28Q421.78 43.92 421.27 43.63Q420.77 43.34 420.26 43.34L420.26 43.34Q419.04 43.34 417.24 47.16Q415.44 50.98 413.82 56.27Q412.20 61.56 411.48 65.59L411.48 65.59L411.48 65.66Q411.34 66.31 410.33 66.71Q409.32 67.10 407.45 67.10L407.45 67.10Q405.07 67.10 405.07 66.53L405.07 66.53Q405.14 66.02 405.54 64.37Q405.94 62.71 406.22 61.20L406.22 61.20L409.18 45.14Q409.32 43.99 409.32 43.63L409.32 43.63Q409.32 41.62 408.02 41.62L408.02 41.62Q406.58 41.62 403.92 44.50L403.92 44.50Q403.85 44.57 403.70 44.57L403.70 44.57Q403.42 44.57 403.27 44.32Q403.13 44.06 403.34 43.85L403.34 43.85Q405.94 40.82 407.99 39.46Q410.04 38.09 412.13 38.09L412.13 38.09Q413.93 38.09 414.72 39.06Q415.51 40.03 415.51 41.90L415.51 41.90Q415.51 42.98 415.30 44.28L415.30 44.28L413.86 52.20Q418.10 38.09 423.29 38.09L423.29 38.09ZM451.30 67.39Q444.96 67.39 440.50 65.02Q436.03 62.64 433.73 58.43Q431.42 54.22 431.42 48.74L431.42 48.74Q431.42 46.08 431.93 43.56L431.93 43.56Q433.15 36.94 437.18 31.75Q441.22 26.57 447.16 23.65Q453.10 20.74 459.72 20.74L459.72 20.74Q462.82 20.74 465.88 21.35Q468.94 21.96 470.66 22.82L470.66 22.82Q471.10 23.11 471.20 23.40Q471.31 23.69 471.24 24.48L471.24 24.48L470.09 34.13Q470.02 34.34 469.69 34.34Q469.37 34.34 469.30 34.13L469.30 34.13Q468.00 28.66 464.80 25.60Q461.59 22.54 456.70 22.54L456.70 22.54Q450.22 22.54 445.79 27.47Q441.36 32.40 440.06 40.90L440.06 40.90Q439.56 43.99 439.56 47.30L439.56 47.30Q439.56 55.94 443.30 60.91Q447.05 65.88 453.67 65.88L453.67 65.88Q457.20 65.88 458.78 64.08Q460.37 62.28 460.94 57.46L460.94 57.46Q461.30 54.79 461.30 53.64L461.30 53.64Q461.30 51.91 460.69 51.12Q460.08 50.33 458.75 50.04Q457.42 49.75 454.68 49.75L454.68 49.75Q454.54 49.75 454.43 49.57Q454.32 49.39 454.32 49.18L454.32 49.18Q454.32 48.96 454.43 48.78Q454.54 48.60 454.68 48.60L454.68 48.60Q460.08 48.96 463.54 48.96L463.54 48.96Q466.92 48.96 470.59 48.74L470.59 48.74Q470.81 48.74 470.84 49.25Q470.88 49.75 470.59 49.75L470.59 49.75Q469.66 49.68 469.22 50.22Q468.79 50.76 468.43 52.85Q468.07 54.94 467.64 58.18L467.64 58.18Q467.21 60.98 467.14 62.50Q467.06 64.01 466.92 64.51L466.92 64.51Q466.85 64.94 466.70 65.09Q466.56 65.23 466.13 65.38L466.13 65.38Q457.56 67.39 451.30 67.39L451.30 67.39ZM501.48 38.02Q501.84 38.02 501.84 39.17L501.84 39.17Q501.84 40.39 501.52 41.69Q501.19 42.98 500.90 42.77L500.90 42.77Q498.60 41.18 495.58 41.04L495.58 41.04Q497.23 43.13 497.23 46.22L497.23 46.22Q497.23 47.66 496.94 48.82L496.94 48.82Q495.94 53.64 492.26 56.56Q488.59 59.47 484.20 59.47L484.20 59.47Q483.26 59.47 482.83 59.40L482.83 59.40Q482.40 60.26 482.40 60.77L482.40 60.77Q482.18 62.57 483.66 63.76Q485.14 64.94 488.45 66.60L488.45 66.60Q491.26 67.97 492.95 69.01Q494.64 70.06 495.86 71.71Q497.09 73.37 497.09 75.67L497.09 75.67Q497.09 78.98 494.86 81.50Q492.62 84.02 488.95 85.39Q485.28 86.76 481.03 86.76L481.03 86.76Q475.78 86.76 472.75 84.71Q469.73 82.66 469.73 79.56L469.73 79.56Q469.73 76.68 472.25 74.20Q474.77 71.71 479.45 69.19L479.45 69.19Q476.86 67.46 476.86 65.52L476.86 65.52Q476.86 64.01 478.08 62.50Q479.30 60.98 481.61 59.11L481.61 59.11Q479.09 58.39 477.72 56.27Q476.35 54.14 476.35 51.34L476.35 51.34Q476.35 50.54 476.64 48.82L476.64 48.82Q477.50 44.28 481.10 41.29Q484.70 38.30 489.31 38.30L489.31 38.30Q492.41 38.30 494.35 39.82L494.35 39.82Q498.17 38.02 501.48 38.02L501.48 38.02ZM490.68 49.46Q490.82 48.02 490.82 47.16L490.82 47.16Q490.82 44.14 490.03 41.98Q489.24 39.82 487.58 39.82L487.58 39.82Q486.00 39.82 484.63 42.26Q483.26 44.71 482.90 48.31L482.90 48.31Q482.76 50.04 482.76 50.76L482.76 50.76Q482.76 53.93 483.70 55.91Q484.63 57.89 486.07 57.89L486.07 57.89Q487.66 57.89 488.99 55.55Q490.32 53.21 490.68 49.46L490.68 49.46ZM491.18 79.06Q491.18 76.39 489.17 74.74Q487.15 73.08 483.34 71.21L483.34 71.21Q481.75 70.56 480.46 69.77L480.46 69.77Q476.21 73.15 476.21 77.40L476.21 77.40Q476.21 80.50 478.66 82.51Q481.10 84.53 484.70 84.53L484.70 84.53Q488.02 84.53 489.60 82.91Q491.18 81.29 491.18 79.06L491.18 79.06Z"/></svg>