<svg xmlns="http://www.w3.org/2000/svg" xmlns:xlink="http://www.w3.org/1999/xlink" width="549.5039999999999" height="87.19200000000001"><path fill="#111111" d="M50.76 65.66Q51.05 65.66 51.05 66.10Q51.05 66.53 50.76 66.53L50.76 66.53Q49.39 66.53 46.37 66.38L46.37 66.38Q43.49 66.24 42.12 66.24L42.12 66.24Q40.46 66.24 38.02 66.38L38.02 66.38Q35.57 66.53 34.34 66.53L34.34 66.53Q34.06 66.53 34.06 66.10Q34.06 65.66 34.34 65.66L34.34 65.66Q36.79 65.66 37.87 65.20Q38.95 64.73 38.95 63.50L38.95 63.50Q38.95 62.28 37.87 60.12L37.87 60.12L29.81 43.42L16.56 43.42L10.66 57.02Q9.65 59.40 9.65 60.98L9.65 60.98Q9.65 65.66 16.63 65.66L16.63 65.66Q16.99 65.66 16.99 66.10Q16.99 66.53 16.63 66.53L16.63 66.53Q15.34 66.53 12.89 66.38L12.89 66.38Q10.15 66.24 8.14 66.24L8.14 66.24Q6.26 66.24 3.67 66.38L3.67 66.38Q1.37 66.53-0.07 66.53L-0.07 66.53Q-0.36 66.53-0.36 66.10Q-0.36 65.66-0.07 65.66L-0.07 65.66Q1.94 65.66 3.35 64.87Q4.75 64.08 6.05 62.14Q7.34 60.19 9.00 56.38L9.00 56.38L24.34 21.02Q24.41 20.81 24.84 20.77Q25.27 20.74 25.34 21.02L25.34 21.02L42.70 56.66Q45.14 61.92 46.87 63.79Q48.60 65.66 50.76 65.66L50.76 65.66ZM22.82 28.80L17.21 41.76L29.02 41.76L22.82 28.80ZM80.71 62.64L80.78 62.64Q81.07 62.64 81.18 62.96Q81.29 63.29 81.00 63.43L81.00 63.43L73.58 66.96Q73.30 67.10 72.94 67.10L72.94 67.10Q72.00 67.10 71.17 65.92Q70.34 64.73 70.06 62.64L70.06 62.64L65.95 64.87Q61.85 67.03 59.11 67.03L59.11 67.03Q56.88 67.03 55.62 65.84Q54.36 64.66 54.36 62.71L54.36 62.71Q54.36 60.62 55.91 59.47Q57.46 58.32 61.63 56.88L61.63 56.88L69.91 54L69.91 48.17Q69.91 43.56 68.80 41.58Q67.68 39.60 65.59 39.60L65.59 39.60Q63.36 39.60 62.10 41.22Q60.84 42.84 60.55 45.43L60.55 45.43Q60.26 48.60 57.38 48.60L57.38 48.60Q56.09 48.60 55.37 47.95Q54.65 47.30 54.65 46.15L54.65 46.15Q54.65 44.42 56.92 42.52Q59.18 40.61 62.35 39.35Q65.52 38.09 68.04 38.09L68.04 38.09Q71.06 38.09 72.94 40.07Q74.81 42.05 74.81 46.01L74.81 46.01L74.81 58.75Q74.81 61.13 75.49 62.28Q76.18 63.43 77.62 63.43L77.62 63.43Q78.91 63.43 80.71 62.64L80.71 62.64ZM66.60 63.29L69.91 61.56L69.91 60.84L69.91 55.01L63.58 57.38Q61.85 58.03 61.09 58.86Q60.34 59.69 60.34 60.91L60.34 60.91Q60.34 62.42 61.20 63.29Q62.06 64.15 63.43 64.15L63.43 64.15Q65.02 64.15 66.60 63.29L66.60 63.29ZM105.62 41.18Q111.38 41.69 114.91 45.07Q118.44 48.46 118.44 53.35L118.44 53.35Q118.44 57.17 116.46 60.23Q114.48 63.29 111.06 65.05Q107.64 66.82 103.39 66.82L103.39 66.82Q101.09 66.82 98.35 66.60L98.35 66.60Q97.34 66.53 95.98 66.46Q94.61 66.38 92.88 66.38L92.88 66.38L87.84 66.46Q86.47 66.53 84.17 66.53L84.17 66.53Q83.95 66.53 83.95 66.10Q83.95 65.66 84.17 65.66L84.17 65.66Q86.69 65.66 87.88 65.27Q89.06 64.87 89.57 63.86Q90.07 62.86 90.07 60.70L90.07 60.70L90.07 27.36Q90.07 25.20 89.60 24.19Q89.14 23.18 87.95 22.79Q86.76 22.39 84.24 22.39L84.24 22.39Q84.10 22.39 84.10 21.96Q84.10 21.53 84.24 21.53L84.24 21.53L87.84 21.60Q91.01 21.74 92.88 21.74L92.88 21.74Q94.82 21.74 97.13 21.53L97.13 21.53Q97.92 21.46 99.04 21.38Q100.15 21.31 101.45 21.31L101.45 21.31Q107.64 21.31 110.88 23.87Q114.12 26.42 114.12 30.74L114.12 30.74Q114.12 34.20 111.89 36.97Q109.66 39.74 105.62 41.18L105.62 41.18ZM100.08 22.54Q98.35 22.54 97.45 22.90Q96.55 23.26 96.16 24.30Q95.76 25.34 95.76 27.50L95.76 27.50L95.76 41.18L98.93 41.26Q103.68 41.26 106.06 38.52Q108.43 35.78 108.43 31.32L108.43 31.32Q108.43 27.22 106.38 24.88Q104.33 22.54 100.08 22.54L100.08 22.54ZM102.24 65.38Q107.35 65.38 109.84 62.71Q112.32 60.05 112.32 55.08L112.32 55.08Q112.32 49.61 109.30 46.30Q106.27 42.98 100.73 42.91L100.73 42.91Q98.78 42.84 95.76 43.06L95.76 43.06L95.76 60.70Q95.76 62.50 96.26 63.47Q96.77 64.44 98.14 64.91Q99.50 65.38 102.24 65.38L102.24 65.38ZM144.72 37.80Q147.89 37.80 150.55 39.31Q153.22 40.82 154.80 43.81Q156.38 46.80 156.38 51.12L156.38 51.12Q156.38 56.38 154.15 60.05Q151.92 63.72 148.32 65.59Q144.72 67.46 140.69 67.46L140.69 67.46Q135.14 67.46 130.75 64.22L130.75 64.22L124.92 66.89L124.78 66.89Q124.49 66.89 124.45 66.64Q124.42 66.38 124.63 66.24L124.63 66.24Q126.72 64.80 127.66 63.29Q128.59 61.78 128.59 59.11L128.59 59.11L128.59 23.76Q128.59 21.17 128.09 20.02Q127.58 18.86 126.29 18.86L126.29 18.86Q125.28 18.86 123.19 19.80L123.19 19.80L123.05 19.80Q122.83 19.80 122.72 19.44Q122.62 19.08 122.83 19.01L122.83 19.01L132.34 14.40L132.70 14.33Q132.91 14.33 133.20 14.54Q133.49 14.76 133.49 15.05L133.49 15.05L133.49 43.56Q135.94 40.97 138.67 39.38Q141.41 37.80 144.72 37.80L144.72 37.80ZM142.78 66.10Q146.59 66.10 148.72 62.86Q150.84 59.62 150.84 53.71L150.84 53.71Q150.84 47.30 148.43 43.96Q146.02 40.61 141.98 40.61L141.98 40.61Q138.10 40.61 133.49 44.78L133.49 44.78L133.49 56.30Q133.49 59.69 135 61.88Q136.51 64.08 138.64 65.09Q140.76 66.10 142.78 66.10L142.78 66.10ZM189 20.74Q192.31 20.74 195.84 21.35Q199.37 21.96 201.46 23.04L201.46 23.04Q202.03 23.33 202.21 23.65Q202.39 23.98 202.54 24.77L202.54 24.77L203.33 33.48Q203.33 33.70 202.97 33.73Q202.61 33.77 202.54 33.55L202.54 33.55Q200.66 27.94 196.42 25.16Q192.17 22.39 186.19 22.39L186.19 22.39Q180.94 22.39 177.05 24.80Q173.16 27.22 171.11 31.61Q169.06 36 169.06 41.76L169.06 41.76Q169.06 48.46 171.65 54.07Q174.24 59.69 178.67 62.96Q183.10 66.24 188.35 66.24L188.35 66.24Q198.72 66.24 203.18 54.36L203.18 54.36Q203.18 54.14 203.47 54.14L203.47 54.14Q203.69 54.14 203.87 54.22Q204.05 54.29 204.05 54.43L204.05 54.43L203.04 63.14Q202.90 64.01 202.72 64.26Q202.54 64.51 201.89 64.80L201.89 64.80Q195.26 67.39 188.35 67.39L188.35 67.39Q179.64 67.39 173.81 63.90Q167.98 60.41 165.24 55.01Q162.50 49.61 162.50 43.70L162.50 43.70Q162.50 37.01 166.21 31.79Q169.92 26.57 176.00 23.65Q182.09 20.74 189 20.74L189 20.74ZM223.85 67.39Q219.17 67.39 215.96 65.34Q212.76 63.29 211.21 60.05Q209.66 56.81 209.66 53.21L209.66 53.21Q209.66 48.60 212.04 45.18Q214.42 41.76 218.16 39.92Q221.90 38.09 225.79 38.09L225.79 38.09Q229.03 38.09 231.70 39.42Q234.36 40.75 234.36 42.77L234.36 42.77Q234.36 43.85 233.57 44.64Q232.78 45.43 231.41 45.43L231.41 45.43Q229.03 45.43 227.81 42.62L227.81 42.62Q227.02 40.97 226.08 40.25Q225.14 39.53 223.27 39.53L223.27 39.53Q219.53 39.53 217.40 42.66Q215.28 45.79 215.28 50.98L215.28 50.98Q215.28 56.95 218.16 60.77Q221.04 64.58 227.02 64.58L227.02 64.58Q230.98 64.58 234.22 62.35L234.22 62.35L234.36 62.35Q234.58 62.35 234.76 62.57Q234.94 62.78 234.72 62.93L234.72 62.93Q232.20 65.23 229.61 66.31Q227.02 67.39 223.85 67.39L223.85 67.39ZM259.34 66.82Q257.18 66.82 254.38 66.60L254.38 66.60Q253.30 66.53 251.71 66.46Q250.13 66.38 248.18 66.38L248.18 66.38L243.14 66.46Q241.78 66.53 239.40 66.53L239.40 66.53Q239.26 66.53 239.26 66.10Q239.26 65.66 239.40 65.66L239.40 65.66Q241.99 65.66 243.22 65.30Q244.44 64.94 244.87 63.90Q245.30 62.86 245.30 60.70L245.30 60.70L245.30 27.36Q245.30 25.20 244.87 24.19Q244.44 23.18 243.25 22.79Q242.06 22.39 239.54 22.39L239.54 22.39Q239.33 22.39 239.33 21.96Q239.33 21.53 239.54 21.53L239.54 21.53L243.14 21.60Q246.31 21.74 248.18 21.74L248.18 21.74Q250.92 21.74 253.73 21.53L253.73 21.53Q257.18 21.38 258.34 21.38L258.34 21.38Q265.75 21.38 271.51 24.26Q277.27 27.14 280.44 32.11Q283.61 37.08 283.61 43.27L283.61 43.27Q283.61 50.26 280.33 55.62Q277.06 60.98 271.51 63.90Q265.97 66.82 259.34 66.82L259.34 66.82ZM258.62 65.52Q264.02 65.52 268.16 63.11Q272.30 60.70 274.64 56.05Q276.98 51.41 276.98 44.86L276.98 44.86Q276.98 38.59 274.79 33.52Q272.59 28.44 268.52 25.52Q264.46 22.61 259.06 22.61L259.06 22.61Q255.96 22.61 254.30 22.97Q252.65 23.33 251.86 24.37Q251.06 25.42 251.06 27.50L251.06 27.50L251.06 59.90Q251.06 63.00 252.61 64.26Q254.16 65.52 258.62 65.52L258.62 65.52ZM323.21 62.28L323.35 62.21Q323.57 62.21 323.71 62.57Q323.86 62.93 323.64 63.07L323.64 63.07L315.07 67.18Q314.64 67.32 314.57 67.32L314.57 67.32Q313.70 67.32 313.06 65.81Q312.41 64.30 312.34 61.63L312.34 61.63Q309.74 64.30 306.94 65.88Q304.13 67.46 300.67 67.46L300.67 67.46Q297.65 67.46 295.06 65.77Q292.46 64.08 290.95 60.91Q289.44 57.74 289.44 53.64L289.44 53.64Q289.44 48.38 291.96 44.82Q294.48 41.26 298.26 39.53Q302.04 37.80 305.86 37.80L305.86 37.80Q309.17 37.80 312.34 39.31L312.34 39.31L312.34 23.76Q312.34 21.10 311.83 19.98Q311.33 18.86 310.03 18.86L310.03 18.86Q309.10 18.86 306.94 19.87L306.94 19.87L306.86 19.87Q306.58 19.87 306.43 19.51Q306.29 19.15 306.50 19.01L306.50 19.01L316.08 14.40Q316.22 14.33 316.44 14.33L316.44 14.33Q316.66 14.33 316.98 14.54Q317.30 14.76 317.30 15.05L317.30 15.05L317.30 58.46Q317.30 60.98 317.84 62.10Q318.38 63.22 319.68 63.22L319.68 63.22Q321.34 63.22 323.21 62.28L323.21 62.28ZM303.84 64.58Q306.29 64.58 308.30 63.47Q310.32 62.35 312.34 60.34L312.34 60.34L312.34 43.85Q310.82 41.69 308.84 40.54Q306.86 39.38 304.20 39.38L304.20 39.38Q299.88 39.38 297.43 42.41Q294.98 45.43 294.98 51.41L294.98 51.41Q294.98 57.46 297.47 61.02Q299.95 64.58 303.84 64.58L303.84 64.58ZM358.49 55.58Q358.49 55.44 358.78 55.44L358.78 55.44Q358.99 55.44 359.17 55.55Q359.35 55.66 359.35 55.73L359.35 55.73Q358.63 60.91 358.63 65.45L358.63 65.45Q358.63 66.02 358.42 66.28Q358.20 66.53 357.55 66.53L357.55 66.53L326.88 66.53Q326.66 66.53 326.66 66.10Q326.66 65.66 326.88 65.66L326.88 65.66Q329.47 65.66 330.62 65.30Q331.78 64.94 332.21 63.90Q332.64 62.86 332.64 60.70L332.64 60.70L332.64 27.36Q332.64 25.20 332.21 24.19Q331.78 23.18 330.59 22.79Q329.40 22.39 326.88 22.39L326.88 22.39Q326.66 22.39 326.66 21.96Q326.66 21.53 326.88 21.53L326.88 21.53L356.26 21.53Q356.98 21.53 356.98 22.18L356.98 22.18L357.12 31.25Q357.12 31.46 356.72 31.50Q356.33 31.54 356.26 31.32L356.26 31.32Q355.75 27.36 353.45 25.31Q351.14 23.26 347.40 23.26L347.40 23.26L343.73 23.26Q340.56 23.26 339.48 24.16Q338.40 25.06 338.40 27.65L338.40 27.65L338.40 42.26L346.32 42.26Q349.99 42.26 351.72 41.00Q353.45 39.74 353.45 37.08L353.45 37.08Q353.45 36.94 353.84 36.94Q354.24 36.94 354.24 37.08L354.24 37.08L354.17 43.13L354.24 46.37Q354.38 48.67 354.38 49.97L354.38 49.97Q354.38 50.11 353.95 50.11Q353.52 50.11 353.52 49.97L353.52 49.97Q353.52 46.87 351.76 45.40Q349.99 43.92 346.10 43.92L346.10 43.92L338.40 43.92L338.40 60.41Q338.40 63.00 339.37 63.94Q340.34 64.87 343.30 64.87L343.30 64.87L347.98 64.87Q352.08 64.87 354.78 62.46Q357.48 60.05 358.49 55.58L358.49 55.58ZM389.45 62.28L389.52 62.28Q389.74 62.28 389.92 62.53Q390.10 62.78 389.95 63.00L389.95 63.00Q387.43 65.30 384.80 66.35Q382.18 67.39 379.15 67.39L379.15 67.39Q374.83 67.39 371.70 65.48Q368.57 63.58 366.95 60.41Q365.33 57.24 365.33 53.57L365.33 53.57Q365.33 49.32 367.38 45.76Q369.43 42.19 373.07 40.14Q376.70 38.09 381.10 38.09L381.10 38.09Q385.13 38.09 387.36 40.00Q389.59 41.90 389.59 45.22L389.59 45.22Q389.59 47.02 388.80 47.02L388.80 47.02L385.34 47.02L371.16 47.16Q370.87 48.60 370.87 50.69L370.87 50.69Q370.87 56.88 373.86 60.70Q376.85 64.51 382.10 64.51L382.10 64.51Q386.28 64.51 389.45 62.28L389.45 62.28ZM378.58 39.53Q375.91 39.53 374.04 41.22Q372.17 42.91 371.38 46.01L371.38 46.01L383.76 45.72Q383.69 42.84 382.32 41.18Q380.95 39.53 378.58 39.53L378.58 39.53ZM442.15 65.66Q442.30 65.66 442.30 66.10Q442.30 66.53 442.15 66.53L442.15 66.53L431.71 66.53Q429.98 66.53 425.20 60.37Q420.41 54.22 413.78 43.49L413.78 43.49Q412.13 43.85 410.62 43.85L410.62 43.85Q409.25 43.85 407.09 43.70L407.09 43.70L407.09 60.70Q407.09 62.86 407.52 63.90Q407.95 64.94 409.14 65.30Q410.33 65.66 412.92 65.66L412.92 65.66Q413.14 65.66 413.14 66.10Q413.14 66.53 412.92 66.53L412.92 66.53Q410.69 66.53 409.39 66.46L409.39 66.46L404.21 66.38L399.17 66.46Q397.80 66.53 395.50 66.53L395.50 66.53Q395.28 66.53 395.28 66.10Q395.28 65.66 395.50 65.66L395.50 65.66Q398.09 65.66 399.31 65.30Q400.54 64.94 400.97 63.90Q401.40 62.86 401.40 60.70L401.40 60.70L401.40 27.36Q401.40 25.20 400.97 24.19Q400.54 23.18 399.35 22.79Q398.16 22.39 395.57 22.39L395.57 22.39Q395.42 22.39 395.42 21.96Q395.42 21.53 395.57 21.53L395.57 21.53L399.17 21.60Q402.34 21.74 404.21 21.74L404.21 21.74Q405.50 21.74 406.66 21.67Q407.81 21.60 408.67 21.53L408.67 21.53Q411.05 21.31 413.14 21.31L413.14 21.31Q419.26 21.31 422.57 23.72Q425.88 26.14 425.88 30.38L425.88 30.38Q425.88 33.77 423.86 36.79Q421.85 39.82 418.61 41.69L418.61 41.69Q424.66 50.83 428.72 55.98Q432.79 61.13 435.96 63.40Q439.13 65.66 442.15 65.66L442.15 65.66ZM407.09 41.83Q409.82 42.12 411.34 42.12L411.34 42.12Q415.94 42.12 417.92 40.07Q419.90 38.02 419.90 32.98L419.90 32.98Q419.90 27.29 417.74 24.91Q415.58 22.54 411.77 22.54L411.77 22.54Q409.90 22.54 408.92 22.90Q407.95 23.26 407.52 24.30Q407.09 25.34 407.09 27.50L407.09 27.50L407.09 41.83ZM460.15 38.09Q461.81 38.09 463.25 39.06Q464.69 40.03 464.69 41.40L464.69 41.40Q464.69 42.48 463.97 43.24Q463.25 43.99 462.02 43.99L462.02 43.99Q461.30 43.99 460.80 43.74Q460.30 43.49 459.94 43.16Q459.58 42.84 459.43 42.77L459.43 42.77Q458.86 42.19 458.32 41.87Q457.78 41.54 456.98 41.54L456.98 41.54Q456.12 41.54 455.11 42.23Q454.10 42.91 452.09 45.22L452.09 45.22L452.09 60.70Q452.09 62.78 452.63 63.83Q453.17 64.87 454.61 65.27Q456.05 65.66 458.93 65.66L458.93 65.66Q459.14 65.66 459.14 66.10Q459.14 66.53 458.93 66.53L458.93 66.53Q456.55 66.53 455.11 66.46L455.11 66.46L449.64 66.38L445.61 66.46Q444.60 66.53 442.87 66.53L442.87 66.53Q442.66 66.53 442.66 66.10Q442.66 65.66 442.87 65.66L442.87 65.66Q445.46 65.66 446.29 64.69Q447.12 63.72 447.12 60.70L447.12 60.70L447.12 46.66Q447.12 44.28 446.58 43.24Q446.04 42.19 444.74 42.19L444.74 42.19Q443.38 42.19 440.93 43.20L440.93 43.20L440.78 43.20Q440.57 43.20 440.46 42.84Q440.35 42.48 440.57 42.41L440.57 42.41L449.50 38.16Q449.64 38.09 449.93 38.09L449.93 38.09Q450.65 38.09 451.33 39.67Q452.02 41.26 452.09 43.85L452.09 43.85Q455.04 40.54 456.80 39.31Q458.57 38.09 460.15 38.09L460.15 38.09ZM495.58 67.39Q487.73 67.39 481.90 64.37Q476.06 61.34 472.97 56.16Q469.87 50.98 469.87 44.57L469.87 44.57Q469.87 37.58 473.44 32.18Q477.00 26.78 483.23 23.76Q489.46 20.74 497.23 20.74L497.23 20.74Q500.69 20.74 503.96 21.38Q507.24 22.03 509.33 23.11L509.33 23.11Q509.90 23.47 510.05 23.76Q510.19 24.05 510.26 24.77L510.26 24.77L511.20 33.48Q511.20 33.70 510.80 33.73Q510.41 33.77 510.34 33.55L510.34 33.55Q508.46 28.22 504.22 25.34Q499.97 22.46 493.99 22.46L493.99 22.46Q485.50 22.46 480.89 27.65Q476.28 32.83 476.28 41.90L476.28 41.90Q476.28 48.96 479.02 54.47Q481.75 59.98 486.54 63.07Q491.33 66.17 497.38 66.17L497.38 66.17Q500.83 66.17 502.70 65.52Q504.58 64.87 505.44 63.00Q506.30 61.13 506.30 57.46L506.30 57.46Q506.30 53.71 505.84 52.24Q505.37 50.76 503.82 50.26Q502.27 49.75 498.46 49.75L498.46 49.75Q498.02 49.75 498.02 49.18L498.02 49.18Q498.02 48.96 498.13 48.78Q498.24 48.60 498.38 48.60L498.38 48.60Q504.14 48.96 507.74 48.96L507.74 48.96Q511.13 48.96 514.94 48.74L514.94 48.74Q515.09 48.74 515.20 48.92Q515.30 49.10 515.30 49.25L515.30 49.25Q515.30 49.75 514.94 49.75L514.94 49.75Q513.36 49.68 512.71 50.22Q512.06 50.76 511.88 52.42Q511.70 54.07 511.70 58.18L511.70 58.18Q511.70 61.42 511.96 62.78Q512.21 64.15 512.21 64.51L512.21 64.51Q512.21 64.94 512.03 65.05Q511.85 65.16 511.34 65.38L511.34 65.38Q502.49 67.39 495.58 67.39L495.58 67.39ZM534.67 63.94Q539.64 64.73 542.16 65.34Q544.68 65.95 546.62 67.68Q548.57 69.41 548.57 72.65L548.57 72.65Q548.57 76.10 546.12 79.42Q543.67 82.73 539.50 84.78Q535.32 86.83 530.57 86.83L530.57 86.83Q525.38 86.83 522.18 84.42Q518.98 82.01 518.98 78.26L518.98 78.26Q518.98 75.53 520.88 72.83Q522.79 70.13 526.90 67.25L526.90 67.25Q522.14 65.81 522.14 62.28L522.14 62.28Q522.14 60.34 523.58 58.36Q525.02 56.38 527.54 54.86L527.54 54.86Q524.66 53.86 523.04 51.66Q521.42 49.46 521.42 46.87L521.42 46.87Q521.42 42.98 524.84 40.61Q528.26 38.23 533.02 38.23L533.02 38.23Q537.70 38.23 540.50 40.46L540.50 40.46Q544.54 38.09 548.28 38.09L548.28 38.09Q548.50 38.09 548.60 38.63Q548.71 39.17 548.71 39.82L548.71 39.82Q548.71 40.82 548.50 41.76Q548.28 42.70 547.99 42.55L547.99 42.55Q545.18 41.40 543.02 41.40L543.02 41.40Q542.59 41.40 541.58 41.54L541.58 41.54Q543.53 43.70 543.53 46.58L543.53 46.58Q543.53 49.10 542.02 51.16Q540.50 53.21 537.88 54.40Q535.25 55.58 532.15 55.58L532.15 55.58Q530.06 55.58 528.48 55.15L528.48 55.15Q526.18 56.74 526.18 59.26L526.18 59.26Q526.18 61.49 528.34 62.39Q530.50 63.29 534.67 63.94L534.67 63.94ZM531 39.38Q529.06 39.38 527.90 40.82Q526.75 42.26 526.75 45.22L526.75 45.22Q526.75 49.25 528.80 51.88Q530.86 54.50 533.81 54.50L533.81 54.50Q535.68 54.50 536.94 52.96Q538.20 51.41 538.20 48.17L538.20 48.17Q538.20 44.35 536.04 41.87Q533.88 39.38 531 39.38L531 39.38ZM533.74 84.67Q538.56 84.67 541.33 82.08Q544.10 79.49 544.10 75.74L544.10 75.74Q544.10 72.94 542.38 71.42Q540.65 69.91 538.38 69.37Q536.11 68.83 531.79 68.18L531.79 68.18Q530.42 68.04 528.41 67.61L528.41 67.61Q526.39 69.12 525.24 70.99Q524.09 72.86 524.09 75.60L524.09 75.60Q524.09 79.85 526.72 82.26Q529.34 84.67 533.74 84.67L533.74 84.67Z"/></svg>