<svg xmlns="http://www.w3.org/2000/svg" xmlns:xlink="http://www.w3.org/1999/xlink" width="491.976" height="87.19200000000001"><path fill="#111111" d="M40.75 65.66Q41.04 65.66 41.04 66.10Q41.04 66.53 40.75 66.53L40.75 66.53Q39.67 66.53 37.37 66.38L37.37 66.38Q34.78 66.24 33.26 66.24L33.26 66.24Q31.68 66.24 29.38 66.38L29.38 66.38Q27.07 66.53 26.06 66.53L26.06 66.53Q25.85 66.53 25.85 66.10Q25.85 65.66 26.06 65.66L26.06 65.66Q28.58 65.66 29.59 65.02Q30.60 64.37 30.60 62.64L30.60 62.64Q30.60 61.63 30.38 60.48L30.38 60.48L27.50 43.56L16.70 43.56L9.29 57.10Q7.20 60.84 7.20 62.86L7.20 62.86Q7.20 64.44 8.42 65.05Q9.65 65.66 12.17 65.66L12.17 65.66Q12.46 65.66 12.42 66.10Q12.38 66.53 12.10 66.53L12.10 66.53Q11.23 66.53 8.64 66.38L8.64 66.38Q5.76 66.24 4.18 66.24L4.18 66.24Q2.66 66.24 0.65 66.38L0.65 66.38Q-1.37 66.53-2.45 66.53L-2.45 66.53Q-2.74 66.53-2.74 66.10Q-2.74 65.66-2.45 65.66L-2.45 65.66Q-0.36 65.66 2.12 63.68Q4.61 61.70 7.06 57.38L7.06 57.38L27.50 20.81Q27.65 20.59 28.01 20.59L28.01 20.59Q28.66 20.59 28.80 20.95L28.80 20.95L35.64 60.48Q36.00 62.71 36.40 63.72Q36.79 64.73 37.76 65.20Q38.74 65.66 40.75 65.66L40.75 65.66ZM24.91 28.58L17.64 41.90L27.22 41.90L24.91 28.58ZM72.94 60.98Q73.01 60.91 73.15 60.91L73.15 60.91Q73.37 60.91 73.51 61.16Q73.66 61.42 73.51 61.56L73.51 61.56Q71.14 64.37 69.19 65.77Q67.25 67.18 65.45 67.18L65.45 67.18Q64.01 67.18 63.32 66.31Q62.64 65.45 62.64 63.58L62.64 63.58Q62.64 62.42 63.00 60.12L63.00 60.12L64.15 53.28Q61.06 59.83 57.02 63.65Q52.99 67.46 49.18 67.46L49.18 67.46Q47.02 67.46 45.83 66.13Q44.64 64.80 44.64 62.06L44.64 62.06Q44.64 61.42 44.78 59.98L44.78 59.98Q45.50 55.01 48.64 49.79Q51.77 44.57 56.02 41.18Q60.26 37.80 64.01 37.80L64.01 37.80Q67.03 37.80 68.90 39.74L68.90 39.74Q70.27 38.59 70.78 37.22L70.78 37.22Q70.92 37.08 71.06 37.08L71.06 37.08Q71.28 37.08 71.50 37.19Q71.71 37.30 71.64 37.37L71.64 37.37L67.46 60.12Q67.25 61.20 67.25 62.06L67.25 62.06Q67.25 64.08 68.47 64.08L68.47 64.08Q69.98 64.08 72.94 60.98L72.94 60.98ZM52.42 63.36Q54.86 63.36 57.56 60.84Q60.26 58.32 62.39 54.50Q64.51 50.69 65.23 47.16L65.23 47.16Q65.45 46.15 65.45 45.22L65.45 45.22Q65.45 43.13 64.37 41.90Q63.29 40.68 61.27 40.68L61.27 40.68Q58.82 40.68 56.38 42.66Q53.93 44.64 52.13 48.10Q50.33 51.55 49.68 55.87L49.68 55.87Q49.39 58.18 49.39 58.90L49.39 58.90Q49.39 63.36 52.42 63.36L52.42 63.36ZM99.79 41.26Q104.69 41.76 107.46 44.53Q110.23 47.30 110.23 51.48L110.23 51.48Q110.23 52.49 110.02 53.71L110.02 53.71Q109.30 57.31 106.81 60.30Q104.33 63.29 100.69 65.05Q97.06 66.82 92.95 66.82L92.95 66.82Q90.94 66.82 88.42 66.60L88.42 66.60Q87.48 66.53 86.22 66.46Q84.96 66.38 83.52 66.38L83.52 66.38L78.91 66.46Q77.76 66.53 75.67 66.53L75.67 66.53Q75.46 66.53 75.49 66.10Q75.53 65.66 75.67 65.66L75.67 65.66Q78.91 65.66 80.17 64.66Q81.43 63.65 82.01 60.55L82.01 60.55L87.91 27.22Q88.13 25.92 88.13 25.13L88.13 25.13Q88.13 23.47 87.16 22.93Q86.18 22.39 83.52 22.39L83.52 22.39Q83.30 22.39 83.34 21.96Q83.38 21.53 83.52 21.53L83.52 21.53L86.90 21.60Q89.64 21.74 91.22 21.74L91.22 21.74Q92.45 21.74 93.49 21.67Q94.54 21.60 95.33 21.53L95.33 21.53Q97.42 21.31 99.14 21.31L99.14 21.31Q104.62 21.31 107.42 23.36Q110.23 25.42 110.23 29.02L110.23 29.02Q110.23 30.02 110.02 31.10L110.02 31.10Q109.22 34.56 106.63 37.15Q104.04 39.74 99.79 41.26L99.79 41.26ZM92.95 27.72L90.58 41.18L93.31 41.26Q98.14 41.26 101.09 38.41Q104.04 35.57 104.90 31.03L104.90 31.03Q105.19 29.88 105.19 28.58L105.19 28.58Q105.19 25.70 103.36 24.08Q101.52 22.46 97.78 22.46L97.78 22.46Q95.47 22.46 94.46 23.47Q93.46 24.48 92.95 27.72L92.95 27.72ZM104.26 54.72Q104.54 53.28 104.54 51.77L104.54 51.77Q104.54 47.59 102.10 45.29Q99.65 42.98 94.75 42.91L94.75 42.91Q92.95 42.84 90.22 43.06L90.22 43.06L87.05 60.84Q86.83 61.78 86.83 62.57L86.83 62.57Q86.83 64.15 87.95 64.80Q89.06 65.45 92.02 65.45L92.02 65.45Q97.27 65.45 100.30 62.60Q103.32 59.76 104.26 54.72L104.26 54.72ZM137.81 37.80Q140.54 37.80 142.13 39.89Q143.71 41.98 143.71 45.43L143.71 45.43Q143.71 47.02 143.42 48.46L143.42 48.46Q142.27 54.29 139.00 58.61Q135.72 62.93 131.62 65.20Q127.51 67.46 123.98 67.46L123.98 67.46Q120.60 67.46 118.58 65.99Q116.57 64.51 116.57 62.06L116.57 62.06Q116.57 61.63 116.71 60.77L116.71 60.77L123.84 22.61Q123.98 21.96 123.98 20.95L123.98 20.95Q123.98 18.94 122.47 18.94L122.47 18.94Q121.32 18.94 119.09 20.02L119.09 20.02L119.02 20.02Q118.73 20.02 118.62 19.62Q118.51 19.22 118.80 19.15L118.80 19.15L128.66 14.33L128.81 14.33Q129.10 14.33 129.35 14.54Q129.60 14.76 129.53 14.90L129.53 14.90L123.12 50.54Q125.57 44.86 129.56 41.33Q133.56 37.80 137.81 37.80L137.81 37.80ZM137.95 50.69Q138.38 48.74 138.38 46.94L138.38 46.94Q138.38 44.42 137.41 42.98Q136.44 41.54 134.42 41.54L134.42 41.54Q131.54 41.54 128.95 43.81Q126.36 46.08 124.38 50.18Q122.40 54.29 121.46 59.62L121.46 59.62Q121.39 59.98 121.39 60.62L121.39 60.62Q121.39 62.86 122.90 64.22Q124.42 65.59 126.86 65.59L126.86 65.59Q129.17 65.59 131.44 63.79Q133.70 61.99 135.43 58.61Q137.16 55.22 137.95 50.69L137.95 50.69ZM167.83 67.46Q158.11 67.46 153.58 62.17Q149.04 56.88 149.04 48.96L149.04 48.96Q149.04 46.80 149.54 43.78L149.54 43.78Q150.77 36.94 154.84 31.68Q158.90 26.42 164.59 23.58Q170.28 20.74 176.18 20.74L176.18 20.74Q179.14 20.74 182.12 21.38Q185.11 22.03 186.77 23.11L186.77 23.11Q187.20 23.40 187.31 23.72Q187.42 24.05 187.34 24.84L187.34 24.84L186.48 33.34Q186.41 33.62 186.05 33.62Q185.69 33.62 185.69 33.34L185.69 33.34Q184.97 27.86 181.76 25.16Q178.56 22.46 173.45 22.46L173.45 22.46Q168.98 22.46 165.24 24.80Q161.50 27.14 159.01 31.46Q156.53 35.78 155.66 41.62L155.66 41.62Q155.16 44.57 155.16 47.66L155.16 47.66Q155.16 52.99 156.74 57.24Q158.33 61.49 161.32 63.90Q164.30 66.31 168.26 66.31L168.26 66.31Q172.22 66.31 176.08 63.61Q179.93 60.91 183.38 55.44L183.38 55.44Q183.53 55.30 183.67 55.30L183.67 55.30Q183.89 55.30 184.03 55.44Q184.18 55.58 184.10 55.73L184.10 55.73L182.02 63.65Q181.80 64.51 181.58 64.84Q181.37 65.16 180.72 65.30L180.72 65.30Q174.46 67.46 167.83 67.46L167.83 67.46ZM198.50 67.46Q193.75 67.46 191.41 64.22Q189.07 60.98 189.07 56.16L189.07 56.16Q189.07 54 189.50 51.98L189.50 51.98Q190.30 47.74 192.78 44.50Q195.26 41.26 198.58 39.53Q201.89 37.80 205.13 37.80L205.13 37.80Q207.72 37.80 209.63 38.92Q211.54 40.03 211.54 41.90L211.54 41.90Q211.54 43.13 210.82 43.99Q210.10 44.86 208.73 44.86L208.73 44.86Q206.50 44.86 205.85 42.26L205.85 42.26Q205.06 39.53 202.39 39.53L202.39 39.53Q199.37 39.53 197.42 42.30Q195.48 45.07 194.69 49.68L194.69 49.68Q194.18 52.56 194.18 54.43L194.18 54.43Q194.18 59.04 196.13 61.85Q198.07 64.66 201.96 64.66L201.96 64.66Q205.49 64.66 209.16 61.70L209.16 61.70L209.30 61.63Q209.52 61.63 209.70 61.92Q209.88 62.21 209.74 62.35L209.74 62.35Q204.19 67.46 198.50 67.46L198.50 67.46ZM229.39 66.82Q227.66 66.82 225.36 66.60L225.36 66.60Q224.50 66.53 223.24 66.46Q221.98 66.38 220.39 66.38L220.39 66.38L215.93 66.46Q214.85 66.53 212.90 66.53L212.90 66.53Q212.69 66.53 212.69 66.10Q212.69 65.66 212.90 65.66L212.90 65.66Q215.14 65.66 216.22 65.30Q217.30 64.94 217.87 63.90Q218.45 62.86 218.81 60.70L218.81 60.70L224.71 27.36Q225.00 26.14 225.00 25.06L225.00 25.06Q225.00 23.47 224.06 22.93Q223.13 22.39 220.61 22.39L220.61 22.39Q220.46 22.39 220.46 21.96Q220.46 21.53 220.61 21.53L220.61 21.53L223.78 21.60Q226.51 21.74 228.24 21.74L228.24 21.74Q230.33 21.74 232.63 21.53L232.63 21.53Q235.37 21.38 236.45 21.38L236.45 21.38Q242.28 21.38 246.64 23.62Q250.99 25.85 253.33 29.84Q255.67 33.84 255.67 39.02L255.67 39.02Q255.67 41.47 255.31 43.27L255.31 43.27Q254.09 50.18 250.13 55.55Q246.17 60.91 240.66 63.86Q235.15 66.82 229.39 66.82L229.39 66.82ZM229.03 65.66Q233.86 65.66 238.03 63.22Q242.21 60.77 245.12 56.09Q248.04 51.41 249.19 44.86L249.19 44.86Q249.70 42.12 249.70 39.17L249.70 39.17Q249.70 31.82 246.31 27.18Q242.93 22.54 236.38 22.54L236.38 22.54Q233.06 22.54 231.66 23.54Q230.26 24.55 229.75 27.50L229.75 27.50L224.06 59.90Q223.85 61.06 223.85 62.06L223.85 62.06Q223.85 63.94 225.00 64.80Q226.15 65.66 229.03 65.66L229.03 65.66ZM289.87 14.90L281.59 60.12Q281.38 61.20 281.38 61.99L281.38 61.99Q281.38 64.08 282.67 64.08L282.67 64.08Q283.39 64.08 284.47 63.29Q285.55 62.50 287.14 60.98L287.14 60.98Q287.28 60.84 287.42 60.84L287.42 60.84Q287.64 60.84 287.78 61.09Q287.93 61.34 287.71 61.56L287.71 61.56Q285.19 64.44 283.32 65.81Q281.45 67.18 279.58 67.18L279.58 67.18Q278.14 67.18 277.45 66.35Q276.77 65.52 276.77 63.72L276.77 63.72Q276.77 62.28 277.20 60.12L277.20 60.12L278.42 53.71Q275.26 60.12 271.66 63.79Q268.06 67.46 264.31 67.46L264.31 67.46Q261.72 67.46 259.99 65.77Q258.26 64.08 258.26 60.48L258.26 60.48Q258.26 58.90 258.55 57.46L258.55 57.46Q259.49 52.34 262.51 47.81Q265.54 43.27 269.71 40.54Q273.89 37.80 277.92 37.80L277.92 37.80Q279.86 37.80 281.23 38.59L281.23 38.59L284.18 22.61Q284.33 21.96 284.33 20.95L284.33 20.95Q284.33 18.94 282.82 18.94L282.82 18.94Q281.74 18.94 279.43 20.02L279.43 20.02L279.36 20.02Q279.07 20.02 278.96 19.62Q278.86 19.22 279.14 19.15L279.14 19.15L289.08 14.33L289.22 14.33Q289.51 14.33 289.73 14.54Q289.94 14.76 289.87 14.90L289.87 14.90ZM267.05 63.50Q270.14 63.50 273.10 60.16Q276.05 56.81 277.92 52.38Q279.79 47.95 279.79 45.43L279.79 45.43Q279.79 43.13 278.50 41.90Q277.20 40.68 275.04 40.68L275.04 40.68Q270.65 40.68 267.48 44.17Q264.31 47.66 263.23 54.22L263.23 54.22Q262.94 55.87 262.94 57.53L262.94 57.53Q262.94 60.48 264.02 61.99Q265.10 63.50 267.05 63.50L267.05 63.50ZM325.51 21.53Q326.09 21.53 325.94 22.18L325.94 22.18L325.37 26.06L324.50 31.32Q324.50 31.54 324.14 31.54L324.14 31.54Q324.00 31.54 323.82 31.43Q323.64 31.32 323.64 31.25L323.64 31.25Q323.93 27.43 322.13 25.09Q320.33 22.75 317.02 22.75L317.02 22.75L312.55 22.75Q310.32 22.75 309.28 23.11Q308.23 23.47 307.73 24.41Q307.22 25.34 306.86 27.43L306.86 27.43L304.27 42.26L313.78 42.26Q316.73 42.26 318.24 41.11Q319.75 39.96 320.26 37.08L320.26 37.08Q320.26 36.86 320.69 36.86L320.69 36.86Q320.83 36.86 321.01 36.97Q321.19 37.08 321.12 37.22L321.12 37.22Q320.90 38.81 320.47 40.54L320.47 40.54Q320.18 41.62 319.97 43.13L319.97 43.13L319.61 45.36Q319.39 47.59 318.89 50.04L318.89 50.04Q318.82 50.33 318.38 50.29Q317.95 50.26 318.02 49.97L318.02 49.97Q318.24 48.89 318.24 48.02L318.24 48.02Q318.24 45.86 317.02 44.89Q315.79 43.92 313.27 43.92L313.27 43.92L303.98 43.92L301.03 60.41Q300.82 61.70 300.82 62.57L300.82 62.57Q300.82 64.08 301.72 64.62Q302.62 65.16 305.06 65.16L305.06 65.16L311.04 65.16Q314.21 65.16 317.23 62.53Q320.26 59.90 322.13 55.58L322.13 55.58Q322.27 55.37 322.67 55.44Q323.06 55.51 322.92 55.73L322.92 55.73Q321.62 59.90 320.62 65.45L320.62 65.45Q320.47 66.10 320.26 66.31Q320.04 66.53 319.46 66.53L319.46 66.53L290.02 66.53Q289.87 66.53 289.87 66.10Q289.87 65.66 290.02 65.66L290.02 65.66Q292.25 65.66 293.33 65.30Q294.41 64.94 294.95 63.94Q295.49 62.93 295.92 60.70L295.92 60.70L301.75 27.36Q302.04 26.14 302.04 24.98L302.04 24.98Q302.04 23.47 301.10 22.93Q300.17 22.39 297.72 22.39L297.72 22.39Q297.50 22.39 297.50 21.96Q297.50 21.53 297.72 21.53L297.72 21.53L325.51 21.53ZM345.17 37.80Q347.69 37.80 349.06 38.70Q350.42 39.60 350.42 41.11L350.42 41.11Q350.42 44.50 345.49 47.27Q340.56 50.04 333.58 51.26L333.58 51.26Q333.29 52.99 333.29 55.01L333.29 55.01Q333.29 59.40 335.20 62.06Q337.10 64.73 340.78 64.73L340.78 64.73Q344.74 64.73 347.76 62.35L347.76 62.35L347.83 62.35Q348.05 62.35 348.23 62.57Q348.41 62.78 348.26 63.00L348.26 63.00Q343.15 67.39 337.54 67.39L337.54 67.39Q332.78 67.39 330.41 64.44Q328.03 61.49 328.03 56.81L328.03 56.81Q328.03 55.22 328.39 53.21L328.39 53.21Q329.11 49.46 331.52 45.90Q333.94 42.34 337.54 40.07Q341.14 37.80 345.17 37.80L345.17 37.80ZM344.74 43.20Q344.88 42.48 344.88 42.26L344.88 42.26Q344.88 41.04 343.98 40.39Q343.08 39.74 341.78 39.74L341.78 39.74Q338.83 39.74 336.74 42.66Q334.66 45.58 333.72 50.26L333.72 50.26Q343.66 48.38 344.74 43.20L344.74 43.20ZM394.06 65.66Q394.34 65.66 394.34 66.10Q394.34 66.53 394.06 66.53L394.06 66.53L385.34 66.53Q383.62 66.53 380.38 60.44Q377.14 54.36 373.18 43.13L373.18 43.13Q370.87 43.70 368.78 43.70L368.78 43.70Q367.99 43.70 366.98 43.56L366.98 43.56L363.89 60.70Q363.60 62.06 363.60 63.07L363.60 63.07Q363.60 64.58 364.57 65.12Q365.54 65.66 368.14 65.66L368.14 65.66Q368.42 65.66 368.42 66.10Q368.42 66.53 368.21 66.53L368.21 66.53Q366.12 66.53 364.90 66.46L364.90 66.46L360.36 66.38L355.75 66.46Q354.53 66.53 352.37 66.53L352.37 66.53Q352.08 66.53 352.08 66.10Q352.08 65.66 352.37 65.66L352.37 65.66Q354.74 65.66 355.97 65.27Q357.19 64.87 357.80 63.86Q358.42 62.86 358.85 60.70L358.85 60.70L364.68 27.36Q364.97 26.14 364.97 24.98L364.97 24.98Q364.97 23.47 364.00 22.93Q363.02 22.39 360.36 22.39L360.36 22.39Q360.07 22.39 360.07 21.96Q360.07 21.53 360.36 21.53L360.36 21.53L363.67 21.60Q366.41 21.74 368.14 21.74L368.14 21.74Q369.36 21.74 370.40 21.67Q371.45 21.60 372.24 21.53L372.24 21.53Q374.26 21.31 375.84 21.31L375.84 21.31Q380.88 21.31 383.54 23.15Q386.21 24.98 386.21 28.30L386.21 28.30Q386.21 32.18 383.72 35.71Q381.24 39.24 377.28 41.40L377.28 41.40Q381.10 50.69 383.87 55.87Q386.64 61.06 389.05 63.36Q391.46 65.66 394.06 65.66L394.06 65.66ZM367.27 41.69Q369.14 41.98 370.22 41.98L370.22 41.98Q374.76 41.98 377.10 39.82Q379.44 37.66 380.23 32.76L380.23 32.76Q380.52 31.10 380.52 29.38L380.52 29.38Q380.52 25.85 378.94 24.19Q377.35 22.54 374.62 22.54L374.62 22.54Q372.82 22.54 372.02 22.79Q371.23 23.04 370.73 24.05Q370.22 25.06 369.79 27.50L369.79 27.50L367.27 41.69ZM415.22 38.09Q416.74 38.09 418.10 39.17Q419.47 40.25 419.47 41.69L419.47 41.69Q419.47 42.77 418.72 43.60Q417.96 44.42 416.81 44.42L416.81 44.42Q416.02 44.42 415.51 44.10Q415.01 43.78 414.43 43.13L414.43 43.13Q414.07 42.77 413.68 42.44Q413.28 42.12 412.78 42.12L412.78 42.12Q411.34 42.12 409.28 46.19Q407.23 50.26 405.40 55.91Q403.56 61.56 402.70 65.88L402.70 65.88Q402.55 66.46 401.83 66.78Q401.11 67.10 399.89 67.10L399.89 67.10Q398.02 67.10 398.02 66.60L398.02 66.60Q398.09 66.17 398.48 64.37Q398.88 62.57 399.10 61.20L399.10 61.20L401.69 47.02Q401.98 45.36 401.98 43.99L401.98 43.99Q401.98 41.11 400.39 41.11L400.39 41.11Q398.88 41.11 396.14 43.85L396.14 43.85Q396.07 43.92 395.93 43.92L395.93 43.92Q395.71 43.92 395.57 43.67Q395.42 43.42 395.57 43.27L395.57 43.27Q397.87 40.61 399.82 39.35Q401.76 38.09 403.63 38.09L403.63 38.09Q405.14 38.09 405.86 39.02Q406.58 39.96 406.58 42.19L406.58 42.19Q406.58 43.92 406.15 46.66L406.15 46.66L404.64 55.08Q406.94 47.66 409.72 42.88Q412.49 38.09 415.22 38.09L415.22 38.09ZM442.80 67.39Q436.61 67.39 432.22 65.09Q427.82 62.78 425.56 58.64Q423.29 54.50 423.29 49.10L423.29 49.10Q423.29 46.51 423.79 43.99L423.79 43.99Q425.02 37.30 429.12 31.97Q433.22 26.64 439.24 23.69Q445.25 20.74 452.02 20.74L452.02 20.74Q455.04 20.74 457.85 21.38Q460.66 22.03 462.24 23.18L462.24 23.18Q462.74 23.54 462.74 24.05L462.74 24.05L462.67 24.84L461.88 33.34Q461.81 33.62 461.45 33.62Q461.09 33.62 461.02 33.34L461.02 33.34Q460.37 28.08 457.31 25.24Q454.25 22.39 449.14 22.39L449.14 22.39Q441.58 22.39 436.50 27.50Q431.42 32.62 429.91 41.40L429.91 41.40Q429.41 44.42 429.41 47.52L429.41 47.52Q429.41 56.02 433.55 61.02Q437.69 66.02 444.82 66.02L444.82 66.02Q447.70 66.02 449.39 65.34Q451.08 64.66 452.05 62.82Q453.02 60.98 453.53 57.46L453.53 57.46Q453.96 54.72 453.96 53.21L453.96 53.21Q453.96 51.70 453.38 50.98Q452.81 50.26 451.51 50.00Q450.22 49.75 447.62 49.75L447.62 49.75Q447.48 49.75 447.37 49.57Q447.26 49.39 447.26 49.18L447.26 49.18Q447.26 48.96 447.37 48.78Q447.48 48.60 447.62 48.60L447.62 48.60Q452.52 48.96 455.76 48.96L455.76 48.96Q458.78 48.96 462.17 48.74L462.17 48.74Q462.46 48.74 462.46 49.25Q462.46 49.75 462.17 49.75L462.17 49.75Q460.87 49.68 460.26 50.22Q459.65 50.76 459.25 52.34Q458.86 53.93 458.21 58.18L458.21 58.18Q457.70 61.34 457.67 62.64Q457.63 63.94 457.56 64.51L457.56 64.51Q457.49 64.94 457.34 65.05Q457.20 65.16 456.70 65.38L456.70 65.38Q448.78 67.39 442.80 67.39L442.80 67.39ZM492.34 38.16Q492.70 38.16 492.70 39.10L492.70 39.10Q492.70 40.10 492.37 41.15Q492.05 42.19 491.76 42.05L491.76 42.05Q489.67 40.75 486.36 40.90L486.36 40.90Q487.87 43.06 487.87 46.08L487.87 46.08Q487.87 47.59 487.58 48.82L487.58 48.82Q486.94 51.98 485.06 54.40Q483.19 56.81 480.64 58.14Q478.08 59.47 475.42 59.47L475.42 59.47Q474.77 59.47 473.76 59.33L473.76 59.33Q472.97 60.48 472.97 61.78L472.97 61.78Q472.97 63.43 474.48 64.62Q475.99 65.81 479.23 67.46L479.23 67.46Q483.26 69.41 485.46 71.28Q487.66 73.15 487.66 76.10L487.66 76.10Q487.66 78.98 485.53 81.43Q483.41 83.88 479.88 85.32Q476.35 86.76 472.25 86.76L472.25 86.76Q467.14 86.76 464.18 84.67Q461.23 82.58 461.23 79.56L461.23 79.56Q461.23 76.46 463.86 73.94Q466.49 71.42 471.38 68.76L471.38 68.76Q468.79 66.96 468.79 64.80L468.79 64.80Q468.79 64.30 468.86 64.08L468.86 64.08Q469.15 62.86 470.09 61.67Q471.02 60.48 472.68 59.04L472.68 59.04Q470.38 58.25 469.15 56.23Q467.93 54.22 467.93 51.41L467.93 51.41Q467.93 50.54 468.22 48.82L468.22 48.82Q469.08 44.28 472.57 41.29Q476.06 38.30 480.46 38.30L480.46 38.30Q483.41 38.30 485.35 39.89L485.35 39.89Q489.17 38.16 492.34 38.16L492.34 38.16ZM482.98 50.33Q483.12 49.54 483.12 47.88L483.12 47.88Q483.12 44.50 482.04 42.08Q480.96 39.67 478.73 39.67L478.73 39.67Q476.71 39.67 475.06 41.90Q473.40 44.14 472.90 47.45L472.90 47.45Q472.68 48.82 472.68 50.18L472.68 50.18Q472.68 53.50 473.90 55.76Q475.13 58.03 477.22 58.03L477.22 58.03Q479.23 58.03 480.85 55.94Q482.47 53.86 482.98 50.33L482.98 50.33ZM483.41 78.91Q483.41 76.32 481.43 74.70Q479.45 73.08 475.56 71.06L475.56 71.06Q473.40 70.06 472.18 69.26L472.18 69.26Q469.30 71.06 467.68 72.90Q466.06 74.74 466.06 77.40L466.06 77.40Q466.06 80.57 468.76 82.62Q471.46 84.67 475.78 84.67L475.78 84.67Q479.45 84.67 481.43 83.02Q483.41 81.36 483.41 78.91L483.41 78.91Z"/></svg>