<svg xmlns="http://www.w3.org/2000/svg" xmlns:xlink="http://www.w3.org/1999/xlink" width="542.4480000000001" height="87.19200000000001"><path fill="#111111" d="M49.97 65.66Q50.26 65.66 50.26 66.10Q50.26 66.53 49.97 66.53L49.97 66.53Q48.67 66.53 45.79 66.38L45.79 66.38Q43.06 66.24 41.76 66.24L41.76 66.24Q40.25 66.24 37.80 66.38L37.80 66.38Q35.50 66.53 34.34 66.53L34.34 66.53Q34.06 66.53 34.06 66.10Q34.06 65.66 34.34 65.66L34.34 65.66Q37.30 65.66 38.59 65.12Q39.89 64.58 39.89 63.29L39.89 63.29Q39.89 62.28 39.10 60.48L39.10 60.48L30.53 42.12L16.78 42.12L10.30 57.67Q9.29 60.12 9.29 61.70L9.29 61.70Q9.29 63.79 11.02 64.73Q12.74 65.66 16.42 65.66L16.42 65.66Q16.78 65.66 16.78 66.10Q16.78 66.53 16.42 66.53L16.42 66.53Q15.12 66.53 12.67 66.38L12.67 66.38Q9.94 66.24 7.92 66.24L7.92 66.24Q6.12 66.24 3.67 66.38L3.67 66.38Q1.51 66.53 0.14 66.53L0.14 66.53Q-0.22 66.53-0.22 66.10Q-0.22 65.66 0.14 65.66L0.14 65.66Q2.16 65.66 3.56 64.94Q4.97 64.22 6.23 62.35Q7.49 60.48 8.93 57.02L8.93 57.02L23.98 20.81Q24.12 20.59 24.44 20.59Q24.77 20.59 24.84 20.81L24.84 20.81L41.54 56.66Q43.20 60.34 44.50 62.24Q45.79 64.15 47.05 64.91Q48.31 65.66 49.97 65.66L49.97 65.66ZM23.26 26.50L17.35 40.75L29.95 40.75L23.26 26.50ZM79.92 62.64L80.06 62.64Q80.35 62.64 80.42 62.96Q80.50 63.29 80.21 63.43L80.21 63.43L72.79 66.96Q72.50 67.10 72.22 67.10L72.22 67.10Q71.42 67.10 70.74 65.81Q70.06 64.51 69.91 62.28L69.91 62.28L65.16 64.87Q62.78 66.10 61.49 66.56Q60.19 67.03 58.90 67.03L58.90 67.03Q56.66 67.03 55.51 65.84Q54.36 64.66 54.36 62.93L54.36 62.93Q54.36 61.13 55.80 59.94Q57.24 58.75 60.84 57.46L60.84 57.46L69.91 54.22L69.91 48.17Q69.91 43.27 68.58 41.40Q67.25 39.53 65.02 39.53L65.02 39.53Q62.42 39.53 60.98 41.40Q59.54 43.27 59.18 45.58L59.18 45.58Q59.04 46.58 58.57 47.27Q58.10 47.95 56.88 47.95L56.88 47.95Q55.87 47.95 55.30 47.45Q54.72 46.94 54.72 46.01L54.72 46.01Q54.72 44.42 56.77 42.55Q58.82 40.68 61.78 39.38Q64.73 38.09 67.18 38.09L67.18 38.09Q69.91 38.09 71.57 40.07Q73.22 42.05 73.22 46.01L73.22 46.01L73.22 58.75Q73.22 61.42 73.84 62.57Q74.45 63.72 75.96 63.72L75.96 63.72Q77.33 63.72 79.92 62.64L79.92 62.64ZM64.58 64.08L69.91 61.42L69.91 61.20L69.91 55.01L61.56 58.18Q59.98 58.75 59.33 59.54Q58.68 60.34 58.68 61.56L58.68 61.56Q58.68 63.07 59.54 63.90Q60.41 64.73 61.85 64.73L61.85 64.73Q63.14 64.73 64.58 64.08L64.58 64.08ZM103.82 41.11Q109.44 41.47 112.90 44.86Q116.35 48.24 116.35 53.21L116.35 53.21Q116.35 57.10 114.55 60.19Q112.75 63.29 109.58 65.05Q106.42 66.82 102.60 66.82L102.60 66.82Q100.15 66.82 97.42 66.60L97.42 66.60Q96.41 66.53 95.04 66.46Q93.67 66.38 91.94 66.38L91.94 66.38L87.19 66.46Q85.90 66.53 83.59 66.53L83.59 66.53Q83.45 66.53 83.45 66.10Q83.45 65.66 83.59 65.66L83.59 65.66Q86.47 65.66 87.80 65.30Q89.14 64.94 89.64 63.90Q90.14 62.86 90.14 60.70L90.14 60.70L90.14 27.36Q90.14 25.20 89.68 24.19Q89.21 23.18 87.88 22.79Q86.54 22.39 83.74 22.39L83.74 22.39Q83.52 22.39 83.52 21.96Q83.52 21.53 83.74 21.53L83.74 21.53L87.19 21.60Q90.07 21.74 91.94 21.74L91.94 21.74Q93.24 21.74 94.39 21.67Q95.54 21.60 96.41 21.53L96.41 21.53Q98.64 21.31 100.37 21.31L100.37 21.31Q106.34 21.31 109.19 24.01Q112.03 26.71 112.03 30.89L112.03 30.89Q112.03 34.42 109.80 37.04Q107.57 39.67 103.82 41.11L103.82 41.11ZM98.71 22.25Q96.70 22.25 95.76 22.54Q94.82 22.82 94.36 23.90Q93.89 24.98 93.89 27.50L93.89 27.50L93.89 41.18L97.27 41.26Q102.96 41.26 105.55 38.56Q108.14 35.86 108.14 31.39L108.14 31.39Q108.14 27.36 105.88 24.80Q103.61 22.25 98.71 22.25L98.71 22.25ZM101.59 65.66Q106.92 65.66 109.55 62.89Q112.18 60.12 112.18 55.01L112.18 55.01Q112.18 49.54 108.83 46.12Q105.48 42.70 99.79 42.62L99.79 42.62Q97.13 42.55 93.89 42.77L93.89 42.77L93.89 60.70Q93.89 62.64 94.50 63.68Q95.11 64.73 96.77 65.20Q98.42 65.66 101.59 65.66L101.59 65.66ZM142.34 37.80Q145.44 37.80 148.03 39.31Q150.62 40.82 152.21 43.81Q153.79 46.80 153.79 51.12L153.79 51.12Q153.79 56.30 151.52 60.01Q149.26 63.72 145.58 65.59Q141.91 67.46 137.88 67.46L137.88 67.46Q132.41 67.46 128.23 64.37L128.23 64.37L122.98 66.82L122.83 66.82Q122.54 66.82 122.47 66.56Q122.40 66.31 122.62 66.10L122.62 66.10Q125.06 64.37 126.00 63.07Q126.94 61.78 126.94 59.11L126.94 59.11L126.94 23.40Q126.94 20.74 126.40 19.58Q125.86 18.43 124.56 18.43L124.56 18.43Q123.34 18.43 121.10 19.44L121.10 19.44L120.96 19.44Q120.74 19.44 120.64 19.08Q120.53 18.72 120.82 18.65L120.82 18.65L129.46 14.40L129.82 14.33Q129.96 14.33 130.14 14.47Q130.32 14.62 130.32 14.83L130.32 14.83L130.32 44.42Q132.98 41.47 135.90 39.64Q138.82 37.80 142.34 37.80L142.34 37.80ZM140.26 66.10Q144.72 66.10 147.24 62.82Q149.76 59.54 149.76 53.42L149.76 53.42Q149.76 46.94 147.10 43.38Q144.43 39.82 140.18 39.82L140.18 39.82Q137.52 39.82 135.14 41.36Q132.77 42.91 130.32 45.58L130.32 45.58L130.32 57.67Q130.32 60.55 131.94 62.46Q133.56 64.37 135.83 65.23Q138.10 66.10 140.26 66.10L140.26 66.10ZM186.26 20.74Q189.79 20.74 193.36 21.46Q196.92 22.18 199.08 23.40L199.08 23.40Q199.66 23.76 199.84 24.08Q200.02 24.41 200.09 25.13L200.09 25.13L200.88 32.69Q200.88 32.90 200.52 32.94Q200.16 32.98 200.09 32.76L200.09 32.76Q197.50 22.25 183.46 22.25L183.46 22.25Q177.84 22.25 173.56 24.66Q169.27 27.07 166.90 31.46Q164.52 35.86 164.52 41.62L164.52 41.62Q164.52 48.38 167.47 54.11Q170.42 59.83 175.32 63.18Q180.22 66.53 185.90 66.53L185.90 66.53Q191.23 66.53 195.08 63.72Q198.94 60.91 200.74 55.15L200.74 55.15Q200.74 54.94 201.02 54.94L201.02 54.94Q201.24 54.94 201.42 55.01Q201.60 55.08 201.60 55.22L201.60 55.22L200.59 62.93Q200.45 63.79 200.27 64.04Q200.09 64.30 199.44 64.58L199.44 64.58Q193.03 67.39 185.69 67.39L185.69 67.39Q177.05 67.39 171.29 63.90Q165.53 60.41 162.79 54.97Q160.06 49.54 160.06 43.56L160.06 43.56Q160.06 37.01 163.73 31.79Q167.40 26.57 173.45 23.65Q179.50 20.74 186.26 20.74L186.26 20.74ZM221.26 67.39Q216.65 67.39 213.52 65.34Q210.38 63.29 208.87 60.05Q207.36 56.81 207.36 53.21L207.36 53.21Q207.36 48.60 209.63 45.18Q211.90 41.76 215.46 39.92Q219.02 38.09 222.77 38.09L222.77 38.09Q225.86 38.09 228.42 39.31Q230.98 40.54 230.98 42.19L230.98 42.19Q230.98 43.06 230.40 43.67Q229.82 44.28 228.89 44.28L228.89 44.28Q227.23 44.28 226.01 42.26L226.01 42.26Q225.07 40.90 223.81 40.21Q222.55 39.53 220.46 39.53L220.46 39.53Q216.14 39.53 213.80 42.66Q211.46 45.79 211.46 51.12L211.46 51.12Q211.46 57.17 214.56 61.16Q217.66 65.16 223.78 65.16L223.78 65.16Q228.38 65.16 231.19 62.64L231.19 62.64L231.34 62.64Q231.55 62.64 231.73 62.86Q231.91 63.07 231.70 63.22L231.70 63.22Q229.25 65.38 226.73 66.38Q224.21 67.39 221.26 67.39L221.26 67.39ZM255.38 66.82Q253.30 66.82 250.70 66.60L250.70 66.60Q249.70 66.53 248.22 66.46Q246.74 66.38 244.94 66.38L244.94 66.38L240.19 66.46Q238.90 66.53 236.59 66.53L236.59 66.53Q236.45 66.53 236.45 66.10Q236.45 65.66 236.59 65.66L236.59 65.66Q239.40 65.66 240.73 65.30Q242.06 64.94 242.57 63.90Q243.07 62.86 243.07 60.70L243.07 60.70L243.07 27.36Q243.07 25.20 242.60 24.19Q242.14 23.18 240.80 22.79Q239.47 22.39 236.66 22.39L236.66 22.39Q236.52 22.39 236.52 21.96Q236.52 21.53 236.66 21.53L236.66 21.53L240.19 21.60Q243.22 21.74 244.94 21.74L244.94 21.74Q247.46 21.74 250.06 21.53L250.06 21.53Q253.22 21.38 254.38 21.38L254.38 21.38Q261.94 21.38 267.77 24.26Q273.60 27.14 276.80 32.11Q280.01 37.08 280.01 43.27L280.01 43.27Q280.01 50.26 276.66 55.62Q273.31 60.98 267.70 63.90Q262.08 66.82 255.38 66.82L255.38 66.82ZM254.66 65.88Q260.71 65.88 265.39 63.43Q270.07 60.98 272.70 56.23Q275.33 51.48 275.33 44.86L275.33 44.86Q275.33 38.52 272.84 33.41Q270.36 28.30 265.72 25.31Q261.07 22.32 255.02 22.32L255.02 22.32Q251.86 22.32 250.16 22.68Q248.47 23.04 247.68 24.16Q246.89 25.27 246.89 27.50L246.89 27.50L246.89 59.90Q246.89 62.06 247.54 63.36Q248.18 64.66 249.84 65.27Q251.50 65.88 254.66 65.88L254.66 65.88ZM319.90 62.64L320.04 62.57Q320.33 62.57 320.44 62.93Q320.54 63.29 320.26 63.43L320.26 63.43L312.84 66.96Q312.55 67.10 312.26 67.10L312.26 67.10Q311.26 67.10 310.57 65.48Q309.89 63.86 309.82 60.91L309.82 60.91Q307.08 63.86 304.09 65.66Q301.10 67.46 297.43 67.46L297.43 67.46Q294.41 67.46 291.85 65.74Q289.30 64.01 287.75 60.88Q286.20 57.74 286.20 53.78L286.20 53.78Q286.20 48.74 288.72 45.11Q291.24 41.47 295.06 39.64Q298.87 37.80 302.62 37.80L302.62 37.80Q306.43 37.80 309.82 40.03L309.82 40.03L309.82 23.40Q309.82 20.74 309.28 19.58Q308.74 18.43 307.37 18.43L307.37 18.43Q306.79 18.43 305.89 18.76Q304.99 19.08 303.91 19.51L303.91 19.51L303.77 19.51Q303.48 19.51 303.41 19.19Q303.34 18.86 303.55 18.72L303.55 18.72L312.34 14.40Q312.48 14.33 312.70 14.33L312.70 14.33Q312.84 14.33 313.02 14.47Q313.20 14.62 313.20 14.83L313.20 14.83L313.20 58.75Q313.20 61.42 313.81 62.57Q314.42 63.72 315.94 63.72L315.94 63.72Q318.17 63.72 319.90 62.64L319.90 62.64ZM299.95 65.09Q302.69 65.09 305.06 63.68Q307.44 62.28 309.82 59.76L309.82 59.76L309.82 44.50Q307.94 41.98 305.75 40.57Q303.55 39.17 300.46 39.17L300.46 39.17Q295.78 39.17 292.97 42.48Q290.16 45.79 290.16 51.70L290.16 51.70Q290.16 55.66 291.46 58.68Q292.75 61.70 294.98 63.40Q297.22 65.09 299.95 65.09L299.95 65.09ZM354.31 56.02Q354.31 55.80 354.74 55.84Q355.18 55.87 355.18 56.09L355.18 56.09Q354.53 60.62 354.53 65.45L354.53 65.45Q354.53 66.02 354.28 66.28Q354.02 66.53 353.38 66.53L353.38 66.53L323.64 66.53Q323.50 66.53 323.50 66.10Q323.50 65.66 323.64 65.66L323.64 65.66Q326.45 65.66 327.78 65.30Q329.11 64.94 329.58 63.90Q330.05 62.86 330.05 60.70L330.05 60.70L330.05 27.36Q330.05 25.20 329.58 24.19Q329.11 23.18 327.78 22.79Q326.45 22.39 323.64 22.39L323.64 22.39Q323.50 22.39 323.50 21.96Q323.50 21.53 323.64 21.53L323.64 21.53L352.15 21.53Q352.80 21.53 352.80 22.18L352.80 22.18L352.94 30.89Q352.94 31.10 352.55 31.10Q352.15 31.10 352.15 30.89L352.15 30.89Q352.15 27.22 350.21 25.06Q348.26 22.90 345.10 22.90L345.10 22.90L340.13 22.90Q337.39 22.90 336.10 23.26Q334.80 23.62 334.33 24.62Q333.86 25.63 333.86 27.79L333.86 27.79L333.86 42.41L343.37 42.41Q346.68 42.41 347.98 41.29Q349.27 40.18 349.27 37.44L349.27 37.44Q349.27 37.30 349.70 37.30Q350.14 37.30 350.14 37.44L350.14 37.44L350.06 43.13Q350.06 45.22 350.14 46.22L350.14 46.22L350.21 49.61Q350.21 49.75 349.78 49.75Q349.34 49.75 349.34 49.61L349.34 49.61Q349.34 46.37 347.98 45.07Q346.61 43.78 343.15 43.78L343.15 43.78L333.86 43.78L333.86 60.41Q333.86 62.50 334.33 63.47Q334.80 64.44 336.06 64.80Q337.32 65.16 340.13 65.16L340.13 65.16L346.75 65.16Q349.63 65.16 351.68 62.64Q353.74 60.12 354.31 56.02L354.31 56.02ZM384.55 62.64L384.62 62.64Q384.84 62.64 385.02 62.89Q385.20 63.14 385.06 63.36L385.06 63.36Q380.30 67.39 374.76 67.39L374.76 67.39Q370.58 67.39 367.56 65.45Q364.54 63.50 363.02 60.37Q361.51 57.24 361.51 53.57L361.51 53.57Q361.51 49.25 363.53 45.72Q365.54 42.19 369.04 40.14Q372.53 38.09 376.78 38.09L376.78 38.09Q380.52 38.09 382.61 40.00Q384.70 41.90 384.70 45.22L384.70 45.22Q384.70 46.08 384.52 46.44Q384.34 46.80 383.83 46.80L383.83 46.80L365.98 46.87Q365.62 48.89 365.62 50.83L365.62 50.83Q365.62 57.17 368.68 61.13Q371.74 65.09 377.06 65.09L377.06 65.09Q381.31 65.09 384.55 62.64L384.55 62.64ZM374.33 39.53Q371.16 39.53 369.11 41.22Q367.06 42.91 366.19 46.08L366.19 46.08L380.38 45.72Q380.38 42.77 378.72 41.15Q377.06 39.53 374.33 39.53L374.33 39.53ZM436.68 65.66Q436.90 65.66 436.90 66.10Q436.90 66.53 436.68 66.53L436.68 66.53L428.33 66.53Q426.46 66.53 421.34 60.30Q416.23 54.07 408.96 43.06L408.96 43.06Q406.80 43.63 404.57 43.63L404.57 43.63Q403.34 43.63 401.47 43.49L401.47 43.49L401.47 60.70Q401.47 62.93 401.94 63.94Q402.41 64.94 403.70 65.30Q405.00 65.66 407.88 65.66L407.88 65.66Q408.10 65.66 408.10 66.10Q408.10 66.53 407.88 66.53L407.88 66.53Q405.72 66.53 404.42 66.46L404.42 66.46L399.53 66.38L394.78 66.46Q393.48 66.53 391.18 66.53L391.18 66.53Q391.03 66.53 391.03 66.10Q391.03 65.66 391.18 65.66L391.18 65.66Q394.06 65.66 395.39 65.30Q396.72 64.94 397.22 63.90Q397.73 62.86 397.73 60.70L397.73 60.70L397.73 27.36Q397.73 25.20 397.26 24.19Q396.79 23.18 395.46 22.79Q394.13 22.39 391.32 22.39L391.32 22.39Q391.10 22.39 391.10 21.96Q391.10 21.53 391.32 21.53L391.32 21.53L394.78 21.60Q397.66 21.74 399.53 21.74L399.53 21.74Q400.82 21.74 401.98 21.67Q403.13 21.60 403.99 21.53L403.99 21.53Q406.22 21.31 407.95 21.31L407.95 21.31Q413.64 21.31 416.66 23.69Q419.69 26.06 419.69 30.31L419.69 30.31Q419.69 33.77 417.67 36.83Q415.66 39.89 412.34 41.69L412.34 41.69Q418.61 50.90 422.78 56.02Q426.96 61.13 430.24 63.40Q433.51 65.66 436.68 65.66L436.68 65.66ZM401.47 41.76Q404.21 42.05 405.79 42.05L405.79 42.05Q411.05 42.05 413.35 39.85Q415.66 37.66 415.66 32.76L415.66 32.76Q415.66 27.29 413.10 24.77Q410.54 22.25 406.30 22.25L406.30 22.25Q404.28 22.25 403.34 22.54Q402.41 22.82 401.94 23.90Q401.47 24.98 401.47 27.50L401.47 27.50L401.47 41.76ZM453.74 38.09Q455.33 38.09 456.73 38.92Q458.14 39.74 458.14 40.82L458.14 40.82Q458.14 41.54 457.60 42.12Q457.06 42.70 456.05 42.70L456.05 42.70Q455.33 42.70 454.75 42.30Q454.18 41.90 454.03 41.83L454.03 41.83Q452.66 40.75 451.30 40.75L451.30 40.75Q450.29 40.75 449.17 41.62Q448.06 42.48 445.75 45.29L445.75 45.29L445.75 60.70Q445.75 62.86 446.26 63.90Q446.76 64.94 448.24 65.30Q449.71 65.66 452.95 65.66L452.95 65.66Q453.17 65.66 453.17 66.10Q453.17 66.53 452.95 66.53L452.95 66.53Q450.65 66.53 449.28 66.46L449.28 66.46L444.10 66.38L440.28 66.46Q439.34 66.53 437.69 66.53L437.69 66.53Q437.47 66.53 437.47 66.10Q437.47 65.66 437.69 65.66L437.69 65.66Q439.78 65.66 440.71 65.30Q441.65 64.94 442.01 63.90Q442.37 62.86 442.37 60.70L442.37 60.70L442.37 46.30Q442.37 43.78 441.79 42.70Q441.22 41.62 439.78 41.62L439.78 41.62Q438.62 41.62 435.74 42.70L435.74 42.70L435.60 42.70Q435.31 42.70 435.20 42.37Q435.10 42.05 435.38 41.90L435.38 41.90L443.38 38.16Q443.52 38.09 443.74 38.09L443.74 38.09Q444.31 38.09 445.03 39.71Q445.75 41.33 445.75 43.85L445.75 43.85L445.75 44.28Q448.70 40.68 450.43 39.38Q452.16 38.09 453.74 38.09L453.74 38.09ZM489.38 67.39Q481.54 67.39 475.74 64.37Q469.94 61.34 466.88 56.16Q463.82 50.98 463.82 44.57L463.82 44.57Q463.82 37.58 467.39 32.18Q470.95 26.78 477.18 23.76Q483.41 20.74 491.26 20.74L491.26 20.74Q494.78 20.74 497.92 21.46Q501.05 22.18 503.14 23.47L503.14 23.47Q503.64 23.83 503.75 24.08Q503.86 24.34 503.89 24.66Q503.93 24.98 503.93 25.13L503.93 25.13L504.79 32.69Q504.79 32.90 504.40 32.94Q504.00 32.98 503.93 32.76L503.93 32.76Q502.56 27.65 498.53 24.95Q494.50 22.25 488.30 22.25L488.30 22.25Q478.80 22.25 473.54 27.50Q468.29 32.76 468.29 42.05L468.29 42.05Q468.29 48.96 471.24 54.47Q474.19 59.98 479.41 63.07Q484.63 66.17 491.11 66.17L491.11 66.17Q495.00 66.17 497.12 65.52Q499.25 64.87 500.22 63.00Q501.19 61.13 501.19 57.46L501.19 57.46Q501.19 53.71 500.69 52.24Q500.18 50.76 498.53 50.26Q496.87 49.75 492.77 49.75L492.77 49.75Q492.34 49.75 492.34 49.18L492.34 49.18Q492.34 48.96 492.44 48.78Q492.55 48.60 492.70 48.60L492.70 48.60Q498.24 48.96 501.62 48.96L501.62 48.96Q504.86 48.96 508.54 48.74L508.54 48.74Q508.68 48.74 508.79 48.92Q508.90 49.10 508.90 49.25L508.90 49.25Q508.90 49.75 508.54 49.75L508.54 49.75Q506.66 49.68 505.87 50.22Q505.08 50.76 504.86 52.42Q504.65 54.07 504.65 58.18L504.65 58.18Q504.65 61.42 504.90 62.78Q505.15 64.15 505.15 64.51L505.15 64.51Q505.15 64.94 505.01 65.09Q504.86 65.23 504.36 65.38L504.36 65.38Q495.94 67.39 489.38 67.39L489.38 67.39ZM526.97 64.44L528.77 64.66Q533.16 65.30 535.64 65.95Q538.13 66.60 539.93 68.29Q541.73 69.98 541.73 73.01L541.73 73.01Q541.73 76.18 539.32 79.42Q536.90 82.66 532.80 84.74Q528.70 86.83 523.94 86.83L523.94 86.83Q518.90 86.83 515.81 84.31Q512.71 81.79 512.71 78.05L512.71 78.05Q512.71 72.29 521.06 66.74L521.06 66.74Q516.10 65.30 516.10 61.92L516.10 61.92Q516.10 58.10 521.14 54.50L521.14 54.50Q518.47 53.50 517.00 51.37Q515.52 49.25 515.52 46.58L515.52 46.58Q515.52 42.98 518.51 40.61Q521.50 38.23 526.39 38.23L526.39 38.23Q531.00 38.23 533.52 40.39L533.52 40.39Q537.48 38.16 541.22 38.16L541.22 38.16Q541.37 38.16 541.48 38.66Q541.58 39.17 541.58 39.67L541.58 39.67Q541.58 40.54 541.40 41.29Q541.22 42.05 540.94 41.90L540.94 41.90Q540.79 41.83 539.53 41.36Q538.27 40.90 536.33 40.90L536.33 40.90Q535.25 40.90 534.24 41.11L534.24 41.11Q536.11 43.20 536.11 46.15L536.11 46.15Q536.11 48.53 534.89 50.62Q533.66 52.70 531.29 53.96Q528.91 55.22 525.60 55.22L525.60 55.22Q523.44 55.22 521.93 54.72L521.93 54.72Q520.56 55.66 519.77 56.99Q518.98 58.32 518.98 59.76L518.98 59.76Q518.98 61.99 521.06 62.93Q523.15 63.86 526.97 64.44L526.97 64.44ZM524.74 39.24Q522.36 39.24 520.88 40.68Q519.41 42.12 519.41 45.22L519.41 45.22Q519.41 49.46 521.71 51.84Q524.02 54.22 527.04 54.22L527.04 54.22Q529.34 54.22 530.82 52.60Q532.30 50.98 532.30 47.59L532.30 47.59Q532.30 43.85 530.03 41.54Q527.76 39.24 524.74 39.24L524.74 39.24ZM526.54 84.74Q530.35 84.74 533.09 83.34Q535.82 81.94 537.19 79.74Q538.56 77.54 538.56 75.10L538.56 75.10Q538.56 72.22 536.69 70.70Q534.82 69.19 532.40 68.65Q529.99 68.11 525.38 67.54L525.38 67.54Q523.37 67.25 522.36 67.03L522.36 67.03Q519.48 68.83 517.86 70.88Q516.24 72.94 516.24 75.96L516.24 75.96Q516.24 79.92 518.98 82.33Q521.71 84.74 526.54 84.74L526.54 84.74Z"/></svg>