<svg xmlns="http://www.w3.org/2000/svg" xmlns:xlink="http://www.w3.org/1999/xlink" width="621.1440000000001" height="72.00000000000001"><path fill="#111111" d="M19.51 13.68L35.71 52.56L45.65 52.56L24.12 2.66L23.98 2.66ZM14.90 52.56L9.00 39.82L2.88 52.56ZM52.13 42.77C52.13 48.10 56.16 52.20 61.42 52.56L61.42 32.83C56.16 33.12 52.13 37.44 52.13 42.77ZM54.79 27.22L64.66 17.28L54.79 17.28ZM82.37 52.56L82.37 29.88C82.37 22.25 78.98 18.58 74.09 17.64L74.09 52.56ZM106.13 4.03L96.77 4.03L96.77 52.56L106.13 52.56ZM130.90 15.77C130.90 10.01 126.58 5.11 120.89 4.18L120.89 28.15C126.58 27.14 130.90 21.74 130.90 15.77ZM130.90 40.46C130.90 34.49 126.58 29.52 120.89 28.58L120.89 52.56C126.58 51.55 130.90 46.15 130.90 40.46ZM150.05 52.56L150.05 0L141.70 0L141.70 52.56ZM175.03 34.99C175.03 27.22 172.30 20.74 165.60 18.36L165.60 51.62C172.30 49.25 175.03 42.77 175.03 34.99ZM182.23 28.30C182.23 36.72 186.48 44.93 192.96 49.39L192.96 7.27C186.48 11.74 182.23 19.87 182.23 28.30ZM222.26 52.56L222.26 40.46L210.17 52.56ZM222.26 4.03L210.17 4.03L222.26 16.13ZM228.74 34.99C228.74 42.77 231.62 48.96 238.32 51.62L238.32 18.36C231.62 21.10 228.74 27.22 228.74 34.99ZM258.41 42.62L248.54 52.56L258.41 52.56ZM248.47 17.28L258.41 27.14L258.41 17.28ZM269.93 52.56L279.29 52.56L279.29 4.03L269.93 4.03ZM312.05 28.30C312.05 19.87 307.80 11.74 301.32 7.20L301.32 49.32C307.80 44.86 312.05 36.72 312.05 28.30ZM352.51 52.56L352.51 0L344.16 0L344.16 52.56ZM319.25 34.99C319.25 42.77 322.13 48.96 328.82 51.62L328.82 18.36C322.13 21.10 319.25 27.22 319.25 34.99ZM376.27 4.03L366.91 4.03L366.91 52.56L376.27 52.56ZM383.11 27.79L391.75 36.43L391.75 19.15ZM400.10 52.56L400.10 40.46L388.01 52.56ZM400.10 4.03L388.01 4.03L400.10 16.13ZM406.58 34.99C406.58 42.77 409.46 48.96 416.16 51.62L416.16 18.36C409.46 21.10 406.58 27.22 406.58 34.99ZM441.58 34.92C441.43 27.22 438.62 21.02 432.00 18.36L432.00 34.92ZM440.86 42.62L432.00 52.56L440.86 52.56ZM462.46 4.03L453.10 4.03L453.10 52.56L462.46 52.56ZM490.32 15.62C490.32 9.86 486.00 4.97 480.31 4.03L480.31 28.01C486.00 27.00 490.32 21.60 490.32 15.62ZM467.50 29.66L484.92 52.56L495.22 52.56L477.86 29.66ZM503.14 17.28L503.14 52.56L511.42 52.56L511.42 17.28ZM516.38 17.28L526.25 27.14L526.25 17.28ZM564.62 28.30L564.62 52.56L573.62 52.56L573.62 28.30ZM531.29 28.30C531.29 36.72 535.54 44.93 542.02 49.39L542.02 7.27C535.54 11.74 531.29 19.87 531.29 28.30ZM573.62 4.03L561.53 4.03L573.62 16.13ZM604.58 40.54C609.55 39.38 613.22 34.20 613.22 28.87C613.22 23.62 609.62 18.43 604.58 17.28ZM590.90 17.28C585.94 18.43 582.26 23.62 582.26 28.94C582.26 34.20 585.86 39.38 590.90 40.54ZM621.14 7.34L611.28 17.28L621.14 17.28ZM605.45 60.26C612.43 60.26 616.03 62.78 616.61 66.96C616.90 65.95 617.11 64.87 617.11 63.72C617.11 57.53 612.07 52.56 605.88 52.56L584.42 52.56L584.42 60.19Z"/></svg>