<svg xmlns="http://www.w3.org/2000/svg" xmlns:xlink="http://www.w3.org/1999/xlink" width="636.912" height="72.00000000000001"><path fill="#111111" d="M20.52 10.87L37.66 52.56L43.63 52.56C36.72 36.00 30.24 20.45 23.33 3.82ZM10.80 52.56C9.50 49.61 8.28 47.38 6.91 44.35C5.54 47.23 4.25 49.61 2.88 52.56ZM51.55 43.56C51.55 47.81 54.36 51.12 58.25 52.20L58.25 34.70C54.43 35.71 51.55 39.46 51.55 43.56ZM54.50 24.98L62.35 17.28L54.50 17.28ZM81.29 52.56L81.29 28.51C81.29 22.25 79.20 19.08 75.74 18.00L75.74 52.56ZM103.61 4.03L97.85 4.03L97.85 52.56L103.61 52.56ZM130.61 14.62C130.61 10.22 128.30 6.48 124.13 4.90L124.13 25.20C128.30 23.69 130.61 19.37 130.61 14.62ZM130.61 41.54C130.61 37.01 128.16 33.05 124.13 31.54L124.13 51.77C128.30 50.04 130.61 45.94 130.61 41.54ZM149.90 52.56L149.90 0L144.29 0L144.29 52.56ZM177.34 34.99C177.34 28.30 175.18 22.39 170.57 19.44L170.57 50.54C175.32 47.66 177.34 41.83 177.34 34.99ZM188.14 28.30C188.14 35.35 190.80 41.83 195.41 46.66L195.41 10.01C190.66 14.76 188.14 21.17 188.14 28.30ZM227.38 52.56L227.38 43.92L218.74 52.56ZM227.38 4.03L218.74 4.03L227.38 12.67ZM235.30 34.99C235.30 41.83 237.46 47.45 242.28 50.47L242.28 19.58C237.17 22.68 235.30 28.01 235.30 34.99ZM264.46 44.86L256.68 52.56L264.46 52.56ZM256.75 17.28L264.46 25.06L264.46 17.28ZM275.98 52.56L281.66 52.56L281.66 4.03L275.98 4.03ZM317.45 28.30C317.45 21.24 314.78 14.76 310.18 9.94L310.18 46.58C314.93 41.83 317.45 35.42 317.45 28.30ZM361.30 52.56L361.30 0L355.61 0L355.61 52.56ZM328.25 34.99C328.25 41.83 330.34 47.45 335.23 50.47L335.23 19.58C330.26 22.68 328.25 28.15 328.25 34.99ZM383.62 4.03L377.86 4.03L377.86 52.56L383.62 52.56ZM409.68 52.56L409.68 43.92L401.04 52.56ZM409.68 4.03L401.04 4.03L409.68 12.67ZM394.27 27.79L400.54 33.91L400.54 21.53ZM419.04 34.99C419.04 41.83 421.13 47.45 425.95 50.47L425.95 19.58C420.91 22.68 419.04 28.01 419.04 34.99ZM453.89 33.12C453.38 27.29 451.37 22.39 446.98 19.66L446.98 33.12ZM453.89 44.86L446.04 52.56L453.89 52.56ZM473.33 4.03L467.57 4.03L467.57 52.56L473.33 52.56ZM503.78 14.47C503.78 9.94 501.41 6.34 497.23 4.75L497.23 24.91C501.41 23.26 503.78 19.08 503.78 14.47ZM482.69 28.73L499.68 52.56L506.02 52.56L489.02 28.73ZM516.82 17.28L516.82 52.56L522.36 52.56L522.36 17.28ZM530.28 17.28L537.98 25.06L537.98 17.28ZM582.91 30.60L582.91 52.56L588.38 52.56L588.38 30.60ZM546.62 28.30C546.62 35.35 549.29 41.83 553.90 46.66L553.90 10.01C549.14 14.76 546.62 21.17 546.62 28.30ZM588.31 4.03L579.60 4.03L588.31 12.67ZM605.09 17.28C601.56 19.08 599.18 23.33 599.18 27.58C599.18 32.04 601.42 36.14 605.09 37.87ZM623.74 37.80C627.34 36.00 629.64 31.97 629.64 27.50C629.64 23.18 627.41 19.08 623.74 17.28ZM635.47 9.58L628.34 17.28L635.47 17.28ZM619.99 57.82C627.84 57.82 631.94 60.34 632.59 65.16C632.81 64.30 633.02 63.29 633.02 62.28C633.02 56.88 628.63 52.56 620.35 52.56L600.34 52.56L600.34 57.82Z"/></svg>