<svg xmlns="http://www.w3.org/2000/svg" xmlns:xlink="http://www.w3.org/1999/xlink" width="633.384" height="72.00000000000001"><path fill="#111111" d="M18.36 16.06L34.20 52.56L47.09 52.56L24.48 2.09ZM18.36 52.56L10.37 36.00L2.16 52.56ZM53.57 41.98C53.57 47.66 58.61 52.13 65.16 52.63L65.16 31.32C58.61 31.75 53.57 36.22 53.57 41.98ZM55.01 30.38L67.97 17.28L55.01 17.28ZM84.96 52.56L84.96 29.59C84.96 21.60 80.57 17.35 74.23 17.28L74.23 52.56ZM108.50 4.03L96.48 4.03L96.48 52.56L108.50 52.56ZM131.62 39.24C131.62 34.49 128.23 30.31 123.98 28.01C128.52 25.56 131.62 21.67 131.62 16.78C131.62 10.51 126.14 5.18 119.02 4.03L119.02 52.56C126.14 51.26 131.62 45.43 131.62 39.24ZM152.50 52.56L152.50 0L141.70 0L141.70 52.56ZM175.25 34.99C175.25 27.22 171.86 20.59 163.44 17.57L163.44 52.42C171.86 49.39 175.25 42.77 175.25 34.99ZM183.89 28.30C183.89 38.16 189.14 45.50 197.14 50.98L197.14 5.69C189.14 11.16 183.89 18.43 183.89 28.30ZM224.50 52.56L224.50 36.43L208.30 52.56ZM224.50 4.03L208.30 4.03L224.50 20.16ZM233.14 34.99C233.14 42.70 236.59 49.10 245.02 52.49L245.02 17.50C236.59 20.88 233.14 27.36 233.14 34.99ZM263.38 39.46L250.42 52.56L263.38 52.56ZM250.27 17.28L263.38 30.17L263.38 17.28ZM273.38 52.56L285.34 52.56L285.34 4.03L273.38 4.03ZM315.86 28.30C315.86 19.22 310.68 11.16 302.62 5.54L302.62 50.90C310.68 45.43 315.86 38.16 315.86 28.30ZM357.98 52.56L357.98 0L347.26 0L347.26 52.56ZM324.50 34.99C324.50 42.77 328.03 49.18 336.46 52.49L336.46 17.50C328.03 20.95 324.50 27.36 324.50 34.99ZM381.53 4.03L369.50 4.03L369.50 52.56L381.53 52.56ZM385.06 27.79L396.36 39.10L396.36 16.56ZM405.94 52.56L405.94 36.43L389.74 52.56ZM405.94 4.03L389.74 4.03L405.94 20.16ZM414.58 34.99C414.58 42.70 417.96 49.18 426.46 52.49L426.46 17.50C417.96 20.88 414.58 27.29 414.58 34.99ZM449.57 35.50C449.42 26.71 445.90 20.74 437.69 17.50L437.69 35.50ZM449.57 39.96L437.04 52.56L449.57 52.56ZM471.60 4.03L459.65 4.03L459.65 52.56L471.60 52.56ZM472.82 31.32L486.79 52.56L500.26 52.56L485.71 31.32ZM485.78 29.59C492.91 29.16 498.38 23.83 498.38 16.85C498.38 9.79 492.91 4.46 485.78 4.03ZM508.90 17.28L508.90 52.56L519.62 52.56L519.62 17.28ZM522.86 17.28L535.82 30.24L535.82 17.28ZM541.58 28.30C541.58 38.16 546.84 45.50 554.90 50.98L554.90 5.69C546.84 11.16 541.58 18.43 541.58 28.30ZM584.35 4.03L568.22 4.03L584.35 20.16ZM572.40 52.56L584.35 52.56L584.35 26.64L572.40 26.64ZM605.45 17.21C599.04 18.72 594.43 24.34 594.43 29.95C594.43 35.42 598.97 41.04 605.45 42.48ZM614.74 42.48C621.07 41.04 625.75 35.42 625.75 29.88C625.75 24.34 621.14 18.72 614.74 17.21ZM632.66 4.10L619.78 17.28L632.66 17.28ZM618.34 60.05C624.53 60.05 627.77 62.35 628.27 66.10C628.78 64.87 629.06 63.43 629.06 62.21C629.06 55.30 623.45 49.75 616.54 49.75L594.94 49.75L594.94 59.98Z"/></svg>