<svg xmlns="http://www.w3.org/2000/svg" xmlns:xlink="http://www.w3.org/1999/xlink" width="638.928" height="89.28000000000002"><path fill="#111111" d="M49.68 13.68L39.67 57.89Q38.81 61.70 38.81 63.43L38.81 63.43Q38.81 65.52 40.18 66.24Q41.54 66.96 45.50 66.96L45.50 66.96L44.78 69.84L23.47 69.84L24.19 66.96Q26.28 66.96 27.65 66.64Q29.02 66.31 29.92 65.34Q30.82 64.37 31.46 62.57Q32.11 60.77 32.76 57.82L32.76 57.82L34.70 48.96L19.22 48.96L14.69 53.71Q11.74 56.81 10.04 58.72Q8.35 60.62 7.49 61.78Q6.62 62.93 6.41 63.50Q6.19 64.08 6.19 64.51L6.19 64.51Q6.19 65.88 7.38 66.42Q8.57 66.96 11.59 66.96L11.59 66.96L10.87 69.84L-7.78 69.84L-7.06 66.96Q-5.33 66.96-3.64 66.28Q-1.94 65.59 0.11 64.01Q2.16 62.42 4.64 59.80Q7.13 57.17 10.44 53.21L10.44 53.21L43.63 13.68L49.68 13.68ZM22.32 45.36L35.35 45.36L41.26 23.04L40.97 23.04L22.32 45.36ZM75.31 34.70L75.31 34.70Q72.58 34.70 69.66 37.22Q66.74 39.74 64.37 43.52Q61.99 47.30 60.48 51.66Q58.97 56.02 58.97 59.76L58.97 59.76Q58.97 62.35 60.05 63.90Q61.13 65.45 63.00 65.45L63.00 65.45Q64.66 65.45 66.46 64.12Q68.26 62.78 69.95 60.59Q71.64 58.39 73.15 55.58Q74.66 52.78 75.82 49.79Q76.97 46.80 77.62 43.92Q78.26 41.04 78.26 38.74L78.26 38.74Q78.26 36.86 77.47 35.78Q76.68 34.70 75.31 34.70ZM81.22 35.71L82.73 31.68L88.70 31.68L84.60 42.70Q83.59 45.43 82.62 48.53Q81.65 51.62 80.89 54.50Q80.14 57.38 79.70 59.76Q79.27 62.14 79.27 63.29L79.27 63.29Q79.27 65.38 80.64 65.38L80.64 65.38Q81.65 65.38 83.56 63.29Q85.46 61.20 87.84 57.89L87.84 57.89L89.71 59.40Q86.69 64.73 83.20 67.64Q79.70 70.56 76.46 70.56L76.46 70.56Q74.81 70.56 73.91 69.30Q73.01 68.04 73.01 65.16L73.01 65.16Q73.01 64.51 73.04 63.65Q73.08 62.78 73.22 61.34L73.22 61.34L72.94 61.27Q71.86 63.29 70.38 64.98Q68.90 66.67 67.18 67.93Q65.45 69.19 63.58 69.88Q61.70 70.56 59.90 70.56L59.90 70.56Q56.23 70.56 54.18 67.79Q52.13 65.02 52.13 60.12L52.13 60.12Q52.13 55.15 54.22 49.97Q56.30 44.78 59.62 40.57Q62.93 36.36 66.96 33.66Q70.99 30.96 74.88 30.96L74.88 30.96Q77.26 30.96 78.77 32.08Q80.28 33.19 81.22 35.71L81.22 35.71ZM112.61 42.12L109.08 54.94Q108.86 55.58 108.61 56.59Q108.36 57.60 108.14 58.61Q107.93 59.62 107.75 60.62Q107.57 61.63 107.57 62.28L107.57 62.28Q107.57 63.72 108.22 64.58Q108.86 65.45 109.84 65.88Q110.81 66.31 112.00 66.46Q113.18 66.60 114.34 66.60L114.34 66.60Q118.30 66.60 121.43 65.56Q124.56 64.51 126.72 62.64Q128.88 60.77 130.00 58.21Q131.11 55.66 131.11 52.63L131.11 52.63Q131.11 47.16 127.58 44.64Q124.06 42.12 116.71 42.12L116.71 42.12L112.61 42.12ZM90.36 69.84L91.15 66.96Q93.31 66.96 94.82 66.67Q96.34 66.38 97.42 65.48Q98.50 64.58 99.29 62.89Q100.08 61.20 100.87 58.39L100.87 58.39L109.37 26.64Q110.16 23.47 110.16 21.67L110.16 21.67Q110.16 19.22 108.65 18.25Q107.14 17.28 103.54 17.28L103.54 17.28L104.33 14.40L123.62 14.40Q126.72 14.40 129.96 14.94Q133.20 15.48 135.83 16.88Q138.46 18.29 140.15 20.70Q141.84 23.11 141.84 26.86L141.84 26.86Q141.84 30.38 140.40 32.76Q138.96 35.14 136.73 36.68Q134.50 38.23 131.80 39.06Q129.10 39.89 126.58 40.25L126.58 40.25L126.58 40.54Q132.91 41.83 136.22 45.25Q139.54 48.67 139.54 53.93L139.54 53.93Q139.54 57.60 137.81 60.55Q136.08 63.50 133.06 65.56Q130.03 67.61 125.86 68.72Q121.68 69.84 116.71 69.84L116.71 69.84L90.36 69.84ZM117.58 23.40L113.54 38.45L118.87 38.45Q122.26 38.45 125.10 37.58Q127.94 36.72 129.96 35.14Q131.98 33.55 133.09 31.36Q134.21 29.16 134.21 26.50L134.21 26.50Q134.21 21.82 131.58 19.73Q128.95 17.64 122.69 17.64L122.69 17.64Q120.74 17.64 119.56 18.97Q118.37 20.30 117.58 23.40L117.58 23.40ZM168.41 10.15L159.26 37.87L159.48 38.02Q161.57 34.70 164.70 32.87Q167.83 31.03 171.36 31.03L171.36 31.03Q175.75 31.03 178.13 33.77Q180.50 36.50 180.50 41.26L180.50 41.26Q180.50 44.64 179.50 48.17Q178.49 51.70 176.72 54.94Q174.96 58.18 172.58 61.02Q170.21 63.86 167.51 65.99Q164.81 68.11 161.82 69.34Q158.83 70.56 155.95 70.56L155.95 70.56Q151.85 70.56 149.22 68.08Q146.59 65.59 146.59 61.63L146.59 61.63Q146.59 59.76 147.38 56.34Q148.18 52.92 149.69 48.17L149.69 48.17L158.40 20.09Q158.76 18.79 159.12 17.46Q159.48 16.13 159.48 15.48L159.48 15.48Q159.48 12.96 153.94 12.96L153.94 12.96L154.58 10.80L168.41 10.15ZM157.10 66.89L157.10 66.89Q158.76 66.89 160.63 65.70Q162.50 64.51 164.30 62.50Q166.10 60.48 167.76 57.82Q169.42 55.15 170.64 52.24Q171.86 49.32 172.62 46.33Q173.38 43.34 173.38 40.68L173.38 40.68Q173.38 38.16 172.22 36.50Q171.07 34.85 169.42 34.85L169.42 34.85Q167.83 34.85 166.00 36.04Q164.16 37.22 162.40 39.28Q160.63 41.33 159.01 43.96Q157.39 46.58 156.13 49.50Q154.87 52.42 154.15 55.37Q153.43 58.32 153.43 60.98L153.43 60.98Q153.43 66.89 157.10 66.89ZM227.59 54.50L230.18 56.23Q227.66 60.05 225.25 62.78Q222.84 65.52 220.25 67.25Q217.66 68.98 214.78 69.77Q211.90 70.56 208.58 70.56L208.58 70.56Q203.69 70.56 199.80 69.01Q195.91 67.46 193.21 64.55Q190.51 61.63 189.04 57.49Q187.56 53.35 187.56 48.17L187.56 48.17Q187.56 41.33 190.08 35.10Q192.60 28.87 196.81 24.12Q201.02 19.37 206.57 16.52Q212.11 13.68 218.16 13.68L218.16 13.68Q221.62 13.68 224.75 14.72Q227.88 15.77 231.12 18L231.12 18L233.78 14.40L236.45 14.40L233.14 32.47L230.40 32.47Q229.82 24.62 227.05 21.02Q224.28 17.42 218.74 17.42L218.74 17.42Q213.98 17.42 209.88 19.80Q205.78 22.18 202.75 26.35Q199.73 30.53 198 36.14Q196.27 41.76 196.27 48.24L196.27 48.24Q196.27 66.10 210.17 66.10L210.17 66.10Q215.35 66.10 219.56 63.29Q223.78 60.48 227.59 54.50L227.59 54.50ZM259.06 56.81L261.58 58.25Q258.55 64.22 254.56 67.39Q250.56 70.56 246.02 70.56L246.02 70.56Q241.34 70.56 238.54 67.36Q235.73 64.15 235.73 58.82L235.73 58.82Q235.73 55.66 236.66 52.34Q237.60 49.03 239.18 45.94Q240.77 42.84 242.93 40.10Q245.09 37.37 247.54 35.35Q249.98 33.34 252.61 32.15Q255.24 30.96 257.76 30.96L257.76 30.96Q261.22 30.96 263.45 32.83Q265.68 34.70 265.68 37.51L265.68 37.51Q265.68 39.31 264.64 40.43Q263.59 41.54 261.94 41.54L261.94 41.54Q260.28 41.54 259.24 40.50Q258.19 39.46 258.19 37.94L258.19 37.94Q258.19 37.01 258.48 36.43Q258.77 35.86 258.77 35.35L258.77 35.35Q258.77 34.34 257.04 34.34L257.04 34.34Q254.66 34.34 252.22 36.58Q249.77 38.81 247.79 42.34Q245.81 45.86 244.55 50.22Q243.29 54.58 243.29 58.90L243.29 58.90Q243.29 62.35 244.62 64.33Q245.95 66.31 248.33 66.31L248.33 66.31Q249.62 66.31 251.03 65.59Q252.43 64.87 253.87 63.61Q255.31 62.35 256.64 60.62Q257.98 58.90 259.06 56.81L259.06 56.81ZM277.42 17.28L278.35 14.40L297.86 14.40Q302.83 14.40 307.51 15.59Q312.19 16.78 316.01 19.94L316.01 19.94Q320.11 23.33 321.98 27.97Q323.86 32.62 323.86 37.66L323.86 37.66Q323.86 40.90 323.10 44.17Q322.34 47.45 321.01 50.51Q319.68 53.57 317.84 56.27Q316.01 58.97 313.85 61.13L313.85 61.13Q308.81 66.10 302.69 67.97Q296.57 69.84 289.58 69.84L289.58 69.84L264.38 69.84L265.18 66.96Q267.48 66.96 269.03 66.67Q270.58 66.38 271.62 65.48Q272.66 64.58 273.42 62.93Q274.18 61.27 274.90 58.46L274.90 58.46L283.18 26.64Q283.32 26.14 283.57 25.34Q283.82 24.55 284.11 23.62Q284.40 22.68 284.58 21.82Q284.76 20.95 284.76 20.30L284.76 20.30Q284.76 19.22 284.15 18.65Q283.54 18.07 282.64 17.75Q281.74 17.42 280.69 17.35Q279.65 17.28 278.78 17.28L278.78 17.28L277.42 17.28ZM292.03 21.67L283.54 53.21Q282.96 55.37 282.60 56.77Q282.24 58.18 282.06 59.08Q281.88 59.98 281.81 60.48Q281.74 60.98 281.74 61.34L281.74 61.34Q281.74 63.29 282.56 64.33Q283.39 65.38 284.54 65.92Q285.70 66.46 286.92 66.56Q288.14 66.67 288.94 66.67L288.94 66.67Q293.62 66.67 297.43 65.38Q301.25 64.08 304.20 61.81Q307.15 59.54 309.28 56.59Q311.40 53.64 312.80 50.33Q314.21 47.02 314.86 43.60Q315.50 40.18 315.50 36.94L315.50 36.94Q315.50 27.86 310.64 22.93Q305.78 18 297.29 18L297.29 18Q295.20 18 293.94 18.61Q292.68 19.22 292.03 21.67L292.03 21.67ZM355.82 34.85L360 20.02Q360.58 18.07 360.86 16.78Q361.15 15.48 361.15 14.90L361.15 14.90Q361.15 13.82 359.71 13.39Q358.27 12.96 354.53 12.96L354.53 12.96L355.32 10.08L369.22 10.08L361.22 39.24Q359.71 44.86 358.70 48.82Q357.70 52.78 357.08 55.48Q356.47 58.18 356.26 59.90Q356.04 61.63 356.04 62.78L356.04 62.78Q356.04 64.44 356.54 65.09Q357.05 65.74 357.84 65.74L357.84 65.74Q359.42 65.74 361.26 63.07Q363.10 60.41 364.54 56.09L364.54 56.09L367.27 56.74Q364.82 63.86 361.91 67.21Q358.99 70.56 355.32 70.56L355.32 70.56Q352.73 70.56 351.32 68.90Q349.92 67.25 349.92 64.15L349.92 64.15Q349.92 63.36 350.06 62.50Q350.21 61.63 350.42 60.84L350.42 60.84L349.85 60.70Q347.11 65.45 343.22 68.00Q339.34 70.56 335.81 70.56L335.81 70.56Q333.94 70.56 332.35 69.73Q330.77 68.90 329.62 67.43Q328.46 65.95 327.78 63.90Q327.10 61.85 327.10 59.33L327.10 59.33Q327.10 56.23 328.07 52.88Q329.04 49.54 330.73 46.40Q332.42 43.27 334.66 40.46Q336.89 37.66 339.37 35.53Q341.86 33.41 344.48 32.18Q347.11 30.96 349.63 30.96L349.63 30.96Q352.08 30.96 353.34 31.90Q354.60 32.83 355.82 34.85L355.82 34.85ZM350.14 34.78L350.14 34.78Q348.26 34.78 346.36 35.96Q344.45 37.15 342.65 39.13Q340.85 41.11 339.30 43.70Q337.75 46.30 336.60 49.10Q335.45 51.91 334.76 54.79Q334.08 57.67 334.08 60.19L334.08 60.19Q334.08 62.78 335.38 64.33Q336.67 65.88 338.83 65.88L338.83 65.88Q340.49 65.88 342.22 64.55Q343.94 63.22 345.60 61.06Q347.26 58.90 348.73 56.12Q350.21 53.35 351.32 50.44Q352.44 47.52 353.09 44.68Q353.74 41.83 353.74 39.53L353.74 39.53Q353.74 37.30 352.87 36.04Q352.01 34.78 350.14 34.78ZM367.49 69.84L368.28 66.96Q370.66 66.96 372.20 66.60Q373.75 66.24 374.80 65.27Q375.84 64.30 376.56 62.68Q377.28 61.06 377.93 58.46L377.93 58.46L386.28 26.71Q386.78 24.84 387.04 23.47Q387.29 22.10 387.29 21.10L387.29 21.10Q387.29 18.72 385.63 18Q383.98 17.28 380.09 17.28L380.09 17.28L380.88 14.40L420.19 14.40L420.19 28.94L417.46 28.94Q416.52 25.49 415.37 23.29Q414.22 21.10 412.74 19.84Q411.26 18.58 409.43 18.07Q407.59 17.57 405.36 17.57L405.36 17.57L396.00 17.57L390.38 38.95L394.92 38.95Q396.86 38.95 398.23 38.59Q399.60 38.23 400.72 37.33Q401.83 36.43 402.80 34.85Q403.78 33.26 404.93 30.74L404.93 30.74L407.59 30.74L403.27 52.06L400.39 52.06Q400.61 49.90 400.61 48.31L400.61 48.31Q400.61 45.07 399.38 43.60Q398.16 42.12 394.85 42.12L394.85 42.12L389.45 42.12L385.34 57.60Q384.70 59.98 384.70 61.63L384.70 61.63Q384.70 64.22 387.00 65.48Q389.30 66.74 394.92 66.74L394.92 66.74Q399.02 66.74 402.08 66.10Q405.14 65.45 407.41 64.04Q409.68 62.64 411.37 60.34Q413.06 58.03 414.58 54.65L414.58 54.65L417.96 54.65L412.34 69.84L367.49 69.84ZM447.05 58.75L449.35 60.26Q443.09 70.56 433.94 70.56L433.94 70.56Q428.98 70.56 426.31 67.50Q423.65 64.44 423.65 58.82L423.65 58.82Q423.65 53.86 425.70 48.89Q427.75 43.92 431.06 39.92Q434.38 35.93 438.48 33.44Q442.58 30.96 446.69 30.96L446.69 30.96Q450.14 30.96 452.34 32.72Q454.54 34.49 454.54 37.22L454.54 37.22Q454.54 39.74 452.66 42.41Q450.79 45.07 447.59 47.45Q444.38 49.82 440.10 51.77Q435.82 53.71 430.99 54.79L430.99 54.79Q430.85 55.80 430.78 56.77Q430.70 57.74 430.70 58.75L430.70 58.75Q430.70 66.60 436.25 66.60L436.25 66.60Q438.91 66.60 441.76 64.51Q444.60 62.42 447.05 58.75L447.05 58.75ZM445.25 34.34L445.25 34.34Q443.38 34.34 441.36 35.78Q439.34 37.22 437.51 39.64Q435.67 42.05 434.16 45.14Q432.65 48.24 431.71 51.55L431.71 51.55Q435.17 50.62 438.12 49.10Q441.07 47.59 443.20 45.68Q445.32 43.78 446.54 41.65Q447.77 39.53 447.77 37.37L447.77 37.37Q447.77 34.34 445.25 34.34ZM474.98 42.84L471.60 54.94Q470.88 57.46 470.48 59.40Q470.09 61.34 470.09 62.28L470.09 62.28Q470.09 66.60 478.30 66.60L478.30 66.60L477.50 69.84L453.60 69.84L454.39 66.96Q457.85 66.96 460.01 64.91Q462.17 62.86 463.39 58.39L463.39 58.39L471.89 26.64Q472.82 23.18 472.82 21.24L472.82 21.24Q472.82 20.16 472.46 19.44Q472.10 18.72 471.24 18.25Q470.38 17.78 468.94 17.57Q467.50 17.35 465.34 17.28L465.34 17.28L466.13 14.40L486.14 14.40Q494.78 14.40 499.75 17.68Q504.72 20.95 504.72 26.78L504.72 26.78Q504.72 29.74 503.60 32.18Q502.49 34.63 500.40 36.58Q498.31 38.52 495.40 39.89Q492.48 41.26 488.95 41.98L488.95 41.98L494.28 55.15Q495.79 58.82 496.98 61.13Q498.17 63.43 499.46 64.73Q500.76 66.02 502.38 66.49Q504.00 66.96 506.38 66.96L506.38 66.96L505.58 69.84L491.90 69.84L481.32 42.84L474.98 42.84ZM480.10 23.40L475.92 39.17L479.45 39.17Q483.19 39.17 486.40 38.30Q489.60 37.44 491.87 35.82Q494.14 34.20 495.43 31.82Q496.73 29.45 496.73 26.35L496.73 26.35Q496.73 22.03 494.06 19.84Q491.40 17.64 486.29 17.64L486.29 17.64Q484.85 17.64 483.88 17.89Q482.90 18.14 482.22 18.79Q481.54 19.44 481.03 20.56Q480.53 21.67 480.10 23.40L480.10 23.40ZM511.49 42.62L509.62 41.69Q510.41 39.89 512.03 37.98Q513.65 36.07 515.56 34.52Q517.46 32.98 519.41 31.97Q521.35 30.96 522.79 30.96L522.79 30.96Q524.52 30.96 525.31 32.26Q526.10 33.55 526.10 36.43L526.10 36.43Q526.10 37.58 526.00 38.66Q525.89 39.74 525.60 41.18L525.60 41.18L525.82 41.40Q526.68 39.31 528.26 37.30Q529.85 35.28 531.68 33.73Q533.52 32.18 535.43 31.21Q537.34 30.24 538.99 30.24L538.99 30.24Q541.08 30.24 542.48 31.57Q543.89 32.90 543.89 34.85L543.89 34.85Q543.89 36.72 542.70 37.94Q541.51 39.17 539.64 39.17L539.64 39.17Q538.49 39.17 537.80 38.74Q537.12 38.30 536.62 37.84Q536.11 37.37 535.68 36.94Q535.25 36.50 534.60 36.50L534.60 36.50Q533.23 36.50 531.43 38.34Q529.63 40.18 527.69 43.34Q525.74 46.51 523.84 50.76Q521.93 55.01 520.34 59.90L520.34 59.90L517.10 69.84L510.41 69.84L515.09 54.94Q516.46 50.62 517.36 47.77Q518.26 44.93 518.76 43.02Q519.26 41.11 519.44 40.03Q519.62 38.95 519.62 38.16L519.62 38.16Q519.62 36.58 518.54 36.58L518.54 36.58Q517.82 36.58 516.78 37.15Q515.74 37.73 514.73 38.59Q513.72 39.46 512.82 40.54Q511.92 41.62 511.49 42.62L511.49 42.62ZM568.94 66.67L568.94 66.67Q571.97 66.67 574.52 65.84Q577.08 65.02 578.99 63.40Q580.90 61.78 581.94 59.40Q582.98 57.02 582.98 53.86L582.98 53.86Q582.98 50.98 581.72 49.61Q580.46 48.24 576.86 48.24L576.86 48.24L577.51 45.43L597.24 45.43L596.52 48.24Q595.01 48.24 593.96 48.46Q592.92 48.67 592.13 49.64Q591.34 50.62 590.62 52.56Q589.90 54.50 589.03 57.89L589.03 57.89Q588.46 59.98 587.95 62.10Q587.45 64.22 587.38 66.31L587.38 66.31Q585.72 66.60 583.88 67.28Q582.05 67.97 579.71 68.69Q577.37 69.41 574.34 69.98Q571.32 70.56 567.36 70.56L567.36 70.56Q562.46 70.56 558.58 69.01Q554.69 67.46 551.99 64.55Q549.29 61.63 547.81 57.49Q546.34 53.35 546.34 48.17L546.34 48.17Q546.34 41.33 548.96 35.10Q551.59 28.87 556.02 24.12Q560.45 19.37 566.24 16.52Q572.04 13.68 578.38 13.68L578.38 13.68Q582.26 13.68 585.76 14.72Q589.25 15.77 592.78 18L592.78 18L595.44 14.40L598.10 14.40L595.51 30.24L592.78 30.24Q592.06 23.62 588.78 20.52Q585.50 17.42 578.95 17.42L578.95 17.42Q573.91 17.42 569.56 19.80Q565.20 22.18 561.96 26.35Q558.72 30.53 556.88 36.14Q555.05 41.76 555.05 48.24L555.05 48.24Q555.05 66.67 568.94 66.67ZM630.65 75.10L630.65 75.10Q630.65 78.19 629.32 80.68Q627.98 83.16 625.50 84.92Q623.02 86.69 619.49 87.62Q615.96 88.56 611.57 88.56L611.57 88.56Q607.61 88.56 604.37 87.84Q601.13 87.12 598.79 85.75Q596.45 84.38 595.19 82.55Q593.93 80.71 593.93 78.41L593.93 78.41Q593.93 75.46 595.84 73.51Q597.74 71.57 600.70 71.57L600.70 71.57Q601.56 71.57 602.35 71.78Q603.14 72 604.37 72.58L604.37 72.58Q600.34 74.23 600.34 78.84L600.34 78.84Q600.34 81.86 603.40 83.59Q606.46 85.32 611.78 85.32L611.78 85.32Q614.66 85.32 617.11 84.67Q619.56 84.02 621.32 83.02Q623.09 82.01 624.06 80.75Q625.03 79.49 625.03 78.26L625.03 78.26Q625.03 76.25 622.62 74.63Q620.21 73.01 615.82 72.22L615.82 72.22Q607.97 70.85 604.30 69.05Q600.62 67.25 600.62 64.01L600.62 64.01Q600.62 61.92 602.46 60.48Q604.30 59.04 609.05 57.60L609.05 57.60L609.19 57.31Q603.72 53.42 603.72 47.30L603.72 47.30Q603.72 43.99 605.09 41.00Q606.46 38.02 608.80 35.75Q611.14 33.48 614.27 32.18Q617.40 30.89 620.86 30.89L620.86 30.89Q626.18 30.89 629.78 34.78L629.78 34.78Q633.17 30.96 636.34 30.96L636.34 30.96Q638.64 30.96 640.37 32.36Q642.10 33.77 642.10 35.64L642.10 35.64Q642.10 37.08 641.12 38.05Q640.15 39.02 638.71 39.02L638.71 39.02Q637.63 39.02 637.02 38.56Q636.41 38.09 635.98 37.51Q635.54 36.94 635.00 36.47Q634.46 36 633.53 36L633.53 36Q633.02 36 632.59 36.18Q632.16 36.36 631.01 37.15L631.01 37.15Q631.37 38.16 631.51 39.06Q631.66 39.96 631.66 41.33L631.66 41.33Q631.66 49.25 627.26 53.96Q622.87 58.68 615.17 59.26L615.17 59.26Q611.71 59.54 610.24 60.12Q608.76 60.70 608.76 61.85L608.76 61.85Q608.76 63.36 610.38 64.12Q612 64.87 614.45 65.38Q616.90 65.88 619.70 66.38Q622.51 66.89 624.96 67.86Q627.41 68.83 629.03 70.52Q630.65 72.22 630.65 75.10ZM615.53 56.09L615.53 56.09Q617.26 56.09 618.91 54.72Q620.57 53.35 621.90 51.08Q623.23 48.82 624.02 45.94Q624.82 43.06 624.82 40.03L624.82 40.03Q624.82 37.15 623.52 35.46Q622.22 33.77 620.14 33.77L620.14 33.77Q618.48 33.77 616.75 35.24Q615.02 36.72 613.62 39.02Q612.22 41.33 611.35 44.24Q610.49 47.16 610.49 49.97L610.49 49.97Q610.49 52.70 611.86 54.40Q613.22 56.09 615.53 56.09Z"/></svg>