<svg xmlns="http://www.w3.org/2000/svg" xmlns:xlink="http://www.w3.org/1999/xlink" width="719.568" height="89.28000000000002"><path fill="#111111" d="M37.73 57.38L36.07 53.06L15.70 53.06Q12.31 60.70 12.31 63.65L12.31 63.65Q12.31 65.81 13.93 66.38Q15.55 66.96 18.79 66.96L18.79 66.96L18.79 69.84L-0.94 69.84L-0.94 66.96Q0.79 66.74 2.05 66.38Q3.31 66.02 4.28 65.38Q5.26 64.73 5.98 63.68Q6.70 62.64 7.34 61.13L7.34 61.13L26.28 13.68L31.61 13.68L48.82 55.73Q50.33 59.40 51.37 61.49Q52.42 63.58 53.60 64.69Q54.79 65.81 56.34 66.24Q57.89 66.67 60.34 66.89L60.34 66.89L60.34 69.84L33.12 69.84L33.12 66.89Q36.58 66.74 38.09 66.17Q39.60 65.59 39.60 63.86L39.60 63.86Q39.60 62.86 39.10 61.27Q38.59 59.69 37.73 57.38L37.73 57.38ZM25.92 26.93L17.35 48.74L34.49 48.74L26.21 26.93L25.92 26.93ZM83.02 56.16L83.02 49.32Q76.97 52.06 73.91 54.40Q70.85 56.74 70.85 59.26L70.85 59.26Q70.85 61.34 72 62.57Q73.15 63.79 74.88 63.79L74.88 63.79Q76.61 63.79 78.12 63.18Q79.63 62.57 80.71 61.56Q81.79 60.55 82.40 59.15Q83.02 57.74 83.02 56.16L83.02 56.16ZM72.86 49.90L83.02 45.50L83.02 42.48Q83.02 38.30 81.54 36.40Q80.06 34.49 76.97 34.49L76.97 34.49Q74.88 34.49 73.80 35.60Q72.72 36.72 71.78 39.31L71.78 39.31Q71.14 41.11 69.95 42.12Q68.76 43.13 66.67 43.13L66.67 43.13Q64.66 43.13 63.58 41.90Q62.50 40.68 62.50 38.45L62.50 38.45Q62.50 34.99 66.28 32.98Q70.06 30.96 77.69 30.96L77.69 30.96Q85.75 30.96 89.21 33.88Q92.66 36.79 92.66 43.63L92.66 43.63L92.66 59.40Q92.66 65.52 95.11 65.52L95.11 65.52Q96.48 65.52 97.63 64.58L97.63 64.58L98.71 66.67Q97.70 68.47 95.58 69.52Q93.46 70.56 90.79 70.56L90.79 70.56Q87.48 70.56 85.75 68.54Q84.02 66.53 84.02 62.86L84.02 62.86L83.66 62.86Q81.58 66.60 78.26 68.54Q74.95 70.49 70.70 70.49L70.70 70.49Q66.17 70.49 63.43 67.93Q60.70 65.38 60.70 61.27L60.70 61.27Q60.70 58.10 63.50 55.33Q66.31 52.56 72.86 49.90L72.86 49.90ZM129.67 69.84L101.95 69.84L101.95 66.96Q104.40 66.89 105.88 66.53Q107.35 66.17 108.18 65.30Q109.01 64.44 109.30 62.86Q109.58 61.27 109.58 58.75L109.58 58.75L109.58 25.49Q109.58 22.97 109.37 21.42Q109.15 19.87 108.47 18.97Q107.78 18.07 106.60 17.75Q105.41 17.42 103.46 17.28L103.46 17.28L103.46 14.40L126.58 14.40Q137.45 14.40 143.32 17.89Q149.18 21.38 149.18 27.86L149.18 27.86Q149.18 36.43 136.87 39.96L136.87 39.96L136.87 40.25Q140.83 40.25 144.04 41.36Q147.24 42.48 149.47 44.50Q151.70 46.51 152.93 49.25Q154.15 51.98 154.15 55.22L154.15 55.22Q154.15 58.90 152.39 61.63Q150.62 64.37 147.31 66.24L147.31 66.24Q140.90 69.84 129.67 69.84L129.67 69.84ZM130.18 65.45L130.18 65.45Q141.77 65.45 141.77 55.01L141.77 55.01Q141.77 48.60 137.59 45.65L137.59 45.65Q135.43 44.14 132.01 43.49Q128.59 42.84 123.62 42.84L123.62 42.84L120.17 42.84L120.17 57.24Q120.17 61.70 122.47 63.58Q124.78 65.45 130.18 65.45ZM120.17 38.52L124.42 38.52Q127.66 38.52 130.03 37.91Q132.41 37.30 134.06 36.14L134.06 36.14Q137.52 33.77 137.52 28.73L137.52 28.73Q137.52 23.47 134.93 21.13Q132.34 18.79 126.58 18.79L126.58 18.79L121.46 18.79Q120.17 18.79 120.17 20.02L120.17 20.02L120.17 38.52ZM173.16 49.54L173.16 54.07Q173.16 56.74 173.92 59.00Q174.67 61.27 175.97 62.93Q177.26 64.58 179.06 65.52Q180.86 66.46 183.02 66.46L183.02 66.46Q187.34 66.46 189.58 62.50Q191.81 58.54 191.81 50.83L191.81 50.83Q191.81 43.34 189.61 39.42Q187.42 35.50 183.02 35.50L183.02 35.50Q180.43 35.50 178.24 36.90Q176.04 38.30 174.82 40.82L174.82 40.82Q173.16 44.28 173.16 49.54L173.16 49.54ZM173.02 10.08L173.02 36.65L173.30 36.65Q175.18 33.91 178.13 32.44Q181.08 30.96 184.82 30.96L184.82 30.96Q188.64 30.96 191.92 32.51Q195.19 34.06 197.60 36.72Q200.02 39.38 201.38 42.98Q202.75 46.58 202.75 50.69L202.75 50.69Q202.75 55.01 201.28 58.64Q199.80 62.28 197.24 64.94Q194.69 67.61 191.27 69.12Q187.85 70.63 184.03 70.63L184.03 70.63Q180.07 70.63 176.58 69.08Q173.09 67.54 171 65.02L171 65.02L165.53 69.84L163.08 69.84L163.08 27Q163.08 20.23 162.14 17.71L162.14 17.71Q161.93 17.21 161.64 16.85Q161.35 16.49 160.81 16.24Q160.27 15.98 159.34 15.80Q158.40 15.62 156.89 15.41L156.89 15.41L156.89 12.96L173.02 10.08ZM255.02 18.86L256.39 14.40L259.92 14.40L258.48 32.62L255.60 32.62Q254.09 25.99 249.73 22.18Q245.38 18.36 239.18 18.36L239.18 18.36Q234.94 18.36 231.62 20.05Q228.31 21.74 226.04 24.88Q223.78 28.01 222.59 32.51Q221.40 37.01 221.40 42.62L221.40 42.62Q221.40 53.78 225.97 59.80Q230.54 65.81 239.47 65.81L239.47 65.81Q246.67 65.81 251.39 61.92Q256.10 58.03 258.12 50.33L258.12 50.33L261.29 50.33L261.29 69.84L257.90 69.84L256.90 64.15Q248.98 70.56 237.67 70.56L237.67 70.56Q231.12 70.56 225.79 68.62Q220.46 66.67 216.72 63.11Q212.98 59.54 210.92 54.43Q208.87 49.32 208.87 43.06L208.87 43.06Q208.87 36.50 211.03 31.10Q213.19 25.70 217.12 21.82Q221.04 17.93 226.48 15.80Q231.91 13.68 238.54 13.68L238.54 13.68Q242.93 13.68 246.74 14.90Q250.56 16.13 255.02 18.86L255.02 18.86ZM300.89 61.13L302.76 63.86Q300.02 66.89 295.96 68.54Q291.89 70.20 287.14 70.20L287.14 70.20Q282.74 70.20 279.14 68.80Q275.54 67.39 272.95 64.87Q270.36 62.35 268.96 58.79Q267.55 55.22 267.55 50.90L267.55 50.90Q267.55 46.44 269.06 42.77Q270.58 39.10 273.31 36.47Q276.05 33.84 279.86 32.40Q283.68 30.96 288.29 30.96L288.29 30.96Q291.53 30.96 294.30 31.61Q297.07 32.26 299.05 33.41Q301.03 34.56 302.18 36.11Q303.34 37.66 303.34 39.46L303.34 39.46Q303.34 41.54 302.15 42.77Q300.96 43.99 298.94 43.99L298.94 43.99Q297.29 43.99 296.03 43.13Q294.77 42.26 293.54 40.32L293.54 40.32Q292.46 38.59 291.71 37.58Q290.95 36.58 290.30 36.04Q289.66 35.50 289.01 35.32Q288.36 35.14 287.42 35.14L287.42 35.14Q283.25 35.14 280.94 39.02Q278.64 42.91 278.64 49.90L278.64 49.90Q278.64 57.38 281.41 61.42Q284.18 65.45 289.37 65.45L289.37 65.45Q292.32 65.45 295.27 64.33Q298.22 63.22 300.89 61.13L300.89 61.13ZM337.90 69.84L307.87 69.84L307.87 66.96Q310.25 66.89 311.72 66.56Q313.20 66.24 314.03 65.34Q314.86 64.44 315.14 62.89Q315.43 61.34 315.43 58.75L315.43 58.75L315.43 25.49Q315.43 22.97 315.22 21.42Q315.00 19.87 314.28 18.97Q313.56 18.07 312.30 17.75Q311.04 17.42 309.02 17.28L309.02 17.28L309.02 14.40L336.38 14.40Q343.30 14.40 349.13 16.56Q354.96 18.72 359.21 22.54Q363.46 26.35 365.83 31.61Q368.21 36.86 368.21 43.06L368.21 43.06Q368.21 48.96 365.98 53.89Q363.74 58.82 359.75 62.35Q355.75 65.88 350.17 67.86Q344.59 69.84 337.90 69.84L337.90 69.84ZM336.24 18.79L327.24 18.79Q326.02 18.79 326.02 20.02L326.02 20.02L326.02 57.24Q326.02 61.42 328.61 63.43Q331.20 65.45 336.60 65.45L336.60 65.45Q346.03 65.45 351.11 59.76Q356.18 54.07 356.18 43.20L356.18 43.20Q356.18 37.44 354.82 32.90Q353.45 28.37 350.86 25.24Q348.26 22.10 344.56 20.45Q340.85 18.79 336.24 18.79L336.24 18.79ZM406.15 70.56L406.15 65.23L405.86 65.23Q400.90 70.56 392.98 70.56L392.98 70.56Q388.87 70.56 385.45 69.12Q382.03 67.68 379.55 65.09Q377.06 62.50 375.70 58.93Q374.33 55.37 374.33 51.05L374.33 51.05Q374.33 46.73 375.73 43.06Q377.14 39.38 379.55 36.68Q381.96 33.98 385.31 32.47Q388.66 30.96 392.54 30.96L392.54 30.96Q396.14 30.96 398.92 32.04Q401.69 33.12 403.78 35.71L403.78 35.71L404.06 35.71L404.06 29.59Q404.06 25.34 403.96 22.28Q403.85 19.22 403.63 18.29L403.63 18.29Q403.27 16.78 401.44 16.09Q399.60 15.41 395.78 15.41L395.78 15.41L395.78 12.96L414.00 10.08L414.00 51.26Q414.00 56.66 414.11 59.58Q414.22 62.50 414.50 64.01L414.50 64.01Q414.65 64.94 414.94 65.52Q415.22 66.10 415.80 66.42Q416.38 66.74 417.35 66.85Q418.32 66.96 419.83 66.96L419.83 66.96L419.83 69.77L406.15 70.56ZM403.92 51.98L403.92 49.18Q403.92 46.44 403.34 44.10Q402.77 41.76 401.62 39.96L401.62 39.96Q400.32 37.87 398.30 36.79Q396.29 35.71 393.98 35.71L393.98 35.71Q389.74 35.71 387.50 39.60Q385.27 43.49 385.27 50.90L385.27 50.90Q385.27 58.39 387.50 62.42Q389.74 66.46 393.91 66.46L393.91 66.46Q396.29 66.46 398.45 65.23Q400.61 64.01 401.98 61.92L401.98 61.92Q402.98 60.34 403.45 58.00Q403.92 55.66 403.92 51.98L403.92 51.98ZM442.15 20.88L442.15 39.17Q446.76 39.17 449.57 38.88Q452.38 38.59 453.92 37.69Q455.47 36.79 456.12 35.06Q456.77 33.34 457.13 30.38L457.13 30.38L459.79 30.38L459.79 51.48L457.13 51.48Q456.70 48.60 455.98 46.87Q455.26 45.14 453.67 44.24Q452.09 43.34 449.39 43.09Q446.69 42.84 442.15 42.84L442.15 42.84L442.15 57.67Q442.15 59.98 442.76 61.56Q443.38 63.14 444.82 64.12Q446.26 65.09 448.63 65.48Q451.01 65.88 454.46 65.88L454.46 65.88Q458.57 65.88 461.41 65.30Q464.26 64.73 466.13 63.29Q468.00 61.85 469.15 59.44Q470.30 57.02 471.10 53.35L471.10 53.35L473.98 53.35L472.82 69.84L424.01 69.84L424.01 66.96Q426.38 66.89 427.90 66.53Q429.41 66.17 430.20 65.30Q430.99 64.44 431.28 62.86Q431.57 61.27 431.57 58.75L431.57 58.75L431.57 25.49Q431.57 22.97 431.32 21.42Q431.06 19.87 430.34 18.97Q429.62 18.07 428.29 17.75Q426.96 17.42 424.80 17.28L424.80 17.28L424.80 14.40L470.30 14.40L470.81 28.51L467.71 28.51Q467.28 25.49 466.34 23.51Q465.41 21.53 463.75 20.34Q462.10 19.15 459.47 18.68Q456.84 18.22 453.02 18.22L453.02 18.22L444.89 18.22Q443.02 18.22 442.58 18.68Q442.15 19.15 442.15 20.88L442.15 20.88ZM513.36 60.62L515.38 63.14Q508.82 70.56 499.03 70.56L499.03 70.56Q494.57 70.56 490.93 69.16Q487.30 67.75 484.70 65.20Q482.11 62.64 480.67 59.11Q479.23 55.58 479.23 51.26L479.23 51.26Q479.23 46.80 480.74 43.09Q482.26 39.38 485.03 36.68Q487.80 33.98 491.58 32.47Q495.36 30.96 499.90 30.96L499.90 30.96Q507.53 30.96 511.78 35.06Q516.02 39.17 516.02 46.58L516.02 46.58Q516.02 47.74 515.66 47.99Q515.30 48.24 513.65 48.24L513.65 48.24L490.46 48.24Q490.18 48.89 490.18 50.62L490.18 50.62Q490.18 57.67 493.24 61.78Q496.30 65.88 501.55 65.88L501.55 65.88Q504.58 65.88 507.56 64.51Q510.55 63.14 513.36 60.62L513.36 60.62ZM490.97 44.21L501.41 44.21Q504.29 44.21 505.12 43.88Q505.94 43.56 505.94 42.34L505.94 42.34Q505.94 39.17 504.14 37.15Q502.34 35.14 499.61 35.14L499.61 35.14Q496.51 35.14 494.10 37.69Q491.69 40.25 490.97 44.21L490.97 44.21ZM568.08 28.30L568.08 28.30Q568.08 34.27 564.62 38.30Q561.17 42.34 553.61 43.70L553.61 43.70L570.31 62.86Q572.04 64.87 574.42 65.92Q576.79 66.96 579.24 66.96L579.24 66.96L579.24 69.84L562.18 69.84L544.32 47.95Q542.52 45.79 541.19 45.04Q539.86 44.28 538.70 44.28L538.70 44.28L538.70 58.39Q538.70 61.06 539.06 62.75Q539.42 64.44 540.50 65.38Q541.58 66.31 543.64 66.64Q545.69 66.96 549.14 66.96L549.14 66.96L549.14 69.84L520.56 69.84L520.56 66.96Q522.94 66.96 524.41 66.64Q525.89 66.31 526.72 65.41Q527.54 64.51 527.83 62.89Q528.12 61.27 528.12 58.75L528.12 58.75L528.12 25.49Q528.12 22.97 527.90 21.42Q527.69 19.87 526.97 18.97Q526.25 18.07 524.92 17.75Q523.58 17.42 521.35 17.28L521.35 17.28L521.35 14.40L546.26 14.40Q556.70 14.40 562.39 18.07Q568.08 21.74 568.08 28.30ZM538.70 19.66L538.70 39.96L543.38 39.96Q550.15 39.96 553.50 37.33Q556.85 34.70 556.85 28.66L556.85 28.66Q556.85 24.05 554.04 21.24Q551.23 18.43 546.26 18.43L546.26 18.43L540.00 18.43Q538.70 18.43 538.70 19.66L538.70 19.66ZM595.30 55.22L595.30 58.68Q595.30 61.49 595.55 63.11Q595.80 64.73 596.59 65.59Q597.38 66.46 598.90 66.71Q600.41 66.96 602.93 66.96L602.93 66.96L602.93 69.84L578.88 69.84L578.88 66.96Q581.04 66.82 582.34 66.53Q583.63 66.24 584.28 65.38Q584.93 64.51 585.11 62.89Q585.29 61.27 585.29 58.54L585.29 58.54L585.29 49.75Q585.29 45.29 585.07 42.62Q584.86 39.96 584.14 38.52Q583.42 37.08 582.08 36.61Q580.75 36.14 578.59 36.14L578.59 36.14L578.59 33.62L592.99 30.96L594.14 39.24L594.43 39.24Q596.38 35.42 599.54 33.19Q602.71 30.96 606.24 30.96L606.24 30.96Q608.98 30.96 610.70 32.33Q612.43 33.70 612.43 35.78L612.43 35.78Q612.43 38.09 611.10 39.67Q609.77 41.26 607.46 41.26L607.46 41.26Q606.38 41.26 605.52 40.82Q604.66 40.39 603.97 39.85Q603.29 39.31 602.60 38.84Q601.92 38.38 601.20 38.38L601.20 38.38Q599.83 38.38 598.61 40.18Q597.38 41.98 596.59 45L596.59 45Q596.02 47.16 595.66 49.86Q595.30 52.56 595.30 55.22L595.30 55.22ZM644.11 70.56L644.11 70.56Q637.63 70.56 632.41 68.65Q627.19 66.74 623.56 63.18Q619.92 59.62 617.94 54.54Q615.96 49.46 615.96 43.13L615.96 43.13Q615.96 36.58 618.08 31.14Q620.21 25.70 624.02 21.82Q627.84 17.93 633.17 15.80Q638.50 13.68 644.98 13.68L644.98 13.68Q649.44 13.68 653.47 14.90Q657.50 16.13 662.18 18.86L662.18 18.86L663.55 14.40L666.14 14.40L666.14 32.62L662.54 32.62Q661.10 25.85 656.75 22.10Q652.39 18.36 645.84 18.36L645.84 18.36Q637.56 18.36 632.99 24.73Q628.42 31.10 628.42 42.55L628.42 42.55Q628.42 53.78 632.88 59.76Q637.34 65.74 645.84 65.74L645.84 65.74Q651.96 65.74 655.38 62.60Q658.80 59.47 658.80 53.93L658.80 53.93Q658.80 50.62 657.07 49.07Q655.34 47.52 651.24 47.16L651.24 47.16L651.24 44.28L674.57 44.28L674.57 47.16Q671.04 47.16 669.67 48.71Q668.30 50.26 668.30 54.29L668.30 54.29L668.30 63.86Q666.72 63.86 665.64 63.97Q664.56 64.08 663.52 64.40Q662.47 64.73 661.18 65.45Q659.88 66.17 657.94 67.32L657.94 67.32Q652.39 70.56 644.11 70.56ZM692.06 62.06L692.06 62.06Q694.01 62.21 695.48 62.35Q696.96 62.50 698.29 62.68Q699.62 62.86 700.96 63.04Q702.29 63.22 703.80 63.43L703.80 63.43Q709.42 64.22 712.62 67.64Q715.82 71.06 715.82 76.10L715.82 76.10Q715.82 82.22 710.78 85.39Q705.74 88.56 695.95 88.56L695.95 88.56Q686.95 88.56 682.09 85.93Q677.23 83.30 677.23 78.48L677.23 78.48Q677.23 74.74 679.18 72.83Q681.12 70.92 684.07 70.92L684.07 70.92Q685.94 70.92 687.71 71.68Q689.47 72.43 690.70 73.87L690.70 73.87Q688.82 74.23 687.64 75.56Q686.45 76.90 686.45 78.70L686.45 78.70Q686.45 81.58 689.00 83.12Q691.56 84.67 696.53 84.67L696.53 84.67Q707.33 84.67 707.33 77.83L707.33 77.83Q707.33 75.38 705.71 73.62Q704.09 71.86 701.06 71.50L701.06 71.50L688.46 69.77Q680.47 68.69 680.47 62.64L680.47 62.64Q680.47 59.69 682.38 57.82Q684.29 55.94 687.82 55.22L687.82 55.22L687.82 54.94Q686.16 54.29 684.83 53.14Q683.50 51.98 682.49 50.47Q681.48 48.96 680.94 47.20Q680.40 45.43 680.40 43.56L680.40 43.56Q680.40 40.90 681.52 38.56Q682.63 36.22 684.61 34.56Q686.59 32.90 689.29 31.93Q691.99 30.96 695.16 30.96L695.16 30.96Q698.26 30.96 701.21 31.90Q704.16 32.83 706.25 34.49L706.25 34.49Q707.90 33.48 709.13 32.80Q710.35 32.11 711.40 31.72Q712.44 31.32 713.30 31.14Q714.17 30.96 715.03 30.96L715.03 30.96Q717.77 30.96 719.46 32.18Q721.15 33.41 721.15 35.42L721.15 35.42Q721.15 36.94 720.22 37.91Q719.28 38.88 717.77 38.88L717.77 38.88Q716.69 38.88 716.04 38.41Q715.39 37.94 714.78 37.33Q714.17 36.72 713.52 36.25Q712.87 35.78 711.79 35.78L711.79 35.78Q710.28 35.78 708.91 37.73L708.91 37.73Q709.63 38.95 709.92 40.36Q710.21 41.76 710.21 43.63L710.21 43.63Q710.21 46.37 709.34 48.67Q708.48 50.98 706.64 52.74Q704.81 54.50 701.93 55.73Q699.05 56.95 694.94 57.38L694.94 57.38Q691.49 57.74 690.16 58.32Q688.82 58.90 688.82 60.05L688.82 60.05Q688.82 61.78 692.06 62.06ZM695.52 53.28L695.52 53.28Q697.82 53.28 699.12 50.83Q700.42 48.38 700.42 43.99L700.42 43.99Q700.42 39.53 699.12 37.12Q697.82 34.70 695.45 34.70L695.45 34.70Q693 34.70 691.56 37.15Q690.12 39.60 690.12 43.85L690.12 43.85Q690.12 48.17 691.60 50.72Q693.07 53.28 695.52 53.28Z"/></svg>