<svg xmlns="http://www.w3.org/2000/svg" xmlns:xlink="http://www.w3.org/1999/xlink" width="696.1680000000002" height="89.28000000000002"><path fill="#111111" d="M38.09 57.53L35.14 49.75L15.91 49.75Q14.69 52.70 13.82 54.97Q12.96 57.24 12.42 58.90Q11.88 60.55 11.66 61.70Q11.45 62.86 11.45 63.58L11.45 63.58Q11.45 65.59 12.74 66.35Q14.04 67.10 17.06 67.10L17.06 67.10L17.06 69.84L-0.43 69.84L-0.43 67.10Q1.22 66.89 2.41 66.53Q3.60 66.17 4.50 65.52Q5.40 64.87 6.08 63.83Q6.77 62.78 7.42 61.27L7.42 61.27L26.14 14.40L29.23 14.40L45.58 55.01Q47.23 59.04 48.46 61.45Q49.68 63.86 50.83 65.09Q51.98 66.31 53.32 66.67Q54.65 67.03 56.52 67.03L56.52 67.03L56.52 69.84L33.05 69.84L33.05 67.03Q36.86 67.03 38.30 66.31Q39.74 65.59 39.74 63.94L39.74 63.94Q39.74 63.22 39.67 62.60Q39.60 61.99 39.42 61.27Q39.24 60.55 38.92 59.65Q38.59 58.75 38.09 57.53L38.09 57.53ZM25.78 24.91L17.35 46.15L33.77 46.15L25.78 24.91ZM80.71 54.22L80.71 48.53Q76.61 50.11 73.76 51.62Q70.92 53.14 69.19 54.65Q67.46 56.16 66.71 57.67Q65.95 59.18 65.95 60.77L65.95 60.77Q65.95 63.14 67.54 64.66Q69.12 66.17 71.71 66.17L71.71 66.17Q73.58 66.17 75.20 65.23Q76.82 64.30 78.05 62.68Q79.27 61.06 79.99 58.86Q80.71 56.66 80.71 54.22L80.71 54.22ZM70.34 49.97L80.71 45.43L80.71 42.48Q80.71 33.70 73.22 33.70L73.22 33.70Q72 33.70 71.14 33.91Q70.27 34.13 69.70 34.63Q69.12 35.14 68.65 36.07Q68.18 37.01 67.75 38.38L67.75 38.38Q66.96 40.46 66.20 41.15Q65.45 41.83 64.01 41.83L64.01 41.83Q60.41 41.83 60.41 38.23L60.41 38.23Q60.41 34.78 64.08 32.87Q67.75 30.96 74.52 30.96L74.52 30.96Q81.72 30.96 84.74 33.52Q87.77 36.07 87.77 42.19L87.77 42.19L87.77 58.32Q87.77 66.53 91.01 66.53L91.01 66.53Q92.02 66.53 92.95 66.28Q93.89 66.02 94.54 64.94L94.54 64.94L95.54 66.67Q94.68 68.33 92.38 69.44Q90.07 70.56 87.55 70.56L87.55 70.56Q84.38 70.56 82.84 68.54Q81.29 66.53 81.29 62.86L81.29 62.86L80.93 62.86Q79.06 66.38 75.74 68.44Q72.43 70.49 68.40 70.49L68.40 70.49Q63.86 70.49 61.27 68.18Q58.68 65.88 58.68 61.99L58.68 61.99Q58.68 60.26 59.29 58.68Q59.90 57.10 61.27 55.66Q62.64 54.22 64.87 52.81Q67.10 51.41 70.34 49.97L70.34 49.97ZM124.13 69.84L98.21 69.84L98.21 67.10Q101.02 67.03 102.71 66.67Q104.40 66.31 105.30 65.45Q106.20 64.58 106.52 63Q106.85 61.42 106.85 58.90L106.85 58.90L106.85 25.34Q106.85 22.82 106.60 21.28Q106.34 19.73 105.59 18.83Q104.83 17.93 103.39 17.60Q101.95 17.28 99.65 17.14L99.65 17.14L99.65 14.40L121.18 14.40Q130.90 14.40 136.30 17.86Q141.70 21.31 141.70 27.58L141.70 27.58Q141.70 32.33 138.71 35.35Q135.72 38.38 129.24 40.32L129.24 40.32L129.24 40.61Q131.47 40.82 133.13 41.11Q134.78 41.40 136.08 41.80Q137.38 42.19 138.49 42.77Q139.61 43.34 140.69 44.06L140.69 44.06Q147.10 48.60 147.10 55.44L147.10 55.44Q147.10 59.26 144.97 62.53Q142.85 65.81 139.03 67.68L139.03 67.68Q137.81 68.33 136.51 68.72Q135.22 69.12 133.49 69.37Q131.76 69.62 129.49 69.73Q127.22 69.84 124.13 69.84L124.13 69.84ZM124.34 66.74L124.34 66.74Q137.38 66.74 137.38 55.58L137.38 55.58Q137.38 47.45 130.68 44.21L130.68 44.21Q129.53 43.70 128.45 43.34Q127.37 42.98 125.93 42.80Q124.49 42.62 122.51 42.55Q120.53 42.48 117.65 42.48L117.65 42.48L114.41 42.48L114.41 58.54Q114.41 62.93 116.71 64.84Q119.02 66.74 124.34 66.74ZM114.41 38.88L118.44 38.88Q120.67 38.88 122.18 38.81Q123.70 38.74 124.78 38.56Q125.86 38.38 126.68 38.05Q127.51 37.73 128.38 37.15L128.38 37.15Q130.68 35.71 131.65 33.70Q132.62 31.68 132.62 28.44L132.62 28.44Q132.62 22.75 129.85 20.27Q127.08 17.78 121.18 17.78L121.18 17.78L115.63 17.78Q114.41 17.78 114.41 19.01L114.41 19.01L114.41 38.88ZM164.30 48.38L164.30 54.79Q164.30 57.53 165.10 59.80Q165.89 62.06 167.29 63.68Q168.70 65.30 170.68 66.24Q172.66 67.18 174.96 67.18L174.96 67.18Q177.48 67.18 179.53 66.02Q181.58 64.87 183.06 62.75Q184.54 60.62 185.36 57.64Q186.19 54.65 186.19 50.98L186.19 50.98Q186.19 47.30 185.33 44.24Q184.46 41.18 182.95 38.99Q181.44 36.79 179.32 35.57Q177.19 34.34 174.67 34.34L174.67 34.34Q171.72 34.34 169.42 35.75Q167.11 37.15 165.89 39.67L165.89 39.67Q164.30 42.84 164.30 48.38L164.30 48.38ZM164.16 10.08L164.16 36.79L164.45 36.79Q166.75 33.77 169.52 32.36Q172.30 30.96 175.97 30.96L175.97 30.96Q179.86 30.96 183.20 32.47Q186.55 33.98 189.04 36.65Q191.52 39.31 192.92 42.95Q194.33 46.58 194.33 50.76L194.33 50.76Q194.33 55.01 192.89 58.64Q191.45 62.28 188.96 64.94Q186.48 67.61 183.10 69.12Q179.71 70.63 175.75 70.63L175.75 70.63Q171.65 70.63 168.08 69.12Q164.52 67.61 162.22 65.02L162.22 65.02L158.83 69.84L157.25 69.84L157.25 26.35Q157.25 19.08 156.31 17.06L156.31 17.06Q156.10 16.56 155.81 16.24Q155.52 15.91 154.94 15.66Q154.37 15.41 153.36 15.19Q152.35 14.98 150.62 14.76L150.62 14.76L150.62 12.96L164.16 10.08ZM246.10 18.86L247.39 14.40L249.41 14.40L250.06 30.96L247.39 30.96Q245.81 24.62 241.27 21.02Q236.74 17.42 230.33 17.42L230.33 17.42Q225.94 17.42 222.48 19.15Q219.02 20.88 216.65 24.12Q214.27 27.36 213.01 32.04Q211.75 36.72 211.75 42.62L211.75 42.62Q211.75 54.22 216.58 60.44Q221.40 66.67 230.54 66.67L230.54 66.67Q244.44 66.67 248.40 51.91L248.40 51.91L251.35 51.91L251.35 69.84L248.83 69.84L247.18 64.15Q239.62 70.56 228.89 70.56L228.89 70.56Q222.77 70.56 217.84 68.62Q212.90 66.67 209.41 63.11Q205.92 59.54 204.01 54.43Q202.10 49.32 202.10 43.06L202.10 43.06Q202.10 36.50 204.12 31.10Q206.14 25.70 209.77 21.82Q213.41 17.93 218.48 15.80Q223.56 13.68 229.68 13.68L229.68 13.68Q234.00 13.68 237.82 14.90Q241.63 16.13 246.10 18.86L246.10 18.86ZM289.80 61.78L291.96 63.86Q289.37 67.03 285.26 68.80Q281.16 70.56 276.41 70.56L276.41 70.56Q272.59 70.56 269.39 69.16Q266.18 67.75 263.88 65.20Q261.58 62.64 260.32 59.04Q259.06 55.44 259.06 51.05L259.06 51.05Q259.06 46.44 260.50 42.73Q261.94 39.02 264.56 36.40Q267.19 33.77 270.90 32.36Q274.61 30.96 279.07 30.96L279.07 30.96Q281.88 30.96 284.18 31.43Q286.49 31.90 288.18 32.72Q289.87 33.55 290.81 34.74Q291.74 35.93 291.74 37.30L291.74 37.30Q291.74 38.74 290.81 39.53Q289.87 40.32 288.22 40.32L288.22 40.32Q286.92 40.32 286.06 39.78Q285.19 39.24 283.82 37.37L283.82 37.37Q282.38 35.71 281.05 35.03Q279.72 34.34 277.63 34.34L277.63 34.34Q272.52 34.34 269.89 38.30Q267.26 42.26 267.26 49.97L267.26 49.97Q267.26 58.25 270.18 62.53Q273.10 66.82 278.71 66.82L278.71 66.82Q281.74 66.82 284.40 65.63Q287.06 64.44 289.80 61.78L289.80 61.78ZM325.01 69.84L296.86 69.84L296.86 67.10Q299.59 67.03 301.28 66.71Q302.98 66.38 303.91 65.48Q304.85 64.58 305.17 63.04Q305.50 61.49 305.50 58.90L305.50 58.90L305.50 25.34Q305.50 22.82 305.24 21.28Q304.99 19.73 304.24 18.83Q303.48 17.93 302.04 17.60Q300.60 17.28 298.30 17.14L298.30 17.14L298.30 14.40L323.57 14.40Q330.05 14.40 335.56 16.56Q341.06 18.72 345.06 22.54Q349.06 26.35 351.29 31.61Q353.52 36.86 353.52 43.06L353.52 43.06Q353.52 48.96 351.43 53.89Q349.34 58.82 345.56 62.35Q341.78 65.88 336.53 67.86Q331.27 69.84 325.01 69.84L325.01 69.84ZM323.42 17.93L314.28 17.93Q313.06 17.93 313.06 19.15L313.06 19.15L313.06 58.10Q313.06 66.31 323.78 66.31L323.78 66.31Q333.65 66.31 338.90 60.44Q344.16 54.58 344.16 43.20L344.16 43.20Q344.16 37.22 342.72 32.54Q341.28 27.86 338.58 24.62Q335.88 21.38 332.06 19.66Q328.25 17.93 323.42 17.93L323.42 17.93ZM392.62 70.56L392.62 63.79L392.33 63.79Q389.74 67.46 386.82 69.01Q383.90 70.56 379.94 70.56L379.94 70.56Q375.84 70.56 372.42 69.08Q369.00 67.61 366.52 64.98Q364.03 62.35 362.63 58.68Q361.22 55.01 361.22 50.69L361.22 50.69Q361.22 46.44 362.63 42.80Q364.03 39.17 366.52 36.54Q369.00 33.91 372.46 32.44Q375.91 30.96 379.94 30.96L379.94 30.96Q383.40 30.96 386.10 32.11Q388.80 33.26 391.32 35.78L391.32 35.78L391.32 28.44Q391.32 24.34 391.21 21.60Q391.10 18.86 390.89 17.86L390.89 17.86Q390.53 16.27 388.87 15.62Q387.22 14.98 383.47 14.98L383.47 14.98L383.47 12.82L398.23 10.08L398.23 51.62Q398.23 56.59 398.30 59.80Q398.38 63 398.74 64.37L398.74 64.37Q398.95 65.23 399.28 65.81Q399.60 66.38 400.21 66.71Q400.82 67.03 401.87 67.18Q402.91 67.32 404.57 67.32L404.57 67.32L404.57 69.77L392.62 70.56ZM391.18 52.63L391.18 47.88Q391.18 44.14 390.78 42.19Q390.38 40.25 389.23 38.81L389.23 38.81Q387.58 36.65 385.02 35.53Q382.46 34.42 379.94 34.42L379.94 34.42Q374.76 34.42 372.06 38.70Q369.36 42.98 369.36 50.33L369.36 50.33Q369.36 54.14 370.04 57.24Q370.73 60.34 372.06 62.53Q373.39 64.73 375.37 65.92Q377.35 67.10 379.94 67.10L379.94 67.10Q381.24 67.10 382.57 66.82Q383.90 66.53 385.16 65.92Q386.42 65.30 387.50 64.48Q388.58 63.65 389.30 62.57L389.30 62.57Q390.31 60.98 390.74 58.75Q391.18 56.52 391.18 52.63L391.18 52.63ZM425.09 18.72L425.09 39.38Q428.98 39.38 431.60 38.92Q434.23 38.45 435.78 37.44Q437.33 36.43 438.01 34.85Q438.70 33.26 438.70 31.10L438.70 31.10L441.22 31.10L441.22 50.76L438.70 50.76Q438.70 48.60 438.08 47.02Q437.47 45.43 435.92 44.39Q434.38 43.34 431.75 42.80Q429.12 42.26 425.09 42.26L425.09 42.26L425.09 58.54Q425.09 60.91 425.66 62.46Q426.24 64.01 427.64 64.98Q429.05 65.95 431.35 66.35Q433.66 66.74 437.04 66.74L437.04 66.74Q440.86 66.74 443.52 66.20Q446.18 65.66 447.98 64.37Q449.78 63.07 450.86 60.95Q451.94 58.82 452.66 55.66L452.66 55.66L455.40 55.66L454.32 69.84L409.61 69.84L409.61 67.10Q412.13 67.03 413.68 66.67Q415.22 66.31 416.09 65.45Q416.95 64.58 417.24 63Q417.53 61.42 417.53 58.90L417.53 58.90L417.53 25.34Q417.53 22.82 417.28 21.28Q417.02 19.73 416.27 18.83Q415.51 17.93 414.07 17.60Q412.63 17.28 410.33 17.14L410.33 17.14L410.33 14.40L451.94 14.40L452.59 27.07L450.07 27.07Q449.64 24.19 448.67 22.36Q447.70 20.52 446.00 19.44Q444.31 18.36 441.72 17.93Q439.13 17.50 435.46 17.50L435.46 17.50L426.31 17.50Q425.09 17.50 425.09 18.72L425.09 18.72ZM493.99 61.13L496.22 63.14Q490.10 70.56 481.03 70.56L481.03 70.56Q476.78 70.56 473.33 69.16Q469.87 67.75 467.39 65.20Q464.90 62.64 463.54 59.08Q462.17 55.51 462.17 51.19L462.17 51.19Q462.17 46.80 463.61 43.06Q465.05 39.31 467.68 36.65Q470.30 33.98 473.94 32.47Q477.58 30.96 481.90 30.96L481.90 30.96Q488.88 30.96 492.70 34.74Q496.51 38.52 496.51 45.58L496.51 45.58Q496.51 46.58 496.12 46.80Q495.72 47.02 494.28 47.02L494.28 47.02L470.59 47.02Q470.45 47.59 470.38 48.42Q470.30 49.25 470.30 50.26L470.30 50.26Q470.30 54 471.20 57.06Q472.10 60.12 473.80 62.28Q475.49 64.44 477.83 65.63Q480.17 66.82 483.05 66.82L483.05 66.82Q486.07 66.82 488.66 65.48Q491.26 64.15 493.99 61.13L493.99 61.13ZM471.10 43.70L484.34 43.70Q485.78 43.70 486.65 43.63Q487.51 43.56 487.94 43.34Q488.38 43.13 488.52 42.73Q488.66 42.34 488.66 41.69L488.66 41.69Q488.66 38.38 486.54 36.40Q484.42 34.42 480.74 34.42L480.74 34.42Q472.97 34.42 471.10 43.70L471.10 43.70ZM546.70 28.30L546.70 28.30Q546.70 34.06 543.24 37.87Q539.78 41.69 532.22 42.98L532.22 42.98L548.14 62.14Q550.08 64.51 552.42 65.56Q554.76 66.60 558.00 67.10L558.00 67.10L558.00 69.84L544.10 69.84L526.46 47.23Q525.53 46.01 524.70 45.29Q523.87 44.57 522.97 44.17Q522.07 43.78 520.88 43.67Q519.70 43.56 518.04 43.56L518.04 43.56L518.04 58.54Q518.04 61.20 518.36 62.89Q518.69 64.58 519.73 65.52Q520.78 66.46 522.76 66.78Q524.74 67.10 527.98 67.10L527.98 67.10L527.98 69.84L502.56 69.84L502.56 67.10Q505.08 67.03 506.63 66.67Q508.18 66.31 509.04 65.45Q509.90 64.58 510.19 63Q510.48 61.42 510.48 58.90L510.48 58.90L510.48 25.34Q510.48 22.82 510.23 21.28Q509.98 19.73 509.22 18.83Q508.46 17.93 507.02 17.60Q505.58 17.28 503.28 17.14L503.28 17.14L503.28 14.40L525.89 14.40Q535.82 14.40 541.26 18.07Q546.70 21.74 546.70 28.30ZM518.04 19.01L518.04 39.96L523.15 39.96Q530.35 39.96 533.84 37.33Q537.34 34.70 537.34 28.66L537.34 28.66Q537.34 22.82 534.56 20.30Q531.79 17.78 525.89 17.78L525.89 17.78L519.26 17.78Q518.04 17.78 518.04 19.01L518.04 19.01ZM572.04 55.94L572.04 58.39Q572.04 61.34 572.18 63.07Q572.33 64.80 572.94 65.70Q573.55 66.60 574.70 66.89Q575.86 67.18 577.94 67.32L577.94 67.32L577.94 69.84L558.79 69.84L558.79 67.32Q560.88 67.25 562.10 66.92Q563.33 66.60 563.98 65.74Q564.62 64.87 564.80 63.25Q564.98 61.63 564.98 58.90L564.98 58.90L564.98 50.47Q564.98 45.58 564.88 42.84Q564.77 40.10 564.16 38.81Q563.54 37.51 562.25 37.26Q560.95 37.01 558.65 37.01L558.65 37.01L558.65 34.49L571.25 31.75L572.26 40.68L572.54 40.68Q573.48 38.52 574.88 36.72Q576.29 34.92 577.94 33.66Q579.60 32.40 581.40 31.68Q583.20 30.96 585.07 30.96L585.07 30.96Q587.38 30.96 588.71 32.08Q590.04 33.19 590.04 35.06L590.04 35.06Q590.04 36.79 588.96 37.76Q587.88 38.74 585.86 38.74L585.86 38.74Q584.71 38.74 583.92 38.45Q583.13 38.16 582.52 37.84Q581.90 37.51 581.36 37.22Q580.82 36.94 580.18 36.94L580.18 36.94Q578.23 36.94 576.29 39.42Q574.34 41.90 573.26 45.72L573.26 45.72Q572.69 47.81 572.36 50.44Q572.04 53.06 572.04 55.94L572.04 55.94ZM621.22 70.56L621.22 70.56Q615.10 70.56 610.20 68.62Q605.30 66.67 601.85 63.11Q598.39 59.54 596.56 54.43Q594.72 49.32 594.72 43.06L594.72 43.06Q594.72 36.50 596.74 31.10Q598.75 25.70 602.39 21.82Q606.02 17.93 611.10 15.80Q616.18 13.68 622.30 13.68L622.30 13.68Q626.62 13.68 630.43 14.90Q634.25 16.13 638.71 18.86L638.71 18.86L640.22 14.40L642.74 14.40L641.81 30.96L638.35 30.96Q638.35 27.43 637.02 24.88Q635.69 22.32 633.53 20.66Q631.37 19.01 628.60 18.22Q625.82 17.42 622.94 17.42L622.94 17.42Q618.55 17.42 615.10 19.15Q611.64 20.88 609.26 24.12Q606.89 27.36 605.63 32.04Q604.37 36.72 604.37 42.62L604.37 42.62Q604.37 54.22 609.19 60.44Q614.02 66.67 623.16 66.67L623.16 66.67Q626.62 66.67 629.35 65.84Q632.09 65.02 634.00 63.61Q635.90 62.21 636.88 60.37Q637.85 58.54 637.85 56.52L637.85 56.52Q637.85 52.34 636.16 50.87Q634.46 49.39 630.65 49.39L630.65 49.39L630.65 46.66L651.10 46.66L651.10 49.39Q649.37 49.39 648.22 49.68Q647.06 49.97 646.38 50.72Q645.70 51.48 645.44 52.70Q645.19 53.93 645.19 55.80L645.19 55.80L645.19 63.86Q643.82 63.86 642.71 63.97Q641.59 64.08 640.37 64.48Q639.14 64.87 637.67 65.56Q636.19 66.24 634.18 67.39L634.18 67.39Q631.66 68.83 628.38 69.70Q625.10 70.56 621.22 70.56ZM672.77 54.36L672.77 54.36Q675.79 54.36 677.48 51.62Q679.18 48.89 679.18 43.92L679.18 43.92Q679.18 39.02 677.48 36.32Q675.79 33.62 672.70 33.62L672.70 33.62Q669.60 33.62 667.76 36.36Q665.93 39.10 665.93 43.85L665.93 43.85Q665.93 48.60 667.80 51.48Q669.67 54.36 672.77 54.36ZM668.81 62.78L668.81 62.78Q670.54 62.93 671.98 63.07Q673.42 63.22 674.82 63.36Q676.22 63.50 677.63 63.72Q679.03 63.94 680.69 64.15L680.69 64.15Q685.87 64.94 689.00 68.15Q692.14 71.35 692.14 76.18L692.14 76.18Q692.14 82.22 687.35 85.39Q682.56 88.56 673.49 88.56L673.49 88.56Q669.46 88.56 666.11 87.84Q662.76 87.12 660.38 85.79Q658.01 84.46 656.68 82.58Q655.34 80.71 655.34 78.48L655.34 78.48Q655.34 76.97 655.85 75.67Q656.35 74.38 657.22 73.40Q658.08 72.43 659.27 71.86Q660.46 71.28 661.75 71.28L661.75 71.28Q664.20 71.28 666.14 72.79L666.14 72.79Q664.20 73.22 662.98 74.92Q661.75 76.61 661.75 78.77L661.75 78.77Q661.75 81.94 664.88 83.66Q668.02 85.39 673.78 85.39L673.78 85.39Q686.09 85.39 686.09 77.83L686.09 77.83Q686.09 74.95 684.14 73.04Q682.20 71.14 679.54 70.78L679.54 70.78Q677.81 70.56 675.97 70.31Q674.14 70.06 672.37 69.84Q670.61 69.62 669.10 69.48Q667.58 69.34 666.65 69.19L666.65 69.19Q662.62 68.76 660.53 67.03Q658.44 65.30 658.44 62.28L658.44 62.28Q658.44 59.76 660.53 57.82Q662.62 55.87 665.78 55.37L665.78 55.37L665.78 55.08Q664.20 54.43 662.83 53.24Q661.46 52.06 660.49 50.54Q659.52 49.03 658.94 47.27Q658.37 45.50 658.37 43.63L658.37 43.63Q658.37 40.90 659.41 38.59Q660.46 36.29 662.36 34.60Q664.27 32.90 666.86 31.93Q669.46 30.96 672.55 30.96L672.55 30.96Q675.72 30.96 678.53 31.93Q681.34 32.90 683.35 34.78L683.35 34.78Q685.80 32.76 687.67 31.86Q689.54 30.96 691.20 30.96L691.20 30.96Q693.79 30.96 695.34 32.15Q696.89 33.34 696.89 35.35L696.89 35.35Q696.89 36.58 696.06 37.30Q695.23 38.02 694.01 38.02L694.01 38.02Q693.00 38.02 692.35 37.66Q691.70 37.30 691.16 36.90Q690.62 36.50 690.05 36.14Q689.47 35.78 688.61 35.78L688.61 35.78Q686.88 35.78 685.08 37.01L685.08 37.01Q686.81 39.67 686.81 43.70L686.81 43.70Q686.81 49.82 682.99 53.32Q679.18 56.81 671.54 57.38L671.54 57.38Q667.15 57.74 665.42 58.32Q663.70 58.90 663.70 60.41L663.70 60.41Q663.70 61.56 664.99 62.10Q666.29 62.64 668.81 62.78Z"/></svg>