<svg xmlns="http://www.w3.org/2000/svg" xmlns:xlink="http://www.w3.org/1999/xlink" width="538.272" height="72.72000000000001"><path fill="#111111" d="M11.59 35.42L11.59 21.31L5.04 21.31L5.04 58.39L11.59 58.39L11.59 41.98L30.17 41.98L30.17 58.39L36.72 58.39L36.72 21.31L30.17 21.31L30.17 35.42ZM11.59 20.66L20.88 11.38L30.17 20.66L34.78 15.98L20.88 2.09L6.98 15.98ZM68.33 39.96L68.33 46.51L74.88 46.51L74.88 58.39L81.43 58.39L81.43 15.77L63.00 15.77L63.00 22.32L74.88 22.32L74.88 39.96ZM51.19 46.51L51.19 39.96L44.64 39.96L44.64 46.51ZM51.19 39.31L55.80 34.70L51.19 30.02L46.51 34.70ZM55.80 51.84L51.19 47.16L46.51 51.84L51.19 56.45ZM63.00 51.84L56.45 51.84L56.45 58.39L63.00 58.39ZM63.65 34.70L68.33 39.31L72.94 34.70L68.33 30.02ZM56.45 34.70L63.00 34.70L63.00 28.15L56.45 28.15ZM68.33 47.16L63.65 51.84L68.33 56.45L72.94 51.84ZM117.22 51.84L99.50 51.84L99.50 9.22L112.61 9.22L112.61 2.66L92.95 2.66L92.95 58.39L117.22 58.39ZM113.04 20.16L100.15 33.05L104.76 37.66L113.04 29.38L117.65 34.06L122.33 29.38ZM117.65 51.34L124.20 51.34L124.20 34.70L117.65 34.70ZM119.59 9.72L113.04 9.72L113.04 19.51L119.59 19.51ZM159.98 51.91L155.38 56.52L150.70 51.91L155.38 47.23ZM155.38 46.58L155.38 25.13L161.93 25.13L161.93 46.58ZM150.70 19.80L155.38 15.19L159.98 19.80L155.38 24.48ZM140.83 29.09L140.83 51.84L150.05 51.84L150.05 58.39L134.28 58.39L134.28 2.66L140.83 2.66L140.83 19.80L145.44 15.19L150.05 19.80ZM177.12 18.86L170.57 18.86L170.57 42.12L177.12 42.12ZM172.44 47.45L184.03 58.97L188.64 54.36L177.12 42.77ZM172.44 13.61L177.12 18.22L188.64 6.62L184.03 2.02ZM189.29 54.36L193.97 59.04L200.95 52.06L196.27 47.38ZM196.27 13.61L200.95 9.00L193.97 2.02L189.36 6.70ZM215.06 44.35L215.06 29.81L208.51 29.81L208.51 44.35ZM224.42 19.80L219.74 15.19L210.46 24.55L215.06 29.16ZM215.06 45.00L210.38 49.61L219.74 58.97L224.42 54.29ZM229.68 24.48L234.43 19.87L229.68 15.19L225.07 19.87ZM225.22 54.29L229.82 58.97L234.43 54.29L229.82 49.68ZM242.71 58.39L262.37 58.39L262.37 51.84L249.26 51.84L249.26 9.22L262.37 9.22L262.37 2.66L242.71 2.66ZM270 16.78L270 44.28L276.55 44.28L276.55 16.78ZM263.09 51.91L267.70 56.52L274.61 49.54L270 44.93ZM263.09 9.22L270 16.13L274.61 11.52L267.70 4.54ZM291.74 56.52L296.42 51.91L291.74 47.23L287.14 51.91ZM291.74 25.13L285.19 25.13L285.19 46.58L291.74 46.58ZM291.74 15.19L287.14 19.80L291.74 24.48L296.42 19.80ZM306.29 51.84L297.07 51.84L297.07 58.39L312.84 58.39L312.84 2.66L306.29 2.66L306.29 19.80L301.68 15.19L297.07 19.80L306.29 29.09ZM324.36 58.39L347.33 58.39L347.33 51.84L330.91 51.84L330.91 9.22L347.33 9.22L347.33 2.66L324.36 2.66ZM331.56 29.66L336.17 34.34L343.15 27.36L338.54 22.75ZM362.30 15.77L362.30 22.32L378.72 22.32L378.72 15.77ZM378.72 58.39L378.72 51.84L362.30 51.84L362.30 58.39ZM361.80 51.41L361.80 22.82L355.25 22.82L355.25 51.41ZM362.30 39.17L366.91 43.85L383.33 27.43L378.72 22.82ZM391.61 58.39L398.16 58.39L398.16 9.22L411.26 9.22L411.26 2.66L391.61 2.66ZM417.53 58.39L422.14 53.78L408.10 39.74L416.38 31.46L411.70 26.86L398.81 39.74ZM411.70 9.72L411.70 26.21L418.25 26.21L418.25 9.72ZM436.90 24.55L441.58 29.16L450.86 19.87L446.26 15.19ZM429.70 58.39L436.25 58.39L436.25 15.77L429.70 15.77L429.70 58.39ZM489.31 46.80L489.31 27.94L476.14 27.94L476.14 34.49L482.76 34.49L482.76 46.80ZM463.54 42.12L463.54 18.94L456.98 18.94L456.98 42.12ZM475.13 6.70L470.52 2.02L458.93 13.61L463.54 18.22ZM475.13 54.29L463.54 42.77L458.93 47.38L470.59 58.97ZM482.76 47.45L475.78 54.29L480.38 58.97L487.37 52.06ZM480.38 11.30L485.06 6.70L480.38 2.02L475.78 6.70ZM519.41 30.89L519.41 37.44L525.96 37.44L525.96 64.94L507.60 64.94L507.60 71.50L532.51 71.50L532.51 15.77L525.96 15.77L525.96 30.89ZM502.27 30.24L506.95 25.56L502.27 20.95L497.66 25.56ZM514.80 25.56L519.41 30.17L524.09 25.56L519.41 20.95ZM502.34 37.44L502.34 30.89L495.79 30.89L495.79 37.44ZM519.48 38.09L514.80 42.70L519.48 47.30L524.09 42.70ZM514.15 42.70L507.60 42.70L507.60 49.25L514.15 49.25ZM507.60 25.56L514.15 25.56L514.15 19.01L507.60 19.01ZM506.95 42.70L502.34 38.09L497.66 42.70L502.34 47.38Z"/></svg>