<svg xmlns="http://www.w3.org/2000/svg" xmlns:xlink="http://www.w3.org/1999/xlink" width="380.3203125" height="76.11328125"><path fill="#111111" d="M0.14 61.35L10.93 10.93L18.07 10.93L28.86 61.35L21.73 61.35L19.58 50.55L9.42 50.48L7.28 61.35L0.14 61.35ZM14.48 25.35L14.48 25.35L10.86 43.42L18.14 43.42L14.55 25.35Q14.55 25.35 14.48 25.35ZM33.96 28.51Q37.13 25.35 41.59 25.35Q46.05 25.35 49.24 28.51Q52.42 31.68 52.42 36.14L52.42 36.14L52.42 61.35L45.14 61.35L45.18 54.95Q45.18 55.34 44.72 56.67L44.72 56.67Q44.33 57.90 43.65 58.83Q42.96 59.77 41.48 60.56Q40.01 61.35 38.00 61.35Q36 61.35 34.52 60.59Q33.05 59.84 32.36 58.80Q31.68 57.76 31.27 56.71Q30.87 55.65 30.87 54.88L30.87 54.88L30.80 54.14L30.80 50.55Q30.80 46.09 33.96 42.93Q37.13 39.76 41.59 39.76L41.59 39.76Q43.10 39.76 44.16 38.71Q45.21 37.65 45.21 36.14Q45.21 34.63 44.16 33.59Q43.10 32.55 41.59 32.55Q40.08 32.55 39.04 33.59Q38.00 34.63 38.00 36.14L38.00 36.14L30.80 36.14Q30.80 31.68 33.96 28.51ZM41.59 54.14L41.59 54.14Q43.17 54.14 44.09 53.24Q45 52.35 45.14 51.47L45.14 51.47L45.21 50.55L45.21 46.30Q43.49 46.93 41.59 46.93L41.59 46.93Q40.08 46.93 39.04 47.99Q38.00 49.04 38.00 50.55L38.00 50.55Q38.00 50.70 38.04 50.94Q38.07 51.19 38.25 51.80Q38.43 52.42 38.76 52.89Q39.09 53.37 39.83 53.75Q40.57 54.14 41.59 54.14ZM58.22 61.35L58.22 11.00L72.63 11.00Q75.59 11.00 77.68 13.10Q79.77 15.19 79.77 18.21L79.77 18.21L79.77 33.47Q79.77 34.56 78.98 35.35Q78.19 36.14 77.10 36.14L77.10 36.14L77.10 36.21Q78.19 36.21 78.98 37.00Q79.77 37.79 79.77 38.88L79.77 38.88L79.77 54.21Q79.77 57.16 77.68 59.26Q75.59 61.35 72.63 61.35L72.63 61.35L58.22 61.35ZM69.89 18.14L65.36 18.14L65.36 32.63L69.89 32.63Q71.05 32.63 71.84 31.83Q72.63 31.04 72.63 29.88L72.63 29.88L72.63 20.88Q72.63 19.72 71.84 18.93Q71.05 18.14 69.89 18.14L69.89 18.14ZM69.89 39.76L65.36 39.76L65.36 54.21L69.89 54.21Q71.05 54.21 71.84 53.42Q72.63 52.63 72.63 51.47L72.63 51.47L72.63 42.47Q72.63 41.31 71.84 40.54Q71.05 39.76 69.89 39.76L69.89 39.76ZM93.41 32.55L93.41 10.93L86.20 10.93L86.20 61.35L93.41 61.35L93.41 54.14Q93.41 54.42 93.45 54.93Q93.48 55.44 93.87 56.67Q94.25 57.90 94.94 58.83Q95.63 59.77 97.10 60.56Q98.58 61.35 100.60 61.35Q102.62 61.35 104.10 60.59Q105.57 59.84 106.26 58.80Q106.95 57.76 107.33 56.71Q107.72 55.65 107.72 54.88L107.72 54.88L107.79 54.14L107.79 50.55L107.79 36.14L107.79 32.55Q107.79 32.27 107.75 31.76Q107.72 31.25 107.33 30.02Q106.95 28.79 106.26 27.86Q105.57 26.93 104.10 26.14Q102.62 25.35 100.60 25.35Q98.58 25.35 97.10 26.10Q95.63 26.86 94.94 27.90Q94.25 28.93 93.87 29.99Q93.48 31.04 93.48 31.82L93.48 31.82L93.41 32.55ZM93.41 50.91L93.41 50.55L93.41 36.14Q93.41 36 93.45 35.75Q93.48 35.51 93.66 34.89Q93.83 34.28 94.17 33.80Q94.50 33.33 95.26 32.94Q96.01 32.55 97.00 32.55L97.00 32.55Q98.58 32.55 99.47 33.45Q100.37 34.35 100.55 35.30L100.55 35.30L100.62 36.14L100.62 50.55Q100.62 50.70 100.58 50.94Q100.55 51.19 100.35 51.80Q100.16 52.42 99.84 52.89Q99.53 53.37 98.77 53.75Q98.02 54.14 97.01 54.14Q96.01 54.14 95.26 53.79Q94.50 53.44 94.17 52.89Q93.83 52.35 93.66 51.80Q93.48 51.26 93.41 50.91L93.41 50.91ZM117 14.12Q120.16 10.93 124.63 10.93Q129.09 10.93 132.26 14.12Q135.42 17.30 135.42 21.76L135.42 21.76L135.42 25.35L128.25 25.35L128.25 21.76Q128.25 20.25 127.20 19.20Q126.14 18.14 124.63 18.14Q123.12 18.14 122.08 19.20Q121.04 20.25 121.04 21.76L121.04 21.76L121.04 50.55Q121.04 52.07 122.08 53.10Q123.12 54.14 124.63 54.14Q126.14 54.14 127.20 53.10Q128.25 52.07 128.25 50.55L128.25 50.55L128.25 46.93L135.42 46.93L135.42 50.55Q135.42 55.02 132.26 58.18Q129.09 61.35 124.63 61.35Q120.16 61.35 117 58.18Q113.84 55.02 113.84 50.55L113.84 50.55L113.84 21.76Q113.84 17.30 117 14.12ZM148.69 53.10Q149.73 54.14 151.24 54.14Q152.75 54.14 153.81 53.10Q154.86 52.07 154.86 50.55L154.86 50.55L162.04 50.55Q162.04 55.02 158.87 58.18Q155.71 61.35 151.24 61.35Q146.78 61.35 143.61 58.18Q140.45 55.02 140.45 50.55L140.45 50.55L140.45 36.14Q140.45 31.68 143.61 28.51Q146.78 25.35 151.24 25.35Q155.71 25.35 158.87 28.51Q162.04 31.68 162.04 36.14L162.04 36.14L154.86 36.14Q154.86 34.63 153.81 33.59Q152.75 32.55 151.24 32.55Q149.73 32.55 148.69 33.59Q147.66 34.63 147.66 36.14L147.66 36.14L147.66 50.55Q147.66 52.07 148.69 53.10ZM166.78 61.35L166.78 10.93L181.20 10.93Q184.15 10.93 186.24 13.03Q188.33 15.12 188.33 18.14L188.33 18.14L188.33 54.21Q188.33 57.16 186.24 59.26Q184.15 61.35 181.20 61.35L181.20 61.35L166.78 61.35ZM178.45 18.07L173.92 18.07L173.92 54.21L178.45 54.21Q179.61 54.21 180.40 53.42Q181.20 52.63 181.20 51.47L181.20 51.47L181.20 20.81Q181.20 19.65 180.40 18.86Q179.61 18.07 178.45 18.07L178.45 18.07ZM209.18 32.55L209.18 10.93L216.35 10.93L216.35 61.35L209.18 61.35L209.18 54.14Q209.18 54.42 209.14 54.93Q209.11 55.44 208.71 56.67Q208.30 57.90 207.62 58.83Q206.93 59.77 205.45 60.56Q203.98 61.35 201.96 61.35Q199.93 61.35 198.47 60.59Q197.02 59.84 196.33 58.80Q195.64 57.76 195.24 56.71Q194.84 55.65 194.84 54.88L194.84 54.88L194.77 54.14L194.77 50.55L194.77 36.14L194.77 32.55Q194.77 32.27 194.80 31.76Q194.84 31.25 195.24 30.02Q195.64 28.79 196.33 27.86Q197.02 26.93 198.47 26.14Q199.93 25.35 201.96 25.35Q203.98 25.35 205.45 26.10Q206.93 26.86 207.62 27.90Q208.30 28.93 208.71 29.99Q209.11 31.04 209.11 31.82L209.11 31.82L209.18 32.55ZM209.11 51.40L209.18 50.55L209.18 36.14Q209.18 36 209.14 35.75Q209.11 35.51 208.92 34.89Q208.72 34.28 208.41 33.80Q208.09 33.33 207.33 32.94Q206.58 32.55 205.56 32.55L205.56 32.55Q203.98 32.55 203.08 33.45Q202.18 34.35 202.04 35.30L202.04 35.30L201.97 36.14L201.97 50.55Q201.97 50.70 202.01 50.94Q202.04 51.19 202.22 51.80Q202.39 52.42 202.73 52.89Q203.06 53.37 203.82 53.75Q204.57 54.14 205.56 54.14L205.56 54.14Q207.14 54.14 208.04 53.24Q208.93 52.35 209.11 51.40L209.11 51.40ZM244.44 61.35L222.82 61.35L222.82 10.93L244.44 10.93L244.44 18.14L230.03 18.14L230.03 32.55L240.82 32.55L240.82 39.76L230.03 39.76L230.03 54.14L244.44 54.14L244.44 61.35ZM251.26 28.51Q254.43 25.35 258.89 25.35Q263.36 25.35 266.52 28.51Q269.68 31.68 269.68 36.14L269.68 36.14L269.68 39.76L269.68 46.93L262.48 46.93L255.27 46.93L255.27 50.55Q255.27 52.07 256.32 53.10Q257.38 54.14 258.89 54.14Q260.40 54.14 261.44 53.10Q262.48 52.07 262.48 50.55L262.48 50.55L269.68 50.55Q269.68 55.02 266.52 58.18Q263.36 61.35 258.89 61.35Q254.43 61.35 251.26 58.18Q248.10 55.02 248.10 50.55L248.10 50.55L248.10 36.14Q248.10 31.68 251.26 28.51ZM255.27 36.14L255.27 39.76L262.48 39.76L262.48 36.14Q262.48 34.63 261.44 33.59Q260.40 32.55 258.89 32.55Q257.38 32.55 256.32 33.59Q255.27 34.63 255.27 36.14L255.27 36.14ZM275.48 61.35L275.48 11.00L289.90 11.07Q292.85 11.07 294.94 13.17Q297.04 15.26 297.04 18.21L297.04 18.21L297.04 32.63Q297.04 36.74 293.48 38.81L293.48 38.81L293.48 38.81L297.04 61.35L289.90 61.35L286.31 39.76L282.62 39.76L282.62 61.35L275.48 61.35ZM287.16 18.14L282.62 18.14L282.62 32.70L287.16 32.70Q288.32 32.70 289.11 31.87Q289.90 31.04 289.90 29.95L289.90 29.95L289.90 20.95Q289.90 19.79 289.11 18.97Q288.32 18.14 287.16 18.14L287.16 18.14ZM302.77 61.35L302.77 25.35L309.97 25.35L309.97 32.55Q309.97 32.27 310.01 31.76Q310.04 31.25 310.43 30.02Q310.82 28.79 311.50 27.86Q312.19 26.93 313.66 26.14Q315.14 25.35 317.16 25.35Q319.18 25.35 320.66 26.10Q322.14 26.86 322.82 27.90Q323.51 28.93 323.89 29.99Q324.28 31.04 324.28 31.82L324.28 31.82L324.35 32.55L324.35 36.14L317.18 36.14Q317.18 36 317.14 35.75Q317.11 35.51 316.92 34.89Q316.72 34.28 316.41 33.80Q316.09 33.33 315.33 32.94Q314.58 32.55 313.56 32.55L313.56 32.55Q312.47 32.55 311.68 32.98Q310.89 33.40 310.57 34.05Q310.25 34.70 310.11 35.14Q309.97 35.58 309.97 36L309.97 36L309.97 61.35L302.77 61.35ZM331.24 14.12Q334.41 10.93 338.87 10.93Q343.34 10.93 346.50 14.12Q349.66 17.30 349.66 21.76L349.66 21.76L342.49 21.76Q342.49 20.25 341.44 19.20Q340.38 18.14 338.87 18.14Q337.36 18.14 336.32 19.20Q335.29 20.25 335.29 21.76L335.29 21.76L335.29 50.55Q335.29 52.07 336.32 53.10Q337.36 54.14 338.87 54.14Q340.38 54.14 341.44 53.10Q342.49 52.07 342.49 50.55L342.49 50.55L342.49 39.76L338.87 39.76L338.87 32.55L349.66 32.55L349.66 50.55Q349.66 55.02 346.50 58.18Q343.34 61.35 338.87 61.35Q334.41 61.35 331.24 58.18Q328.08 55.02 328.08 50.55L328.08 50.55L328.08 21.76Q328.08 17.30 331.24 14.12ZM359.42 26.14Q360.88 25.35 362.90 25.35Q364.92 25.35 366.40 26.10Q367.88 26.86 368.56 27.90Q369.25 28.93 369.65 29.99Q370.05 31.04 370.05 31.82L370.05 31.82L370.13 32.55L370.13 25.35L377.30 25.35L377.30 65.18L377.30 65.32Q377.23 69.71 374.10 72.84Q370.97 75.97 366.50 75.97L366.50 75.97Q362.04 75.97 358.88 72.81Q355.71 69.64 355.71 65.18L355.71 65.18L362.92 65.18Q362.92 66.69 363.96 67.73Q364.99 68.77 366.50 68.77L366.50 68.77Q367.95 68.77 369.04 67.73Q370.13 66.69 370.13 65.25L370.13 65.25L370.13 65.18L370.13 54.14Q370.13 54.42 370.09 54.93Q370.05 55.44 369.65 56.67Q369.25 57.90 368.56 58.83Q367.88 59.77 366.40 60.56Q364.92 61.35 362.90 61.35Q360.88 61.35 359.42 60.59Q357.96 59.84 357.28 58.80Q356.59 57.76 356.19 56.71Q355.78 55.65 355.78 54.88L355.78 54.88L355.71 54.14L355.71 50.55L355.71 36.14L355.71 32.55Q355.71 32.27 355.75 31.76Q355.78 31.25 356.19 30.02Q356.59 28.79 357.28 27.86Q357.96 26.93 359.42 26.14ZM366.50 32.55L366.50 32.55Q364.92 32.55 364.03 33.45Q363.13 34.35 362.99 35.30L362.99 35.30L362.92 36.14L362.92 50.55Q362.92 50.70 362.95 50.94Q362.99 51.19 363.16 51.80Q363.34 52.42 363.67 52.89Q364.01 53.37 364.76 53.75Q365.52 54.14 366.50 54.14L366.50 54.14Q368.09 54.14 368.98 53.24Q369.88 52.35 370.05 51.40L370.05 51.40L370.13 50.55L370.13 36.14Q370.13 36 370.09 35.75Q370.05 35.51 369.86 34.89Q369.67 34.28 369.35 33.80Q369.04 33.33 368.28 32.94Q367.52 32.55 366.50 32.55Z"/></svg>