<svg xmlns="http://www.w3.org/2000/svg" xmlns:xlink="http://www.w3.org/1999/xlink" width="562.74609375" height="84.375"><path fill="#111111" d="M34.63 66.80L31.96 52.45L9.53 52.45L1.90 66.80L-2.78 66.80L24.89 15.61L29.00 15.61L38.88 66.80L34.63 66.80ZM26.19 21.02L11.46 48.76L31.25 48.76L26.19 21.02ZM73.58 66.80L69.26 66.80Q69.08 65.46 69.15 64.13L69.15 64.13L69.47 61.49Q66.83 64.34 63.44 65.95Q60.05 67.57 56.11 67.50L56.11 67.50Q51.29 67.43 48.29 64.46Q45.28 61.49 45.60 56.99L45.60 56.99Q45.88 53.23 48.18 50.47Q50.48 47.71 54.74 46.18Q58.99 44.65 64.27 44.65L64.27 44.65L72.04 44.68L72.67 40.32Q73.09 36.42 70.98 34.07Q68.87 31.71 64.76 31.57L64.76 31.57Q60.61 31.50 57.53 33.63Q54.46 35.75 53.68 39.23L53.68 39.23L49.57 39.23Q50.27 34.24 54.70 31.10Q59.13 27.95 65.18 28.02L65.18 28.02Q71.05 28.16 74.23 31.57Q77.41 34.98 76.82 40.43L76.82 40.43L73.65 59.55L73.37 62.61Q73.27 64.51 73.65 66.38L73.65 66.38L73.58 66.80ZM56.81 63.81L56.81 63.81Q60.68 63.95 64.21 61.96Q67.75 59.98 70.07 56.32L70.07 56.32L71.51 47.92L64.79 47.88Q58.39 47.88 54.35 50.15Q50.31 52.42 49.89 56.64L49.89 56.64Q49.57 59.73 51.52 61.73Q53.47 63.74 56.81 63.81ZM101.39 66.80L84.30 66.80L93.20 15.61L107.61 15.64Q114.96 15.82 118.69 19.27Q122.41 22.71 121.85 28.76L121.85 28.76Q121.46 32.77 118.93 35.74Q116.40 38.71 112.08 40.25L112.08 40.25Q115.73 41.38 117.77 44.63Q119.81 47.88 119.50 52.10L119.50 52.10Q118.97 58.78 114.10 62.79Q109.23 66.80 101.39 66.80L101.39 66.80ZM106.00 42.22L92.88 42.19L89.23 63.14L101.53 63.18Q107.09 63.18 110.87 60.26Q114.64 57.34 115.24 52.17L115.24 52.17Q115.70 47.71 113.22 45.04Q110.74 42.36 106.00 42.22L106.00 42.22ZM96.86 19.30L93.48 38.57L104.70 38.60Q110.18 38.53 113.61 35.82Q117.04 33.12 117.53 28.58L117.53 28.58Q118.41 19.69 107.51 19.34L107.51 19.34L96.86 19.30ZM159.61 47.21L159.54 47.95Q158.31 57.02 153.76 62.37Q149.20 67.71 142.49 67.54L142.49 67.54Q138.76 67.46 135.93 65.88Q133.10 64.30 131.59 61.59L131.59 61.59L130.39 66.80L126.46 66.80L135.84 12.80L139.99 12.80L136.02 34.28Q140.91 27.84 148.36 28.05L148.36 28.05Q153.81 28.20 156.76 32.10Q159.71 36 159.82 42.89L159.82 42.89Q159.86 45.14 159.61 47.21L159.61 47.21ZM155.43 47.14L155.43 47.14L155.67 43.80Q155.78 38.07 153.67 34.95Q151.56 31.82 147.38 31.68L147.38 31.68Q139.68 31.54 135.32 39.48L135.32 39.48L132.43 56.71Q133.45 60.12 135.93 61.96Q138.41 63.81 141.96 63.91L141.96 63.91Q147.20 64.02 150.73 59.85Q154.27 55.69 155.43 47.14ZM200.18 50.87L204.36 50.84Q202.57 58.75 197.09 63.23Q191.60 67.71 183.69 67.50L183.69 67.50Q176.84 67.36 172.78 62.63Q168.71 57.90 168.40 49.89L168.40 49.89Q168.29 47.14 168.64 44.44L168.64 44.44L169.59 38.25Q170.68 31.18 173.97 25.73Q177.26 20.29 181.97 17.54Q186.68 14.80 192.34 14.91L192.34 14.91Q199.65 15.05 203.77 19.55Q207.88 24.05 207.81 31.68L207.81 31.68L203.55 31.64Q203.55 25.49 200.60 22.10Q197.65 18.70 192.13 18.56L192.13 18.56Q185.17 18.39 180.26 23.75Q175.36 29.11 173.88 38.57L173.88 38.57L172.83 45.60L172.69 48.76Q172.62 52.91 173.90 56.46Q175.18 60.01 177.75 61.88Q180.32 63.74 183.90 63.84L183.90 63.84Q190.02 64.05 194.13 60.77Q198.25 57.48 200.18 50.87L200.18 50.87ZM225.98 63.98L225.98 63.98Q230.13 64.13 233.31 61.68Q236.50 59.24 237.55 55.09L237.55 55.09L241.52 55.09Q240.47 60.75 235.99 64.21Q231.50 67.68 225.77 67.54L225.77 67.54Q221.17 67.43 218.04 65.00Q214.91 62.58 213.52 58.29Q212.13 54 212.63 48.62L212.63 48.62L212.77 47.11Q213.19 43.42 214.58 39.94Q215.96 36.46 218.29 33.77Q220.61 31.08 223.82 29.51Q227.04 27.95 231.08 28.05L231.08 28.05Q236.92 28.20 240.36 31.99Q243.81 35.79 243.60 41.63L243.60 41.63L239.63 41.59Q239.70 37.20 237.34 34.49Q234.98 31.78 230.91 31.64L230.91 31.64Q226.55 31.50 223.21 34.17Q219.87 36.84 218.18 41.73Q216.49 46.62 216.60 52.10L216.60 52.10Q216.70 57.76 219.13 60.80Q221.55 63.84 225.98 63.98ZM262.44 66.80L248.52 66.80L257.41 15.61L270.74 15.64Q276.68 15.64 281.04 18.69Q285.40 21.73 287.35 27.09Q289.30 32.45 288.49 38.88L288.49 38.88L287.86 43.14Q286.24 53.79 279.35 60.29Q272.46 66.80 262.44 66.80L262.44 66.80ZM270.95 19.34L261.07 19.30L253.44 63.14L262.58 63.18Q267.96 63.18 272.39 60.71Q276.82 58.25 279.72 53.77Q282.62 49.29 283.52 43.65Q284.41 38.00 284.47 35.86Q284.52 33.71 284.24 31.71L284.24 31.71Q283.43 26.09 279.95 22.78Q276.47 19.48 270.95 19.34L270.95 19.34ZM295.28 48.41L295.35 47.67Q296.16 41.70 298.62 37.07Q301.08 32.45 304.65 30.20Q308.21 27.95 312.64 28.05L312.64 28.05Q316.02 28.13 318.80 29.62Q321.57 31.11 323.19 34.14L323.19 34.14L327.06 12.80L331.21 12.80L321.82 66.80L317.92 66.80L318.87 61.73Q313.91 67.71 306.56 67.50L306.56 67.50Q301.25 67.36 298.25 63.37Q295.24 59.38 295.10 52.63L295.10 52.63Q295.03 50.45 295.28 48.41L295.28 48.41ZM299.64 47.64L299.57 48.38Q299.29 50.73 299.36 53.40L299.36 53.40Q299.50 58.22 301.59 60.98Q303.68 63.74 307.55 63.88L307.55 63.88Q311.45 63.98 314.40 62.09Q317.36 60.19 319.39 57.02L319.39 57.02L322.45 39.09Q321.43 35.68 319.10 33.73Q316.76 31.78 313.14 31.68L313.14 31.68Q307.79 31.50 304.22 35.77Q300.66 40.04 299.64 47.64L299.64 47.64ZM366.19 38.60L365.55 42.26L342.35 42.26L338.70 63.14L365.41 63.14L364.78 66.80L333.77 66.80L342.67 15.61L373.50 15.61L372.83 19.30L346.32 19.30L342.95 38.60L366.19 38.60ZM387.32 67.50L387.32 67.50Q382.75 67.43 379.41 64.95Q376.07 62.47 374.50 58.20Q372.94 53.93 373.39 48.97L373.39 48.97L373.50 47.78Q373.99 42.50 376.63 37.74Q379.27 32.98 383.31 30.46Q387.35 27.95 391.96 28.05L391.96 28.05Q396.21 28.13 399.15 30.38Q402.08 32.63 403.42 36.63Q404.75 40.64 404.26 45.49L404.26 45.49L403.98 48.06L377.65 48.06L377.54 48.90Q377.02 52.73 378.11 56.23Q379.20 59.73 381.67 61.79Q384.15 63.84 387.63 63.91L387.63 63.91Q391.01 64.02 393.71 62.61Q396.42 61.21 398.71 58.85L398.71 58.85L401.17 60.86Q398.60 64.16 395.07 65.87Q391.54 67.57 387.32 67.50ZM391.75 31.64L391.75 31.64Q387.18 31.46 383.55 34.88Q379.93 38.29 378.11 44.47L378.11 44.47L400.18 44.51L400.29 43.98Q400.92 38.99 398.53 35.38Q396.14 31.78 391.75 31.64ZM440.26 66.80L432 45.49L417.55 45.49L413.82 66.80L409.50 66.80L418.39 15.61L433.55 15.64Q441.21 15.64 445.36 19.63Q449.51 23.63 448.84 30.41L448.84 30.41Q448.31 35.54 444.99 39.27Q441.67 43.00 436.15 44.68L436.15 44.68L444.87 66.30L444.83 66.80L440.26 66.80ZM422.09 19.30L418.18 41.80L430.84 41.84Q436.25 41.84 440.10 38.65Q443.95 35.47 444.55 30.38L444.55 30.38Q445.15 25.45 442.37 22.46Q439.59 19.48 434.18 19.34L434.18 19.34L422.09 19.30ZM477.14 28.48L476.58 32.31Q475.21 32.03 473.80 31.99L473.80 31.99Q469.79 31.99 466.45 34.44Q463.11 36.88 461.99 40.64L461.99 40.64L457.49 66.80L453.34 66.80L459.95 28.76L464.06 28.76L462.80 34.80Q464.87 31.43 467.81 29.67Q470.74 27.91 474.26 27.98L474.26 27.98Q475.49 27.98 477.14 28.48L477.14 28.48ZM518.27 42.50L515.32 60.71Q512.72 64.05 507.85 65.83Q502.98 67.61 497.00 67.50L497.00 67.50Q489.87 67.43 485.44 62.61Q481.01 57.80 480.59 49.78L480.59 49.78Q480.41 46.90 480.80 44.16L480.80 44.16L481.68 38.32Q483.33 27.56 489.46 21.15Q495.60 14.73 504.70 14.91L504.70 14.91Q511.73 15.05 515.95 19.09Q520.17 23.13 520.38 30.06L520.38 30.06L516.16 30.06Q515.92 24.71 512.93 21.73Q509.94 18.74 504.53 18.60L504.53 18.60Q497.36 18.42 492.38 23.77Q487.41 29.11 485.96 38.46L485.96 38.46L485.12 43.95Q484.77 46.23 484.84 48.66L484.84 48.66Q484.95 55.62 488.21 59.68Q491.48 63.74 497.14 63.81L497.14 63.81Q506.18 63.98 511.03 59.38L511.03 59.38L513.35 46.16L500.03 46.16L500.66 42.50L518.27 42.50ZM544.22 28.02L544.22 28.02Q547.63 28.13 550.44 29.64Q553.25 31.15 554.87 34.24L554.87 34.24L556.17 28.76L560.07 28.76L553.68 66.13Q553.01 70.91 550.65 74.57Q548.30 78.22 544.62 80.17Q540.95 82.13 536.45 81.98L536.45 81.98Q532.86 81.91 529.59 80.19L529.59 80.19Q526.29 78.43 524.29 75.30L524.29 75.30L526.89 72.84Q530.51 78.29 536.34 78.43L536.34 78.43Q541.55 78.57 545.04 75.29Q548.54 72 549.46 66.34L549.46 66.34L550.37 61.91Q545.31 67.71 538.17 67.50L538.17 67.50Q532.83 67.36 529.86 63.40Q526.89 59.45 526.75 52.63L526.75 52.63Q526.54 46.34 528.86 40.18Q531.18 34.03 535.17 30.96Q539.16 27.88 544.22 28.02ZM531.14 48.41L531.14 48.41L530.93 51.68Q530.82 57.45 532.93 60.59Q535.04 63.74 539.16 63.88L539.16 63.88Q542.67 64.02 545.73 62.23Q548.79 60.43 551.00 56.92L551.00 56.92L553.99 39.16Q553.04 35.75 550.71 33.77Q548.37 31.78 544.71 31.68L544.71 31.68Q539.33 31.50 535.80 35.82Q532.27 40.15 531.14 48.41Z"/></svg>