<svg xmlns="http://www.w3.org/2000/svg" xmlns:xlink="http://www.w3.org/1999/xlink" width="580.25390625" height="84.375"><path fill="#111111" d="M39.09 66.80L34.21 53.44L12.76 53.44L7.95 66.80L0.98 66.80L20.53 15.61L26.44 15.61L46.02 66.80L39.09 66.80ZM23.48 23.94L14.80 47.88L32.20 47.88L23.48 23.94ZM82.20 66.80L75.38 66.80Q74.81 65.67 74.46 62.79L74.46 62.79Q69.93 67.50 63.63 67.50L63.63 67.50Q58.01 67.50 54.40 64.32Q50.80 61.14 50.80 56.25L50.80 56.25Q50.80 50.31 55.32 47.02Q59.84 43.73 68.03 43.73L68.03 43.73L74.36 43.73L74.36 40.75Q74.36 37.34 72.32 35.31Q70.28 33.29 66.30 33.29L66.30 33.29Q62.82 33.29 60.47 35.05Q58.11 36.81 58.11 39.30L58.11 39.30L51.57 39.30Q51.57 36.46 53.60 33.80Q55.62 31.15 59.08 29.60Q62.54 28.05 66.69 28.05L66.69 28.05Q73.27 28.05 76.99 31.34Q80.72 34.63 80.86 40.39L80.86 40.39L80.86 57.90Q80.86 63.14 82.20 66.23L82.20 66.23L82.20 66.80ZM64.58 61.84L64.58 61.84Q67.64 61.84 70.38 60.26Q73.13 58.68 74.36 56.14L74.36 56.14L74.36 48.34L69.26 48.34Q57.30 48.34 57.30 55.34L57.30 55.34Q57.30 58.39 59.34 60.12Q61.38 61.84 64.58 61.84ZM109.83 66.80L92.07 66.80L92.07 15.61L108.81 15.61Q117.14 15.61 121.34 19.05Q125.54 22.50 125.54 29.25L125.54 29.25Q125.54 32.84 123.50 35.60Q121.46 38.36 117.95 39.87L117.95 39.87Q122.10 41.03 124.51 44.28Q126.91 47.53 126.91 52.03L126.91 52.03Q126.91 58.92 122.45 62.86Q117.98 66.80 109.83 66.80L109.83 66.80ZM110.07 42.86L98.82 42.86L98.82 61.28L109.97 61.28Q114.68 61.28 117.40 58.83Q120.13 56.39 120.13 52.10L120.13 52.10Q120.13 42.86 110.07 42.86L110.07 42.86ZM98.82 21.16L98.82 37.44L109.02 37.44Q113.45 37.44 116.10 35.23Q118.76 33.01 118.76 29.21L118.76 29.21Q118.76 25.00 116.30 23.08Q113.84 21.16 108.81 21.16L108.81 21.16L98.82 21.16ZM168.08 47.64L168.08 48.20Q168.08 56.92 164.07 62.21Q160.07 67.50 153.32 67.50L153.32 67.50Q146.11 67.50 142.17 62.40L142.17 62.40L141.86 66.80L135.88 66.80L135.88 12.80L142.38 12.80L142.38 32.94Q146.32 28.05 153.25 28.05Q160.17 28.05 164.13 33.29Q168.08 38.53 168.08 47.64L168.08 47.64ZM161.58 47.46L161.58 47.46Q161.58 40.82 159.01 37.20Q156.45 33.57 151.63 33.57L151.63 33.57Q145.20 33.57 142.38 39.55L142.38 39.55L142.38 56.00Q145.37 61.98 151.70 61.98L151.70 61.98Q156.38 61.98 158.98 58.36Q161.58 54.74 161.58 47.46ZM208.16 50.55L214.95 50.55Q214.00 58.68 208.95 63.09Q203.91 67.50 195.54 67.50L195.54 67.50Q186.47 67.50 181.00 61.00Q175.54 54.49 175.54 43.59L175.54 43.59L175.54 38.67Q175.54 31.54 178.08 26.12Q180.63 20.71 185.31 17.81Q189.98 14.91 196.14 14.91L196.14 14.91Q204.29 14.91 209.21 19.46Q214.14 24.01 214.95 32.06L214.95 32.06L208.16 32.06Q207.28 25.95 204.35 23.20Q201.41 20.46 196.14 20.46L196.14 20.46Q189.67 20.46 185.99 25.24Q182.32 30.02 182.32 38.85L182.32 38.85L182.32 43.80Q182.32 52.14 185.80 57.06Q189.28 61.98 195.54 61.98L195.54 61.98Q201.16 61.98 204.17 59.43Q207.18 56.88 208.16 50.55L208.16 50.55ZM238.39 62.19L238.39 62.19Q241.88 62.19 244.48 60.08Q247.08 57.97 247.36 54.81L247.36 54.81L253.51 54.81Q253.34 58.08 251.26 61.03Q249.19 63.98 245.72 65.74Q242.26 67.50 238.39 67.50L238.39 67.50Q230.63 67.50 226.04 62.31Q221.45 57.13 221.45 48.13L221.45 48.13L221.45 47.04Q221.45 41.48 223.49 37.16Q225.53 32.84 229.34 30.45Q233.16 28.05 238.36 28.05L238.36 28.05Q244.76 28.05 248.99 31.89Q253.23 35.72 253.51 41.84L253.51 41.84L247.36 41.84Q247.08 38.14 244.56 35.77Q242.05 33.40 238.36 33.40L238.36 33.40Q233.40 33.40 230.68 36.97Q227.95 40.54 227.95 47.29L227.95 47.29L227.95 48.52Q227.95 55.09 230.66 58.64Q233.37 62.19 238.39 62.19ZM276.01 66.80L261.84 66.80L261.84 15.61L276.29 15.61Q282.97 15.61 288.11 18.56Q293.24 21.52 296.03 26.96Q298.83 32.41 298.86 39.48L298.86 39.48L298.86 42.75Q298.86 49.99 296.07 55.44Q293.27 60.89 288.09 63.81Q282.90 66.73 276.01 66.80L276.01 66.80ZM276.47 21.16L268.59 21.16L268.59 61.28L275.70 61.28Q283.50 61.28 287.84 56.43Q292.18 51.57 292.18 42.61L292.18 42.61L292.18 39.62Q292.18 30.90 288.09 26.07Q283.99 21.23 276.47 21.16L276.47 21.16ZM306.46 47.95L306.46 47.46Q306.46 38.71 310.61 33.38Q314.75 28.05 321.47 28.05L321.47 28.05Q328.15 28.05 332.05 32.63L332.05 32.63L332.05 12.80L338.55 12.80L338.55 66.80L332.58 66.80L332.26 62.72Q328.36 67.50 321.40 67.50L321.40 67.50Q314.79 67.50 310.62 62.09Q306.46 56.67 306.46 47.95L306.46 47.95ZM312.96 48.20L312.96 48.20Q312.96 54.67 315.63 58.32Q318.30 61.98 323.02 61.98L323.02 61.98Q329.20 61.98 332.05 56.43L332.05 56.43L332.05 38.95Q329.13 33.57 323.09 33.57L323.09 33.57Q318.30 33.57 315.63 37.27Q312.96 40.96 312.96 48.20ZM378.60 37.62L378.60 43.14L356.41 43.14L356.41 61.28L382.18 61.28L382.18 66.80L349.66 66.80L349.66 15.61L381.83 15.61L381.83 21.16L356.41 21.16L356.41 37.62L378.60 37.62ZM404.68 67.50L404.68 67.50Q396.95 67.50 392.10 62.42Q387.25 57.34 387.25 48.83L387.25 48.83L387.25 47.64Q387.25 41.98 389.41 37.53Q391.57 33.08 395.46 30.57Q399.34 28.05 403.88 28.05L403.88 28.05Q411.29 28.05 415.41 32.94Q419.52 37.83 419.52 46.93L419.52 46.93L419.52 49.64L393.75 49.64Q393.89 55.27 397.04 58.73Q400.18 62.19 405.04 62.19L405.04 62.19Q408.48 62.19 410.87 60.79Q413.26 59.38 415.05 57.06L415.05 57.06L419.03 60.15Q414.25 67.50 404.68 67.50ZM403.88 33.40L403.88 33.40Q399.94 33.40 397.27 36.26Q394.59 39.13 393.96 44.30L393.96 44.30L413.02 44.30L413.02 43.80Q412.73 38.85 410.34 36.12Q407.95 33.40 403.88 33.40ZM457.95 66.80L446.84 46.09L434.81 46.09L434.81 66.80L428.03 66.80L428.03 15.61L444.97 15.61Q453.62 15.61 458.28 19.55Q462.94 23.48 462.94 31.01L462.94 31.01Q462.94 35.79 460.35 39.34Q457.77 42.89 453.16 44.65L453.16 44.65L465.19 66.38L465.19 66.80L457.95 66.80ZM434.81 21.16L434.81 40.57L445.18 40.57Q450.21 40.57 453.18 37.97Q456.15 35.37 456.15 31.01L456.15 31.01Q456.15 26.26 453.32 23.73Q450.49 21.20 445.15 21.16L445.15 21.16L434.81 21.16ZM489.76 28.55L489.76 34.59Q488.29 34.35 486.56 34.35L486.56 34.35Q480.16 34.35 477.88 39.80L477.88 39.80L477.88 66.80L471.38 66.80L471.38 28.76L477.70 28.76L477.81 33.15Q481.01 28.05 486.88 28.05L486.88 28.05Q488.78 28.05 489.76 28.55L489.76 28.55ZM534.55 41.31L534.55 60.08Q531.95 63.81 527.29 65.65Q522.63 67.50 516.45 67.50L516.45 67.50Q510.19 67.50 505.34 64.56Q500.48 61.63 497.83 56.21Q495.18 50.80 495.11 43.66L495.11 43.66L495.11 39.20Q495.11 27.63 500.50 21.27Q505.90 14.91 515.67 14.91L515.67 14.91Q523.69 14.91 528.57 19.00Q533.46 23.10 534.55 30.62L534.55 30.62L527.80 30.62Q525.90 20.46 515.71 20.46L515.71 20.46Q508.92 20.46 505.42 25.22Q501.93 29.99 501.89 39.02L501.89 39.02L501.89 43.21Q501.89 51.82 505.83 56.90Q509.77 61.98 516.48 61.98L516.48 61.98Q520.28 61.98 523.13 61.14Q525.97 60.29 527.84 58.29L527.84 58.29L527.84 46.79L515.99 46.79L515.99 41.31L534.55 41.31ZM543.23 47.46L543.23 47.46Q543.23 38.57 547.35 33.31Q551.46 28.05 558.25 28.05L558.25 28.05Q565.21 28.05 569.11 32.98L569.11 32.98L569.43 28.76L575.37 28.76L575.37 65.88Q575.37 73.27 570.99 77.52Q566.61 81.77 559.23 81.77L559.23 81.77Q555.12 81.77 551.18 80.02Q547.24 78.26 545.17 75.20L545.17 75.20L548.54 71.30Q552.73 76.46 558.77 76.46L558.77 76.46Q563.52 76.46 566.17 73.79Q568.83 71.12 568.83 66.27L568.83 66.27L568.83 63Q564.93 67.50 558.18 67.50L558.18 67.50Q551.50 67.50 547.37 62.12Q543.23 56.74 543.23 47.46ZM549.77 48.20L549.77 48.20Q549.77 54.63 552.41 58.31Q555.05 61.98 559.79 61.98L559.79 61.98Q565.95 61.98 568.83 56.39L568.83 56.39L568.83 39.02Q565.84 33.57 559.86 33.57L559.86 33.57Q555.12 33.57 552.45 37.27Q549.77 40.96 549.77 48.20Z"/></svg>