<svg xmlns="http://www.w3.org/2000/svg" xmlns:xlink="http://www.w3.org/1999/xlink" width="575.12109375" height="84.375"><path fill="#111111" d="M39.41 66.80L34.10 52.45L10.86 52.45L5.59 66.80L1.05 66.80L20.43 15.61L24.54 15.61L43.91 66.80L39.41 66.80ZM22.46 20.88L12.20 48.76L32.73 48.76L22.46 20.88ZM78.96 66.80L74.46 66.80Q73.83 65.00 73.65 61.49L73.65 61.49Q71.44 64.37 68.01 65.94Q64.58 67.50 60.75 67.50L60.75 67.50Q55.27 67.50 51.87 64.44Q48.48 61.38 48.48 56.71L48.48 56.71Q48.48 51.15 53.10 47.92Q57.73 44.68 65.99 44.68L65.99 44.68L73.62 44.68L73.62 40.36Q73.62 36.28 71.10 33.94Q68.59 31.61 63.77 31.61L63.77 31.61Q59.38 31.61 56.50 33.86Q53.61 36.11 53.61 39.27L53.61 39.27L49.39 39.23Q49.39 34.70 53.61 31.38Q57.83 28.05 63.98 28.05L63.98 28.05Q70.35 28.05 74.02 31.24Q77.70 34.42 77.80 40.11L77.80 40.11L77.80 58.11Q77.80 63.63 78.96 66.38L78.96 66.38L78.96 66.80ZM61.24 63.77L61.24 63.77Q65.46 63.77 68.78 61.73Q72.11 59.70 73.62 56.29L73.62 56.29L73.62 47.92L66.09 47.92Q59.80 47.99 56.25 50.22Q52.70 52.45 52.70 56.36L52.70 56.36Q52.70 59.55 55.07 61.66Q57.45 63.77 61.24 63.77ZM107.12 66.80L90 66.80L90 15.61L105.12 15.61Q113.34 15.61 117.60 19.00Q121.85 22.39 121.85 29.00L121.85 29.00Q121.85 32.98 119.69 35.91Q117.53 38.85 113.77 40.11L113.77 40.11Q118.23 41.10 120.96 44.51Q123.68 47.92 123.68 52.38L123.68 52.38Q123.68 59.17 119.30 62.98Q114.93 66.80 107.12 66.80L107.12 66.80ZM107.65 42.19L94.32 42.19L94.32 63.14L107.30 63.14Q112.85 63.14 116.10 60.31Q119.36 57.48 119.36 52.45L119.36 52.45Q119.36 47.71 116.24 44.95Q113.13 42.19 107.65 42.19L107.65 42.19ZM94.32 19.30L94.32 38.57L106.14 38.57Q111.55 38.46 114.52 36.02Q117.49 33.57 117.49 28.90L117.49 28.90Q117.49 23.98 114.42 21.64Q111.34 19.30 105.12 19.30L105.12 19.30L94.32 19.30ZM163.76 47.53L163.76 48.16Q163.76 57.06 159.82 62.28Q155.88 67.50 149.24 67.50L149.24 67.50Q141.29 67.50 137.21 61.59L137.21 61.59L137.04 66.80L133.10 66.80L133.10 12.80L137.29 12.80L137.29 34.28Q141.29 28.05 149.17 28.05L149.17 28.05Q155.92 28.05 159.84 33.21Q163.76 38.36 163.76 47.53L163.76 47.53ZM159.54 47.43L159.54 47.43Q159.54 39.90 156.62 35.81Q153.70 31.71 148.39 31.71L148.39 31.71Q144.35 31.71 141.54 33.70Q138.73 35.68 137.29 39.52L137.29 39.52L137.29 56.67Q140.45 63.84 148.46 63.84L148.46 63.84Q153.67 63.84 156.60 59.73Q159.54 55.62 159.54 47.43ZM205.91 50.84L210.27 50.84Q209.39 58.92 204.49 63.21Q199.58 67.50 191.43 67.50L191.43 67.50Q185.73 67.50 181.35 64.65Q176.98 61.80 174.59 56.58Q172.20 51.36 172.16 44.65L172.16 44.65L172.16 38.00Q172.16 31.18 174.55 25.91Q176.94 20.64 181.42 17.77Q185.91 14.91 191.74 14.91L191.74 14.91Q199.97 14.91 204.73 19.35Q209.50 23.80 210.27 31.64L210.27 31.64L205.91 31.64Q204.29 18.60 191.74 18.60L191.74 18.60Q184.78 18.60 180.65 23.80Q176.52 29.00 176.52 38.18L176.52 38.18L176.52 44.44Q176.52 53.30 180.54 58.57Q184.57 63.84 191.43 63.84L191.43 63.84Q198.21 63.84 201.66 60.59Q205.10 57.34 205.91 50.84L205.91 50.84ZM233.86 63.95L233.86 63.95Q238.25 63.95 241.22 61.47Q244.20 58.99 244.44 55.05L244.44 55.05L248.48 55.05Q248.31 58.54 246.30 61.40Q244.30 64.27 240.98 65.88Q237.66 67.50 233.86 67.50L233.86 67.50Q226.37 67.50 221.99 62.30Q217.62 57.09 217.62 48.30L217.62 48.30L217.62 47.04Q217.62 41.41 219.59 37.09Q221.55 32.77 225.23 30.41Q228.90 28.05 233.82 28.05L233.82 28.05Q240.08 28.05 244.14 31.78Q248.20 35.51 248.48 41.59L248.48 41.59L244.44 41.59Q244.16 37.13 241.22 34.38Q238.29 31.64 233.82 31.64L233.82 31.64Q228.13 31.64 224.98 35.75Q221.84 39.87 221.84 47.29L221.84 47.29L221.84 48.52Q221.84 55.79 224.98 59.87Q228.13 63.95 233.86 63.95ZM271.86 66.80L257.87 66.80L257.87 15.61L272.18 15.61Q278.47 15.61 283.46 18.47Q288.46 21.34 291.25 26.68Q294.05 32.03 294.05 38.85L294.05 38.85L294.05 43.56Q294.05 50.41 291.27 55.72Q288.49 61.03 283.45 63.91Q278.40 66.80 271.86 66.80L271.86 66.80ZM272.25 19.30L262.20 19.30L262.20 63.14L271.90 63.14Q279.98 63.14 284.87 57.78Q289.76 52.42 289.76 43.28L289.76 43.28L289.76 38.78Q289.76 29.95 284.94 24.64Q280.13 19.34 272.25 19.30L272.25 19.30ZM302.34 47.92L302.34 47.43Q302.34 38.57 306.30 33.31Q310.25 28.05 317.04 28.05L317.04 28.05Q324.74 28.05 328.78 34.14L328.78 34.14L328.78 12.80L332.96 12.80L332.96 66.80L329.03 66.80L328.85 61.73Q324.81 67.50 316.97 67.50L316.97 67.50Q310.39 67.50 306.37 62.21Q302.34 56.92 302.34 47.92L302.34 47.92ZM306.60 48.16L306.60 48.16Q306.60 55.44 309.52 59.64Q312.43 63.84 317.74 63.84L317.74 63.84Q325.51 63.84 328.78 56.99L328.78 56.99L328.78 39.13Q325.51 31.71 317.81 31.71L317.81 31.71Q312.50 31.71 309.55 35.88Q306.60 40.04 306.60 48.16ZM373.29 38.60L373.29 42.26L349.35 42.26L349.35 63.14L376.88 63.14L376.88 66.80L345.02 66.80L345.02 15.61L376.70 15.61L376.70 19.30L349.35 19.30L349.35 38.60L373.29 38.60ZM399.06 67.50L399.06 67.50Q394.21 67.50 390.29 65.11Q386.37 62.72 384.19 58.45Q382.01 54.18 382.01 48.87L382.01 48.87L382.01 47.36Q382.01 41.87 384.13 37.48Q386.26 33.08 390.06 30.57Q393.86 28.05 398.29 28.05L398.29 28.05Q405.21 28.05 409.27 32.78Q413.33 37.51 413.33 45.70L413.33 45.70L413.33 48.06L386.19 48.06L386.19 48.87Q386.19 55.34 389.90 59.64Q393.61 63.95 399.23 63.95L399.23 63.95Q402.61 63.95 405.19 62.72Q407.78 61.49 409.89 58.78L409.89 58.78L412.52 60.79Q407.88 67.50 399.06 67.50ZM398.29 31.64L398.29 31.64Q393.54 31.64 390.29 35.12Q387.04 38.60 386.33 44.47L386.33 44.47L409.15 44.47L409.15 44.02Q408.97 38.53 406.02 35.09Q403.07 31.64 398.29 31.64ZM454.01 66.80L441.63 45.49L426.76 45.49L426.76 66.80L422.40 66.80L422.40 15.61L439.03 15.61Q447.22 15.61 451.83 19.58Q456.43 23.55 456.43 30.69L456.43 30.69Q456.43 35.61 453.55 39.38Q450.67 43.14 445.82 44.58L445.82 44.58L458.61 66.34L458.61 66.80L454.01 66.80ZM426.76 19.30L426.76 41.80L440.02 41.80Q445.46 41.80 448.77 38.71Q452.07 35.61 452.07 30.69L452.07 30.69Q452.07 25.28 448.63 22.29Q445.18 19.30 438.96 19.30L438.96 19.30L426.76 19.30ZM484.91 28.51L484.80 32.34Q483.47 32.10 481.96 32.10L481.96 32.10Q478.02 32.10 475.29 34.29Q472.57 36.49 471.41 40.68L471.41 40.68L471.41 66.80L467.23 66.80L467.23 28.76L471.34 28.76L471.41 34.80Q474.75 28.05 482.13 28.05L482.13 28.05Q483.89 28.05 484.91 28.51L484.91 28.51ZM529.38 42.50L529.38 60.71Q527.13 63.91 522.33 65.71Q517.54 67.50 511.59 67.50L511.59 67.50Q505.58 67.50 500.91 64.62Q496.23 61.73 493.66 56.46Q491.10 51.19 491.06 44.37L491.06 44.37L491.06 37.90Q491.06 27.25 496.44 21.08Q501.82 14.91 510.89 14.91L510.89 14.91Q518.80 14.91 523.62 18.93Q528.43 22.96 529.35 30.02L529.35 30.02L525.02 30.02Q524.07 24.40 520.44 21.50Q516.80 18.60 510.93 18.60L510.93 18.60Q503.75 18.60 499.57 23.70Q495.39 28.79 495.39 38.07L495.39 38.07L495.39 44.12Q495.39 49.96 497.37 54.44Q499.36 58.92 503.07 61.38Q506.78 63.84 511.59 63.84L511.59 63.84Q517.18 63.84 521.19 62.09L521.19 62.09Q523.79 60.93 525.06 59.38L525.06 59.38L525.06 46.16L511.31 46.16L511.31 42.50L529.38 42.50ZM538.98 47.99L538.98 47.43Q538.98 38.50 542.94 33.28Q546.89 28.05 553.68 28.05L553.68 28.05Q561.45 28.05 565.49 34.24L565.49 34.24L565.70 28.76L569.64 28.76L569.64 66.02Q569.64 73.37 565.52 77.66Q561.41 81.95 554.38 81.95L554.38 81.95Q550.41 81.95 546.80 80.17Q543.20 78.40 541.13 75.45L541.13 75.45L543.48 72.91Q547.95 78.40 554.10 78.40L554.10 78.40Q559.37 78.40 562.32 75.29Q565.28 72.18 565.38 66.66L565.38 66.66L565.38 61.88Q561.34 67.50 553.61 67.50L553.61 67.50Q547.00 67.50 542.99 62.23Q538.98 56.95 538.98 47.99L538.98 47.99ZM543.23 48.16L543.23 48.16Q543.23 55.44 546.15 59.64Q549.07 63.84 554.38 63.84L554.38 63.84Q562.15 63.84 565.38 56.88L565.38 56.88L565.38 39.20Q563.91 35.54 561.13 33.63Q558.35 31.71 554.45 31.71L554.45 31.71Q549.14 31.71 546.19 35.88Q543.23 40.04 543.23 48.16Z"/></svg>