<svg xmlns="http://www.w3.org/2000/svg" xmlns:xlink="http://www.w3.org/1999/xlink" width="586.65234375" height="84.375"><path fill="#111111" d="M37.02 66.80L33.47 56.25L14.98 56.25L11.46 66.80L0.25 66.80L19.30 15.61L29.07 15.61L48.23 66.80L37.02 66.80ZM24.19 28.55L17.82 47.71L30.62 47.71L24.19 28.55ZM84.66 66.80L74.39 66.80Q73.69 65.43 73.37 63.39L73.37 63.39Q69.68 67.50 63.77 67.50L63.77 67.50Q58.18 67.50 54.51 64.27Q50.84 61.03 50.84 56.11L50.84 56.11Q50.84 50.06 55.32 46.83Q59.80 43.59 68.27 43.56L68.27 43.56L72.95 43.56L72.95 41.38Q72.95 38.74 71.60 37.16Q70.24 35.58 67.32 35.58L67.32 35.58Q64.76 35.58 63.30 36.81Q61.84 38.04 61.84 40.18L61.84 40.18L51.68 40.18Q51.68 36.88 53.72 34.07Q55.76 31.25 59.48 29.65Q63.21 28.05 67.85 28.05L67.85 28.05Q74.88 28.05 79.01 31.59Q83.14 35.12 83.14 41.52L83.14 41.52L83.14 58.01Q83.18 63.42 84.66 66.20L84.66 66.20L84.66 66.80ZM65.99 59.73L65.99 59.73Q68.24 59.73 70.14 58.73Q72.04 57.73 72.95 56.04L72.95 56.04L72.95 49.50L69.15 49.50Q61.52 49.50 61.03 54.77L61.03 54.77L61.00 55.37Q61.00 57.27 62.33 58.50Q63.67 59.73 65.99 59.73ZM111.52 66.80L91.62 66.80L91.62 15.61L109.55 15.61Q118.86 15.61 123.68 19.18Q128.50 22.75 128.50 29.64L128.50 29.64Q128.50 33.40 126.56 36.26Q124.63 39.13 121.18 40.46L121.18 40.46Q125.12 41.45 127.39 44.44Q129.66 47.43 129.66 51.75L129.66 51.75Q129.66 59.13 124.95 62.93Q120.23 66.73 111.52 66.80L111.52 66.80ZM111.83 44.51L102.16 44.51L102.16 58.32L111.20 58.32Q114.93 58.32 117.02 56.55Q119.11 54.77 119.11 51.64L119.11 51.64Q119.11 44.61 111.83 44.51L111.83 44.51ZM102.16 24.15L102.16 37.05L109.97 37.05Q117.95 36.91 117.95 30.69L117.95 30.69Q117.95 27.21 115.93 25.68Q113.91 24.15 109.55 24.15L109.55 24.15L102.16 24.15ZM171.18 47.57L171.18 48.13Q171.18 57.27 167.27 62.38Q163.37 67.50 156.38 67.50L156.38 67.50Q150.19 67.50 146.50 62.75L146.50 62.75L146.04 66.80L136.90 66.80L136.90 12.80L147.06 12.80L147.06 32.17Q150.57 28.05 156.30 28.05L156.30 28.05Q163.27 28.05 167.22 33.17Q171.18 38.29 171.18 47.57L171.18 47.57ZM161.02 47.39L161.02 47.39Q161.02 41.63 159.19 38.97Q157.36 36.32 153.74 36.32L153.74 36.32Q148.89 36.32 147.06 40.29L147.06 40.29L147.06 55.30Q148.92 59.31 153.81 59.31L153.81 59.31Q158.73 59.31 160.28 54.46L160.28 54.46Q161.02 52.14 161.02 47.39ZM207.74 49.75L218.29 49.75Q217.69 58.01 212.19 62.75Q206.68 67.50 197.68 67.50L197.68 67.50Q187.84 67.50 182.20 60.87Q176.55 54.25 176.55 42.68L176.55 42.68L176.55 39.55Q176.55 32.17 179.16 26.54Q181.76 20.92 186.59 17.91Q191.43 14.91 197.82 14.91L197.82 14.91Q206.68 14.91 212.10 19.65Q217.51 24.40 218.36 32.98L218.36 32.98L207.81 32.98Q207.42 28.02 205.05 25.79Q202.68 23.55 197.82 23.55L197.82 23.55Q192.55 23.55 189.93 27.33Q187.31 31.11 187.24 39.06L187.24 39.06L187.24 42.93Q187.24 51.22 189.76 55.05Q192.27 58.89 197.68 58.89L197.68 58.89Q202.57 58.89 204.98 56.65Q207.39 54.42 207.74 49.75L207.74 49.75ZM240.36 59.31L240.36 59.31Q243.18 59.31 244.93 57.76Q246.69 56.21 246.76 53.65L246.76 53.65L256.29 53.65Q256.25 57.52 254.18 60.73Q252.11 63.95 248.50 65.72Q244.90 67.50 240.54 67.50L240.54 67.50Q232.38 67.50 227.67 62.31Q222.96 57.13 222.96 47.99L222.96 47.99L222.96 47.32Q222.96 38.53 227.64 33.29Q232.31 28.05 240.47 28.05L240.47 28.05Q247.61 28.05 251.91 32.12Q256.22 36.18 256.29 42.93L256.29 42.93L246.76 42.93Q246.69 39.97 244.93 38.13Q243.18 36.28 240.29 36.28L240.29 36.28Q236.74 36.28 234.93 38.87Q233.12 41.45 233.12 47.25L233.12 47.25L233.12 48.30Q233.12 54.18 234.91 56.74Q236.71 59.31 240.36 59.31ZM278.61 66.80L262.76 66.80L262.76 15.61L278.51 15.61Q285.26 15.61 290.58 18.65Q295.91 21.69 298.90 27.30Q301.89 32.91 301.89 40.04L301.89 40.04L301.89 42.40Q301.89 49.54 298.95 55.09Q296.02 60.64 290.67 63.70Q285.33 66.76 278.61 66.80L278.61 66.80ZM278.51 24.15L273.30 24.15L273.30 58.32L278.40 58.32Q284.59 58.32 287.86 54.28Q291.13 50.24 291.20 42.71L291.20 42.71L291.20 40.01Q291.20 32.20 287.96 28.18Q284.73 24.15 278.51 24.15L278.51 24.15ZM307.30 47.50L307.30 47.50Q307.30 38.60 311.29 33.33Q315.28 28.05 322.21 28.05L322.21 28.05Q327.76 28.05 331.38 32.20L331.38 32.20L331.38 12.80L341.58 12.80L341.58 66.80L332.40 66.80L331.91 62.75Q328.11 67.50 322.14 67.50L322.14 67.50Q315.42 67.50 311.36 62.21Q307.30 56.92 307.30 47.50ZM317.46 48.23L317.46 48.23Q317.46 53.58 319.32 56.43Q321.19 59.27 324.74 59.27L324.74 59.27Q329.45 59.27 331.38 55.30L331.38 55.30L331.38 40.29Q329.48 36.32 324.81 36.32L324.81 36.32Q317.46 36.32 317.46 48.23ZM380.92 36.35L380.92 44.61L360.67 44.61L360.67 58.32L384.43 58.32L384.43 66.80L350.12 66.80L350.12 15.61L384.36 15.61L384.36 24.15L360.67 24.15L360.67 36.35L380.92 36.35ZM406.79 67.50L406.79 67.50Q398.43 67.50 393.17 62.37Q387.91 57.23 387.91 48.69L387.91 48.69L387.91 47.71Q387.91 41.98 390.13 37.46Q392.34 32.94 396.40 30.50Q400.46 28.05 405.67 28.05L405.67 28.05Q413.47 28.05 417.96 32.98Q422.44 37.90 422.44 46.93L422.44 46.93L422.44 51.08L398.21 51.08Q398.71 54.81 401.19 57.06Q403.66 59.31 407.46 59.31L407.46 59.31Q413.33 59.31 416.64 55.05L416.64 55.05L421.63 60.64Q419.34 63.88 415.44 65.69Q411.54 67.50 406.79 67.50ZM405.63 36.28L405.63 36.28Q402.61 36.28 400.73 38.32Q398.85 40.36 398.32 44.16L398.32 44.16L412.45 44.16L412.45 43.35Q412.38 39.97 410.63 38.13Q408.87 36.28 405.63 36.28ZM457.42 66.80L447.82 48.06L439.42 48.06L439.42 66.80L428.87 66.80L428.87 15.61L447.89 15.61Q456.96 15.61 461.88 19.65Q466.80 23.70 466.80 31.08L466.80 31.08Q466.80 36.32 464.54 39.81Q462.27 43.31 457.66 45.39L457.66 45.39L468.74 66.30L468.74 66.80L457.42 66.80ZM439.42 24.15L439.42 39.52L447.93 39.52Q451.90 39.52 454.08 37.49Q456.26 35.47 456.26 31.92L456.26 31.92Q456.26 28.30 454.20 26.23Q452.14 24.15 447.89 24.15L447.89 24.15L439.42 24.15ZM495.67 28.51L495.53 38.29Q493.45 38.00 491.87 38.00L491.87 38.00Q486.11 38.00 484.31 41.91L484.31 41.91L484.31 66.80L474.15 66.80L474.15 28.76L483.75 28.76L484.03 33.29Q487.09 28.05 492.50 28.05L492.50 28.05Q494.19 28.05 495.67 28.51L495.67 28.51ZM541.58 39.90L541.58 60.33Q538.73 63.74 533.53 65.62Q528.33 67.50 522 67.50L522 67.50Q515.36 67.50 510.35 64.60Q505.34 61.70 502.61 56.18Q499.89 50.66 499.82 43.21L499.82 43.21L499.82 39.73Q499.82 32.06 502.40 26.46Q504.98 20.85 509.85 17.88Q514.72 14.91 521.26 14.91L521.26 14.91Q530.37 14.91 535.50 19.25Q540.63 23.59 541.58 31.89L541.58 31.89L531.32 31.89Q530.61 27.49 528.21 25.45Q525.80 23.41 521.58 23.41L521.58 23.41Q516.20 23.41 513.39 27.46Q510.57 31.50 510.54 39.48L510.54 39.48L510.54 42.75Q510.54 50.80 513.60 54.91Q516.66 59.03 522.56 59.03L522.56 59.03Q528.50 59.03 531.04 56.50L531.04 56.50L531.04 47.67L521.44 47.67L521.44 39.90L541.58 39.90ZM547.98 47.92L547.98 47.50Q547.98 38.74 552.15 33.40Q556.31 28.05 563.38 28.05L563.38 28.05Q569.64 28.05 573.12 32.34L573.12 32.34L573.54 28.76L582.75 28.76L582.75 65.53Q582.75 70.52 580.48 74.21Q578.21 77.91 574.10 79.84Q569.99 81.77 564.47 81.77L564.47 81.77Q560.29 81.77 556.31 80.10Q552.34 78.43 550.30 75.80L550.30 75.80L554.80 69.61Q558.60 73.86 564.01 73.86L564.01 73.86Q568.05 73.86 570.30 71.70Q572.55 69.54 572.55 65.57L572.55 65.57L572.55 63.53Q569.04 67.50 563.31 67.50L563.31 67.50Q556.45 67.50 552.22 62.14Q547.98 56.78 547.98 47.92L547.98 47.92ZM558.14 48.23L558.14 48.23Q558.14 53.40 560.21 56.34Q562.29 59.27 565.91 59.27L565.91 59.27Q570.55 59.27 572.55 55.79L572.55 55.79L572.55 39.80Q570.52 36.32 565.98 36.32L565.98 36.32Q562.32 36.32 560.23 39.30Q558.14 42.29 558.14 48.23Z"/></svg>