<svg xmlns="http://www.w3.org/2000/svg" xmlns:xlink="http://www.w3.org/1999/xlink" width="503.61328125" height="84.375"><path fill="#111111" d="M33.75 66.80L29.32 52.49L10.13 52.49L5.77 66.80L1.58 66.80L17.89 15.61L21.62 15.61L37.93 66.80L33.75 66.80ZM19.72 21.27L11.29 48.73L28.16 48.73L19.72 21.27ZM68.94 66.80L64.79 66.80Q64.27 64.97 64.09 61.52L64.09 61.52Q62.33 64.37 59.57 65.94Q56.81 67.50 53.58 67.50L53.58 67.50Q48.66 67.50 45.91 64.72Q43.17 61.95 43.17 56.81L43.17 56.81Q43.17 51.22 46.99 47.95Q50.80 44.68 57.52 44.65L57.52 44.65L64.05 44.65L64.05 39.34Q64.05 35.26 62.03 33.49Q60.01 31.71 56.11 31.71L56.11 31.71Q52.49 31.71 50.17 33.82Q47.85 35.93 47.85 39.27L47.85 39.27L43.95 39.23Q43.95 34.56 47.46 31.31Q50.98 28.05 56.29 28.05L56.29 28.05Q62.02 28.05 64.97 30.94Q67.92 33.82 67.92 39.34L67.92 39.34L67.92 58.01Q67.92 63.60 68.94 66.38L68.94 66.38L68.94 66.80ZM54.07 63.74L54.07 63.74Q57.52 63.74 60.17 61.95Q62.82 60.15 64.05 57.16L64.05 57.16L64.05 47.92L57.87 47.92Q52.52 47.99 49.82 50.29Q47.11 52.59 47.11 56.50L47.11 56.50Q47.11 63.74 54.07 63.74ZM93.87 66.80L79.42 66.80L79.42 15.61L92.39 15.61Q99.32 15.61 102.88 19.00Q106.45 22.39 106.45 29.00L106.45 29.00Q106.45 32.94 104.63 35.86Q102.80 38.78 99.56 40.08L99.56 40.08Q103.29 41.03 105.59 44.42Q107.89 47.81 107.89 52.38L107.89 52.38Q107.89 59.06 104.24 62.93Q100.58 66.80 93.87 66.80L93.87 66.80ZM94.64 42.22L83.43 42.22L83.43 63.07L94.04 63.07Q98.61 63.07 101.25 60.26Q103.89 57.45 103.89 52.45L103.89 52.45Q103.89 47.81 101.44 45.07Q99 42.33 94.64 42.22L94.64 42.22ZM83.43 19.41L83.43 38.53L92.74 38.53Q97.31 38.53 99.84 36.11Q102.38 33.68 102.38 28.90L102.38 28.90Q102.38 24.01 99.90 21.71Q97.42 19.41 92.39 19.41L92.39 19.41L83.43 19.41ZM143.12 45.35L143.12 49.57Q143.12 58.36 140.04 62.93Q136.97 67.50 130.89 67.50L130.89 67.50Q124.17 67.50 120.94 61.70L120.94 61.70L120.76 66.80L117.14 66.80L117.14 12.80L121.01 12.80L121.01 34.07Q124.21 28.05 130.82 28.05L130.82 28.05Q136.97 28.05 139.99 32.40Q143.02 36.74 143.12 45.35L143.12 45.35ZM139.22 49.82L139.22 46.02Q139.22 38.78 137.07 35.30Q134.93 31.82 130.04 31.82L130.04 31.82Q123.54 31.82 121.01 38.67L121.01 38.67L121.01 57.52Q122.20 60.50 124.52 62.14Q126.84 63.77 130.11 63.77L130.11 63.77Q134.79 63.77 136.99 60.38Q139.18 56.99 139.22 49.82L139.22 49.82ZM179.61 50.84L183.69 50.84Q183.13 59.45 179.05 63.47Q174.97 67.50 167.77 67.50L167.77 67.50Q160.35 67.50 156.06 61.89Q151.77 56.29 151.73 46.65L151.73 46.65L151.73 35.54Q151.73 25.88 156.11 20.39Q160.49 14.91 168.08 14.91L168.08 14.91Q175.25 14.91 179.19 19.02Q183.13 23.13 183.69 31.64L183.69 31.64L179.61 31.64Q179.05 24.68 176.33 21.69Q173.60 18.70 168.08 18.70L168.08 18.70Q162.28 18.70 159.05 23.03Q155.81 27.35 155.81 35.58L155.81 35.58L155.81 46.55Q155.81 54.70 158.94 59.24Q162.07 63.77 167.77 63.77L167.77 63.77Q173.74 63.77 176.41 60.79Q179.09 57.80 179.61 50.84L179.61 50.84ZM204.89 63.88L204.89 63.88Q208.97 63.88 211.15 61.59Q213.33 59.31 213.50 55.02L213.50 55.02L217.27 55.02Q216.98 60.86 213.54 64.18Q210.09 67.50 204.89 67.50L204.89 67.50Q198.11 67.50 194.64 63.16Q191.18 58.82 191.11 50.27L191.11 50.27L191.11 45.63Q191.11 36.91 194.57 32.48Q198.04 28.05 204.86 28.05L204.86 28.05Q210.52 28.05 213.79 31.62Q217.05 35.19 217.27 41.59L217.27 41.59L213.50 41.59Q213.33 36.88 211.11 34.29Q208.90 31.71 204.86 31.71L204.86 31.71Q199.79 31.71 197.42 35.12Q195.05 38.53 195.05 45.60L195.05 45.60L195.05 49.92Q195.05 57.23 197.44 60.56Q199.83 63.88 204.89 63.88ZM237.94 66.80L226.37 66.80L226.37 15.61L238.43 15.61Q246.76 15.61 251.61 20.94Q256.46 26.26 256.61 35.61L256.61 35.61L256.61 46.34Q256.61 55.97 251.70 61.38Q246.80 66.80 237.94 66.80L237.94 66.80ZM238.32 19.41L230.38 19.41L230.38 63.07L238.15 63.07Q245.00 63.07 248.77 58.83Q252.53 54.60 252.63 46.72L252.63 46.72L252.63 36Q252.63 28.13 248.96 23.77Q245.29 19.41 238.32 19.41L238.32 19.41ZM265.15 49.96L265.15 46.02Q265.15 37.09 268.28 32.57Q271.41 28.05 277.56 28.05L277.56 28.05Q284.03 28.05 287.23 33.86L287.23 33.86L287.23 12.80L291.13 12.80L291.13 66.80L287.47 66.80L287.30 61.91Q284.10 67.50 277.52 67.50L277.52 67.50Q271.51 67.50 268.37 62.93Q265.22 58.36 265.15 49.96L265.15 49.96ZM269.12 45.77L269.12 49.57Q269.12 56.88 271.32 60.33Q273.52 63.77 278.30 63.77L278.30 63.77Q284.45 63.77 287.23 57.90L287.23 57.90L287.23 38.18Q284.59 31.82 278.33 31.82L278.33 31.82Q273.55 31.82 271.35 35.23Q269.16 38.64 269.12 45.77L269.12 45.77ZM326.39 38.57L326.39 42.29L306.53 42.29L306.53 63.07L329.38 63.07L329.38 66.80L302.52 66.80L302.52 15.61L329.20 15.61L329.20 19.41L306.53 19.41L306.53 38.57L326.39 38.57ZM349.35 67.50L349.35 67.50Q342.63 67.50 338.84 63.11Q335.04 58.71 334.97 50.59L334.97 50.59L334.97 45.95Q334.97 37.58 338.63 32.82Q342.28 28.05 348.68 28.05L348.68 28.05Q354.87 28.05 358.12 32.10Q361.37 36.14 361.44 44.47L361.44 44.47L361.44 48.13L338.84 48.13L338.84 50.27Q338.84 56.81 341.63 60.36Q344.43 63.91 349.52 63.91L349.52 63.91Q355.15 63.91 358.63 59.80L358.63 59.80L360.67 62.40Q356.94 67.50 349.35 67.50ZM348.68 31.71L348.68 31.71Q344.07 31.71 341.60 34.96Q339.12 38.21 338.87 44.47L338.87 44.47L357.54 44.47L357.54 43.45Q357.26 31.71 348.68 31.71ZM396.77 66.80L386.51 45.49L374.55 45.49L374.55 66.80L370.51 66.80L370.51 15.61L384.54 15.61Q391.54 15.61 395.38 19.60Q399.23 23.59 399.23 30.69L399.23 30.69Q399.23 35.65 396.84 39.39Q394.45 43.14 390.41 44.58L390.41 44.58L401.06 66.34L401.06 66.80L396.77 66.80ZM374.55 19.41L374.55 41.77L385.24 41.77Q389.78 41.77 392.48 38.65Q395.19 35.54 395.19 30.69L395.19 30.69Q395.19 25.31 392.38 22.36Q389.57 19.41 384.50 19.41L384.50 19.41L374.55 19.41ZM424.30 28.51L424.23 32.41Q422.82 32.17 421.77 32.17L421.77 32.17Q418.54 32.17 416.34 34.38Q414.14 36.60 413.23 40.54L413.23 40.54L413.23 66.80L409.32 66.80L409.32 28.76L413.16 28.76L413.23 34.45Q416.00 28.05 421.95 28.05L421.95 28.05Q423.49 28.05 424.30 28.51L424.30 28.51ZM463.11 42.43L463.11 60.86Q460.55 64.16 456.64 65.83Q452.74 67.50 448.10 67.50L448.10 67.50Q440.23 67.50 435.73 62.23Q431.23 56.95 431.05 47.60L431.05 47.60L431.05 35.16Q431.05 25.35 435.32 20.13Q439.59 14.91 447.50 14.91L447.50 14.91Q454.57 14.91 458.58 18.81Q462.59 22.71 463.08 30.06L463.08 30.06L459.07 30.06Q458.44 24.15 455.61 21.43Q452.78 18.70 447.54 18.70L447.54 18.70Q441.28 18.70 438.17 22.87Q435.06 27.04 435.06 35.09L435.06 35.09L435.06 46.90Q435.06 54.91 438.49 59.34Q441.91 63.77 448.10 63.77L448.10 63.77Q454.82 63.77 459.07 59.52L459.07 59.52L459.07 46.20L447.86 46.20L447.86 42.43L463.11 42.43ZM472.43 50.13L472.43 46.02Q472.43 37.02 475.52 32.54Q478.62 28.05 484.80 28.05L484.80 28.05Q491.38 28.05 494.58 34.07L494.58 34.07L494.79 28.76L498.41 28.76L498.41 67.89Q498.38 74.78 495.12 78.36Q491.87 81.95 485.65 81.95L485.65 81.95Q482.52 81.95 479.34 80.42Q476.16 78.89 474.50 76.68L474.50 76.68L476.33 73.86Q480.23 78.33 485.37 78.33L485.37 78.33Q490.11 78.33 492.28 75.80Q494.44 73.27 494.47 68.10L494.47 68.10L494.47 62.05Q491.27 67.50 484.77 67.50L484.77 67.50Q478.83 67.50 475.68 63.04Q472.54 58.57 472.43 50.13L472.43 50.13ZM476.37 45.77L476.37 49.57Q476.37 56.88 478.58 60.33Q480.80 63.77 485.54 63.77L485.54 63.77Q491.87 63.77 494.47 57.76L494.47 57.76L494.47 38.32Q491.84 31.82 485.61 31.82L485.61 31.82Q480.83 31.82 478.62 35.23Q476.40 38.64 476.37 45.77L476.37 45.77Z"/></svg>