<svg xmlns="http://www.w3.org/2000/svg" xmlns:xlink="http://www.w3.org/1999/xlink" width="570.234375" height="84.375"><path fill="#111111" d="M39.73 66.80L34.00 51.50L8.93 51.50L3.23 66.80L1.16 66.80L20.32 15.61L22.64 15.61L41.80 66.80L39.73 66.80ZM21.48 17.89L9.63 49.61L33.29 49.61L21.48 17.89ZM75.80 66.80L73.62 66.80Q72.91 64.37 72.91 59.84L72.91 59.84Q70.66 63.49 66.76 65.50Q62.86 67.50 57.94 67.50L57.94 67.50Q52.66 67.50 49.45 64.63Q46.23 61.77 46.23 57.16L46.23 57.16Q46.23 51.93 50.96 48.78Q55.69 45.63 63.53 45.56L63.53 45.56L72.91 45.56L72.91 40.01Q72.91 35.23 69.91 32.59Q66.90 29.95 61.31 29.95L61.31 29.95Q56.11 29.95 52.63 32.63Q49.15 35.30 49.15 39.23L49.15 39.23L47.25 39.16Q47.25 34.52 51.33 31.29Q55.41 28.05 61.31 28.05L61.31 28.05Q67.46 28.05 71.09 31.13Q74.71 34.21 74.81 39.80L74.81 39.80L74.81 57.97Q74.81 64.23 75.80 66.48L75.80 66.48L75.80 66.80ZM57.94 65.64L57.94 65.64Q63.28 65.64 67.13 63.25Q70.98 60.86 72.91 56.53L72.91 56.53L72.91 47.50L64.13 47.50Q55.97 47.50 51.64 50.73L51.64 50.73Q48.13 53.37 48.13 57.30L48.13 57.30Q48.13 60.79 50.91 63.21Q53.68 65.64 57.94 65.64ZM104.52 66.80L88.03 66.80L88.03 15.61L101.50 15.61Q109.76 15.61 113.99 18.97Q118.23 22.32 118.23 28.72L118.23 28.72Q118.23 33.36 115.88 36.42Q113.52 39.48 109.23 40.32L109.23 40.32Q114.08 40.96 117.32 44.53Q120.55 48.09 120.55 52.70L120.55 52.70Q120.55 59.24 116.31 63.02Q112.08 66.80 104.52 66.80L104.52 66.80ZM105.47 41.52L89.93 41.52L89.93 64.90L104.73 64.90Q111.23 64.90 114.94 61.68Q118.65 58.46 118.65 52.77L118.65 52.77Q118.65 47.92 115.07 44.77Q111.48 41.63 105.47 41.52L105.47 41.52ZM89.93 17.51L89.93 39.62L102.20 39.62Q109.20 39.62 112.75 36.93Q116.30 34.24 116.30 28.58L116.30 28.58Q116.30 17.68 101.92 17.51L101.92 17.51L89.93 17.51ZM159.54 47.53L159.54 48.13Q159.54 57.02 155.71 62.26Q151.88 67.50 145.27 67.50L145.27 67.50Q140.98 67.50 137.60 65.72Q134.23 63.95 132.29 60.79L132.29 60.79L132.29 66.80L130.39 66.80L130.39 12.80L132.29 12.80L132.29 35.68Q134.30 31.92 137.58 29.99Q140.87 28.05 145.20 28.05L145.20 28.05Q151.88 28.05 155.71 33.17Q159.54 38.29 159.54 47.53L159.54 47.53ZM157.57 47.39L157.57 47.39Q157.57 39.20 154.32 34.58Q151.07 29.95 145.23 29.95L145.23 29.95Q140.45 29.95 137.13 32.41Q133.80 34.88 132.29 39.73L132.29 39.73L132.29 57.16Q133.80 61.21 137.13 63.40Q140.45 65.60 145.30 65.60L145.30 65.60Q151.17 65.60 154.37 60.93Q157.57 56.25 157.57 47.39ZM203.77 51.12L205.66 51.12Q204.93 59.03 200.21 63.26Q195.50 67.50 187.42 67.50L187.42 67.50Q181.97 67.50 177.77 64.74Q173.57 61.98 171.25 56.90Q168.93 51.82 168.89 45.28L168.89 45.28L168.89 37.37Q168.89 30.83 171.18 25.68Q173.46 20.53 177.70 17.72Q181.93 14.91 187.42 14.91L187.42 14.91Q195.43 14.91 200.18 19.13Q204.93 23.34 205.66 31.22L205.66 31.22L203.77 31.22Q202.96 24.15 198.84 20.48Q194.73 16.80 187.42 16.80L187.42 16.80Q179.96 16.80 175.38 22.43Q170.79 28.05 170.79 37.51L170.79 37.51L170.79 45.04Q170.79 51.08 172.83 55.74Q174.87 60.40 178.68 63Q182.50 65.60 187.42 65.60L187.42 65.60Q194.77 65.60 198.90 61.98Q203.03 58.36 203.77 51.12L203.77 51.12ZM229.43 65.60L229.43 65.60Q234.60 65.60 237.96 62.86Q241.31 60.12 241.63 55.27L241.63 55.27L243.53 55.27Q243.25 60.79 239.27 64.14Q235.30 67.50 229.43 67.50L229.43 67.50Q222.29 67.50 218.09 62.33Q213.89 57.16 213.89 48.30L213.89 48.30L213.89 47.04Q213.89 38.39 218.09 33.22Q222.29 28.05 229.36 28.05L229.36 28.05Q235.41 28.05 239.34 31.68Q243.28 35.30 243.53 41.31L243.53 41.31L241.63 41.31Q241.38 36.18 238.03 33.06Q234.67 29.95 229.36 29.95L229.36 29.95Q223.00 29.95 219.39 34.54Q215.79 39.13 215.79 47.29L215.79 47.29L215.79 48.52Q215.79 56.50 219.43 61.05Q223.07 65.60 229.43 65.60ZM268.38 66.80L254.04 66.80L254.04 15.61L268.21 15.61Q274.15 15.61 278.96 18.42Q283.78 21.23 286.52 26.31Q289.27 31.39 289.34 37.69L289.34 37.69L289.34 44.33Q289.34 50.73 286.65 55.86Q283.96 61.00 279.14 63.88Q274.32 66.76 268.38 66.80L268.38 66.80ZM268.49 17.51L255.94 17.51L255.94 64.90L268.21 64.90Q273.59 64.90 278.00 62.28Q282.41 59.66 284.91 54.97Q287.40 50.27 287.44 44.54L287.44 44.54L287.44 37.97Q287.44 32.24 284.99 27.56Q282.55 22.89 278.17 20.23Q273.80 17.58 268.49 17.51L268.49 17.51ZM298.41 47.88L298.41 47.39Q298.41 38.29 302.24 33.17Q306.07 28.05 312.75 28.05L312.75 28.05Q317.04 28.05 320.33 29.99Q323.61 31.92 325.65 35.75L325.65 35.75L325.65 12.80L327.55 12.80L327.55 66.80L325.65 66.80L325.65 60.71Q323.72 63.95 320.34 65.72Q316.97 67.50 312.68 67.50L312.68 67.50Q306.07 67.50 302.24 62.26Q298.41 57.02 298.41 47.88L298.41 47.88ZM300.38 48.13L300.38 48.13Q300.38 56.21 303.57 60.91Q306.77 65.60 312.64 65.60L312.64 65.60Q317.36 65.60 320.70 63.51Q324.04 61.42 325.65 57.38L325.65 57.38L325.65 39.55Q322.38 29.95 312.71 29.95L312.71 29.95Q306.88 29.95 303.63 34.56Q300.38 39.16 300.38 48.13ZM368.12 39.52L368.12 41.41L342.46 41.41L342.46 64.90L371.71 64.90L371.71 66.80L340.56 66.80L340.56 15.61L371.71 15.61L371.71 17.51L342.46 17.51L342.46 39.52L368.12 39.52ZM393.57 67.50L393.57 67.50Q388.97 67.50 385.12 65.02Q381.27 62.54 379.09 58.22Q376.91 53.89 376.91 48.62L376.91 48.62L376.91 47.04Q376.91 41.77 379.02 37.37Q381.13 32.98 384.82 30.52Q388.51 28.05 392.87 28.05L392.87 28.05Q399.23 28.05 403.28 32.59Q407.32 37.13 407.32 44.51L407.32 44.51L407.32 46.51L378.81 46.51L378.81 48.59Q378.81 53.23 380.76 57.18Q382.71 61.14 386.14 63.39Q389.57 65.64 393.57 65.64L393.57 65.64Q397.41 65.64 400.10 64.35Q402.79 63.07 404.86 60.40L404.86 60.40L406.20 61.35Q401.94 67.50 393.57 67.50ZM392.87 29.95L392.87 29.95Q387.32 29.95 383.45 34.08Q379.58 38.21 378.91 44.61L378.91 44.61L405.42 44.61L405.42 44.16Q405.42 40.29 403.79 36.97Q402.15 33.64 399.29 31.80Q396.42 29.95 392.87 29.95ZM450.25 66.80L436.64 44.89L418.89 44.89L418.89 66.80L416.99 66.80L416.99 15.61L433.30 15.61Q441 15.61 445.55 19.58Q450.11 23.55 450.11 30.38L450.11 30.38Q450.11 35.61 446.85 39.53Q443.60 43.45 438.57 44.40L438.57 44.40L452.25 66.30L452.25 66.80L450.25 66.80ZM418.89 17.51L418.89 43.00L435.02 43.00Q440.93 43.00 444.57 39.41Q448.21 35.82 448.21 30.38L448.21 30.38Q448.21 24.40 444.18 20.95Q440.16 17.51 433.16 17.51L433.16 17.51L418.89 17.51ZM480.27 28.44L480.06 30.13L477.60 29.92Q472.75 29.92 469.48 33.06Q466.21 36.21 465.19 41.87L465.19 41.87L465.19 66.80L463.29 66.80L463.29 28.76L465.19 28.76L465.19 36.67Q466.73 32.70 469.83 30.38Q472.92 28.05 477.60 28.05L477.60 28.05Q479.25 28.05 480.27 28.44L480.27 28.44ZM524.43 43.59L524.43 61.31Q522.49 63.98 517.64 65.74Q512.79 67.50 506.95 67.50L506.95 67.50Q501.26 67.50 496.79 64.72Q492.33 61.95 489.81 56.88Q487.30 51.82 487.23 45.42L487.23 45.42L487.23 36.63Q487.23 30.34 489.66 25.35Q492.08 20.36 496.48 17.63Q500.87 14.91 506.36 14.91L506.36 14.91Q513.98 14.91 518.78 18.81Q523.58 22.71 524.36 29.46L524.36 29.46L522.46 29.46Q521.51 23.34 517.36 20.07Q513.21 16.80 506.36 16.80L506.36 16.80Q498.62 16.80 493.88 22.32Q489.13 27.84 489.13 36.84L489.13 36.84L489.13 45Q489.13 51.01 491.36 55.72Q493.59 60.43 497.65 63.02Q501.71 65.60 506.95 65.60L506.95 65.60Q512.09 65.60 516.48 64.09Q520.88 62.58 522.53 60.43L522.53 60.43L522.53 45.53L506.88 45.53L506.88 43.59L524.43 43.59ZM535.01 47.88L535.01 47.39Q535.01 38.29 538.84 33.17Q542.67 28.05 549.35 28.05L549.35 28.05Q553.61 28.05 556.91 30.01Q560.21 31.96 562.22 35.72L562.22 35.72L562.22 28.76L564.15 28.76L564.15 66.13Q564.15 73.65 560.29 77.89Q556.42 82.13 549.77 82.13L549.77 82.13Q545.94 82.13 542.76 80.47Q539.58 78.82 537.33 75.73L537.33 75.73L538.66 74.46Q540.88 77.27 543.52 78.77Q546.15 80.26 549.70 80.26L549.70 80.26Q555.57 80.26 558.84 76.69Q562.11 73.13 562.22 66.62L562.22 66.62L562.22 60.79Q560.25 64.02 556.89 65.76Q553.54 67.50 549.28 67.50L549.28 67.50Q542.67 67.50 538.84 62.26Q535.01 57.02 535.01 47.88L535.01 47.88ZM536.94 48.13L536.94 48.13Q536.94 56.29 540.18 60.94Q543.41 65.60 549.25 65.60L549.25 65.60Q554.06 65.60 557.44 63.37Q560.81 61.14 562.22 57.09L562.22 57.09L562.22 39.83Q559.13 29.95 549.32 29.95L549.32 29.95Q543.45 29.95 540.19 34.56Q536.94 39.16 536.94 48.13Z"/></svg>