<svg xmlns="http://www.w3.org/2000/svg" xmlns:xlink="http://www.w3.org/1999/xlink" width="567.7734375" height="84.375"><path fill="#111111" d="M34.38 66.80L31.96 53.44L11.21 53.44L4.22 66.80L-2.85 66.80L24.96 15.61L30.76 15.61L40.89 66.80L34.38 66.80ZM26.72 24.01L14.13 47.88L30.97 47.88L26.72 24.01ZM76.75 66.80L70.28 66.80Q70.03 65.78 70.03 64.79L70.03 64.79L70.14 62.79Q64.90 67.64 59.03 67.50L59.03 67.50Q54 67.43 50.85 64.32Q47.71 61.21 47.99 56.53L47.99 56.53Q48.34 50.48 53.28 47.09Q58.22 43.70 66.27 43.70L66.27 43.70L72.91 43.73L73.34 40.71Q73.69 37.30 72.02 35.31Q70.35 33.33 67.01 33.26L67.01 33.26Q63.74 33.19 61.22 34.86Q58.71 36.53 58.15 39.27L58.15 39.27L51.75 39.30Q52.07 35.96 54.35 33.38Q56.64 30.80 60.22 29.37Q63.81 27.95 67.64 28.02L67.64 28.02Q73.58 28.16 76.89 31.62Q80.19 35.09 79.66 40.82L79.66 40.82L76.57 59.66L76.39 62.37Q76.32 64.30 76.82 66.20L76.82 66.20L76.75 66.80ZM60.29 61.88L60.29 61.88Q63.35 61.95 66.08 60.42Q68.80 58.89 70.77 56.18L70.77 56.18L72.14 48.34L67.32 48.30Q61.31 48.30 58.11 50.20Q54.91 52.10 54.49 55.58L54.49 55.58Q54.18 58.25 55.74 60.03Q57.30 61.80 60.29 61.88ZM104.13 66.80L86.34 66.80L95.24 15.61L110.25 15.64Q118.09 15.64 121.99 19.16Q125.89 22.68 125.40 28.97L125.40 28.97Q124.77 36.32 116.16 40.04L116.16 40.04Q119.60 41.38 121.31 44.61Q123.01 47.85 122.70 51.75L122.70 51.75Q122.17 58.68 117.14 62.74Q112.11 66.80 104.13 66.80L104.13 66.80ZM108.60 42.89L97.10 42.86L93.90 61.28L104.34 61.31Q109.13 61.31 112.36 58.75Q115.59 56.18 116.12 51.82L116.12 51.82Q116.61 47.67 114.68 45.35Q112.75 43.03 108.60 42.89L108.60 42.89ZM100.86 21.16L98.05 37.44L107.58 37.48Q112.04 37.48 115.12 35.19Q118.20 32.91 118.72 28.90L118.72 28.90Q119.18 25.17 117.26 23.27Q115.35 21.38 110.92 21.20L110.92 21.20L100.86 21.16ZM163.79 47.21L163.72 47.95Q163.02 53.79 160.52 58.46Q158.03 63.14 154.48 65.39Q150.93 67.64 146.60 67.54L146.60 67.54Q139.71 67.39 136.37 62.37L136.37 62.37L135.07 66.80L129.20 66.80L138.59 12.80L144.95 12.80L141.12 32.98Q145.69 27.91 152.23 28.05L152.23 28.05Q157.71 28.20 160.77 32.10Q163.83 36 164.00 42.86L164.00 42.86Q164.04 45.11 163.79 47.21L163.79 47.21ZM157.68 44.26L157.68 44.26Q157.78 39.13 155.95 36.40Q154.13 33.68 150.36 33.54L150.36 33.54Q144.42 33.40 140.31 39.52L140.31 39.52L137.46 56.07Q139.57 61.88 145.37 62.02L145.37 62.02Q149.10 62.16 151.89 59.80Q154.69 57.45 156.13 53.21Q157.57 48.97 157.68 44.26ZM202.36 50.59L208.76 50.48Q207.28 58.43 201.57 63.07Q195.86 67.71 187.88 67.50L187.88 67.50Q183.13 67.39 179.58 65.16Q176.03 62.93 174.06 58.73Q172.09 54.53 171.88 49.43L171.88 49.43Q171.74 46.55 172.13 43.80L172.13 43.80L172.72 39.59Q174.38 28.05 180.83 21.39Q187.28 14.73 196.52 14.91L196.52 14.91Q203.73 15.05 207.95 19.56Q212.17 24.08 212.41 32.10L212.41 32.10L205.84 32.10Q205.38 21.34 197.40 20.50L197.40 20.50L196.24 20.43Q189.60 20.25 185.15 25.37Q180.70 30.48 179.40 39.34L179.40 39.34L178.63 44.65L178.42 47.74Q178.21 54.21 180.72 58.03Q183.23 61.84 188.19 61.98L188.19 61.98Q193.54 62.16 197.03 59.41Q200.53 56.67 202.36 50.59L202.36 50.59ZM230.63 62.23L230.63 62.23Q234.04 62.30 236.78 60.24Q239.52 58.18 240.36 54.84L240.36 54.84L246.38 54.81Q245.85 58.39 243.51 61.35Q241.17 64.30 237.62 65.95Q234.07 67.61 230.34 67.50L230.34 67.50Q225.60 67.43 222.31 65.02Q219.02 62.61 217.48 58.31Q215.93 54 216.42 48.62L216.42 48.62L216.60 46.86Q217.27 41.38 219.80 37.05Q222.33 32.73 226.41 30.32Q230.48 27.91 235.41 28.05L235.41 28.05Q241.38 28.20 244.97 32.06Q248.55 35.93 248.55 41.87L248.55 41.87L242.61 41.84Q242.54 38.11 240.54 35.81Q238.54 33.50 235.13 33.36L235.13 33.36Q230.17 33.26 226.88 37.05Q223.59 40.85 222.79 47.67L222.79 47.67L222.68 48.59Q222.47 50.84 222.61 53.23L222.61 53.23Q222.86 57.34 224.93 59.73Q227.00 62.12 230.63 62.23ZM266.10 66.80L252.46 66.80L261.35 15.61L274.64 15.64Q280.90 15.64 285.42 18.77Q289.93 21.90 291.90 27.40Q293.87 32.91 293.06 39.73L293.06 39.73L292.71 42.29Q291.16 53.47 284.03 60.13Q276.89 66.80 266.10 66.80L266.10 66.80ZM274.82 21.20L266.98 21.16L260.02 61.28L266.52 61.31Q273.97 61.31 279.16 56.67Q284.34 52.03 285.89 43.95L285.89 43.95Q287.12 37.48 286.73 32.94L286.73 32.94Q286.21 27.49 283.11 24.42Q280.02 21.34 274.82 21.20L274.82 21.20ZM299.46 47.71L299.46 47.71Q300.16 41.91 302.66 37.23Q305.16 32.55 308.81 30.23Q312.47 27.91 316.86 28.02L316.86 28.02Q323.23 28.16 326.64 32.66L326.64 32.66L330.29 12.80L336.66 12.80L327.30 66.80L321.50 66.80L322.17 62.72Q317.67 67.64 311.06 67.50L311.06 67.50Q305.79 67.36 302.66 63.37Q299.53 59.38 299.29 52.66L299.29 52.66Q299.18 50.59 299.46 47.71ZM305.58 51.36L305.58 51.36Q305.47 56.39 307.37 59.17Q309.27 61.95 312.93 62.02L312.93 62.02Q318.45 62.26 322.73 56.46L322.73 56.46L325.76 38.88Q323.65 33.68 318.09 33.54L318.09 33.54Q314.33 33.43 311.47 35.81Q308.60 38.18 307.11 42.45Q305.61 46.72 305.58 51.36ZM371.53 37.62L370.58 43.14L349.07 43.14L345.90 61.28L370.93 61.28L369.95 66.80L338.34 66.80L347.24 15.61L378.49 15.61L377.51 21.16L352.86 21.16L350.02 37.62L371.53 37.62ZM393.19 67.50L393.19 67.50Q386.09 67.36 382.08 62.26Q378.07 57.16 378.70 49.22L378.70 49.22L378.88 47.71Q379.48 42.05 382.24 37.37Q385.00 32.70 388.97 30.32Q392.94 27.95 397.55 28.05L397.55 28.05Q403.42 28.20 406.76 31.96Q410.10 35.72 410.41 42.15L410.41 42.15Q410.52 44.44 410.27 46.72L410.27 46.72L409.89 49.64L385.03 49.64Q384.40 54.81 386.74 58.43Q389.07 62.05 393.71 62.19L393.71 62.19Q399.34 62.33 404.12 57.13L404.12 57.13L407.78 60.22Q405.39 63.67 401.61 65.62Q397.83 67.57 393.19 67.50ZM397.23 33.36L397.23 33.36Q393.29 33.26 390.36 36.04Q387.42 38.81 385.70 44.30L385.70 44.30L404.19 44.33L404.33 43.77Q404.89 39.34 402.91 36.40Q400.92 33.47 397.23 33.36ZM444.23 66.80L437.06 46.09L425.25 46.09L421.66 66.80L415.02 66.80L423.91 15.61L439.31 15.64Q447.36 15.68 451.58 19.72Q455.80 23.77 455.13 30.73L455.13 30.73Q454.75 35.54 451.63 39.20Q448.52 42.86 443.36 44.72L443.36 44.72L451.30 66.34L451.27 66.80L444.23 66.80ZM429.57 21.16L426.20 40.57L435.90 40.61Q440.96 40.61 444.45 37.92Q447.93 35.23 448.52 30.73L448.52 30.73Q449.05 26.33 446.77 23.84Q444.48 21.34 439.80 21.20L439.80 21.20L429.57 21.16ZM481.78 28.51L481.08 34.56L478.09 34.24Q471.97 34.24 468.46 39.76L468.46 39.76L463.78 66.80L457.42 66.80L464.03 28.76L470.18 28.72L469.23 33.15Q473.27 27.84 478.76 27.98L478.76 27.98Q479.92 27.98 481.78 28.51L481.78 28.51ZM523.55 41.31L520.63 60.05Q518.06 63.67 513.16 65.62Q508.25 67.57 501.96 67.50L501.96 67.50Q496.93 67.39 493.17 65.14Q489.41 62.89 487.27 58.69Q485.12 54.49 484.80 49.15L484.80 49.15Q484.56 44.96 485.84 37.83Q487.13 30.69 490.32 25.49Q493.52 20.29 498.32 17.54Q503.12 14.80 509.31 14.91L509.31 14.91Q516.45 15.05 520.68 19.14Q524.92 23.24 525.52 30.66L525.52 30.66L518.98 30.66Q518.59 25.80 516.06 23.20Q513.53 20.60 509.06 20.46L509.06 20.46Q502.45 20.21 498.01 25.21Q493.56 30.20 492.15 39.80L492.15 39.80L491.48 44.72L491.38 47.39Q491.38 54.32 494.23 58.10Q497.07 61.88 502.21 61.95L502.21 61.95Q509.63 62.12 513.98 58.29L513.98 58.29L516.09 46.79L504.56 46.79L505.55 41.31L523.55 41.31ZM531.18 47.71L531.18 47.71Q532.02 41.48 534.53 36.90Q537.05 32.31 540.65 30.11Q544.25 27.91 548.54 28.02L548.54 28.02Q555.15 28.16 558.53 33.01L558.53 33.01L559.79 28.76L565.63 28.76L559.30 65.99Q558.28 73.27 553.39 77.64Q548.51 82.02 541.34 81.81L541.34 81.81Q537.47 81.74 533.94 79.98Q530.40 78.22 528.36 75.16L528.36 75.16L531.98 71.26Q535.43 76.36 541.09 76.50L541.09 76.50Q545.63 76.64 548.77 73.97Q551.92 71.30 552.94 66.38L552.94 66.38L553.64 63Q549 67.64 542.78 67.50L542.78 67.50Q539.23 67.39 536.61 65.58Q533.99 63.77 532.55 60.35Q531.11 56.92 530.96 52.70L530.96 52.70Q530.89 50.63 531.18 47.71ZM537.40 49.54L537.33 51.33Q537.22 56.36 539.07 59.12Q540.91 61.88 544.64 62.02L544.64 62.02Q550.34 62.16 554.45 56.43L554.45 56.43L557.44 38.95Q555.33 33.75 549.81 33.54L549.81 33.54Q544.64 33.40 541.32 37.76Q538.00 42.12 537.40 49.54L537.40 49.54Z"/></svg>