<svg xmlns="http://www.w3.org/2000/svg" xmlns:xlink="http://www.w3.org/1999/xlink" width="571.2890625" height="84.375"><path fill="#111111" d="M33.40 66.80L31.39 54.88L12.23 54.88L6.12 66.80L-3.23 66.80L24.40 15.61L32.20 15.61L42.12 66.80L33.40 66.80ZM26.75 26.54L15.89 47.71L30.23 47.71L26.75 26.54ZM78.26 66.80L70.00 66.80Q69.57 65.39 69.64 63.25L69.64 63.25Q64.93 67.64 59.48 67.50L59.48 67.50Q54.53 67.43 51.28 64.32Q48.02 61.21 48.23 56.43L48.23 56.43Q48.52 50.41 53.44 46.97Q58.36 43.52 66.66 43.52L66.66 43.52L72.07 43.59L72.56 40.99Q72.77 39.62 72.56 38.43L72.56 38.43Q71.86 34.63 67.54 34.52L67.54 34.52Q64.86 34.45 62.84 35.88Q60.82 37.30 60.36 39.69L60.36 39.69L52.03 39.76Q52.28 36.25 54.53 33.59Q56.78 30.94 60.50 29.46Q64.23 27.98 68.38 28.05L68.38 28.05Q74.60 28.20 78.08 31.80Q81.56 35.40 80.96 41.13L80.96 41.13L78.05 58.96L77.77 62.12Q77.66 64.20 78.29 66.16L78.29 66.16L78.26 66.80ZM61.42 60.68L61.42 60.68Q64.05 60.75 66.30 59.47Q68.55 58.18 70.14 56.14L70.14 56.14L71.44 48.94L67.46 48.90Q62.75 48.90 59.94 50.68Q57.13 52.45 56.74 55.55L56.74 55.55Q56.46 57.90 57.78 59.26Q59.10 60.61 61.42 60.68ZM105.12 66.80L86.34 66.80L95.24 15.61L110.95 15.64Q119.25 15.68 123.42 19.25Q127.58 22.82 127.09 29.14L127.09 29.14Q126.46 36.60 117.98 40.36L117.98 40.36Q121.15 41.48 122.87 44.47Q124.59 47.46 124.35 51.61L124.35 51.61Q123.86 58.64 118.71 62.72Q113.55 66.80 105.12 66.80L105.12 66.80ZM109.44 43.73L99.04 43.70L96.26 59.70L105.36 59.73Q109.48 59.73 112.36 57.55Q115.24 55.37 115.77 51.57L115.77 51.57Q116.26 47.95 114.68 45.91Q113.10 43.88 109.44 43.73L109.44 43.73ZM102.66 22.78L100.16 37.16L108.14 37.20Q112.43 37.20 115.14 35.16Q117.84 33.12 118.34 29.64L118.34 29.64Q119.21 23.06 111.69 22.82L111.69 22.82L102.66 22.78ZM165.62 47.95L165.62 47.95Q164.92 53.75 162.51 58.45Q160.10 63.14 156.53 65.39Q152.96 67.64 148.50 67.54L148.50 67.54Q142.14 67.39 138.90 62.65L138.90 62.65L137.57 66.80L129.94 66.80L139.29 12.80L147.66 12.80L143.86 32.45Q148.11 27.91 153.95 28.05L153.95 28.05Q159.47 28.20 162.58 32.10Q165.69 36 165.87 42.79L165.87 42.79Q165.90 44.89 165.62 47.95ZM157.61 43.24L157.61 43.24Q157.61 39.41 156.02 37.25Q154.44 35.09 151.45 35.02L151.45 35.02Q146.43 34.88 142.95 39.87L142.95 39.87L140.20 55.62Q141.75 60.40 146.85 60.57L146.85 60.57Q151.07 60.68 153.79 57.34Q156.52 54 157.29 47.92L157.29 47.92Q157.57 44.93 157.61 43.24ZM202.43 50.17L211.01 50.10Q209.71 58.11 203.80 62.88Q197.89 67.64 189.42 67.50L189.42 67.50Q184.54 67.39 180.86 65.18Q177.19 62.96 175.11 58.73Q173.04 54.49 172.79 49.15L172.79 49.15Q172.58 45.14 173.78 38.23Q174.97 31.32 178.37 25.84Q181.76 20.36 186.70 17.58Q191.64 14.80 197.68 14.91L197.68 14.91Q205.31 15.05 209.76 19.71Q214.21 24.36 214.49 32.55L214.49 32.55L205.88 32.55Q205.70 27.07 203.57 24.63Q201.45 22.18 197.26 22.08L197.26 22.08Q191.53 21.90 187.66 26.19Q183.80 30.48 182.46 38.67L182.46 38.67L181.76 43.35L181.44 46.93Q181.16 50.55 181.95 53.74Q182.74 56.92 184.75 58.59Q186.75 60.26 189.84 60.36L189.84 60.36Q199.65 60.75 202.43 50.17L202.43 50.17ZM232.14 60.71L232.14 60.71Q235.13 60.79 237.43 58.97Q239.73 57.16 240.36 54.25L240.36 54.25L248.24 54.21Q247.85 57.97 245.51 61.07Q243.18 64.16 239.52 65.88Q235.86 67.61 231.89 67.50L231.89 67.50Q227.00 67.43 223.56 64.97Q220.11 62.51 218.53 58.17Q216.95 53.82 217.48 48.48L217.48 48.48L217.58 47.25Q218.18 41.73 220.80 37.25Q223.42 32.77 227.57 30.34Q231.71 27.91 236.78 28.05L236.78 28.05Q242.96 28.20 246.66 32.15Q250.35 36.11 250.35 42.43L250.35 42.43L242.54 42.43Q242.54 39.16 240.94 37.09Q239.34 35.02 236.32 34.88L236.32 34.88Q231.43 34.73 228.62 39.02Q225.81 43.31 225.60 51.12L225.60 51.12Q225.35 60.57 232.14 60.71ZM268.10 66.80L253.27 66.80L262.13 15.61L275.98 15.64Q282.38 15.64 287.00 18.83Q291.62 22.01 293.70 27.62Q295.77 33.22 294.96 39.97L294.96 39.97L294.57 42.75Q293.52 49.82 289.92 55.28Q286.31 60.75 280.62 63.77Q274.92 66.80 268.10 66.80L268.10 66.80ZM276.08 22.82L269.58 22.78L263.18 59.70L268.31 59.73Q275.27 59.73 279.86 55.32Q284.45 50.91 285.75 43.14L285.75 43.14Q286.66 37.79 286.42 33.82L286.42 33.82Q286.10 28.72 283.45 25.84Q280.79 22.96 276.08 22.82L276.08 22.82ZM300.16 48.48L300.27 47.74Q300.97 41.87 303.43 37.20Q305.89 32.52 309.52 30.22Q313.14 27.91 317.57 28.02L317.57 28.02Q323.37 28.16 326.64 32.34L326.64 32.34L330.29 12.80L338.66 12.80L329.27 66.80L321.82 66.80L322.38 62.86Q317.95 67.68 311.98 67.54L311.98 67.54Q306.67 67.46 303.49 63.44Q300.30 59.41 300.06 52.73L300.06 52.73Q299.95 50.55 300.16 48.48L300.16 48.48ZM308.36 51.01L308.36 51.01Q308.11 55.37 309.71 57.94Q311.31 60.50 314.47 60.57L314.47 60.57Q319.29 60.71 322.80 55.90L322.80 55.90L325.65 39.55Q324 35.16 319.25 35.02L319.25 35.02Q314.47 34.88 311.55 39.23Q308.64 43.59 308.36 51.01ZM373.29 36.91L372.06 43.95L351.67 43.95L348.93 59.70L372.76 59.70L371.53 66.80L339.01 66.80L347.87 15.61L380.18 15.61L378.91 22.78L355.32 22.78L352.86 36.91L373.29 36.91ZM394.59 67.50L394.59 67.50Q389.64 67.39 386.00 65.00Q382.36 62.61 380.62 58.46Q378.88 54.32 379.30 49.22L379.30 49.22L379.41 47.78Q380.04 41.98 382.80 37.35Q385.56 32.73 389.67 30.34Q393.79 27.95 398.60 28.05L398.60 28.05Q405.74 28.20 409.31 33.36Q412.88 38.53 412.00 46.83L412.00 46.83L411.50 50.48L387.56 50.48Q387.25 55.02 389.39 57.80Q391.54 60.57 395.30 60.64L395.30 60.64Q400.68 60.82 405.21 55.97L405.21 55.97L409.43 60.40Q407.04 63.81 403.14 65.69Q399.23 67.57 394.59 67.50ZM398.14 34.88L398.14 34.88Q391.54 34.66 388.23 44.23L388.23 44.23L404.02 44.26L404.16 43.52Q404.40 41.91 404.19 40.36L404.19 40.36Q403.80 37.86 402.22 36.42Q400.64 34.98 398.14 34.88ZM444.45 66.80L437.91 47.07L428.13 47.07L424.69 66.80L416.00 66.80L424.90 15.61L441.04 15.64Q449.37 15.64 453.80 19.65Q458.23 23.66 457.63 30.80L457.63 30.80Q457.24 35.75 454.32 39.39Q451.41 43.03 446.13 45.11L446.13 45.11L453.69 66.27L453.66 66.80L444.45 66.80ZM432.32 22.78L429.33 39.94L437.73 40.01Q442.27 40.01 445.31 37.63Q448.35 35.26 448.88 31.18L448.88 31.18Q449.40 27.21 447.47 25.08Q445.54 22.96 441.60 22.82L441.60 22.82L432.32 22.78ZM484.98 28.51L484.03 36.56Q482.41 36.21 480.76 36.21L480.76 36.21Q475.28 36.07 472.04 40.75L472.04 40.75L467.47 66.80L459.14 66.80L465.71 28.76L473.63 28.72L472.78 33.05Q476.68 27.88 481.78 27.98L481.78 27.98Q482.94 27.98 484.98 28.51L484.98 28.51ZM527.52 40.54L524.53 60.15Q521.72 63.81 516.59 65.69Q511.45 67.57 505.13 67.50L505.13 67.50Q500.06 67.46 496.20 65.23Q492.33 63 490.06 58.73Q487.79 54.46 487.48 49.01L487.48 49.01Q487.23 44.79 488.36 38.25Q489.48 31.71 492.38 26.63Q495.28 21.55 499.43 18.67L499.43 18.67Q505.05 14.77 512.30 14.91L512.30 14.91Q520.00 15.05 524.34 19.34Q528.68 23.63 529.24 31.36L529.24 31.36L520.84 31.32Q520.07 22.29 512.09 22.04L512.09 22.04Q506.11 21.87 502.26 26.24Q498.41 30.62 497.00 38.88L497.00 38.88Q496.20 43.70 496.13 46.76L496.13 46.76Q495.91 53.05 498.43 56.67Q500.94 60.29 505.76 60.36L505.76 60.36Q511.91 60.50 515.88 57.30L515.88 57.30L517.78 47.29L507.52 47.29L508.71 40.54L527.52 40.54ZM533.81 47.74L533.81 47.74Q534.48 42.05 536.89 37.44Q539.30 32.84 542.95 30.39Q546.61 27.95 551.32 28.02L551.32 28.02Q557.58 28.16 560.78 32.63L560.78 32.63L562.08 28.72L569.67 28.76L563.38 65.74Q562.32 73.20 557.10 77.61Q551.88 82.02 544.39 81.81L544.39 81.81Q540.39 81.74 536.80 79.98Q533.21 78.22 531.04 75.34L531.04 75.34L535.46 70.31Q538.80 74.92 544.18 75.06L544.18 75.06Q548.26 75.20 551.20 72.83Q554.13 70.45 555.12 66.06L555.12 66.06L555.71 63.39Q551.32 67.64 545.73 67.50L545.73 67.50Q540.39 67.43 537.17 63.46Q533.95 59.48 533.64 52.77L533.64 52.77Q533.53 50.66 533.81 47.74ZM542.14 47.74L542.07 48.48Q541.86 50.27 541.93 52.35L541.93 52.35Q542.00 56.07 543.62 58.25Q545.24 60.43 548.23 60.54L548.23 60.54Q552.97 60.71 556.52 56.14L556.52 56.14L559.51 39.34Q557.68 35.16 553.01 35.02L553.01 35.02Q548.79 34.91 545.91 38.29Q543.02 41.66 542.14 47.74L542.14 47.74Z"/></svg>