<svg xmlns="http://www.w3.org/2000/svg" xmlns:xlink="http://www.w3.org/1999/xlink" width="558" height="84.375"><path fill="#111111" d="M34.95 66.80L32.03 51.50L7.77 51.50L-0.42 66.80L-2.53 66.80L24.82 15.64L27.11 15.61L36.95 66.80L34.95 66.80ZM25.73 18L8.75 49.61L31.64 49.61L25.73 18ZM70.59 66.80L68.41 66.80Q68.31 63.70 69.08 59.84L69.08 59.84Q66.13 63.46 62.07 65.50Q58.01 67.54 53.26 67.50L53.26 67.50Q48.48 67.50 45.63 64.55Q42.79 61.59 43.49 57.16L43.49 57.16Q44.37 51.79 49.45 48.76Q54.53 45.74 62.33 45.56L62.33 45.56L71.37 45.56L72.39 40.01Q73.13 35.33 70.52 32.64Q67.92 29.95 63.04 29.95L63.04 29.95Q58.25 29.95 54.39 32.50Q50.52 35.05 49.54 39.20L49.54 39.20L47.64 39.13Q48.62 34.24 53.05 31.15Q57.48 28.05 63.04 28.05L63.04 28.05Q68.84 28.05 71.93 31.34Q75.02 34.63 74.21 40.08L74.21 40.08L70.73 60.40L70.49 62.79Q70.31 64.65 70.63 66.48L70.63 66.48L70.59 66.80ZM53.23 65.64L53.23 65.64Q57.94 65.71 62.19 63.37Q66.45 61.03 69.43 56.53L69.43 56.53L71.05 47.50L62.54 47.50Q55.44 47.64 50.82 50.22Q46.20 52.80 45.35 57.30L45.35 57.30Q44.72 60.79 47.02 63.18Q49.32 65.57 53.23 65.64ZM98.37 66.80L82.41 66.80L91.30 15.61L104.20 15.61Q111.80 15.68 115.58 19.16Q119.36 22.64 118.37 28.72L118.37 28.72Q117.60 33.22 114.82 36.26Q112.04 39.30 107.61 40.36L107.61 40.36Q112.11 41.13 114.64 44.65Q117.18 48.16 116.47 52.70L116.47 52.70Q115.45 59.13 110.50 62.96Q105.54 66.80 98.37 66.80L98.37 66.80ZM103.01 41.52L88.70 41.52L84.66 64.90L98.33 64.90Q104.77 64.90 109.14 61.63Q113.52 58.36 114.57 52.77L114.57 52.77Q115.49 47.78 112.24 44.65Q108.98 41.52 103.01 41.52L103.01 41.52ZM92.88 17.51L89.02 39.62L100.16 39.62Q107.05 39.62 111.25 36.79Q115.45 33.96 116.47 28.58L116.47 28.58Q117.42 23.45 114.33 20.57Q111.23 17.68 104.52 17.51L104.52 17.51L92.88 17.51ZM138.38 67.50L138.38 67.50Q134.44 67.50 131.40 65.78Q128.36 64.05 126.88 60.79L126.88 60.79L125.79 66.80L123.89 66.80L133.21 12.80L135.11 12.80L131.03 35.68Q133.66 31.99 137.20 30.02Q140.73 28.05 144.81 28.05L144.81 28.05Q148.50 28.05 151.10 29.88Q153.70 31.71 154.92 35.24Q156.13 38.78 155.99 43.07L155.99 43.07Q155.88 45.32 155.57 47.39L155.57 47.39L155.11 49.71Q153.28 57.97 148.85 62.74Q144.42 67.50 138.38 67.50ZM153.46 48.13L153.60 47.39L154.02 43.63Q154.30 39.80 153.37 36.53Q152.44 33.26 150.24 31.61Q148.04 29.95 144.84 29.95L144.84 29.95Q140.17 29.95 136.04 32.77Q131.91 35.58 130.50 39.73L130.50 39.73L127.37 57.16Q128.21 61.24 131.15 63.42Q134.09 65.60 138.38 65.60L138.38 65.60Q144.04 65.60 147.97 60.94Q151.91 56.29 153.46 48.13L153.46 48.13ZM198.07 51.15L199.97 51.15Q197.86 58.75 192.53 63.12Q187.21 67.50 179.61 67.50L179.61 67.50Q175.15 67.50 171.83 65.39Q168.50 63.28 166.73 59.27Q164.95 55.27 164.95 50.31L164.95 50.31Q164.92 47.53 165.38 44.82L165.38 44.82L166.54 37.97Q168.26 27.81 174.16 21.36Q180.07 14.91 188.37 14.91L188.37 14.91Q195.71 14.91 199.76 19.25Q203.80 23.59 203.45 31.22L203.45 31.22L201.59 31.22Q201.87 24.43 198.42 20.62Q194.98 16.80 188.40 16.80L188.40 16.80Q183.76 16.80 179.70 19.27Q175.64 21.73 172.62 26.60Q169.59 31.46 168.50 37.69L168.50 37.69L167.20 45.04Q166.82 47.36 166.82 49.75L166.82 49.75Q166.75 54.35 168.24 58.03Q169.73 61.70 172.65 63.65Q175.57 65.60 179.58 65.60L179.58 65.60Q186.47 65.60 191.21 61.80Q195.96 58.01 198.07 51.15L198.07 51.15ZM221.03 65.60L221.03 65.60Q226.02 65.60 229.69 62.75Q233.37 59.91 234.60 55.30L234.60 55.30L236.50 55.30Q235.23 60.75 230.98 64.13Q226.72 67.50 221.06 67.50L221.06 67.50Q215.82 67.50 212.57 64.25Q209.32 61.00 208.65 55.23L208.65 55.23Q208.27 51.89 208.76 48.52L208.76 48.52L208.97 47.04Q209.88 41.45 212.47 37.02Q215.05 32.59 218.72 30.32Q222.40 28.05 226.83 28.05L226.83 28.05Q232.56 28.05 235.85 31.78Q239.13 35.51 238.71 41.31L238.71 41.31L236.81 41.31Q237.27 36.25 234.47 33.10Q231.68 29.95 226.86 29.95L226.86 29.95Q220.22 29.95 215.82 35.38Q211.43 40.82 210.48 49.92L210.48 49.92L210.34 52.49Q210.34 58.68 213.12 62.14Q215.89 65.60 221.03 65.60ZM258.86 66.80L244.83 66.80L253.72 15.61L267.33 15.61Q272.11 15.68 275.87 17.75Q279.63 19.83 281.85 23.70Q284.06 27.56 284.38 32.38L284.38 32.38Q284.55 35.33 284.06 38.29L284.06 38.29L283.11 43.95Q282.02 50.38 278.54 55.62Q275.06 60.86 269.89 63.81Q264.73 66.76 258.86 66.80L258.86 66.80ZM267.43 17.51L255.30 17.51L247.08 64.90L258.29 64.90Q266.73 64.90 273.15 58.97Q279.56 53.05 281.25 43.56L281.25 43.56L282.23 37.97Q282.90 34.07 282.27 30.41L282.27 30.41Q281.18 24.54 277.21 21.08Q273.23 17.61 267.43 17.51L267.43 17.51ZM291.66 47.39L291.66 47.39Q292.64 41.66 295.12 37.13Q297.60 32.59 301.11 30.32Q304.63 28.05 308.78 28.05L308.78 28.05Q312.79 28.05 315.76 30.06Q318.73 32.06 320.06 35.75L320.06 35.75L324.07 12.80L325.97 12.80L316.65 66.80L314.75 66.80L315.95 60.71Q313.42 63.91 309.90 65.71Q306.39 67.50 302.24 67.50L302.24 67.50Q298.51 67.50 295.98 65.65Q293.45 63.81 292.24 60.24Q291.02 56.67 291.16 52.38L291.16 52.38Q291.23 50.38 291.66 47.39ZM293.10 51.86L293.10 51.86Q292.82 55.72 293.70 58.96Q294.57 62.19 296.74 63.90Q298.90 65.60 302.17 65.60L302.17 65.60Q306.74 65.64 310.38 63.42Q314.02 61.21 316.34 57.38L316.34 57.38L319.50 39.55Q318.76 34.98 315.97 32.47Q313.17 29.95 308.78 29.95L308.78 29.95Q304.31 29.95 300.83 32.92Q297.35 35.89 295.38 41.17Q293.41 46.44 293.10 51.86ZM360.95 39.52L360.70 41.41L335.78 41.41L331.70 64.90L360.04 64.90L359.75 66.80L329.45 66.80L338.34 15.61L368.58 15.61L368.30 17.51L339.93 17.51L336.09 39.52L360.95 39.52ZM381.87 67.50L381.87 67.50Q377.30 67.50 373.99 64.93Q370.69 62.37 369.23 57.92Q367.77 53.47 368.47 48.59L368.47 48.59L368.75 46.83Q369.60 41.70 372.36 37.23Q375.12 32.77 378.91 30.41Q382.71 28.05 387.04 28.05L387.04 28.05Q392.80 28.05 396.07 32.31Q399.34 36.56 398.85 43.21L398.85 43.21L398.74 44.30L398.43 46.51L370.79 46.51L370.41 48.59Q369.91 51.54 370.37 54.56L370.37 54.56Q371.14 59.59 374.22 62.60Q377.30 65.60 381.83 65.64L381.83 65.64Q388.41 65.71 393.68 60.43L393.68 60.43L394.95 61.42Q389.74 67.50 381.87 67.50ZM387.04 29.95L387.04 29.95Q381.62 29.95 377.35 34.01Q373.08 38.07 371.00 44.61L371.00 44.61L396.67 44.61L396.77 44.16Q397.23 41.63 396.84 39.09L396.84 39.09Q396.21 34.95 393.56 32.45Q390.90 29.95 387.04 29.95ZM436.64 66.80L427.22 44.89L409.99 44.89L406.20 66.80L404.33 66.80L413.16 15.61L428.84 15.61Q433.48 15.64 436.94 17.53Q440.40 19.41 441.95 22.75Q443.50 26.09 442.79 30.38L442.79 30.38Q441.91 35.58 438.17 39.43Q434.43 43.28 429.19 44.44L429.19 44.44L438.64 66.30L438.57 66.80L436.64 66.80ZM414.74 17.51L410.31 43.00L425.36 43.00Q431.16 43.00 435.50 39.45Q439.84 35.89 440.89 30.38L440.89 30.38Q441.95 24.57 438.47 21.04Q434.99 17.51 428.27 17.51L428.27 17.51L414.74 17.51ZM472.71 28.48L472.25 30.09L469.97 29.92Q465.26 29.92 461.21 33.40Q457.17 36.88 455.80 41.87L455.80 41.87L451.48 66.80L449.58 66.80L456.12 28.76L458.02 28.76L456.54 36.67Q458.93 32.59 462.38 30.32Q465.82 28.05 470.04 28.05L470.04 28.05Q471.38 28.05 472.71 28.48L472.71 28.48ZM513.28 43.59L510.26 61.31Q507.69 64.23 502.95 65.87Q498.20 67.50 492.33 67.50L492.33 67.50Q485.37 67.50 481.11 62.86Q476.86 58.22 476.54 50.45L476.54 50.45Q476.44 47.67 476.89 45L476.89 45L478.30 36.84Q479.39 30.55 482.63 25.49Q485.86 20.43 490.50 17.67Q495.14 14.91 500.52 14.91L500.52 14.91Q507.48 14.91 511.65 18.84Q515.81 22.78 515.67 29.46L515.67 29.46L513.81 29.46Q513.81 23.41 510.22 20.11Q506.64 16.80 500.52 16.80L500.52 16.80Q493.00 16.80 487.37 22.50Q481.75 28.20 480.16 37.18Q478.58 46.16 478.49 47.43Q478.41 48.69 478.44 49.92L478.44 49.92Q478.55 57.06 482.24 61.33Q485.93 65.60 492.29 65.60L492.29 65.60Q497.29 65.60 501.49 64.28Q505.69 62.96 508.39 60.43L508.39 60.43L511.03 45.53L495.91 45.53L496.16 43.59L513.28 43.59ZM523.16 47.39L523.16 47.39Q524.14 41.66 526.62 37.13Q529.10 32.59 532.62 30.32Q536.13 28.05 540.28 28.05L540.28 28.05Q544.39 28.05 547.33 30.11Q550.27 32.17 551.53 35.72L551.53 35.72L552.80 28.76L554.70 28.76L548.40 65.46Q547.07 73.30 542.55 77.71Q538.03 82.13 531.70 82.13L531.70 82.13Q524.50 82.13 520.52 75.66L520.52 75.66L521.96 74.46Q525.59 80.26 531.60 80.26L531.60 80.26Q537.08 80.26 541.04 76.55Q544.99 72.84 546.33 66.09L546.33 66.09L547.38 60.79Q544.85 63.98 541.35 65.74Q537.86 67.50 533.74 67.50L533.74 67.50Q530.02 67.50 527.48 65.65Q524.95 63.81 523.74 60.24Q522.53 56.67 522.67 52.38L522.67 52.38Q522.74 50.38 523.16 47.39ZM524.57 51.86L524.57 51.86Q524.11 58.25 526.48 61.93Q528.86 65.60 533.67 65.60L533.67 65.60Q538.21 65.60 541.86 63.37Q545.52 61.14 547.84 57.09L547.84 57.09L550.93 39.83Q550.23 35.02 547.47 32.48Q544.71 29.95 540.28 29.95L540.28 29.95Q535.78 29.95 532.27 32.98Q528.75 36 526.82 41.27Q524.88 46.55 524.57 51.86Z"/></svg>