<svg xmlns="http://www.w3.org/2000/svg" xmlns:xlink="http://www.w3.org/1999/xlink" width="573.9609375" height="84.375"><path fill="#111111" d="M32.45 66.80L30.83 56.25L12.97 56.25L7.70 66.80L-3.66 66.80L23.70 15.61L33.22 15.61L42.96 66.80L32.45 66.80ZM26.65 28.65L17.19 47.71L29.53 47.71L26.65 28.65ZM79.21 66.80L69.47 66.80Q69.01 65.36 69.08 63.35L69.08 63.35Q64.79 67.64 59.38 67.50L59.38 67.50Q54.39 67.43 51.10 64.25Q47.81 61.07 48.02 56.39L48.02 56.39Q48.27 50.17 53.24 46.85Q58.22 43.52 66.59 43.52L66.59 43.52L71.23 43.59L71.72 41.31Q71.93 40.15 71.82 39.09L71.82 39.09Q71.65 37.44 70.58 36.51Q69.50 35.58 67.75 35.54L67.75 35.54Q65.43 35.47 63.81 36.69Q62.19 37.90 61.73 40.18L61.73 40.18L51.79 40.22Q52.03 34.77 56.79 31.38Q61.56 27.98 68.55 28.05L68.55 28.05Q75.02 28.20 78.68 31.90Q82.34 35.61 81.74 41.45L81.74 41.45L78.82 59.66L78.64 61.91Q78.57 64.41 79.24 66.13L79.24 66.13L79.21 66.80ZM61.84 59.80L61.84 59.80Q66.13 59.94 69.33 56.07L69.33 56.07L70.56 49.50L67.11 49.46Q61.63 49.61 59.20 52.80L59.20 52.80Q58.32 53.96 58.11 55.65L58.11 55.65Q57.83 57.55 58.90 58.66Q59.98 59.77 61.84 59.80ZM105.54 66.80L85.89 66.80L94.78 15.61L110.74 15.64Q119.64 15.68 124.10 19.27Q128.57 22.85 128.14 29.36L128.14 29.36Q127.65 37.13 119.18 40.71L119.18 40.71Q122.24 41.77 123.93 44.67Q125.61 47.57 125.37 51.50L125.37 51.50Q124.88 58.75 119.69 62.77Q114.50 66.80 105.54 66.80L105.54 66.80ZM109.79 44.54L100.09 44.51L97.66 58.32L105.79 58.36Q109.58 58.36 112.15 56.48Q114.71 54.60 115.21 51.40L115.21 51.40Q115.70 48.23 114.35 46.46Q112.99 44.68 109.79 44.54L109.79 44.54ZM103.61 24.15L101.36 37.05L108.35 37.13Q112.25 37.05 114.73 35.30Q117.21 33.54 117.70 30.41L117.70 30.41Q118.58 24.22 111.20 24.19L111.20 24.19L103.61 24.15ZM166.75 47.88L166.75 47.88Q165.69 56.88 161.26 62.30Q156.83 67.71 149.80 67.54L149.80 67.54Q143.79 67.39 140.66 62.68L140.66 62.68L139.22 66.80L130.18 66.80L139.54 12.80L149.48 12.80L145.65 32.24Q149.66 27.91 154.93 28.05L154.93 28.05Q160.45 28.13 163.60 32.01Q166.75 35.89 166.96 42.75L166.96 42.75Q167.03 44.93 166.75 47.88ZM156.69 48.69L156.90 47.14Q157.22 44.16 157.11 42.50L157.11 42.50Q156.73 36.39 152.05 36.28L152.05 36.28Q147.66 36.14 144.77 40.25L144.77 40.25L142.03 55.37Q143.37 59.17 147.73 59.31L147.73 59.31Q155.04 59.52 156.69 48.69L156.69 48.69ZM201.97 49.78L212.20 49.71Q211.61 55.02 208.58 59.12Q205.56 63.21 200.71 65.41Q195.86 67.61 190.23 67.50L190.23 67.50Q185.17 67.39 181.41 65.16Q177.64 62.93 175.48 58.69Q173.32 54.46 173.04 48.94L173.04 48.94Q172.79 44.61 173.94 38.18Q175.08 31.75 178.01 26.75Q180.95 21.76 184.99 18.84L184.99 18.84Q190.69 14.77 198 14.91L198 14.91Q205.95 15.05 210.60 19.81Q215.26 24.57 215.72 33.05L215.72 33.05L205.45 33.01Q205.45 28.16 203.52 25.91Q201.59 23.66 197.51 23.52L197.51 23.52Q192.23 23.34 188.84 27.28Q185.45 31.22 184.29 38.78L184.29 38.78Q183.16 46.13 183.30 49.78L183.30 49.78Q183.48 54.42 185.38 56.62Q187.28 58.82 190.69 58.92L190.69 58.92Q195.40 59.10 198.23 56.69Q201.06 54.28 201.97 49.78L201.97 49.78ZM232.56 59.34L232.56 59.34Q235.30 59.41 237.13 57.85Q238.96 56.29 239.52 53.68L239.52 53.68L248.84 53.65Q248.59 57.66 246.32 60.86Q244.05 64.05 240.28 65.85Q236.50 67.64 232.31 67.54L232.31 67.54Q225.39 67.43 221.34 62.75Q217.30 58.08 217.44 50.31L217.44 50.31L217.55 48.38L217.58 47.99Q218.53 38.71 223.84 33.28Q229.15 27.84 236.95 28.05L236.95 28.05Q243.39 28.20 247.17 32.26Q250.95 36.32 250.88 42.96L250.88 42.96L241.63 42.96Q241.63 39.90 240.29 38.14Q238.96 36.39 236.29 36.25L236.29 36.25Q229.18 36.04 227.67 46.62L227.67 46.62Q227.14 50.45 227.29 53.09L227.29 53.09Q227.64 59.24 232.56 59.34ZM269.12 66.80L253.30 66.80L262.20 15.61L276.89 15.64Q282.06 15.75 286.19 17.98Q290.32 20.21 292.89 24.40Q295.45 28.58 295.98 33.82L295.98 33.82Q296.26 36.88 295.91 40.08L295.91 40.08L295.66 41.94Q294.12 53.19 286.82 59.99Q279.53 66.80 269.12 66.80L269.12 66.80ZM276.64 24.19L271.02 24.15L265.08 58.32L269.37 58.36Q276.47 58.36 280.78 53.16Q285.08 47.95 285.71 37.44L285.71 37.44L285.79 36.32Q285.89 30.52 283.57 27.42Q281.25 24.33 276.64 24.19L276.64 24.19ZM317.29 28.02L317.29 28.02Q322.59 28.16 325.86 32.27L325.86 32.27L329.59 12.80L339.54 12.80L330.19 66.80L321.33 66.80L321.89 62.72Q317.64 67.68 311.98 67.54L311.98 67.54Q308.43 67.50 305.75 65.67Q303.08 63.84 301.62 60.42Q300.16 56.99 300.02 52.77L300.02 52.77Q299.92 50.55 300.13 48.48L300.13 48.48L300.34 46.90Q301.18 41.06 303.59 36.63Q306 32.20 309.50 30.06Q313.00 27.91 317.29 28.02ZM310.08 48.48L310.08 48.48Q309.80 51.15 309.90 52.98L309.90 52.98Q310.25 59.17 314.89 59.27L314.89 59.27Q319.08 59.45 322.17 55.34L322.17 55.34L324.88 40.22Q323.51 36.46 319.39 36.28L319.39 36.28Q315.77 36.18 313.37 39.08Q310.96 41.98 310.08 48.48ZM373.99 36.35L372.52 44.61L352.90 44.61L350.51 58.32L373.57 58.32L372.09 66.80L338.73 66.80L347.63 15.61L380.92 15.61L379.41 24.15L356.45 24.15L354.30 36.35L373.99 36.35ZM395.12 67.50L395.12 67.50Q390.13 67.46 386.28 65.06Q382.43 62.65 380.53 58.45Q378.63 54.25 379.05 49.18L379.05 49.18L379.16 47.78Q379.69 42.22 382.39 37.58Q385.10 32.94 389.36 30.43Q393.61 27.91 398.78 28.05L398.78 28.05Q406.13 28.20 409.90 33.45Q413.68 38.71 412.77 46.76L412.77 46.76L412.21 51.08L388.90 51.08Q388.76 54.77 390.69 56.99Q392.63 59.20 395.96 59.27L395.96 59.27Q401.38 59.41 405.46 55.09L405.46 55.09L409.99 60.71Q407.85 63.95 403.80 65.76Q399.76 67.57 395.12 67.50ZM398.29 36.25L398.29 36.25Q395.54 36.18 393.42 37.97Q391.29 39.76 389.60 44.19L389.60 44.19L403.24 44.19L403.45 43.28Q403.66 41.87 403.49 40.61L403.49 40.61Q403.14 38.57 401.77 37.42Q400.39 36.28 398.29 36.25ZM443.78 66.80L437.73 48.06L429.36 48.06L426.09 66.80L415.79 66.80L424.69 15.61L441.63 15.64Q450.14 15.64 454.73 19.65Q459.32 23.66 458.79 30.80L458.79 30.80Q458.05 41.34 447.54 45.46L447.54 45.46L454.75 66.23L454.75 66.80L443.78 66.80ZM433.51 24.15L430.84 39.52L438.50 39.59Q442.58 39.52 445.24 37.39Q447.89 35.26 448.42 31.61L448.42 31.61Q448.91 28.20 447.33 26.26Q445.75 24.33 442.30 24.19L442.30 24.19L433.51 24.15ZM487.41 28.48L486.14 38.29Q484.10 37.93 482.80 37.93L482.80 37.93Q477.49 37.79 474.40 41.91L474.40 41.91L470.00 66.80L460.09 66.80L466.70 28.76L476.02 28.72L475.10 33.36Q478.69 27.98 483.96 27.98L483.96 27.98Q485.44 27.98 487.41 28.48L487.41 28.48ZM530.68 39.90L527.59 60.33Q524.85 63.81 519.56 65.69Q514.27 67.57 507.62 67.46L507.62 67.46Q502.38 67.43 498.41 65.16Q494.44 62.89 492.15 58.64Q489.87 54.39 489.55 48.94L489.55 48.94Q489.20 43.88 490.62 37.04Q492.05 30.20 495.51 25.05Q498.97 19.90 503.82 17.35Q508.68 14.80 514.58 14.91L514.58 14.91Q522.60 15.05 527.13 19.42Q531.67 23.80 532.30 31.96L532.30 31.96L522.39 31.92Q522 27.63 520.10 25.59Q518.20 23.55 514.44 23.41L514.44 23.41Q507.94 23.20 504.19 29.13Q500.45 35.05 499.92 46.30L499.92 46.30Q499.57 52.31 501.77 55.62Q503.96 58.92 508.46 58.99L508.46 58.99Q513.70 59.13 517.39 56.50L517.39 56.50L519.12 47.67L509.77 47.67L511.14 39.90L530.68 39.90ZM535.75 47.74L535.75 47.74Q536.80 38.92 541.49 33.42Q546.19 27.91 553.32 28.02L553.32 28.02Q559.41 28.16 562.39 32.41L562.39 32.41L563.70 28.72L572.80 28.76L566.58 65.50Q565.56 73.09 560.11 77.52Q554.66 81.95 546.61 81.81L546.61 81.81Q542.67 81.74 539.09 80.10Q535.50 78.47 533.18 75.62L533.18 75.62L538.10 69.57Q541.41 73.76 546.40 73.90L546.40 73.90Q550.27 74.04 553.01 71.88Q555.75 69.71 556.73 65.78L556.73 65.78L557.30 63.49Q553.15 67.64 547.98 67.50L547.98 67.50Q542.43 67.43 539.16 63.37Q535.89 59.31 535.57 52.80L535.57 52.80Q535.46 50.66 535.75 47.74ZM545.48 51.89L545.48 51.89Q545.48 55.20 546.87 57.18Q548.26 59.17 550.90 59.27L550.90 59.27Q554.94 59.41 558.07 55.83L558.07 55.83L561.02 39.73Q559.51 36.42 555.43 36.28L555.43 36.28Q551.64 36.18 549 39.34Q546.36 42.50 545.70 47.74L545.70 47.74Q545.45 50.31 545.48 51.89Z"/></svg>