<svg xmlns="http://www.w3.org/2000/svg" xmlns:xlink="http://www.w3.org/1999/xlink" width="589.5" height="84.375"><path fill="#111111" d="M35.93 66.80L32.94 57.23L16.03 57.23L13.08 66.80L-0.11 66.80L18.67 15.61L30.27 15.61L49.18 66.80L35.93 66.80ZM24.47 29.95L18.98 47.71L29.99 47.71L24.47 29.95ZM85.64 66.80L73.79 66.80Q73.16 65.64 72.67 63.39L72.67 63.39Q69.40 67.50 63.53 67.50L63.53 67.50Q58.15 67.50 54.39 64.25Q50.63 61.00 50.63 56.07L50.63 56.07Q50.63 49.89 55.20 46.72Q59.77 43.56 68.48 43.56L68.48 43.56L72.14 43.56L72.14 41.55Q72.14 36.32 67.61 36.32L67.61 36.32Q63.39 36.32 63.39 40.46L63.39 40.46L51.54 40.46Q51.54 34.95 56.23 31.50Q60.93 28.05 68.20 28.05Q75.48 28.05 79.70 31.61Q83.92 35.16 84.02 41.34L84.02 41.34L84.02 58.18Q84.09 63.42 85.64 66.20L85.64 66.20L85.64 66.80ZM66.38 59.06L66.38 59.06Q68.59 59.06 70.05 58.11Q71.51 57.16 72.14 55.97L72.14 55.97L72.14 49.89L68.70 49.89Q62.51 49.89 62.51 55.44L62.51 55.44Q62.51 57.06 63.60 58.06Q64.69 59.06 66.38 59.06ZM111.90 66.80L91.13 66.80L91.13 15.61L109.51 15.61Q119.39 15.61 124.54 19.23Q129.69 22.85 129.69 29.74L129.69 29.74Q129.69 33.71 127.86 36.53Q126.04 39.34 122.48 40.68L122.48 40.68Q126.49 41.73 128.64 44.61Q130.78 47.50 130.78 51.64L130.78 51.64Q130.78 59.17 126.02 62.95Q121.25 66.73 111.90 66.80L111.90 66.80ZM112.11 45.04L103.46 45.04L103.46 57.30L111.55 57.30Q114.89 57.30 116.68 55.78Q118.48 54.25 118.48 51.47L118.48 51.47Q118.48 45.07 112.11 45.04L112.11 45.04ZM103.46 25.14L103.46 36.95L109.90 36.95Q113.94 36.91 115.66 35.47Q117.39 34.03 117.39 31.22L117.39 31.22Q117.39 27.98 115.52 26.56Q113.66 25.14 109.51 25.14L109.51 25.14L103.46 25.14ZM172.34 47.50L172.34 48.09Q172.34 57.45 168.47 62.47Q164.60 67.50 157.57 67.50L157.57 67.50Q151.77 67.50 148.22 62.89L148.22 62.89L147.73 66.80L137.11 66.80L137.11 12.80L148.96 12.80L148.96 31.82Q152.26 28.05 157.50 28.05L157.50 28.05Q164.60 28.05 168.47 33.15Q172.34 38.25 172.34 47.50L172.34 47.50ZM160.45 47.36L160.45 47.36Q160.45 41.87 158.99 39.53Q157.54 37.20 154.51 37.20L154.51 37.20Q150.50 37.20 148.96 40.25L148.96 40.25L148.96 55.37Q150.47 58.39 154.58 58.39L154.58 58.39Q158.77 58.39 159.89 54.32L159.89 54.32Q160.45 52.31 160.45 47.36ZM207.25 49.46L219.52 49.46Q219.27 54.81 216.63 58.90Q214.00 63 209.23 65.25Q204.47 67.50 198.35 67.50L198.35 67.50Q188.26 67.50 182.46 60.93Q176.66 54.35 176.66 42.36L176.66 42.36L176.66 39.83Q176.66 32.31 179.28 26.67Q181.90 21.02 186.82 17.95Q191.74 14.87 198.21 14.87L198.21 14.87Q207.53 14.87 213.19 19.78Q218.85 24.68 219.62 33.29L219.62 33.29L207.32 33.29Q207.18 28.62 204.96 26.58Q202.75 24.54 198.21 24.54L198.21 24.54Q193.61 24.54 191.46 27.98Q189.32 31.43 189.21 38.99L189.21 38.99L189.21 42.61Q189.21 50.80 191.27 54.32Q193.32 57.83 198.35 57.83L198.35 57.83Q202.61 57.83 204.86 55.83Q207.11 53.82 207.25 49.46L207.25 49.46ZM240.89 58.36L240.89 58.36Q243.39 58.36 244.76 57.01Q246.13 55.65 246.09 53.23L246.09 53.23L257.20 53.23Q257.20 59.48 252.72 63.49Q248.24 67.50 241.17 67.50L241.17 67.50Q232.88 67.50 228.09 62.30Q223.31 57.09 223.31 47.88L223.31 47.88L223.31 47.39Q223.31 41.63 225.44 37.21Q227.57 32.80 231.57 30.43Q235.58 28.05 241.07 28.05L241.07 28.05Q248.48 28.05 252.84 32.17Q257.20 36.28 257.20 43.31L257.20 43.31L246.09 43.31Q246.09 40.36 244.65 38.78Q243.21 37.20 240.79 37.20L240.79 37.20Q236.18 37.20 235.41 43.07L235.41 43.07Q235.16 44.93 235.16 48.20L235.16 48.20Q235.16 53.93 236.53 56.14Q237.90 58.36 240.89 58.36ZM279.60 66.80L262.76 66.80L262.76 15.61L279.25 15.61Q286.03 15.61 291.45 18.69Q296.86 21.76 299.90 27.37Q302.94 32.98 302.98 39.94L302.98 39.94L302.98 42.29Q302.98 49.32 300.01 54.90Q297.04 60.47 291.64 63.62Q286.24 66.76 279.60 66.80L279.60 66.80ZM279.25 25.14L275.10 25.14L275.10 57.30L279.39 57.30Q284.70 57.30 287.54 53.53Q290.39 49.75 290.39 42.29L290.39 42.29L290.39 40.08Q290.39 32.66 287.54 28.90Q284.70 25.14 279.25 25.14L279.25 25.14ZM307.27 47.50L307.27 47.50Q307.27 38.46 311.17 33.26Q315.07 28.05 322.07 28.05L322.07 28.05Q327.16 28.05 330.64 32.06L330.64 32.06L330.64 12.80L342.53 12.80L342.53 66.80L331.88 66.80L331.28 62.72Q327.62 67.50 322.00 67.50L322.00 67.50Q315.21 67.50 311.24 62.30Q307.27 57.09 307.27 47.50ZM319.15 46.05L319.11 48.23Q319.11 58.36 325.02 58.36L325.02 58.36Q328.96 58.36 330.64 55.05L330.64 55.05L330.64 40.57Q329.03 37.20 325.09 37.20L325.09 37.20Q319.61 37.20 319.15 46.05L319.15 46.05ZM381.55 35.93L381.55 45.11L362.14 45.11L362.14 57.30L385.07 57.30L385.07 66.80L349.80 66.80L349.80 15.61L385.14 15.61L385.14 25.14L362.14 25.14L362.14 35.93L381.55 35.93ZM407.29 67.50L407.29 67.50Q398.53 67.50 393.12 62.28Q387.70 57.06 387.70 48.69L387.70 48.69L387.70 47.71Q387.70 41.87 389.87 37.41Q392.03 32.94 396.18 30.50Q400.32 28.05 406.02 28.05L406.02 28.05Q414.04 28.05 418.68 33.03Q423.32 38.00 423.32 46.90L423.32 46.90L423.32 51.50L399.76 51.50Q400.39 54.70 402.54 56.53Q404.68 58.36 408.09 58.36L408.09 58.36Q413.72 58.36 416.88 54.42L416.88 54.42L422.30 60.82Q420.08 63.88 416.02 65.69Q411.96 67.50 407.29 67.50ZM405.95 37.20L405.95 37.20Q400.75 37.20 399.76 44.09L399.76 44.09L411.71 44.09L411.71 43.17Q411.79 40.32 410.27 38.76Q408.76 37.20 405.95 37.20ZM456.68 66.80L447.64 48.73L440.96 48.73L440.96 66.80L428.63 66.80L428.63 15.61L448.77 15.61Q457.88 15.61 463.01 19.65Q468.14 23.70 468.14 31.08L468.14 31.08Q468.14 36.42 465.98 39.94Q463.82 43.45 459.21 45.63L459.21 45.63L469.90 66.27L469.90 66.80L456.68 66.80ZM440.96 25.14L440.96 39.20L448.77 39.20Q452.29 39.20 454.06 37.35Q455.84 35.51 455.84 32.20Q455.84 28.90 454.04 27.02Q452.25 25.14 448.77 25.14L448.77 25.14L440.96 25.14ZM498.27 28.48L498.06 39.48L494.16 39.20Q488.57 39.20 486.98 42.71L486.98 42.71L486.98 66.80L475.14 66.80L475.14 28.76L486.25 28.76L486.63 33.64Q489.62 28.05 494.96 28.05L494.96 28.05Q496.86 28.05 498.27 28.48L498.27 28.48ZM544.78 39.45L544.78 60.47Q541.93 63.63 536.45 65.57Q530.96 67.50 524.43 67.50L524.43 67.50Q514.37 67.50 508.36 61.35Q502.35 55.20 501.93 44.23L501.93 44.23L501.89 39.80Q501.89 32.24 504.56 26.60Q507.23 20.95 512.21 17.91Q517.18 14.87 523.72 14.87L523.72 14.87Q533.29 14.87 538.58 19.25Q543.87 23.63 544.75 32.31L544.75 32.31L532.86 32.31Q532.23 28.02 530.12 26.19Q528.01 24.36 524.14 24.36L524.14 24.36Q519.50 24.36 516.97 28.30Q514.44 32.24 514.41 39.55L514.41 39.55L514.41 42.64Q514.41 50.31 517.03 54.16Q519.64 58.01 525.27 58.01L525.27 58.01Q530.09 58.01 532.44 55.86L532.44 55.86L532.44 47.92L523.86 47.92L523.86 39.45L544.78 39.45ZM550.02 47.92L550.02 47.50Q550.02 41.73 551.92 37.30Q553.82 32.87 557.37 30.46Q560.92 28.05 565.63 28.05L565.63 28.05Q571.57 28.05 574.91 32.06L574.91 32.06L575.33 28.76L586.09 28.76L586.09 65.36Q586.09 70.38 583.75 74.09Q581.41 77.80 576.98 79.79Q572.55 81.77 566.72 81.77L566.72 81.77Q562.54 81.77 558.62 80.19Q554.70 78.61 552.62 76.08L552.62 76.08L557.58 69.12Q560.88 73.02 566.30 73.02L566.30 73.02Q574.17 73.02 574.17 64.93L574.17 64.93L574.17 63.74Q570.76 67.50 565.56 67.50L565.56 67.50Q558.60 67.50 554.31 62.17Q550.02 56.85 550.02 47.92L550.02 47.92ZM561.90 48.23L561.90 48.23Q561.90 52.91 563.66 55.63Q565.42 58.36 568.58 58.36L568.58 58.36Q572.41 58.36 574.17 55.79L574.17 55.79L574.17 39.80Q572.45 37.20 568.65 37.20L568.65 37.20Q565.49 37.20 563.70 40.03Q561.90 42.86 561.90 48.23Z"/></svg>