<svg xmlns="http://www.w3.org/2000/svg" xmlns:xlink="http://www.w3.org/1999/xlink" width="504.17578125" height="84.375"><path fill="#111111" d="M26.82 66.80L25.95 56.32L12.34 56.32L7.88 66.80L-3.09 66.80L21.30 15.61L30.55 15.61L37.27 66.80L26.82 66.80ZM23.80 29.57L16.03 47.71L25.24 47.71L23.80 29.57ZM69.50 66.80L59.98 66.80Q59.70 65.60 59.70 63.84L59.70 63.84Q56.46 67.54 52.31 67.54L52.31 67.54Q47.92 67.46 45.26 64.30Q42.61 61.14 42.82 56.43L42.82 56.43Q43.14 50.38 47.53 46.95Q51.93 43.52 59.34 43.52L59.34 43.52L62.19 43.52L62.65 40.43L62.75 38.85Q62.75 35.79 60.29 35.79L60.29 35.79Q56.88 35.68 56.14 40.15L56.14 40.15L46.48 40.22Q46.79 34.80 50.98 31.38Q55.16 27.95 61.17 28.02L61.17 28.02Q66.83 28.16 69.84 31.59Q72.84 35.02 72.28 40.64L72.28 40.64L69.19 59.98L69.05 61.84Q68.91 64.30 69.54 66.16L69.54 66.16L69.50 66.80ZM54.98 59.77L54.98 59.77Q57.55 59.84 59.77 57.52L59.77 57.52L61.49 49.46L59.38 49.46Q56.57 49.61 54.84 51.36Q53.12 53.12 52.77 55.79L52.77 55.79L52.73 57.13Q52.73 58.25 53.31 58.99Q53.89 59.73 54.98 59.77ZM92.78 66.80L75.59 66.80L84.45 15.61L98.61 15.64Q106.00 15.64 109.86 19.21Q113.73 22.78 113.27 29.36L113.27 29.36Q112.68 37.16 105.12 40.68L105.12 40.68Q107.82 41.80 109.09 44.60Q110.36 47.39 110.07 51.47L110.07 51.47Q109.55 58.61 104.99 62.70Q100.44 66.80 92.78 66.80L92.78 66.80ZM96.75 44.58L89.54 44.54L87.15 58.22L93.06 58.29Q96.40 58.22 98.31 55.85Q100.23 53.47 100.30 49.08L100.30 49.08Q100.30 44.86 96.75 44.58L96.75 44.58ZM93.06 24.22L90.81 37.02L95.59 37.09Q99.42 37.02 101.39 34.49Q103.36 31.96 103.08 28.02L103.08 28.02Q102.73 24.47 98.86 24.26L98.86 24.26L93.06 24.22ZM132.22 67.54L132.22 67.54Q127.37 67.32 124.91 62.96L124.91 62.96L123.68 66.80L114.64 66.80L124.03 12.80L133.73 12.80L130.04 31.89Q133.35 27.95 137.53 28.02L137.53 28.02Q142.52 28.09 144.97 31.75Q147.41 35.40 147.16 42.36L147.16 42.36Q146.88 50.48 145.11 56.37Q143.33 62.26 140.06 64.99Q136.79 67.71 132.22 67.54ZM136.93 49.01L137.60 42.47Q137.71 39.20 136.83 37.83Q135.95 36.46 134.05 36.39L134.05 36.39Q131.34 36.28 129.16 39.20L129.16 39.20L126.14 56.64Q127.20 59.17 130.11 59.31L130.11 59.31Q135.56 59.59 136.62 51.61L136.62 51.61L136.93 49.01ZM176.52 49.78L186.40 49.71Q185.45 58.04 180.26 62.88Q175.08 67.71 167.13 67.50L167.13 67.50Q160.31 67.36 156.59 63Q152.86 58.64 152.65 50.91L152.65 50.91Q152.58 48.27 152.93 45.60L152.93 45.60L154.23 37.13Q155.88 26.26 161.38 20.50Q166.89 14.73 175.04 14.91L175.04 14.91Q182.18 15.01 186.01 19.63Q189.84 24.26 189.84 33.05L189.84 33.05L179.68 33.01L179.75 29.53Q179.65 23.63 174.23 23.45L174.23 23.45Q170.05 23.31 167.63 26.49Q165.20 29.67 164.36 36.81L164.36 36.81L163.09 45.63Q162.60 49.85 162.56 51.15L162.56 51.15Q162.21 58.75 167.91 58.99L167.91 58.99Q171.46 59.17 173.57 57.11Q175.68 55.05 176.52 49.78L176.52 49.78ZM204.68 59.31L204.68 59.31Q208.69 59.41 209.64 53.65L209.64 53.65L218.74 53.61Q218.14 59.94 214.07 63.81Q209.99 67.68 204.12 67.54L204.12 67.54Q198.81 67.39 195.66 64.35Q192.52 61.31 191.92 55.86L191.92 55.86Q191.39 51.43 192.43 45.18Q193.46 38.92 196.28 34.73L196.28 34.73Q200.88 27.84 209.39 28.05L209.39 28.05Q215.16 28.23 218.18 32.22Q221.20 36.21 220.89 43.00L220.89 43.00L211.75 42.96L211.78 40.78Q211.64 36.42 208.34 36.25L208.34 36.25Q203.17 35.96 202.18 44.26L202.18 44.26L201.52 50.63Q201.09 53.47 201.23 55.37L201.23 55.37Q201.48 59.20 204.68 59.31ZM236.60 66.80L222.75 66.80L231.61 15.61L244.23 15.64Q249.82 15.79 253.67 18.56Q257.52 21.34 259.19 26.26Q260.86 31.18 260.09 37.27L260.09 37.27L258.96 44.75Q257.41 55.09 251.49 60.93Q245.57 66.76 236.60 66.80L236.60 66.80ZM243.81 24.26L240.22 24.22L234.32 58.22L236.81 58.29Q242.05 58.29 244.93 55.25Q247.82 52.21 248.80 45.46L248.80 45.46L250.00 37.16Q250.49 33.12 250.38 31.25L250.38 31.25Q250.21 27.74 248.59 26.05Q246.97 24.36 243.81 24.26L243.81 24.26ZM278.93 28.02L278.93 28.02Q283.11 28.16 285.71 31.92L285.71 31.92L289.30 12.80L299.07 12.80L289.72 66.80L281.00 66.80L281.53 62.93Q277.88 67.57 273.48 67.57L273.48 67.57Q268.59 67.50 266.12 63.81Q263.64 60.12 263.74 53.19L263.74 53.19L263.85 50.94Q264.66 39.34 268.44 33.59Q272.21 27.84 278.93 28.02ZM274.04 46.55L273.41 53.05Q273.23 56.11 274.13 57.67Q275.03 59.24 276.89 59.24L276.89 59.24Q279.39 59.31 281.67 56.60L281.67 56.60L284.73 39.13Q283.43 36.46 280.97 36.35L280.97 36.35Q275.77 36.07 274.43 43.88L274.43 43.88L274.04 46.55ZM328.54 36.32L327.06 44.65L311.45 44.65L309.09 58.22L327.59 58.22L326.07 66.80L297.53 66.80L306.39 15.61L334.90 15.61L333.39 24.22L315 24.22L312.89 36.32L328.54 36.32ZM346.68 67.50L346.68 67.50Q342.07 67.46 338.85 65.25Q335.64 63.04 334.21 59.04Q332.79 55.05 333.35 49.96L333.35 49.96L333.67 47.36Q334.83 37.90 339.42 32.89Q344.00 27.88 351.11 28.05L351.11 28.05Q356.31 28.20 359.28 31.31Q362.25 34.42 362.74 40.01L362.74 40.01Q363.02 43.35 362.60 46.55L362.60 46.55L361.93 51.12L342.95 51.12Q342.77 52.63 342.84 54.04L342.84 54.04Q343.09 59.10 347.80 59.20L347.80 59.20Q352.20 59.34 356.31 55.86L356.31 55.86L359.58 61.91Q357.64 64.55 354.18 66.06Q350.72 67.57 346.68 67.50ZM350.16 36.25L350.16 36.25Q345.97 36.07 344.32 41.59L344.32 41.59L343.62 44.16L353.29 44.19Q353.64 42.15 353.67 40.89L353.67 40.89Q353.81 36.42 350.16 36.25ZM387.98 66.80L383.77 48.09L378.63 48.09L375.40 66.80L365.31 66.80L374.17 15.61L389.64 15.64Q396.49 15.86 400.15 19.86Q403.80 23.87 403.24 30.80L403.24 30.80Q402.36 41.31 393.68 45.42L393.68 45.42L398.81 66.23L398.81 66.80L387.98 66.80ZM382.78 24.22L380.11 39.48L385.42 39.55Q389.07 39.48 391.18 36.65Q393.29 33.82 393.26 29.14L393.26 29.14Q393.12 24.54 389.21 24.26L389.21 24.26L382.78 24.22ZM428.63 28.48L427.29 38.32L424.20 37.97Q420.29 37.90 417.90 41.66L417.90 41.66L413.51 66.80L403.77 66.80L410.38 28.76L419.48 28.72L418.71 32.91Q420.43 30.16 422.09 29.06Q423.74 27.95 425.64 27.95L425.64 27.95Q426.76 27.95 428.63 28.48L428.63 28.48ZM466.24 39.87L463.01 61.00Q460.16 64.16 455.59 65.87Q451.02 67.57 445.78 67.50L445.78 67.50Q441.18 67.46 437.80 65.48Q434.43 63.49 432.58 59.71Q430.73 55.93 430.59 51.01L430.59 51.01Q430.49 48.34 430.84 45.56L430.84 45.56L432.11 37.09Q433.72 26.40 439.07 20.57Q444.41 14.73 452.99 14.91L452.99 14.91Q460.30 15.05 464.01 19.32Q467.72 23.59 467.79 31.96L467.79 31.96L457.98 31.92L457.88 29.11Q457.42 23.63 452.50 23.45L452.50 23.45Q445.22 23.17 442.93 33.05L442.93 33.05L442.41 35.68L441 45.56Q440.54 48.94 440.65 51.33L440.65 51.33Q440.82 55.27 442.42 57.04Q444.02 58.82 446.94 58.89L446.94 58.89Q449.68 58.96 453.06 57.09L453.06 57.09L454.85 47.67L447.79 47.67L449.16 39.87L466.24 39.87ZM485.86 28.05L485.86 28.05Q490.92 28.20 493.24 32.20L493.24 32.20L494.44 28.72L503.30 28.76L496.83 66.80Q495.81 74.21 491.15 78.12Q486.49 82.02 479.43 81.81L479.43 81.81Q476.33 81.74 473.31 80.54Q470.29 79.35 468.25 77.24L468.25 77.24L472.22 70.42Q475.14 73.72 479.50 73.86L479.50 73.86Q485.82 74.11 487.23 66.90L487.23 66.90L487.93 63.74Q484.52 67.54 480.41 67.54L480.41 67.54Q475.42 67.46 472.87 63.69Q470.32 59.91 470.39 53.23L470.39 53.23Q470.39 49.08 471.22 44.35Q472.04 39.62 473.59 36.35L473.59 36.35Q477.60 27.84 485.86 28.05ZM479.99 53.12L479.99 53.12Q479.99 59.10 483.82 59.20L483.82 59.20Q486.39 59.27 488.64 57.02L488.64 57.02L491.91 38.74Q490.57 36.46 488.04 36.32L488.04 36.32Q481.85 36 480.59 46.30L480.59 46.30Q479.99 51.22 479.99 53.12Z"/></svg>