<svg xmlns="http://www.w3.org/2000/svg" xmlns:xlink="http://www.w3.org/1999/xlink" width="493.34765625" height="84.375"><path fill="#111111" d="M29.11 66.80L27.32 52.49L8.79 52.49L2.04 66.80L-2.25 66.80L22.46 15.61L26.19 15.61L33.12 66.80L29.11 66.80ZM23.45 21.45L10.55 48.73L26.82 48.73L23.45 21.45ZM63.88 66.80L59.87 66.80Q59.73 65.46 59.87 64.16L59.87 64.16L60.19 61.52Q55.51 67.68 49.25 67.54L49.25 67.54Q44.75 67.46 42.43 64.56Q40.11 61.66 40.46 57.09L40.46 57.09Q40.85 51.33 45.25 47.97Q49.64 44.61 56.32 44.61L56.32 44.61L62.79 44.65L63.56 39.30Q63.95 35.79 62.42 33.77Q60.89 31.75 57.23 31.68L57.23 31.68Q53.79 31.61 51.31 33.68Q48.83 35.75 48.09 39.23L48.09 39.23L44.26 39.20Q44.96 34.28 48.71 31.11Q52.45 27.95 57.62 28.02L57.62 28.02Q62.68 28.09 65.29 31.11Q67.89 34.14 67.39 39.41L67.39 39.41L64.20 58.82Q63.88 60.79 63.88 62.61L63.88 62.61L63.95 66.38L63.88 66.80ZM49.96 63.81L49.96 63.81Q53.23 63.88 56.02 62.10Q58.82 60.33 60.64 57.20L60.64 57.20L62.23 47.92L56.81 47.88Q51.50 47.88 48.20 50.26Q44.89 52.63 44.47 56.78L44.47 56.78Q44.16 60.05 45.58 61.89Q47.00 63.74 49.96 63.81ZM88.70 66.80L74.04 66.80L82.90 15.61L95.24 15.64Q101.21 15.79 104.33 19.21Q107.44 22.64 106.88 28.72L106.88 28.72Q106.49 32.84 104.24 35.74Q101.99 38.64 98.26 40.22L98.26 40.22Q101.36 41.38 102.94 44.60Q104.52 47.81 104.17 52.10L104.17 52.10Q103.61 58.85 99.37 62.82Q95.13 66.80 88.70 66.80L88.70 66.80ZM93.06 42.26L82.27 42.22L78.64 63.07L88.70 63.11Q93.45 63.11 96.54 60.12Q99.63 57.13 100.23 52.14L100.23 52.14Q100.69 47.81 98.84 45.14Q97.00 42.47 93.06 42.26L93.06 42.26ZM86.24 19.41L82.90 38.53L91.76 38.60Q96.29 38.60 99.32 35.96Q102.34 33.33 102.83 28.58L102.83 28.58Q103.29 24.33 101.37 21.96Q99.46 19.58 95.13 19.44L95.13 19.44L86.24 19.41ZM124.70 67.50L124.70 67.50Q121.64 67.43 119.32 65.97Q117 64.51 115.77 61.66L115.77 61.66L114.57 66.80L110.95 66.80L120.34 12.80L124.21 12.80L120.23 34.07Q124.28 27.91 130.50 28.05L130.50 28.05Q135.56 28.20 137.94 31.87Q140.31 35.54 140.06 42.08L140.06 42.08Q139.92 45.18 139.25 49.78L139.25 49.78Q137.99 58.68 134.31 63.18Q130.64 67.68 124.70 67.50ZM135.32 50.59L135.91 45.91Q136.30 42.12 136.20 39.83L136.20 39.83Q135.91 35.65 134.23 33.73Q132.54 31.82 129.48 31.75L129.48 31.75Q123.33 31.61 119.64 38.64L119.64 38.64L116.47 57.55Q118.27 63.56 124.21 63.77L124.21 63.77Q133.28 64.09 135.32 50.59L135.32 50.59ZM174.73 50.87L178.56 50.84Q176.94 59.17 172.41 63.42Q167.87 67.68 160.77 67.50L160.77 67.50Q155.32 67.36 152.07 63.67Q148.82 59.98 148.25 53.26L148.25 53.26L148.18 51.26Q148.15 48.87 148.46 46.55L148.46 46.55L150.22 35.58Q151.73 25.84 156.74 20.27Q161.75 14.70 169.31 14.87L169.31 14.87Q175.85 15.05 179.14 19.44Q182.43 23.84 182.00 31.64L182.00 31.64L177.96 31.64Q178.24 25.00 175.97 21.88Q173.71 18.77 169.07 18.67L169.07 18.67Q163.30 18.49 159.42 22.89Q155.53 27.28 154.23 35.68L154.23 35.68L152.44 47.32L152.23 50.20Q152.02 53.89 152.93 57.09Q153.84 60.29 155.92 61.98Q157.99 63.67 161.05 63.77L161.05 63.77Q166.29 64.02 169.59 61.08Q172.90 58.15 174.73 50.87L174.73 50.87ZM197.47 63.91L197.47 63.91Q205.10 64.16 207.25 55.05L207.25 55.05L210.90 55.05Q209.92 60.75 206.24 64.21Q202.57 67.68 197.26 67.54L197.26 67.54Q192.02 67.46 189.16 63.98Q186.29 60.50 186.26 54.11L186.26 54.11Q186.19 50.91 187.14 44.93L187.14 44.93Q188.47 36.46 192.59 32.17Q196.70 27.88 203.03 28.05L203.03 28.05Q208.13 28.23 210.81 31.80Q213.50 35.37 213.19 41.59L213.19 41.59L209.43 41.59Q209.71 36.84 207.98 34.35Q206.26 31.85 202.75 31.68L202.75 31.68Q193.22 31.36 191.07 44.89L191.07 44.89L190.34 50.52L190.16 53.05L190.13 54.18Q190.02 63.63 197.47 63.91ZM230.20 66.80L217.97 66.80L226.83 15.61L238.29 15.64Q245.99 15.82 249.86 21.46Q253.72 27.11 252.60 36.11L252.60 36.11L251.09 45.91Q249.57 55.72 244.05 61.21Q238.54 66.69 230.20 66.80L230.20 66.80ZM238.18 19.44L230.17 19.41L222.57 63.07L229.85 63.11Q236.85 63.11 241.35 58.61Q245.85 54.11 247.11 45.91L247.11 45.91L248.66 35.96Q249.08 32.94 248.80 30.02L248.80 30.02Q248.31 25.07 245.57 22.32Q242.82 19.58 238.18 19.44L238.18 19.44ZM274.32 28.09L274.32 28.09Q280.62 28.30 283.01 33.89L283.01 33.89L286.80 12.80L290.71 12.80L281.32 66.80L277.70 66.80L278.61 61.95Q274.61 67.68 268.45 67.54L268.45 67.54Q263.67 67.46 261.19 63.81Q258.71 60.15 258.89 53.40L258.89 53.40Q258.93 50.59 259.66 45.56L259.66 45.56Q260.96 36.63 264.64 32.27Q268.31 27.91 274.32 28.09ZM263.53 46.05L263.07 49.64Q262.69 53.40 262.79 55.69L262.79 55.69Q263.14 63.70 269.44 63.81L269.44 63.81Q275.13 63.95 279.04 57.94L279.04 57.94L282.34 38.14Q280.58 32.03 274.85 31.78L274.85 31.78Q265.36 31.46 263.53 46.05L263.53 46.05ZM320.70 38.57L320.03 42.29L300.76 42.29L297.14 63.07L319.32 63.07L318.66 66.80L292.54 66.80L301.39 15.61L327.38 15.61L326.71 19.41L304.73 19.41L301.39 38.57L320.70 38.57ZM339.15 67.50L339.15 67.50Q333 67.39 329.98 62.70Q326.95 58.01 327.83 50.27L327.83 50.27L328.25 46.76Q329.34 37.83 333.63 32.85Q337.92 27.88 344.39 28.05L344.39 28.05Q349.00 28.20 351.58 31.06Q354.16 33.93 354.48 38.95L354.48 38.95Q354.66 41.94 354.30 44.79L354.30 44.79L353.85 48.13L332.09 48.13L331.73 50.31Q331.42 52.56 331.56 54.91L331.56 54.91Q331.73 58.96 333.81 61.38Q335.88 63.81 339.47 63.91L339.47 63.91Q342.32 63.98 344.58 62.86Q346.85 61.73 348.86 59.84L348.86 59.84L350.68 62.51Q346.32 67.64 339.15 67.50ZM344.14 31.68L344.14 31.68Q339.75 31.50 336.76 34.68Q333.77 37.86 332.37 44.47L332.37 44.47L350.47 44.47L350.65 43.42Q350.89 41.48 350.79 39.45L350.79 39.45Q350.61 35.93 348.89 33.87Q347.17 31.82 344.14 31.68ZM384.68 66.80L378.46 45.49L366.86 45.49L363.16 66.80L359.12 66.80L368.02 15.61L381.38 15.64Q387.53 15.86 390.76 19.86Q394.00 23.87 393.33 30.41L393.33 30.41Q392.84 35.54 389.92 39.29Q387 43.03 382.39 44.68L382.39 44.68L389.00 66.34L388.97 66.80L384.68 66.80ZM371.39 19.41L367.49 41.77L377.65 41.84Q382.43 41.77 385.58 38.55Q388.72 35.33 389.32 30.38L389.32 30.38Q389.85 25.59 387.76 22.62Q385.66 19.65 381.27 19.44L381.27 19.44L371.39 19.41ZM418.32 28.48L417.76 32.34Q416.18 32.06 415.37 32.06L415.37 32.06Q412.14 31.99 409.32 34.40Q406.51 36.81 405.49 40.50L405.49 40.50L401.03 66.80L397.13 66.80L403.73 28.76L407.57 28.76L406.34 34.45Q410.24 27.70 415.86 27.95L415.86 27.95Q416.67 27.98 418.32 28.48L418.32 28.48ZM453.97 42.43L450.98 60.86Q448.38 64.05 444.25 65.81Q440.12 67.57 435.41 67.50L435.41 67.50Q429.15 67.43 425.60 63.23Q422.05 59.03 421.84 51.82L421.84 51.82Q421.77 49.36 422.09 46.90L422.09 46.90L424.13 34.10Q425.74 24.93 430.63 19.83Q435.52 14.73 443.11 14.91L443.11 14.91Q449.40 15.05 452.83 19.05Q456.26 23.06 456.01 30.09L456.01 30.09L452.07 30.06Q452.14 24.40 449.77 21.60Q447.40 18.81 442.90 18.70L442.90 18.70Q437.13 18.53 433.30 22.52Q429.47 26.51 428.10 34.21L428.10 34.21L426.09 46.93Q425.85 48.76 425.81 50.70L425.81 50.70Q425.71 56.74 428.26 60.21Q430.80 63.67 435.59 63.74L435.59 63.74Q441.91 63.88 446.94 59.52L446.94 59.52L449.30 46.20L438.40 46.20L439.10 42.43L453.97 42.43ZM477.32 28.05L477.32 28.05Q480.41 28.16 482.66 29.71Q484.91 31.25 486.07 34.10L486.07 34.10L487.34 28.76L490.96 28.76L484.31 67.71Q483.33 74.74 479.53 78.45Q475.73 82.16 469.76 81.98L469.76 81.98Q466.80 81.91 463.97 80.44Q461.14 78.96 459.42 76.54L459.42 76.54L461.57 73.79Q464.87 78.22 469.69 78.36L469.69 78.36Q474.19 78.50 476.89 75.81Q479.60 73.13 480.41 67.92L480.41 67.92L481.54 62.09Q477.42 67.68 471.45 67.54L471.45 67.54Q466.70 67.46 464.20 63.84Q461.71 60.22 461.92 53.40L461.92 53.40Q461.95 50.52 462.69 45.53L462.69 45.53Q463.99 36.67 467.65 32.27Q471.30 27.88 477.32 28.05ZM466.59 45.28L466.03 49.64Q465.64 53.44 465.79 55.65L465.79 55.65Q466.14 63.70 472.43 63.81L472.43 63.81Q478.34 63.95 482.06 57.80L482.06 57.80L485.30 38.29Q483.61 32.03 477.88 31.78L477.88 31.78Q468.67 31.46 466.59 45.28L466.59 45.28Z"/></svg>