<svg xmlns="http://www.w3.org/2000/svg" xmlns:xlink="http://www.w3.org/1999/xlink" width="514.65234375" height="84.375"><path fill="#111111" d="M31.29 66.80L28.55 56.32L14.45 56.32L11.71 66.80L0.77 66.80L16.77 15.61L26.23 15.61L42.33 66.80L31.29 66.80ZM21.48 29.46L16.70 47.71L26.26 47.71L21.48 29.46ZM74.71 66.80L64.69 66.80Q64.27 65.92 63.84 63.84L63.84 63.84Q61.17 67.50 56.60 67.50L56.60 67.50Q51.82 67.50 48.67 64.34Q45.53 61.17 45.53 56.14L45.53 56.14Q45.53 50.17 49.34 46.90Q53.16 43.63 60.33 43.56L60.33 43.56L63.35 43.56L63.35 40.50Q63.35 37.93 62.47 36.88Q61.59 35.82 59.91 35.82L59.91 35.82Q56.18 35.82 56.18 40.18L56.18 40.18L46.23 40.18Q46.23 34.91 50.19 31.48Q54.14 28.05 60.19 28.05L60.19 28.05Q66.45 28.05 69.87 31.31Q73.30 34.56 73.30 40.61L73.30 40.61L73.30 58.50Q73.37 63.42 74.71 66.20L74.71 66.20L74.71 66.80ZM58.82 59.70L58.82 59.70Q60.47 59.70 61.63 59.03Q62.79 58.36 63.35 57.45L63.35 57.45L63.35 49.54L60.96 49.54Q58.43 49.54 56.97 51.15Q55.51 52.77 55.51 55.48L55.51 55.48Q55.51 59.70 58.82 59.70ZM97.95 66.80L81 66.80L81 15.61L96.82 15.61Q104.84 15.61 109.00 19.18Q113.17 22.75 113.17 29.64L113.17 29.64Q113.17 33.54 111.45 36.35Q109.72 39.16 106.73 40.46L106.73 40.46Q110.18 41.45 112.04 44.42Q113.91 47.39 113.91 51.75L113.91 51.75Q113.91 59.20 109.81 63Q105.71 66.80 97.95 66.80L97.95 66.80ZM98.61 44.54L91.34 44.54L91.34 58.22L97.95 58.22Q100.72 58.22 102.16 56.50Q103.61 54.77 103.61 51.61L103.61 51.61Q103.61 44.72 98.61 44.54L98.61 44.54ZM91.34 24.22L91.34 37.02L96.71 37.02Q102.80 37.02 102.80 30.73L102.80 30.73Q102.80 27.25 101.39 25.73Q99.98 24.22 96.82 24.22L96.82 24.22L91.34 24.22ZM150.57 46.09L150.57 49.01Q150.57 58.25 147.62 62.88Q144.67 67.50 138.34 67.50L138.34 67.50Q133.38 67.50 130.39 63.04L130.39 63.04L130.08 66.80L120.90 66.80L120.90 12.80L130.85 12.80L130.85 31.85Q133.66 28.05 138.27 28.05L138.27 28.05Q144.60 28.05 147.55 32.64Q150.50 37.23 150.57 46.09L150.57 46.09ZM140.63 50.13L140.63 46.51Q140.63 40.50 139.46 38.44Q138.30 36.39 135.42 36.39L135.42 36.39Q132.29 36.39 130.85 39.23L130.85 39.23L130.85 56.57Q132.19 59.24 135.49 59.24L135.49 59.24Q138.34 59.24 139.45 57.38Q140.55 55.51 140.63 50.13L140.63 50.13ZM181.41 49.75L191.74 49.75Q191.36 58.50 186.82 63Q182.29 67.50 174.02 67.50L174.02 67.50Q165.34 67.50 160.72 61.79Q156.09 56.07 156.09 45.49L156.09 45.49L156.09 36.88Q156.09 26.33 160.88 20.62Q165.66 14.91 174.16 14.91L174.16 14.91Q182.53 14.91 186.87 19.58Q191.21 24.26 191.81 33.01L191.81 33.01L181.44 33.01Q181.30 27.60 179.77 25.54Q178.24 23.48 174.16 23.48L174.16 23.48Q170.02 23.48 168.29 26.38Q166.57 29.29 166.46 35.93L166.46 35.93L166.46 45.60Q166.46 53.23 168.17 56.07Q169.88 58.92 174.02 58.92L174.02 58.92Q178.10 58.92 179.65 56.94Q181.20 54.95 181.41 49.75L181.41 49.75ZM211.36 59.24L211.36 59.24Q215.68 59.24 215.75 53.61L215.75 53.61L225.11 53.61Q225.04 59.84 221.27 63.67Q217.51 67.50 211.57 67.50L211.57 67.50Q204.22 67.50 200.36 62.93Q196.49 58.36 196.42 49.46L196.42 49.46L196.42 46.44Q196.42 37.48 200.23 32.77Q204.05 28.05 211.50 28.05L211.50 28.05Q217.79 28.05 221.41 31.94Q225.04 35.82 225.11 42.96L225.11 42.96L215.75 42.96Q215.72 39.76 214.70 38.04Q213.68 36.32 211.32 36.32L211.32 36.32Q208.72 36.32 207.60 38.16Q206.47 40.01 206.40 45.32L206.40 45.32L206.40 49.18Q206.40 53.82 206.86 55.67Q207.32 57.52 208.37 58.38Q209.43 59.24 211.36 59.24ZM244.48 66.80L231.22 66.80L231.22 15.61L244.76 15.61Q253.72 15.61 259.05 21.30Q264.38 27 264.48 36.91L264.48 36.91L264.48 45.21Q264.48 55.30 259.15 61.05Q253.83 66.80 244.48 66.80L244.48 66.80ZM245.32 24.22L241.56 24.22L241.56 58.22L244.65 58.22Q249.82 58.22 251.93 55.49Q254.04 52.77 254.14 46.09L254.14 46.09L254.14 37.20Q254.14 30.02 252.14 27.19Q250.14 24.36 245.32 24.22L245.32 24.22ZM270.07 49.50L270.07 46.62Q270.07 37.27 273.23 32.66Q276.40 28.05 282.45 28.05L282.45 28.05Q286.84 28.05 289.76 31.85L289.76 31.85L289.76 12.80L299.78 12.80L299.78 66.80L290.74 66.80L290.29 62.93Q287.23 67.50 282.41 67.50L282.41 67.50Q276.43 67.50 273.29 62.93Q270.14 58.36 270.07 49.50L270.07 49.50ZM280.05 46.48L280.05 49.11Q280.05 54.74 281.25 56.97Q282.45 59.20 285.29 59.20L285.29 59.20Q288.25 59.20 289.76 56.57L289.76 56.57L289.76 39.20Q288.28 36.39 285.33 36.39L285.33 36.39Q282.59 36.39 281.32 38.60Q280.05 40.82 280.05 46.48L280.05 46.48ZM334.02 36.32L334.02 44.65L317.92 44.65L317.92 58.22L336.97 58.22L336.97 66.80L307.58 66.80L307.58 15.61L336.90 15.61L336.90 24.22L317.92 24.22L317.92 36.32L334.02 36.32ZM357.12 67.50L357.12 67.50Q349.45 67.50 345.16 62.93Q340.88 58.36 340.88 49.85L340.88 49.85L340.88 46.83Q340.88 37.83 344.81 32.94Q348.75 28.05 356.10 28.05L356.10 28.05Q363.27 28.05 366.89 32.64Q370.51 37.23 370.58 46.23L370.58 46.23L370.58 51.12L350.79 51.12Q351 55.34 352.65 57.29Q354.30 59.24 357.75 59.24L357.75 59.24Q362.74 59.24 366.08 55.83L366.08 55.83L369.98 61.84Q368.16 64.37 364.68 65.94Q361.20 67.50 357.12 67.50ZM350.86 44.16L350.86 44.16L360.81 44.16L360.81 43.24Q360.74 39.83 359.68 38.07Q358.63 36.32 356.03 36.32Q353.43 36.32 352.25 38.18Q351.07 40.04 350.86 44.16ZM399.90 66.80L392.20 48.09L387.07 48.09L387.07 66.80L376.73 66.80L376.73 15.61L393.22 15.61Q400.99 15.61 405.23 19.63Q409.46 23.66 409.46 31.08L409.46 31.08Q409.46 41.27 402.05 45.35L402.05 45.35L411.01 66.30L411.01 66.80L399.90 66.80ZM387.07 24.22L387.07 39.48L392.94 39.48Q396.04 39.48 397.58 37.42Q399.13 35.37 399.13 31.92L399.13 31.92Q399.13 24.22 393.12 24.22L393.12 24.22L387.07 24.22ZM434.95 28.51L434.85 38.36L431.54 38.07Q427.46 38.07 426.02 41.66L426.02 41.66L426.02 66.80L416.04 66.80L416.04 28.76L425.43 28.76L425.71 32.87Q428.06 28.05 432.21 28.05L432.21 28.05Q433.90 28.05 434.95 28.51L434.95 28.51ZM475.24 39.87L475.24 61.00Q472.25 64.23 467.91 65.87Q463.57 67.50 458.40 67.50L458.40 67.50Q449.58 67.50 444.69 62.03Q439.80 56.57 439.66 46.13L439.66 46.13L439.66 36.91Q439.66 26.33 444.29 20.62Q448.91 14.91 457.77 14.91L457.77 14.91Q466.10 14.91 470.34 19.02Q474.57 23.13 475.24 31.92L475.24 31.92L465.19 31.92Q464.77 27.04 463.15 25.26Q461.53 23.48 458.09 23.48L458.09 23.48Q453.90 23.48 452.00 26.54Q450.11 29.60 450.04 36.28L450.04 36.28L450.04 45.56Q450.04 52.56 452.13 55.74Q454.22 58.92 459 58.92L459 58.92Q462.06 58.92 463.96 57.69L463.96 57.69L464.87 57.06L464.87 47.67L457.63 47.67L457.63 39.87L475.24 39.87ZM480.87 49.43L480.87 46.62Q480.87 37.27 484.24 32.66Q487.62 28.05 493.70 28.05L493.70 28.05Q498.87 28.05 501.68 32.13L501.68 32.13L502.07 28.76L511.03 28.76L511.03 66.80Q511.03 74.07 506.95 77.92Q502.88 81.77 495.25 81.77L495.25 81.77Q492.12 81.77 488.67 80.53Q485.23 79.28 483.54 77.34L483.54 77.34L486.88 70.45Q488.29 71.93 490.54 72.86Q492.79 73.79 494.79 73.79L494.79 73.79Q498.13 73.79 499.59 72.19Q501.05 70.59 501.08 67.04L501.08 67.04L501.08 63.77Q498.23 67.50 493.66 67.50L493.66 67.50Q487.58 67.50 484.26 62.77Q480.94 58.04 480.87 49.43L480.87 49.43ZM490.82 46.62L490.82 49.11Q490.82 54.39 492.19 56.79Q493.56 59.20 496.55 59.20L496.55 59.20Q499.61 59.20 501.08 56.99L501.08 56.99L501.08 38.81Q499.54 36.39 496.62 36.39L496.62 36.39Q493.66 36.39 492.24 38.81Q490.82 41.24 490.82 46.62L490.82 46.62Z"/></svg>