<svg xmlns="http://www.w3.org/2000/svg" xmlns:xlink="http://www.w3.org/1999/xlink" width="508.5703125" height="84.375"><path fill="#111111" d="M33.43 66.80L29.39 53.44L12.09 53.44L8.12 66.80L1.51 66.80L18 15.61L23.52 15.61L40.04 66.80L33.43 66.80ZM20.74 24.61L13.78 47.88L27.74 47.88L20.74 24.61ZM72.18 66.80L65.71 66.80Q65.14 65.57 64.90 62.65L64.90 62.65Q61.59 67.50 56.46 67.50L56.46 67.50Q51.29 67.50 48.39 64.60Q45.49 61.70 45.49 56.43L45.49 56.43Q45.49 50.63 49.43 47.21Q53.37 43.80 60.22 43.73L60.22 43.73L64.79 43.73L64.79 39.69Q64.79 36.28 63.28 34.84Q61.77 33.40 58.68 33.40L58.68 33.40Q55.86 33.40 54.11 35.07Q52.35 36.74 52.35 39.30L52.35 39.30L46.13 39.30Q46.13 36.39 47.85 33.73Q49.57 31.08 52.49 29.57Q55.41 28.05 58.99 28.05L58.99 28.05Q64.83 28.05 67.87 30.96Q70.91 33.86 70.98 39.41L70.98 39.41L70.98 58.61Q71.02 63 72.18 66.23L72.18 66.23L72.18 66.80ZM57.41 61.84L57.41 61.84Q59.70 61.84 61.77 60.57Q63.84 59.31 64.79 57.41L64.79 57.41L64.79 48.34L61.28 48.34Q56.85 48.41 54.28 50.33Q51.71 52.24 51.71 55.69L51.71 55.69Q51.71 58.92 53.02 60.38Q54.32 61.84 57.41 61.84ZM96.57 66.80L81.49 66.80L81.49 15.61L96.08 15.61Q103.08 15.61 106.61 19.02Q110.14 22.43 110.14 29.25L110.14 29.25Q110.14 32.84 108.35 35.58Q106.56 38.32 103.50 39.83L103.50 39.83Q107.02 40.89 109.07 44.16Q111.13 47.43 111.13 52.03L111.13 52.03Q111.13 58.92 107.35 62.86Q103.57 66.80 96.57 66.80L96.57 66.80ZM96.86 42.86L87.93 42.86L87.93 61.28L96.71 61.28Q100.37 61.28 102.52 58.87Q104.66 56.46 104.66 52.10L104.66 52.10Q104.66 42.86 96.86 42.86L96.86 42.86ZM87.93 21.16L87.93 37.44L96.19 37.44Q99.53 37.44 101.58 35.19Q103.64 32.94 103.64 29.21L103.64 29.21Q103.64 25.00 101.78 23.08Q99.91 21.16 96.08 21.16L96.08 21.16L87.93 21.16ZM147.45 45.84L147.45 49.61Q147.45 58.50 144.25 63Q141.05 67.50 134.96 67.50L134.96 67.50Q128.92 67.50 125.89 62.30L125.89 62.30L125.58 66.80L119.92 66.80L119.92 12.80L126.11 12.80L126.11 32.94Q129.16 28.05 134.89 28.05L134.89 28.05Q141.15 28.05 144.28 32.48Q147.41 36.91 147.45 45.84L147.45 45.84ZM141.26 49.89L141.26 46.05Q141.26 39.30 139.38 36.44Q137.50 33.57 133.28 33.57L133.28 33.57Q128.46 33.57 126.11 38.78L126.11 38.78L126.11 56.88Q128.43 62.02 133.35 62.02L133.35 62.02Q137.57 62.02 139.39 59.06Q141.22 56.11 141.26 49.89L141.26 49.89ZM181.86 50.55L188.37 50.55Q187.95 58.78 183.74 63.14Q179.54 67.50 171.88 67.50L171.88 67.50Q164.18 67.50 159.64 61.65Q155.11 55.79 155.11 45.77L155.11 45.77L155.11 36.49Q155.11 26.51 159.77 20.71Q164.43 14.91 172.48 14.91L172.48 14.91Q179.89 14.91 183.96 19.35Q188.02 23.80 188.37 32.06L188.37 32.06L181.86 32.06Q181.44 25.80 179.23 23.13Q177.01 20.46 172.48 20.46L172.48 20.46Q167.24 20.46 164.43 24.56Q161.61 28.65 161.61 36.56L161.61 36.56L161.61 45.95Q161.61 53.72 164.23 57.87Q166.85 62.02 171.88 62.02Q176.91 62.02 179.12 59.52Q181.34 57.02 181.86 50.55L181.86 50.55ZM209.43 62.19L209.43 62.19Q212.52 62.19 214.38 60.28Q216.25 58.36 216.42 54.81L216.42 54.81L222.29 54.81Q222.08 60.29 218.41 63.90Q214.73 67.50 209.43 67.50L209.43 67.50Q202.36 67.50 198.65 63.05Q194.94 58.61 194.94 49.82L194.94 49.82L194.94 45.63Q194.94 37.02 198.63 32.54Q202.32 28.05 209.39 28.05L209.39 28.05Q215.23 28.05 218.65 31.75Q222.08 35.44 222.29 41.84L222.29 41.84L216.42 41.84Q216.21 37.62 214.40 35.51Q212.59 33.40 209.39 33.40L209.39 33.40Q205.24 33.40 203.24 36.12Q201.23 38.85 201.16 45.07L201.16 45.07L201.16 49.92Q201.16 56.64 203.15 59.41Q205.14 62.19 209.43 62.19ZM241.80 66.80L230.34 66.80L230.34 15.61L242.54 15.61Q251.51 15.61 256.46 21.22Q261.42 26.82 261.42 36.98L261.42 36.98L261.42 45.56Q261.42 55.72 256.39 61.26Q251.37 66.80 241.80 66.80L241.80 66.80ZM242.54 21.16L236.78 21.16L236.78 61.28L241.95 61.28Q248.73 61.28 251.86 57.39Q254.99 53.51 255.06 45.88L255.06 45.88L255.06 36.81Q255.06 28.72 251.95 24.94Q248.84 21.16 242.54 21.16L242.54 21.16ZM269.26 49.96L269.26 46.05Q269.26 37.27 272.55 32.66Q275.84 28.05 281.99 28.05L281.99 28.05Q287.44 28.05 290.50 32.48L290.50 32.48L290.50 12.80L296.72 12.80L296.72 66.80L291.02 66.80L290.71 62.72Q287.65 67.50 281.95 67.50L281.95 67.50Q276.05 67.50 272.69 62.91Q269.33 58.32 269.26 49.96L269.26 49.96ZM275.48 45.81L275.48 49.61Q275.48 56.00 277.38 59.01Q279.28 62.02 283.57 62.02L283.57 62.02Q288.21 62.02 290.50 57.34L290.50 57.34L290.50 38.14Q288.11 33.57 283.61 33.57L283.61 33.57Q279.32 33.57 277.42 36.58Q275.52 39.59 275.48 45.81L275.48 45.81ZM331.70 37.62L331.70 43.14L313.59 43.14L313.59 61.28L334.69 61.28L334.69 66.80L307.16 66.80L307.16 15.61L334.34 15.61L334.34 21.16L313.59 21.16L313.59 37.62L331.70 37.62ZM354.97 67.50L354.97 67.50Q347.87 67.50 344.07 63.26Q340.28 59.03 340.21 50.84L340.21 50.84L340.21 46.23Q340.21 37.72 343.92 32.89Q347.63 28.05 354.27 28.05L354.27 28.05Q360.95 28.05 364.25 32.31Q367.56 36.56 367.63 45.56L367.63 45.56L367.63 49.64L346.39 49.64L346.39 50.52Q346.39 56.64 348.70 59.41Q351 62.19 355.32 62.19L355.32 62.19Q358.07 62.19 360.16 61.15Q362.25 60.12 364.08 57.87L364.08 57.87L367.31 61.80Q363.27 67.50 354.97 67.50ZM354.27 33.40L354.27 33.40Q350.40 33.40 348.54 36.05Q346.68 38.71 346.43 44.30L346.43 44.30L361.41 44.30L361.41 43.45Q361.16 38.04 359.46 35.72Q357.75 33.40 354.27 33.40ZM400.54 66.80L391.43 46.09L382.43 46.09L382.43 66.80L375.96 66.80L375.96 15.61L390.30 15.61Q397.83 15.61 401.70 19.53Q405.56 23.45 405.56 31.01L405.56 31.01Q405.56 35.75 403.47 39.29Q401.38 42.82 397.55 44.61L397.55 44.61L407.46 66.38L407.46 66.80L400.54 66.80ZM382.43 21.16L382.43 40.57L390.23 40.57Q394.28 40.57 396.69 37.97Q399.09 35.37 399.09 31.01L399.09 31.01Q399.09 21.16 390.16 21.16L390.16 21.16L382.43 21.16ZM428.98 28.55L429.01 34.59Q427.71 34.35 426.20 34.35L426.20 34.35Q421.42 34.35 419.52 39.59L419.52 39.59L419.52 66.80L413.30 66.80L413.30 28.76L419.34 28.76L419.45 32.63Q421.95 28.05 426.52 28.05L426.52 28.05Q427.99 28.05 428.98 28.55L428.98 28.55ZM468.11 41.31L468.11 60.43L466.98 61.84Q462.13 67.50 452.78 67.50L452.78 67.50Q444.48 67.50 439.75 62.00Q435.02 56.50 434.92 46.44L434.92 46.44L434.92 36.39Q434.92 25.63 439.22 20.27Q443.53 14.91 452.11 14.91L452.11 14.91Q459.42 14.91 463.55 18.98Q467.68 23.06 468.11 30.62L468.11 30.62L461.67 30.62Q461.29 25.84 459.02 23.15Q456.75 20.46 452.14 20.46L452.14 20.46Q446.63 20.46 444.06 24.06Q441.49 27.67 441.39 35.58L441.39 35.58L441.39 46.02Q441.39 53.75 444.34 57.88Q447.29 62.02 452.81 62.02L452.81 62.02Q458.02 62.02 460.72 59.48L460.72 59.48L461.67 58.61L461.67 46.79L452.32 46.79L452.32 41.31L468.11 41.31ZM476.51 50.27L476.51 46.05Q476.51 37.16 479.74 32.61Q482.98 28.05 489.20 28.05L489.20 28.05Q495 28.05 498.02 33.01L498.02 33.01L498.34 28.76L503.96 28.76L503.96 67.15Q503.96 74.21 500.34 77.99Q496.72 81.77 490.25 81.77L490.25 81.77Q487.44 81.77 483.94 80.38Q480.45 79.00 478.69 76.96L478.69 76.96L481.22 72.67Q485.09 76.46 489.76 76.46L489.76 76.46Q497.53 76.46 497.74 67.99L497.74 67.99L497.74 63.04Q494.72 67.50 489.16 67.50L489.16 67.50Q483.26 67.50 479.95 63.05Q476.65 58.61 476.51 50.27L476.51 50.27ZM482.73 45.81L482.73 49.61Q482.73 56.00 484.61 59.01Q486.49 62.02 490.78 62.02L490.78 62.02Q495.42 62.02 497.74 57.27L497.74 57.27L497.74 38.25Q495.32 33.57 490.85 33.57L490.85 33.57Q486.56 33.57 484.66 36.58Q482.77 39.59 482.73 45.81L482.73 45.81Z"/></svg>