<svg xmlns="http://www.w3.org/2000/svg" xmlns:xlink="http://www.w3.org/1999/xlink" width="498.234375" height="84.375"><path fill="#111111" d="M28.86 66.80L27.28 53.44L10.55 53.44L4.36 66.80L-2.32 66.80L22.54 15.61L27.95 15.61L35.09 66.80L28.86 66.80ZM23.91 24.68L13.15 47.88L26.61 47.88L23.91 24.68ZM67.04 66.80L60.93 66.80Q60.71 65.74 60.75 64.72L60.75 64.72L60.89 62.65Q56.85 67.54 52.17 67.54L52.17 67.54Q47.60 67.54 45.05 64.56Q42.50 61.59 42.79 56.71L42.79 56.71Q43.17 50.80 47.65 47.25Q52.14 43.70 59.41 43.70L59.41 43.70L63.63 43.70L64.23 39.66Q64.86 33.36 59.48 33.36L59.48 33.36Q56.71 33.36 54.86 35.00Q53.02 36.63 52.52 39.27L52.52 39.27L46.51 39.30Q46.97 34.49 50.89 31.22Q54.81 27.95 60.12 28.02L60.12 28.02Q65.25 28.09 68.01 31.17Q70.77 34.24 70.24 39.76L70.24 39.76L67.15 58.50Q66.83 60.50 66.90 62.33L66.90 62.33L67.11 66.20L67.04 66.80ZM53.44 61.91L53.44 61.91Q58.01 61.91 61.31 57.45L61.31 57.45L62.89 48.34L60.12 48.30Q56.53 48.30 53.75 49.62Q50.98 50.94 49.83 53.28Q48.69 55.62 49.04 58.36L49.04 58.36Q49.50 61.91 53.44 61.91ZM91.37 66.80L76.11 66.80L84.97 15.61L98.72 15.64Q104.91 15.82 107.95 19.30Q110.99 22.78 110.50 28.97L110.50 28.97Q109.86 36.14 102.13 40.01L102.13 40.01Q104.94 41.24 106.33 44.40Q107.72 47.57 107.37 51.75L107.37 51.75Q106.80 58.68 102.46 62.75Q98.12 66.83 91.37 66.80L91.37 66.80ZM95.66 42.89L86.55 42.86L83.36 61.28L91.51 61.35Q96.29 61.28 98.96 57.64Q101.64 54 101.21 48.59L101.21 48.59Q100.72 43.17 95.66 42.89L95.66 42.89ZM90.32 21.16L87.47 37.44L95.17 37.51Q98.05 37.44 100.25 35.88Q102.45 34.31 103.46 31.55Q104.48 28.79 104.13 25.88L104.13 25.88Q103.57 21.41 98.58 21.20L98.58 21.20L90.32 21.16ZM128.85 67.50L128.85 67.50Q123.01 67.29 120.59 62.26L120.59 62.26L119.29 66.80L113.70 66.80L123.08 12.80L129.13 12.80L125.30 32.94Q129.06 27.91 134.37 28.05L134.37 28.05Q139.32 28.13 141.84 31.69Q144.35 35.26 144.21 42.08L144.21 42.08Q144.07 45.84 143.37 50.48Q142.66 55.13 141.29 58.43L141.29 58.43Q137.46 67.75 128.85 67.50ZM138.23 40.64L138.23 40.64Q138.06 36.95 136.62 35.26Q135.18 33.57 132.43 33.50L132.43 33.50Q127.97 33.40 124.59 38.74L124.59 38.74L121.50 56.92Q123.15 61.88 127.62 62.05L127.62 62.05Q131.73 62.23 134.23 59.15Q136.72 56.07 137.51 49.41Q138.30 42.75 138.23 40.64ZM176.87 50.59L183.06 50.52Q181.90 58.54 177.10 63.12Q172.30 67.71 164.95 67.50L164.95 67.50Q160.88 67.39 157.89 65.36Q154.90 63.32 153.30 59.45Q151.70 55.58 151.63 50.84L151.63 50.84Q151.59 48.34 151.91 45.95L151.91 45.95L153.32 36.91Q154.97 26.40 160.28 20.57Q165.59 14.73 173.50 14.91L173.50 14.91Q180.04 15.01 183.46 19.53Q186.89 24.05 186.57 32.10L186.57 32.10L180.25 32.06Q180.39 27.70 179.70 25.42Q179.02 23.13 177.43 21.81Q175.85 20.50 173.11 20.43L173.11 20.43Q167.84 20.25 164.39 24.42Q160.95 28.58 159.68 36.88L159.68 36.88L158.27 45.98Q157.75 49.68 157.92 52.70L157.92 52.70Q158.20 57.30 160.12 59.63Q162.04 61.95 165.30 62.05L165.30 62.05Q169.91 62.23 172.71 59.63Q175.50 57.02 176.87 50.59L176.87 50.59ZM202.15 62.26L202.15 62.26Q205.14 62.37 207.18 60.40Q209.21 58.43 210.02 54.84L210.02 54.84L215.75 54.81Q214.95 60.43 211.01 64.05Q207.07 67.68 201.80 67.54L201.80 67.54Q196.77 67.43 193.78 64.51Q190.79 61.59 190.20 56.32L190.20 56.32Q189.84 53.16 190.23 49.96L190.23 49.96L190.72 46.13Q191.88 37.23 196.15 32.55Q200.43 27.88 207.28 28.05L207.28 28.05Q212.55 28.20 215.46 31.92Q218.36 35.65 218.11 41.87L218.11 41.87L212.38 41.84Q212.59 33.57 206.93 33.36L206.93 33.36Q198.67 33.05 196.95 45.14L196.95 45.14Q195.86 52.63 196.07 55.34L196.07 55.34Q196.42 62.16 202.15 62.26ZM233.68 66.80L221.91 66.80L230.77 15.61L242.23 15.64Q250.35 15.82 254.36 21.64Q258.36 27.46 257.17 36.91L257.17 36.91L255.94 45.14Q254.36 55.65 248.52 61.24Q242.68 66.83 233.68 66.80L233.68 66.80ZM242.05 21.20L236.11 21.16L229.15 61.28L233.75 61.31Q240.29 61.38 244.37 57.39Q248.45 53.40 249.68 45.35L249.68 45.35L250.98 36.77Q251.33 34.00 251.26 31.25L251.26 31.25Q251.09 26.58 248.75 23.96Q246.41 21.34 242.05 21.20L242.05 21.20ZM278.51 28.09L278.51 28.09Q283.75 28.23 286.31 32.52L286.31 32.52L289.97 12.80L296.05 12.80L286.70 66.80L281.18 66.80L281.85 62.72Q278.09 67.64 272.81 67.50L272.81 67.50Q268.07 67.43 265.48 63.81Q262.90 60.19 262.90 53.44L262.90 53.44Q262.90 50.31 263.71 45.14Q264.52 39.97 266.20 36.39L266.20 36.39Q270.21 27.84 278.51 28.09ZM268.95 54.95L268.95 54.95Q269.12 61.95 274.75 62.05L274.75 62.05Q276.75 62.12 278.58 61.05Q280.41 59.98 282.27 57.38L282.27 57.38L285.57 38.11Q283.82 33.71 279.70 33.54L279.70 33.54Q271.37 33.12 269.65 45.77L269.65 45.77Q268.80 51.96 268.95 54.95ZM326.04 37.62L325.09 43.14L307.55 43.14L304.38 61.28L324.84 61.28L323.86 66.80L297.14 66.80L306 15.61L332.44 15.61L331.45 21.16L311.34 21.16L308.46 37.62L326.04 37.62ZM344.81 67.50L344.81 67.50Q338.41 67.43 335.25 62.89Q332.09 58.36 332.93 50.52L332.93 50.52L333.39 46.76Q334.48 37.90 338.78 32.89Q343.09 27.88 349.73 28.05L349.73 28.05Q355.15 28.20 357.87 31.76Q360.60 35.33 360.46 41.80L360.46 41.80L360.14 46.02L359.61 49.64L339.22 49.61Q338.77 52.77 338.80 54.56L338.80 54.56Q338.87 58.11 340.56 60.13Q342.25 62.16 345.38 62.19L345.38 62.19Q347.63 62.26 349.82 61.29Q352.02 60.33 354.45 57.90L354.45 57.90L357.29 61.88Q355.04 64.83 351.74 66.20Q348.43 67.57 344.81 67.50ZM349.35 33.36L349.35 33.36Q343.13 33.08 340.63 40.89L340.63 40.89L339.68 44.30L354.27 44.33L354.45 43.42Q354.66 41.80 354.66 40.04L354.66 40.04Q354.52 33.64 349.35 33.36ZM388.51 66.80L383.27 46.09L374.45 46.09L370.83 66.80L364.54 66.80L373.39 15.61L386.93 15.64Q393.54 15.86 396.84 19.90Q400.15 23.94 399.48 30.73L399.48 30.73Q399.02 35.61 396.42 39.16Q393.82 42.71 389.36 44.72L389.36 44.72L395.30 66.34L395.26 66.80L388.51 66.80ZM378.77 21.16L375.40 40.57L382.68 40.64Q386.02 40.57 388.56 38.85Q391.11 37.13 392.34 33.98Q393.57 30.83 393.19 27.14L393.19 27.14Q392.91 24.47 391.27 22.90Q389.64 21.34 386.75 21.20L386.75 21.20L378.77 21.16ZM422.82 28.51L422.16 34.56Q420.64 34.24 419.45 34.24L419.45 34.24Q414.84 34.24 411.86 39.55L411.86 39.55L407.14 66.80L401.06 66.80L407.67 28.76L413.54 28.72L412.70 32.63Q416.04 27.88 420.22 27.98L420.22 27.98Q421.07 28.02 422.82 28.51L422.82 28.51ZM459 41.31L456.05 60.40Q454.57 62.40 452.64 63.81L452.64 63.81Q447.43 67.61 440.16 67.50L440.16 67.50Q433.58 67.43 429.82 63.04Q426.06 58.64 425.85 51.15L425.85 51.15Q425.78 48.59 426.09 46.02L426.09 46.02L427.68 35.93Q429.29 25.80 434.11 20.39L434.11 20.39Q439.17 14.73 447.50 14.91L447.50 14.91Q454.11 15.12 457.61 19.27Q461.11 23.41 460.97 30.66L460.97 30.66L454.71 30.62Q454.71 25.42 452.76 22.99Q450.81 20.57 447.19 20.46L447.19 20.46Q441.95 20.21 438.61 23.94Q435.27 27.67 433.97 35.82L433.97 35.82L432.35 46.55L432.14 49.43L432.14 51.86Q432.70 61.84 440.40 61.98L440.40 61.98Q443.18 62.05 445.36 61.15Q447.54 60.26 449.68 58.61L449.68 58.61L451.83 46.79L442.72 46.79L443.71 41.31L459 41.31ZM481.54 28.05L481.54 28.05Q487.13 28.20 489.59 33.05L489.59 33.05L490.85 28.76L496.37 28.76L489.87 67.11Q489.27 71.61 487.21 75.02Q485.16 78.43 481.89 80.19Q478.62 81.95 474.43 81.81L474.43 81.81Q471.45 81.74 468.42 80.35Q465.40 78.96 463.54 76.82L463.54 76.82L466.42 72.63Q469.83 76.36 474.19 76.50L474.19 76.50Q478.02 76.64 480.50 74.36Q482.98 72.07 483.79 67.46L483.79 67.46L484.70 63.04Q480.94 67.64 475.91 67.50L475.91 67.50Q471.02 67.43 468.47 63.70Q465.93 59.98 466.00 53.47L466.00 53.47Q466.00 50.70 466.66 45.88L466.66 45.88Q467.89 37.05 471.64 32.47Q475.38 27.88 481.54 28.05ZM472.04 54.95L472.04 54.95Q472.22 61.95 477.81 62.05L477.81 62.05Q482.03 62.16 485.37 57.30L485.37 57.30L488.64 38.21Q486.81 33.71 482.80 33.54L482.80 33.54Q474.36 33.22 472.71 45.98L472.71 45.98Q471.90 52.14 472.04 54.95Z"/></svg>