<svg xmlns="http://www.w3.org/2000/svg" xmlns:xlink="http://www.w3.org/1999/xlink" width="576.703125" height="84.375"><path fill="#111111" d="M31.36 66.80L30.13 57.23L13.78 57.23L9.25 66.80L-4.01 66.80L23.10 15.61L34.42 15.61L43.88 66.80L31.36 66.80ZM26.65 30.06L18.28 47.71L28.90 47.71L26.65 30.06ZM80.16 66.80L68.91 66.80Q68.41 65.43 68.41 63.35L68.41 63.35Q64.51 67.64 59.10 67.50L59.10 67.50Q54.14 67.43 50.87 64.20Q47.60 60.96 47.81 56.36L47.81 56.36Q47.99 50.17 52.98 46.85Q57.97 43.52 66.62 43.52L66.62 43.52L70.49 43.59L70.91 41.45L71.05 39.59Q70.91 36.39 67.85 36.28L67.85 36.28Q64.05 36.21 63.18 40.46L63.18 40.46L51.57 40.50Q51.75 36.67 54.07 33.84Q56.39 31.01 60.38 29.48Q64.37 27.95 68.87 28.05L68.87 28.05Q73.20 28.16 76.45 29.87Q79.70 31.57 81.32 34.61Q82.93 37.65 82.55 41.63L82.55 41.63L79.70 59.52L79.52 61.70Q79.38 64.30 80.19 66.13L80.19 66.13L80.16 66.80ZM62.30 59.13L62.30 59.13Q65.85 59.27 68.52 56.00L68.52 56.00L69.68 49.89L66.69 49.85Q63.91 49.92 61.91 51.49Q59.91 53.05 59.55 55.76L59.55 55.76Q59.38 57.20 60.10 58.13Q60.82 59.06 62.30 59.13ZM105.93 66.80L85.39 66.80L94.25 15.61L110.53 15.64Q120.16 15.68 124.91 19.30Q129.66 22.92 129.23 29.46L129.23 29.46Q128.71 37.55 120.38 40.92L120.38 40.92Q123.36 41.98 125.03 44.74Q126.70 47.50 126.46 51.36L126.46 51.36Q125.96 58.78 120.60 62.79Q115.24 66.80 105.93 66.80L105.93 66.80ZM110.07 45.07L101.21 45.04L99.07 57.30L106.28 57.34Q109.65 57.34 111.90 55.67Q114.15 54 114.57 51.22L114.57 51.22Q115.56 45.35 110.07 45.07L110.07 45.07ZM104.66 25.14L102.59 36.95L108.25 36.98Q116.09 36.81 117.04 30.97L117.04 30.97Q117.88 25.21 111.06 25.17L111.06 25.17L104.66 25.14ZM167.91 47.11L167.80 47.85Q166.71 57.09 162.35 62.40Q157.99 67.71 150.89 67.54L150.89 67.54Q145.27 67.39 142.24 62.82L142.24 62.82L140.80 66.80L130.32 66.80L139.71 12.80L151.28 12.80L147.52 31.89Q151.35 27.98 156.06 28.05L156.06 28.05Q161.65 28.13 164.78 32.04Q167.91 35.96 168.08 42.71L168.08 42.71Q168.12 44.96 167.91 47.11L167.91 47.11ZM156.23 47.88L156.30 47.14Q156.59 45 156.62 43.07L156.62 43.07Q156.62 37.41 152.58 37.16L152.58 37.16Q148.99 37.02 146.57 40.22L146.57 40.22L143.82 55.41Q144.91 58.32 148.61 58.39L148.61 58.39Q154.27 58.57 155.74 51.01L155.74 51.01L156.23 47.88ZM201.59 49.50L213.33 49.36Q212.87 54.74 209.79 58.92Q206.72 63.11 201.71 65.36Q196.70 67.61 190.86 67.50L190.86 67.50Q182.85 67.32 178.24 62.33Q173.64 57.34 173.21 48.80L173.21 48.80Q172.90 43.10 174.46 36.39Q176.03 29.67 179.56 24.70Q183.09 19.72 187.89 17.24Q192.69 14.77 198.39 14.87L198.39 14.87Q206.75 15.01 211.62 19.90Q216.49 24.79 216.91 33.36L216.91 33.36L204.93 33.33Q205.00 28.65 203.24 26.65Q201.48 24.64 197.68 24.50L197.68 24.50Q188.19 24.19 186.12 39.27L186.12 39.27Q185.17 46.09 185.17 49.01L185.17 49.01Q184.99 57.66 191.57 57.90L191.57 57.90Q195.82 58.04 198.35 55.81Q200.88 53.58 201.59 49.50L201.59 49.50ZM233.72 58.39L233.72 58.39Q236.21 58.46 237.62 57.01Q239.03 55.55 239.41 53.23L239.41 53.23L250.24 53.19Q250.03 57.38 247.76 60.68Q245.50 63.98 241.65 65.79Q237.80 67.61 233.40 67.50L233.40 67.50Q225.81 67.36 221.70 62.03Q217.58 56.71 218.36 48.27L218.36 48.27L218.46 47.43Q219.09 41.66 221.70 37.21Q224.30 32.77 228.53 30.34Q232.77 27.91 238.01 28.05L238.01 28.05Q244.65 28.20 248.50 32.29Q252.35 36.39 252.21 43.35L252.21 43.35L241.38 43.31Q241.56 37.27 237.06 37.16L237.06 37.16Q230.94 36.95 230.03 47.46L230.03 47.46L229.71 51.05L229.68 52.38Q229.68 58.29 233.72 58.39ZM270.46 66.80L253.27 66.80L262.13 15.61L277.17 15.64Q283.82 15.64 288.77 19.14Q293.73 22.64 295.80 28.69L295.80 28.69Q297.60 34.00 296.89 40.15L296.89 40.15L296.65 42.29Q295.70 49.18 292.08 54.77Q288.46 60.36 282.76 63.54Q277.07 66.73 270.46 66.80L270.46 66.80ZM277.14 25.17L272.53 25.14L266.94 57.30L270.46 57.34Q276.64 57.34 280.39 52.56Q284.13 47.78 284.84 37.93L284.84 37.93L284.91 36.77Q285.15 31.15 283.15 28.23Q281.14 25.31 277.14 25.17L277.14 25.17ZM300.02 48.45L300.13 47.71Q301.22 38.71 305.61 33.29Q310.01 27.88 317.07 28.05L317.07 28.05Q321.93 28.20 325.13 32.13L325.13 32.13L328.82 12.80L340.42 12.80L331.07 66.80L320.77 66.80L321.26 62.68Q317.00 67.68 311.80 67.54L311.80 67.54Q306.32 67.46 303.21 63.47Q300.09 59.48 299.88 52.77L299.88 52.77Q299.81 50.55 300.02 48.45L300.02 48.45ZM311.66 48.48L311.66 48.48Q311.38 50.73 311.41 52.42L311.41 52.42Q311.41 58.25 315.35 58.36L315.35 58.36Q318.76 58.46 321.43 55.09L321.43 55.09L324.04 40.50Q322.88 37.27 319.39 37.16L319.39 37.16Q316.16 37.09 314.17 39.96Q312.19 42.82 311.66 48.48ZM374.59 35.93L373.01 45.11L354.20 45.11L352.05 57.30L374.31 57.30L372.66 66.80L338.38 66.80L347.24 15.61L381.59 15.61L379.93 25.14L357.64 25.14L355.75 35.93L374.59 35.93ZM396.18 67.50L395.54 67.50Q390.45 67.46 386.46 65.09Q382.46 62.72 380.43 58.48Q378.39 54.25 378.81 49.15L378.81 49.15L378.91 48.16Q379.86 38.78 385.44 33.31Q391.01 27.84 399.09 28.05L399.09 28.05Q403.98 28.13 407.46 30.53Q410.94 32.94 412.56 37.18Q414.18 41.41 413.61 46.69L413.61 46.69L412.95 51.50L390.30 51.50Q390.38 54.49 391.99 56.36Q393.61 58.22 396.70 58.32L396.70 58.32Q401.73 58.46 405.74 54.46L405.74 54.46L410.59 60.89Q408.45 63.95 404.60 65.69Q400.75 67.43 396.18 67.50L396.18 67.50ZM398.36 37.16L398.36 37.16Q395.89 37.09 394.08 38.71Q392.27 40.32 390.94 44.12L390.94 44.12L402.50 44.12L402.71 43.10Q402.93 41.87 402.79 40.78L402.79 40.78Q402.19 37.27 398.36 37.16ZM443.04 66.80L437.41 48.73L430.73 48.73L427.57 66.80L415.55 66.80L424.41 15.61L442.48 15.64Q451.16 15.64 455.85 19.71Q460.55 23.77 460.05 30.80L460.05 30.80Q459.67 36.35 456.86 39.99Q454.04 43.63 448.98 45.74L448.98 45.74L455.87 66.20L455.87 66.80L443.04 66.80ZM434.81 25.14L432.35 39.20L439.38 39.27Q442.27 39.27 444.39 37.86Q446.52 36.46 447.43 34.01Q448.35 31.57 447.96 29.29L447.96 29.29Q447.26 25.38 442.97 25.17L442.97 25.17L434.81 25.14ZM489.90 28.44L488.39 39.48Q486.53 39.20 484.80 39.13L484.80 39.13Q479.60 38.99 476.86 42.71L476.86 42.71L472.57 66.80L461.00 66.80L467.61 28.76L478.41 28.72L477.53 33.71Q481.25 27.95 486.32 27.95L486.32 27.95Q487.76 27.95 489.90 28.44L489.90 28.44ZM534.02 39.45L530.72 60.50Q527.84 63.88 522.32 65.72Q516.80 67.57 510.08 67.46L510.08 67.46Q503.65 67.39 499.22 64.23Q494.79 61.07 492.89 55.41Q490.99 49.75 491.87 42.64L491.87 42.64L492.15 40.54Q493.77 28.62 500.54 21.66Q507.30 14.70 517.11 14.87L517.11 14.87Q525.69 15.01 530.30 19.48Q534.90 23.94 535.43 32.38L535.43 32.38L523.90 32.34Q523.65 28.23 521.88 26.33Q520.10 24.43 516.83 24.33L516.83 24.33Q511.98 24.15 508.82 28.14Q505.65 32.13 504.49 39.55L504.49 39.55Q503.51 45.88 503.79 49.39L503.79 49.39Q504.32 57.87 511.42 57.97L511.42 57.97Q515.71 58.04 518.94 55.90L518.94 55.90L520.52 47.92L512.19 47.92L513.67 39.45L534.02 39.45ZM537.68 47.71L537.68 47.71Q538.35 41.98 540.83 37.34Q543.30 32.70 547.03 30.32Q550.76 27.95 555.47 28.02L555.47 28.02Q561.20 28.16 564.12 32.13L564.12 32.13L565.35 28.72L576.04 28.76L569.81 65.32Q568.76 73.05 563.03 77.52Q557.30 81.98 548.75 81.77L548.75 81.77Q544.96 81.70 541.41 80.26Q537.86 78.82 535.32 75.90L535.32 75.90L540.81 69.08Q543.87 72.95 548.75 73.05L548.75 73.05Q556.45 73.20 558.53 64.86L558.53 64.86L558.81 63.70Q554.87 67.57 550.13 67.50L550.13 67.50Q546.47 67.46 543.69 65.65Q540.91 63.84 539.33 60.43Q537.75 57.02 537.54 52.84L537.54 52.84Q537.40 50.73 537.68 47.71ZM549.11 51.47L549.11 51.47Q549.11 54.70 550.27 56.50Q551.43 58.29 553.64 58.36L553.64 58.36Q556.91 58.50 559.58 55.83L559.58 55.83L562.57 39.69Q561.16 37.23 557.86 37.16L557.86 37.16Q554.48 37.09 552.20 40.03Q549.91 42.96 549.32 47.74L549.32 47.74Q549.11 49.96 549.11 51.47Z"/></svg>