<svg xmlns="http://www.w3.org/2000/svg" xmlns:xlink="http://www.w3.org/1999/xlink" width="583.9453125" height="84.375"><path fill="#111111" d="M38.04 66.80L33.86 54.88L14.03 54.88L9.88 66.80L0.63 66.80L19.97 15.61L27.95 15.61L47.32 66.80L38.04 66.80ZM23.94 26.47L16.52 47.71L31.36 47.71L23.94 26.47ZM83.74 66.80L75.02 66.80Q74.46 65.71 74.04 63.25L74.04 63.25Q69.96 67.50 64.05 67.50L64.05 67.50Q58.32 67.50 54.70 64.23Q51.08 60.96 51.08 56.14L51.08 56.14Q51.08 50.06 55.60 46.81Q60.12 43.56 68.52 43.56L68.52 43.56L73.76 43.56L73.76 41.06Q73.76 38.11 72.11 36.33Q70.45 34.56 67.08 34.56L67.08 34.56Q64.16 34.56 62.30 36.02Q60.43 37.48 60.43 39.73L60.43 39.73L51.89 39.73Q51.89 36.60 53.96 33.87Q56.04 31.15 59.61 29.60Q63.18 28.05 67.57 28.05L67.57 28.05Q74.25 28.05 78.22 31.41Q82.20 34.77 82.30 40.85L82.30 40.85L82.30 58.01Q82.30 63.14 83.74 66.20L83.74 66.20L83.74 66.80ZM65.64 60.64L65.64 60.64Q68.17 60.64 70.40 59.41Q72.63 58.18 73.76 56.11L73.76 56.11L73.76 48.94L69.15 48.94Q64.41 48.94 62.02 50.59Q59.63 52.24 59.63 55.27L59.63 55.27Q59.63 57.73 61.26 59.19Q62.89 60.64 65.64 60.64ZM110.74 66.80L92.07 66.80L92.07 15.61L109.62 15.61Q118.30 15.61 122.84 19.09Q127.37 22.57 127.37 29.46L127.37 29.46Q127.37 32.98 125.47 35.79Q123.57 38.60 119.92 40.15L119.92 40.15Q124.07 41.27 126.33 44.38Q128.60 47.50 128.60 51.86L128.60 51.86Q128.60 59.06 123.98 62.93Q119.36 66.80 110.74 66.80L110.74 66.80ZM111.59 43.70L100.97 43.70L100.97 59.70L110.85 59.70Q115.03 59.70 117.39 57.62Q119.74 55.55 119.74 51.86L119.74 51.86Q119.74 43.88 111.59 43.70L111.59 43.70ZM100.97 22.78L100.97 37.16L109.69 37.16Q113.84 37.16 116.17 35.28Q118.51 33.40 118.51 29.95L118.51 29.95Q118.51 26.16 116.35 24.47Q114.19 22.78 109.62 22.78L109.62 22.78L100.97 22.78ZM170.05 47.67L170.05 48.16Q170.05 57.02 166.10 62.26Q162.14 67.50 155.21 67.50L155.21 67.50Q148.54 67.50 144.81 62.68L144.81 62.68L144.39 66.80L136.65 66.80L136.65 12.80L145.20 12.80L145.20 32.41Q148.89 28.05 155.14 28.05L155.14 28.05Q162.11 28.05 166.08 33.22Q170.05 38.39 170.05 47.67L170.05 47.67ZM161.51 48.52L161.51 47.43Q161.51 41.24 159.33 38.14Q157.15 35.05 153 35.05L153 35.05Q147.45 35.05 145.20 39.90L145.20 39.90L145.20 55.58Q147.48 60.54 153.07 60.54L153.07 60.54Q157.08 60.54 159.26 57.55Q161.44 54.56 161.51 48.52L161.51 48.52ZM208.23 50.13L217.09 50.13Q216.32 58.32 211.04 62.91Q205.77 67.50 197.02 67.50L197.02 67.50Q190.90 67.50 186.24 64.60Q181.58 61.70 179.05 56.36Q176.52 51.01 176.41 43.95L176.41 43.95L176.41 39.16Q176.41 31.92 178.98 26.40Q181.55 20.88 186.35 17.89Q191.14 14.91 197.44 14.91L197.44 14.91Q205.91 14.91 211.08 19.51Q216.25 24.12 217.09 32.52L217.09 32.52L208.23 32.52Q207.60 27 205.01 24.56Q202.43 22.11 197.44 22.11L197.44 22.11Q191.64 22.11 188.53 26.35Q185.41 30.59 185.34 38.78L185.34 38.78L185.34 43.31Q185.34 51.61 188.31 55.97Q191.29 60.33 197.02 60.33L197.02 60.33Q202.25 60.33 204.89 57.97Q207.53 55.62 208.23 50.13L208.23 50.13ZM239.84 60.68L239.84 60.68Q243.04 60.68 245.14 58.82Q247.25 56.95 247.39 54.21L247.39 54.21L255.45 54.21Q255.30 57.76 253.23 60.84Q251.16 63.91 247.61 65.71Q244.05 67.50 239.94 67.50L239.94 67.50Q231.96 67.50 227.29 62.33Q222.61 57.16 222.61 48.06L222.61 48.06L222.61 47.18Q222.61 38.50 227.25 33.28Q231.89 28.05 239.91 28.05L239.91 28.05Q246.69 28.05 250.96 32.01Q255.23 35.96 255.45 42.40L255.45 42.40L247.39 42.40Q247.25 39.13 245.16 37.02Q243.07 34.91 239.84 34.91L239.84 34.91Q235.69 34.91 233.44 37.92Q231.19 40.92 231.15 47.04L231.15 47.04L231.15 48.41Q231.15 54.60 233.38 57.64Q235.62 60.68 239.84 60.68ZM277.45 66.80L262.72 66.80L262.72 15.61L277.84 15.61Q284.63 15.61 289.88 18.63Q295.14 21.66 298.02 27.21Q300.90 32.77 300.90 39.94L300.90 39.94L300.90 42.50Q300.90 49.78 298.00 55.30Q295.10 60.82 289.74 63.81Q284.38 66.80 277.45 66.80L277.45 66.80ZM277.84 22.78L271.62 22.78L271.62 59.70L277.42 59.70Q284.41 59.70 288.16 55.32Q291.90 50.94 291.97 42.75L291.97 42.75L291.97 39.90Q291.97 31.57 288.35 27.18Q284.73 22.78 277.84 22.78L277.84 22.78ZM307.34 47.50L307.34 47.50Q307.34 38.71 311.41 33.38Q315.49 28.05 322.35 28.05L322.35 28.05Q328.39 28.05 332.12 32.27L332.12 32.27L332.12 12.80L340.66 12.80L340.66 66.80L332.93 66.80L332.51 62.86Q328.68 67.50 322.28 67.50L322.28 67.50Q315.60 67.50 311.47 62.12Q307.34 56.74 307.34 47.50ZM315.88 48.23L315.88 48.23Q315.88 54.04 318.11 57.29Q320.34 60.54 324.46 60.54L324.46 60.54Q329.70 60.54 332.12 55.86L332.12 55.86L332.12 39.62Q329.77 35.05 324.53 35.05L324.53 35.05Q320.38 35.05 318.13 38.34Q315.88 41.63 315.88 48.23ZM380.32 36.91L380.32 43.95L359.30 43.95L359.30 59.70L383.87 59.70L383.87 66.80L350.40 66.80L350.40 15.61L383.63 15.61L383.63 22.78L359.30 22.78L359.30 36.91L380.32 36.91ZM406.37 67.50L406.37 67.50Q398.25 67.50 393.21 62.38Q388.16 57.27 388.16 48.76L388.16 48.76L388.16 47.71Q388.16 42.01 390.36 37.53Q392.55 33.05 396.53 30.55Q400.50 28.05 405.39 28.05L405.39 28.05Q413.16 28.05 417.39 33.01Q421.63 37.97 421.63 47.04L421.63 47.04L421.63 50.48L396.77 50.48Q397.16 55.20 399.92 57.94Q402.68 60.68 406.86 60.68L406.86 60.68Q412.73 60.68 416.43 55.93L416.43 55.93L421.03 60.33Q418.75 63.74 414.93 65.62Q411.12 67.50 406.37 67.50ZM405.35 34.91L405.35 34.91Q401.84 34.91 399.67 37.37Q397.51 39.83 396.91 44.23L396.91 44.23L413.19 44.23L413.19 43.59Q412.91 39.30 410.91 37.11Q408.90 34.91 405.35 34.91ZM458.16 66.80L447.89 47.07L437.98 47.07L437.98 66.80L429.08 66.80L429.08 15.61L447.08 15.61Q455.94 15.61 460.76 19.58Q465.57 23.55 465.57 31.08L465.57 31.08Q465.57 36.21 463.10 39.67Q460.62 43.14 456.19 45L456.19 45L467.68 66.34L467.68 66.80L458.16 66.80ZM437.98 22.78L437.98 39.94L447.12 39.94Q451.62 39.94 454.15 37.67Q456.68 35.40 456.68 31.46L456.68 31.46Q456.68 27.35 454.34 25.10Q452.00 22.85 447.36 22.78L447.36 22.78L437.98 22.78ZM493.14 28.55L493.10 36.56Q491.41 36.28 489.62 36.28L489.62 36.28Q483.75 36.28 481.71 40.78L481.71 40.78L481.71 66.80L473.17 66.80L473.17 28.76L481.32 28.76L481.54 33.01Q484.63 28.05 490.11 28.05L490.11 28.05Q491.94 28.05 493.14 28.55L493.14 28.55ZM538.56 40.54L538.56 60.15Q535.78 63.77 530.86 65.64Q525.94 67.50 519.68 67.50L519.68 67.50Q513.25 67.50 508.29 64.58Q503.33 61.66 500.64 56.23Q497.95 50.80 497.85 43.56L497.85 43.56L497.85 39.55Q497.85 27.95 503.40 21.43Q508.96 14.91 518.91 14.91L518.91 14.91Q527.45 14.91 532.48 19.13Q537.50 23.34 538.52 31.29L538.52 31.29L529.80 31.29Q528.33 22.04 519.08 22.04L519.08 22.04Q513.11 22.04 509.99 26.35Q506.88 30.66 506.78 38.99L506.78 38.99L506.78 42.93Q506.78 51.22 510.28 55.81Q513.77 60.40 520.00 60.40L520.00 60.40Q526.82 60.40 529.70 57.30L529.70 57.30L529.70 47.29L519.15 47.29L519.15 40.54L538.56 40.54ZM546.01 47.50L546.01 47.50Q546.01 38.64 550.18 33.35Q554.34 28.05 561.23 28.05L561.23 28.05Q567.74 28.05 571.46 32.59L571.46 32.59L571.85 28.76L579.55 28.76L579.55 65.64Q579.55 73.13 574.89 77.45Q570.23 81.77 562.32 81.77L562.32 81.77Q558.14 81.77 554.15 80.03Q550.16 78.29 548.09 75.48L548.09 75.48L552.13 70.35Q556.07 75.02 561.83 75.02L561.83 75.02Q566.09 75.02 568.55 72.72Q571.01 70.42 571.01 65.95L571.01 65.95L571.01 63.39Q567.32 67.50 561.16 67.50L561.16 67.50Q554.48 67.50 550.25 62.19Q546.01 56.88 546.01 47.50ZM554.52 48.23L554.52 48.23Q554.52 53.96 556.86 57.25Q559.20 60.54 563.34 60.54L563.34 60.54Q568.51 60.54 571.01 56.11L571.01 56.11L571.01 39.38Q568.58 35.05 563.41 35.05L563.41 35.05Q559.20 35.05 556.86 38.39Q554.52 41.73 554.52 48.23Z"/></svg>