<svg xmlns="http://www.w3.org/2000/svg" xmlns:xlink="http://www.w3.org/1999/xlink" width="658.9440000000001" height="86.4"><path fill="#111111" d="M48.17 56.66L42.26 56.66L44.64 69.84L50.83 69.84ZM9.36 56.66L2.02 69.84L8.14 69.84L15.19 56.66ZM21.67 45.07L33.91 23.11L34.85 21.38L34.92 21.38L35.14 21.38L35.21 21.38L35.42 23.11L35.42 23.11L40.03 45.07L45.79 45.07L39.67 15.48L32.33 15.48L15.84 45.07ZM46.37 48.10L14.11 48.10L13.10 53.71L45.36 53.71ZM87.05 60.91C84.10 64.01 80.06 65.74 75.46 65.74C67.10 65.74 63.72 59.54 65.23 50.90C66.74 42.26 72.36 36.07 80.71 36.07C85.32 36.07 88.70 37.80 90.58 40.97L91.66 34.70C89.14 32.11 85.10 31.25 81.50 31.25C70.92 31.25 62.06 39.38 59.90 50.90C57.96 62.42 64.01 70.63 74.59 70.63C78.19 70.63 82.51 69.70 85.97 67.10ZM95.11 31.97L94.03 38.16L91.73 50.90L91.73 50.90L89.50 63.65L88.42 69.84L93.74 69.84L100.44 31.97ZM107.50 64.44L111.10 44.06L112.03 38.95L115.20 20.88L116.14 15.48L110.52 15.48L100.94 69.84C100.94 69.84 103.32 69.84 106.56 69.84ZM134.64 41.26L134.71 40.90C134.71 40.90 142.63 38.52 144.29 28.94C145.66 21.38 141.91 15.48 129.02 15.48L119.16 15.48L118.22 20.88L128.09 20.88C137.09 20.88 139.61 22.75 138.53 29.16C136.51 40.25 127.51 38.95 125.21 38.95C121.97 38.95 117.79 38.95 115.06 38.95L114.12 44.06L128.30 44.06C140.04 44.06 137.66 53.64 137.66 53.64C135.86 63.72 127.80 64.44 121.61 64.44C118.58 64.44 113.69 64.44 110.52 64.44L109.58 69.84C113.33 69.84 117.65 69.84 120.82 69.84C128.30 69.84 140.90 68.11 143.42 53.93C143.42 53.93 145.51 41.90 134.64 41.26ZM154.22 63.65L156.46 50.90L156.46 50.90L158.76 38.16L161.14 24.48L162.72 15.48L157.39 15.48L147.82 69.84L153.14 69.84ZM173.59 31.25C169.99 31.25 165.67 32.11 162.29 34.70L161.21 40.97C164.09 37.80 168.19 36.07 172.80 36.07C181.15 36.07 184.46 42.26 183.02 50.90C181.44 59.54 175.90 65.74 167.54 65.74C162.94 65.74 159.48 64.01 157.68 60.91L156.60 67.10C159.05 69.70 163.08 70.56 166.68 70.56C177.26 70.56 186.19 62.42 188.28 50.90L188.28 50.90C190.30 39.38 184.18 31.25 173.59 31.25ZM229.10 19.80C233.21 20.09 244.37 21.74 245.38 31.97L251.35 31.97C251.35 31.97 251.50 15.41 230.04 14.69ZM218.09 65.45C200.52 64.58 202.25 47.81 202.97 43.56L202.97 43.56L202.97 43.56C202.97 43.56 202.97 43.49 202.97 43.49L202.97 43.49L203.33 41.76L203.33 41.76C203.33 41.76 203.33 41.76 203.33 41.69L203.33 41.69L203.33 41.69C204.05 37.51 208.22 20.74 226.08 19.80L227.02 14.69C221.33 15.05 201.31 17.86 196.99 42.62L196.99 42.62L196.99 42.62C192.60 67.32 211.61 70.20 217.15 70.56ZM221.11 65.45L220.18 70.56C241.92 69.84 247.54 53.28 247.54 53.28L241.56 53.28C236.95 63.50 225.22 65.16 221.11 65.45ZM277.70 36.07C280.51 36.22 287.64 37.44 287.06 45.58L292.82 45.58C292.82 45.58 294.41 31.90 278.50 31.25ZM272.45 65.74L271.58 70.56C287.71 69.91 290.95 56.23 290.95 56.23L285.19 56.23C282.89 64.37 275.33 65.59 272.45 65.74ZM269.42 65.66C262.37 64.80 259.34 58.97 260.71 50.90C260.71 50.90 260.71 50.90 260.71 50.90C262.15 42.84 267.26 37.01 274.61 36.14L275.47 31.32C265.68 32.18 257.18 39.96 255.17 50.90C255.17 50.90 255.17 50.90 255.17 50.90L255.17 50.90L255.17 50.90C253.22 61.85 259.06 69.70 268.56 70.49ZM310.97 15.48L305.35 15.48L295.78 69.84L301.39 69.84ZM324.43 15.48L324.43 15.48L313.92 15.48L313.06 20.52L323.57 20.52C335.59 20.59 341.78 29.16 339.41 42.62C337.03 56.09 327.74 64.73 315.72 64.73L305.21 64.73L304.34 69.84L314.86 69.84C330.26 69.84 342.72 58.75 345.60 42.62C348.41 26.50 339.84 15.48 324.43 15.48ZM378.43 60.91C375.48 64.01 371.45 65.74 366.84 65.74C358.42 65.74 355.10 59.54 356.54 50.90C358.13 42.26 363.67 36.07 372.10 36.07C376.70 36.07 380.09 37.80 381.96 40.97L383.04 34.70C380.52 32.11 376.49 31.25 372.89 31.25C362.30 31.25 353.45 39.38 351.29 50.90L351.29 50.90C349.34 62.42 355.32 70.56 365.98 70.56C369.58 70.56 373.90 69.70 377.35 67.10ZM389.38 15.48L385.42 38.16L385.42 38.16L383.11 50.90L383.11 50.90L383.11 50.90L383.11 50.90L380.88 63.65L380.88 63.65L379.80 69.84L385.13 69.84L394.70 15.48ZM407.52 15.48L401.90 15.48L392.33 69.84L397.94 69.84ZM434.16 38.95L406.37 38.95L405.43 44.06L433.22 44.06ZM400.90 69.84L429.91 69.84L430.85 64.44L401.83 64.44ZM410.47 15.48L409.54 20.88L438.55 20.88L439.49 15.48ZM455.04 65.74L455.04 65.74L455.04 65.74C448.27 65.74 444.46 61.63 444.17 55.44L438.62 55.44C438.84 64.58 445.03 70.56 454.18 70.56C471.53 70.56 474.70 56.23 474.70 56.23L468.94 56.23C466.13 66.24 455.04 65.74 455.04 65.74ZM475.63 50.90C477.72 39.31 471.38 31.25 460.80 31.25C450.22 31.25 441.07 39.31 438.98 50.90C438.98 50.90 438.98 50.90 438.98 50.90L438.98 50.90L438.98 50.90C438.91 51.41 438.84 51.91 438.84 52.42L444.31 52.42L466.20 52.42L469.87 52.42L473.47 52.42L475.42 52.42C475.49 51.91 475.56 51.41 475.63 50.90L475.63 50.90L475.63 50.90C475.63 50.90 475.63 50.90 475.63 50.90ZM445.39 47.52C447.62 40.68 452.81 36.07 460.01 36.07C467.21 36.07 470.59 40.68 470.52 47.52ZM494.71 15.48L489.10 15.48L479.52 69.84L485.14 69.84ZM518.90 55.37L518.76 53.21C518.40 47.23 515.09 45.72 513.58 45.72L513.65 45.36C514.87 45.14 523.15 41.40 524.88 31.61C526.46 22.39 520.63 15.48 510.62 15.48L497.66 15.48L496.73 20.74L509.69 20.74C516.82 20.74 520.34 25.27 519.26 31.61C518.11 37.87 513 42.55 505.87 42.55L492.91 42.55L491.98 47.74L503.42 47.74C508.54 47.74 512.28 48.38 512.93 55.37L512.93 55.37C513.79 65.52 515.09 69.84 515.09 69.84L521.93 69.84C519.12 62.14 518.90 55.37 518.90 55.37ZM553.54 31.25C550.08 31.25 546.62 32.11 543.67 34.49L542.66 40.61C545.18 38.09 548.42 36.65 552.60 36.65C553.39 36.65 554.18 36.72 554.90 36.86L555.84 31.39C555.12 31.32 554.33 31.25 553.54 31.25ZM535.61 63.72L537.77 51.48L537.77 51.48L537.77 51.48L537.77 51.48L540.07 38.23L541.15 32.04L535.82 32.04L529.20 69.84L534.53 69.84ZM613.58 46.30L580.75 46.30L581.69 40.82L614.52 40.82ZM609.41 69.84L604.08 69.84L607.68 49.25L613.01 49.25ZM603.50 56.09C599.90 60.84 593.71 65.52 583.56 65.52C583.56 65.52 563.04 66.24 567.22 42.62C567.22 42.62 569.81 19.80 591.62 19.80C591.62 19.80 608.11 19.44 609.41 31.97L615.38 31.97C615.38 31.97 615.60 14.69 592.56 14.69C592.56 14.69 566.21 13.39 561.10 42.62C561.10 42.62 555.26 70.63 582.70 70.63C582.70 70.63 595.08 71.06 601.99 64.30ZM634.61 70.63C638.21 70.63 642.53 69.77 645.91 67.18L647.06 60.91C644.11 64.01 640.08 65.81 635.47 65.81C627.12 65.81 623.74 59.54 625.25 50.98C626.76 42.34 632.38 36.07 640.73 36.07C645.34 36.07 648.72 37.80 650.59 40.97L651.67 34.70C649.15 32.11 645.12 31.25 641.52 31.25C630.94 31.25 622.08 39.38 619.92 50.98L619.92 50.98C617.98 62.42 624.02 70.63 634.61 70.63ZM655.13 32.04L654.05 38.23L651.82 50.98L651.82 50.98L649.58 63.72L648.65 69.12L648.36 70.56C648.36 70.56 646.85 82.30 633.46 82.30C633.46 82.30 620.86 82.87 623.02 70.56L617.54 70.56C617.54 70.56 613.51 87.19 632.66 87.19C632.66 87.19 650.45 88.42 653.62 70.56L660.38 32.04Z"/></svg>