<svg xmlns="http://www.w3.org/2000/svg" xmlns:xlink="http://www.w3.org/1999/xlink" width="654.2640000000001" height="86.4"><path fill="#111111" d="M47.45 56.66L41.54 56.66L46.22 69.84L52.42 69.84ZM8.64 56.66L3.60 69.84L9.72 69.84L14.47 56.66ZM18.86 45.07L27.29 23.11L27.86 21.38L27.94 21.38L28.15 21.38L28.22 21.38L28.80 23.11L28.80 23.11L37.22 45.07L42.98 45.07L31.68 15.48L24.34 15.48L13.03 45.07ZM44.14 48.10L11.88 48.10L11.88 53.71L44.14 53.71ZM82.44 60.91C80.21 63.50 76.68 65.52 71.71 65.52C66.24 65.52 63.58 63.50 63.50 59.76C63.29 51.70 75.82 53.21 82.44 51.34L82.44 46.58C75.31 49.03 58.18 46.15 58.18 60.05C58.18 66.38 64.08 70.56 71.71 70.56C77.26 70.56 80.50 68.98 82.44 67.25ZM75.24 31.39C65.16 31.39 59.62 38.38 59.62 45.36L59.62 45.86L64.94 45.86L64.94 45.36C64.94 40.10 69.12 36.29 75.24 36.29C81.29 36.29 85.39 39.38 85.39 43.27L85.39 43.27L85.39 63.65L85.39 69.84L88.92 69.84L90.72 69.84L90.72 56.95L90.72 56.02L90.72 56.02L90.72 46.22C90.72 36.50 85.54 31.39 75.24 31.39ZM103.54 64.44L103.54 44.06L103.54 38.95L103.54 20.88L103.54 15.48L97.92 15.48L97.92 69.84C97.92 69.84 100.30 69.84 103.54 69.84ZM126.58 41.26L126.58 40.90C126.58 40.90 134.06 38.52 134.06 28.94C134.06 21.38 129.31 15.48 116.42 15.48L106.56 15.48L106.56 20.88L116.42 20.88C125.42 20.88 128.30 22.75 128.30 29.16C128.30 40.25 119.02 38.95 116.71 38.95C113.47 38.95 109.30 38.95 106.56 38.95L106.56 44.06L120.74 44.06C132.48 44.06 131.76 53.64 131.76 53.64C131.76 63.72 123.84 64.44 117.65 64.44C114.62 64.44 109.73 64.44 106.56 64.44L106.56 69.84C110.30 69.84 114.62 69.84 117.79 69.84C125.28 69.84 137.59 68.11 137.59 53.93C137.59 53.93 137.59 41.90 126.58 41.26ZM150.12 63.65L150.12 50.90L150.12 50.90L150.12 38.16L150.12 24.48L150.12 15.48L144.79 15.48L144.79 69.84L150.12 69.84ZM163.80 31.25C160.20 31.25 156.02 32.11 153.07 34.70L153.07 40.97C155.45 37.80 159.19 36.07 163.80 36.07C172.15 36.07 176.62 42.26 176.69 50.90C176.62 59.54 172.15 65.74 163.80 65.74C159.19 65.74 155.45 64.01 153.07 60.91L153.07 67.10C156.02 69.70 160.20 70.56 163.80 70.56C174.38 70.56 181.87 62.42 181.94 50.90L181.94 50.90C181.87 39.38 174.38 31.25 163.80 31.25ZM217.30 19.80C221.40 20.09 232.85 21.74 235.66 31.97L241.63 31.97C241.63 31.97 238.90 15.41 217.30 14.69ZM214.27 65.45C196.56 64.58 195.34 47.81 195.34 43.56L195.34 43.56L195.34 43.56C195.34 43.56 195.34 43.49 195.34 43.49L195.34 43.49L195.34 41.76L195.34 41.76C195.34 41.76 195.34 41.76 195.34 41.69L195.34 41.69L195.34 41.69C195.34 37.51 196.56 20.74 214.27 19.80L214.27 14.69C208.66 15.05 189.14 17.86 189.14 42.62L189.14 42.62L189.14 42.62C189.14 67.32 208.66 70.20 214.27 70.56ZM217.30 65.45L217.30 70.56C238.90 69.84 241.63 53.28 241.63 53.28L235.66 53.28C232.85 63.50 221.40 65.16 217.30 65.45ZM268.70 36.07C271.58 36.22 278.93 37.44 279.79 45.58L285.55 45.58C285.55 45.58 284.69 31.90 268.70 31.25ZM268.70 65.74L268.70 70.56C284.69 69.91 285.55 56.23 285.55 56.23L279.79 56.23C278.93 64.37 271.58 65.59 268.70 65.74ZM265.68 65.66C258.48 64.80 254.38 58.97 254.38 50.90C254.38 50.90 254.38 50.90 254.38 50.90C254.38 42.84 258.48 37.01 265.68 36.14L265.68 31.32C256.03 32.18 248.90 39.96 248.83 50.90C248.83 50.90 248.83 50.90 248.83 50.90L248.83 50.90L248.83 50.90C248.83 61.85 256.03 69.70 265.68 70.49ZM298.37 15.48L292.75 15.48L292.75 69.84L298.37 69.84ZM311.83 15.48L311.83 15.48L301.32 15.48L301.32 20.52L311.83 20.52C323.86 20.59 331.56 29.16 331.56 42.62C331.56 56.09 323.86 64.73 311.83 64.73L301.32 64.73L301.32 69.84L311.83 69.84C327.24 69.84 337.75 58.75 337.75 42.62C337.75 26.50 327.24 15.48 311.83 15.48ZM373.82 60.91C371.45 64.01 367.70 65.74 363.10 65.74C354.67 65.74 350.28 59.54 350.21 50.90C350.28 42.26 354.67 36.07 363.10 36.07C367.70 36.07 371.45 37.80 373.82 40.97L373.82 34.70C370.87 32.11 366.70 31.25 363.10 31.25C352.51 31.25 345.02 39.38 344.95 50.90L344.95 50.90C345.02 62.42 352.44 70.56 363.10 70.56C366.70 70.56 370.87 69.70 373.82 67.10ZM376.78 15.48L376.78 38.16L376.78 38.16L376.78 50.90L376.78 50.90L376.78 50.90L376.78 50.90L376.78 63.65L376.78 63.65L376.78 69.84L382.10 69.84L382.10 15.48ZM394.92 15.48L389.30 15.48L389.30 69.84L394.92 69.84ZM425.66 38.95L397.87 38.95L397.87 44.06L425.66 44.06ZM397.87 69.84L426.89 69.84L426.89 64.44L397.87 64.44ZM397.87 15.48L397.87 20.88L426.89 20.88L426.89 15.48ZM451.30 65.74L451.30 65.74L451.30 65.74C444.53 65.74 439.99 61.63 438.62 55.44L433.08 55.44C434.88 64.58 442.15 70.56 451.30 70.56C468.65 70.56 469.30 56.23 469.30 56.23L463.54 56.23C462.46 66.24 451.30 65.74 451.30 65.74ZM469.30 50.90C469.30 39.31 461.59 31.25 451.01 31.25C440.42 31.25 432.65 39.31 432.65 50.90C432.65 50.90 432.65 50.90 432.65 50.90L432.65 50.90L432.65 50.90C432.65 51.41 432.65 51.91 432.72 52.42L438.19 52.42L460.08 52.42L463.75 52.42L467.35 52.42L469.30 52.42C469.30 51.91 469.30 51.41 469.30 50.90L469.30 50.90L469.30 50.90C469.30 50.90 469.30 50.90 469.30 50.90ZM438.41 47.52C439.49 40.68 443.81 36.07 451.01 36.07C458.21 36.07 462.46 40.68 463.54 47.52ZM482.11 15.48L476.50 15.48L476.50 69.84L482.11 69.84ZM513.36 55.37L512.78 53.21C511.42 47.23 507.82 45.72 506.30 45.72L506.30 45.36C507.53 45.14 515.09 41.40 515.09 31.61C515.09 22.39 508.03 15.48 498.02 15.48L485.06 15.48L485.06 20.74L498.02 20.74C505.15 20.74 509.47 25.27 509.47 31.61C509.47 37.87 505.15 42.55 498.02 42.55L485.06 42.55L485.06 47.74L496.51 47.74C501.62 47.74 505.51 48.38 507.38 55.37L507.38 55.37C510.05 65.52 512.06 69.84 512.06 69.84L518.90 69.84C514.73 62.14 513.36 55.37 513.36 55.37ZM543.67 31.25C540.22 31.25 536.90 32.11 534.38 34.49L534.38 40.61C536.47 38.09 539.50 36.65 543.67 36.65C544.46 36.65 545.26 36.72 545.98 36.86L545.98 31.39C545.26 31.32 544.46 31.25 543.67 31.25ZM531.43 63.72L531.43 51.48L531.43 51.48L531.43 51.48L531.43 51.48L531.43 38.23L531.43 32.04L526.10 32.04L526.10 69.84L531.43 69.84ZM606.31 46.30L573.48 46.30L573.48 40.82L606.31 40.82ZM606.31 69.84L600.98 69.84L600.98 49.25L606.31 49.25ZM597.96 56.09C595.22 60.84 589.90 65.52 579.74 65.52C579.74 65.52 559.30 66.24 559.30 42.62C559.30 42.62 557.93 19.80 579.74 19.80C579.74 19.80 596.16 19.44 599.62 31.97L605.59 31.97C605.59 31.97 602.78 14.69 579.74 14.69C579.74 14.69 553.18 13.39 553.18 42.62C553.18 42.62 552.31 70.63 579.74 70.63C579.74 70.63 592.20 71.06 597.96 64.30ZM631.66 70.63C635.26 70.63 639.43 69.77 642.38 67.18L642.38 60.91C640.01 64.01 636.26 65.81 631.66 65.81C623.30 65.81 618.84 59.54 618.84 50.98C618.84 42.34 623.30 36.07 631.66 36.07C636.26 36.07 640.01 37.80 642.38 40.97L642.38 34.70C639.43 32.11 635.26 31.25 631.66 31.25C621.07 31.25 613.58 39.38 613.51 50.98L613.51 50.98C613.58 62.42 621.07 70.63 631.66 70.63ZM645.41 32.04L645.41 38.23L645.41 50.98L645.41 50.98L645.41 63.72L645.41 69.12L645.41 70.56C645.41 70.56 645.98 82.30 632.59 82.30C632.59 82.30 620.06 82.87 620.06 70.56L614.59 70.56C614.59 70.56 613.51 87.19 632.66 87.19C632.66 87.19 650.66 88.42 650.66 70.56L650.66 32.04Z"/></svg>