<svg xmlns="http://www.w3.org/2000/svg" xmlns:xlink="http://www.w3.org/1999/xlink" width="658.7280000000001" height="86.4"><path fill="#111111" d="M39.67 15.48L32.33 15.48L2.02 69.84L8.14 69.84L16.78 53.71L41.69 53.71L44.64 69.84L50.83 69.84ZM40.61 48.10L40.39 48.10L40.25 48.10L39.02 48.10L21.46 48.10L20.23 48.10L20.09 48.10L19.87 48.10L19.94 47.74L21.17 45.86L33.91 23.11L34.85 21.38L34.92 21.38L35.14 21.38L35.14 21.38L35.42 23.11L35.42 23.11L40.18 45.86L40.18 45.86L40.68 47.74ZM59.90 50.90L59.90 50.90L59.90 50.90C57.96 62.42 64.01 70.63 74.59 70.63C79.49 70.63 85.68 68.98 89.21 63.65L89.50 63.65L88.42 69.84L93.74 69.84L100.44 31.97L95.11 31.97L94.03 38.16L93.74 38.16C92.09 32.83 86.40 31.25 81.50 31.25C70.92 31.25 62.06 39.38 59.90 50.90ZM65.23 50.90L65.23 50.90C66.74 42.26 72.36 36.07 80.71 36.07C89.06 36.07 93.38 41.76 91.73 50.90L91.73 50.90L91.73 50.90L91.73 50.90L91.73 50.90L91.73 50.90C90.14 60.19 83.81 65.74 75.46 65.74C67.10 65.74 63.72 59.54 65.23 50.90ZM134.64 41.26L134.71 40.90C134.71 40.90 142.63 38.52 144.29 28.94C145.66 21.38 141.84 15.48 129.02 15.48L110.52 15.48L100.94 69.84C100.94 69.84 113.69 69.84 120.82 69.84C128.30 69.84 140.90 68.11 143.42 53.93C143.42 53.93 145.51 41.90 134.64 41.26ZM115.20 20.88L128.09 20.88C137.09 20.88 139.54 22.75 138.46 29.16C136.44 40.25 127.51 38.95 125.14 38.95C119.88 38.95 112.03 38.95 112.03 38.95ZM137.66 53.64C135.86 63.72 127.80 64.44 121.61 64.44C116.86 64.44 107.50 64.44 107.50 64.44L111.10 44.06L128.30 44.06C139.97 44.06 137.66 53.64 137.66 53.64ZM188.28 50.90C190.30 39.38 184.18 31.25 173.59 31.25C168.70 31.25 162.58 32.83 159.12 38.16L158.76 38.16L162.72 15.48L157.39 15.48L147.82 69.84L153.14 69.84L154.22 63.65L154.58 63.65C156.17 68.98 161.78 70.63 166.68 70.63C177.26 70.63 186.19 62.42 188.28 50.90L188.28 50.90ZM167.54 65.74C159.26 65.74 154.87 60.19 156.46 50.90L156.46 50.90L156.46 50.90L156.46 50.90L156.46 50.90L156.46 50.90C158.11 41.76 164.52 36.07 172.80 36.07C181.15 36.07 184.46 42.26 183.02 50.90L183.02 50.90C181.44 59.54 175.90 65.74 167.54 65.74ZM219.53 65.52C200.38 65.52 202.25 47.88 202.97 43.56L202.97 43.56L202.97 43.56C202.97 43.56 202.97 43.49 202.97 43.49L202.97 43.49L203.33 41.76L203.33 41.76C203.33 41.76 203.33 41.76 203.33 41.76L203.33 41.69L203.33 41.69C204.05 37.44 208.44 19.80 227.59 19.80C227.59 19.80 244.08 19.44 245.30 31.97L251.35 31.97C251.35 31.97 251.50 14.69 228.53 14.69C228.53 14.69 202.03 13.68 196.99 42.62C196.99 42.62 196.99 42.62 196.99 42.62C196.99 42.62 196.99 42.62 196.99 42.62C191.88 71.50 218.66 70.56 218.66 70.56C241.63 70.56 247.54 53.28 247.54 53.28L241.49 53.28C235.94 65.81 219.53 65.52 219.53 65.52ZM271.22 65.74L271.22 65.74C271.22 65.74 271.22 65.74 271.22 65.74C262.87 65.74 259.20 59.62 260.71 50.90C260.71 50.90 260.71 50.90 260.71 50.90C262.30 42.19 268.13 36.07 276.48 36.07C276.48 36.07 276.48 36.07 276.48 36.07L276.48 36.07C276.48 36.07 287.78 35.42 287.06 45.58L292.82 45.58C292.82 45.58 294.41 31.25 277.27 31.25L277.27 31.25C277.27 31.25 277.27 31.25 277.27 31.25C266.69 31.25 257.26 39.31 255.17 50.90C255.17 50.90 255.17 50.90 255.17 50.90C255.17 50.90 255.17 50.90 255.17 50.90L255.17 50.90C253.15 62.50 259.78 70.63 270.36 70.63C270.36 70.63 270.36 70.63 270.36 70.63L270.36 70.63C287.50 70.63 290.95 56.23 290.95 56.23L285.19 56.23C282.31 66.38 271.22 65.74 271.22 65.74ZM324.43 15.48L324.43 15.48L310.97 15.48L305.35 15.48L295.78 69.84L301.39 69.84L314.86 69.84C330.26 69.84 342.72 58.75 345.60 42.62C348.41 26.50 339.84 15.48 324.43 15.48ZM315.72 64.73L302.26 64.73L310.10 20.59L323.57 20.59C335.59 20.59 341.78 29.16 339.34 42.70C336.96 56.16 327.74 64.73 315.72 64.73ZM351.29 50.90L351.29 50.90L351.29 50.90C349.34 62.42 355.39 70.63 365.98 70.63C370.87 70.63 377.06 68.98 380.59 63.65L380.95 63.65L379.87 69.84L385.13 69.84L394.70 15.48L389.45 15.48L385.49 38.16L385.13 38.16C383.47 32.83 377.78 31.25 372.89 31.25C362.30 31.25 353.45 39.38 351.29 50.90ZM356.62 50.90L356.62 50.90C358.13 42.26 363.74 36.07 372.10 36.07C380.45 36.07 384.77 41.76 383.11 50.90L383.11 50.90L383.18 50.90L383.18 50.90L383.11 50.90L383.11 50.90C381.53 60.19 375.19 65.74 366.84 65.74C358.49 65.74 355.10 59.54 356.62 50.90ZM401.90 15.48L439.49 15.48L438.55 20.88L406.58 20.88L403.42 38.95L434.16 38.95L433.22 44.06L402.48 44.06L398.88 64.44L430.85 64.44L429.91 69.84L392.33 69.84ZM475.63 50.90C477.72 39.31 471.38 31.25 460.80 31.25C450.22 31.25 441.07 39.31 438.98 50.90C438.98 50.90 438.98 50.90 438.98 50.90C438.98 50.90 438.98 50.90 438.98 50.90L438.98 50.90C436.97 62.50 443.66 70.63 454.18 70.63L454.18 70.63C471.53 70.63 474.77 56.23 474.77 56.23L468.94 56.23C466.20 66.24 455.04 65.74 455.04 65.74L455.04 65.74L455.04 65.74C447.19 65.74 443.38 60.34 444.31 52.42L469.87 52.42L473.47 52.42L475.42 52.42C475.49 51.91 475.63 51.41 475.70 50.90L475.70 50.90C475.70 50.90 475.70 50.90 475.70 50.90C475.70 50.90 475.63 50.90 475.63 50.90ZM460.01 36.07C467.28 36.07 470.59 40.68 470.52 47.52L445.39 47.52C447.62 40.68 452.81 36.07 460.01 36.07ZM518.69 55.58L518.54 53.42C518.26 47.52 514.87 46.01 513.36 46.01L513.43 45.65C514.73 45.43 522.86 41.69 524.59 31.97C526.18 22.82 520.42 15.98 510.48 15.98L489.10 15.98L479.59 69.98L485.14 69.98L488.95 48.02L503.28 48.02C508.39 48.02 512.14 48.67 512.78 55.58L512.78 55.58C513.65 65.74 514.87 69.98 514.87 69.98L521.71 69.98C518.83 62.28 518.69 55.58 518.69 55.58ZM505.73 42.91L489.89 42.91L493.70 21.24L509.54 21.24C516.60 21.24 520.13 25.70 519.05 31.97C517.90 38.23 512.78 42.91 505.73 42.91ZM555.62 31.39C554.83 31.32 554.11 31.25 553.32 31.25C548.42 31.25 543.74 32.83 540.22 38.23L539.86 38.23L540.94 32.04L535.61 32.04L528.98 69.84L534.31 69.84L535.39 63.72L537.55 51.48L537.55 51.48L537.55 51.48L537.55 51.48C539.21 42.19 544.03 36.65 552.38 36.65C553.18 36.65 553.97 36.72 554.69 36.86ZM615.24 31.97C615.24 31.97 615.38 14.69 592.42 14.69C592.42 14.69 565.99 13.46 560.88 42.62C560.88 42.62 555.05 70.63 582.55 70.63C582.55 70.63 600.34 71.28 605.30 59.33L605.66 59.33L603.79 69.84L609.19 69.84L614.30 40.82L581.54 40.82L580.61 46.30L608.04 46.30C608.04 46.30 604.01 65.52 583.42 65.52C583.42 65.52 562.90 66.24 567.07 42.62C567.07 42.62 569.66 19.80 591.48 19.80C591.48 19.80 607.97 19.44 609.19 31.97ZM654.84 32.04L653.76 38.23L653.40 38.23C651.82 32.90 646.20 31.32 641.30 31.32C630.72 31.32 621.79 39.46 619.70 50.98L619.70 50.98C617.76 62.50 623.81 70.63 634.39 70.63C639.29 70.63 645.48 69.05 648.94 63.72L649.30 63.72L648.07 70.63C648.07 70.63 646.56 82.30 633.17 82.30C633.17 82.30 620.57 82.87 622.73 70.63L617.26 70.63C617.26 70.63 613.30 87.19 632.45 87.19C632.45 87.19 650.23 88.42 653.40 70.63L660.17 32.04ZM651.53 50.98L651.53 50.98C649.94 60.19 643.54 65.81 635.26 65.81C626.90 65.81 623.52 59.62 625.03 50.98C626.54 42.34 632.09 36.14 640.44 36.14C648.72 36.14 653.18 41.69 651.53 50.98L651.53 50.98L651.53 50.98Z"/></svg>