<svg xmlns="http://www.w3.org/2000/svg" xmlns:xlink="http://www.w3.org/1999/xlink" width="657.864" height="86.4"><path fill="#111111" d="M31.68 15.48L24.34 15.48L3.60 69.84L9.72 69.84L15.55 53.71L40.46 53.71L46.22 69.84L52.42 69.84ZM38.38 48.10L38.16 48.10L38.02 48.10L36.79 48.10L19.22 48.10L18.00 48.10L17.86 48.10L17.64 48.10L17.64 47.74L18.50 45.86L27.29 23.11L27.86 21.38L27.94 21.38L28.15 21.38L28.15 21.38L28.80 23.11L28.80 23.11L37.51 45.86L37.51 45.86L38.38 47.74ZM58.18 60.12C58.18 42.55 85.32 51.70 85.32 43.34C85.32 39.46 81.22 36.36 75.17 36.36C69.05 36.36 64.94 40.10 64.94 45.43L64.94 45.86L59.62 45.86L59.62 45.43C59.62 38.45 65.16 31.46 75.17 31.46C85.46 31.46 90.65 36.58 90.65 46.30L90.65 61.99C90.65 63.79 91.15 65.30 93.02 65.30C93.67 65.30 94.03 65.23 94.54 65.09L94.54 69.62C93.17 69.98 92.45 70.27 91.22 70.27C86.18 70.27 85.32 65.81 85.32 63.65L85.03 63.65C84.10 65.38 81.65 70.63 71.64 70.63C64.08 70.63 58.18 66.38 58.18 60.12ZM85.32 53.71L85.32 49.90C80.93 54.14 63.22 50.18 63.50 59.83C63.58 63.50 66.17 65.52 71.64 65.52C81.07 65.52 85.32 58.25 85.32 53.71ZM130.39 41.26L130.39 40.90C130.39 40.90 137.88 38.52 137.88 28.94C137.88 21.38 133.06 15.48 120.24 15.48L101.74 15.48L101.74 69.84C101.74 69.84 114.48 69.84 121.61 69.84C129.10 69.84 141.41 68.11 141.41 53.93C141.41 53.93 141.41 41.90 130.39 41.26ZM107.35 20.88L120.24 20.88C129.24 20.88 132.05 22.75 132.05 29.16C132.05 40.25 122.83 38.95 120.46 38.95C115.20 38.95 107.35 38.95 107.35 38.95ZM135.58 53.64C135.58 63.72 127.66 64.44 121.46 64.44C116.71 64.44 107.35 64.44 107.35 64.44L107.35 44.06L124.56 44.06C136.22 44.06 135.58 53.64 135.58 53.64ZM185.76 50.90C185.69 39.38 178.20 31.25 167.62 31.25C162.72 31.25 156.82 32.83 154.30 38.16L153.94 38.16L153.94 15.48L148.61 15.48L148.61 69.84L153.94 69.84L153.94 63.65L154.30 63.65C156.82 68.98 162.72 70.63 167.62 70.63C178.20 70.63 185.69 62.42 185.76 50.90L185.76 50.90ZM167.62 65.74C159.34 65.74 153.94 60.19 153.94 50.90L153.94 50.90L153.94 50.90L153.94 50.90L153.94 50.90L153.94 50.90C153.94 41.76 159.34 36.07 167.62 36.07C175.97 36.07 180.43 42.26 180.50 50.90L180.50 50.90C180.43 59.54 175.97 65.74 167.62 65.74ZM219.60 65.52C200.45 65.52 199.15 47.88 199.15 43.56L199.15 43.56L199.15 43.56C199.15 43.56 199.15 43.49 199.15 43.49L199.15 43.49L199.15 41.76L199.15 41.76C199.15 41.76 199.15 41.76 199.15 41.76L199.15 41.69L199.15 41.69C199.15 37.44 200.45 19.80 219.60 19.80C219.60 19.80 236.02 19.44 239.40 31.97L245.45 31.97C245.45 31.97 242.57 14.69 219.60 14.69C219.60 14.69 192.96 13.68 192.96 42.62C192.96 42.62 192.96 42.62 192.96 42.62C192.96 42.62 192.96 42.62 192.96 42.62C192.96 71.50 219.60 70.56 219.60 70.56C242.57 70.56 245.45 53.28 245.45 53.28L239.40 53.28C236.02 65.81 219.60 65.52 219.60 65.52ZM271.30 65.74L271.30 65.74C271.30 65.74 271.30 65.74 271.30 65.74C262.94 65.74 258.19 59.62 258.19 50.90C258.19 50.90 258.19 50.90 258.19 50.90C258.19 42.19 262.94 36.07 271.30 36.07C271.30 36.07 271.30 36.07 271.30 36.07L271.30 36.07C271.30 36.07 282.53 35.42 283.61 45.58L289.37 45.58C289.37 45.58 288.43 31.25 271.30 31.25L271.30 31.25C271.30 31.25 271.30 31.25 271.30 31.25C260.71 31.25 252.65 39.31 252.65 50.90C252.65 50.90 252.65 50.90 252.65 50.90C252.65 50.90 252.65 50.90 252.65 50.90L252.65 50.90C252.65 62.50 260.71 70.63 271.30 70.63C271.30 70.63 271.30 70.63 271.30 70.63L271.30 70.63C288.43 70.63 289.37 56.23 289.37 56.23L283.61 56.23C282.53 66.38 271.30 65.74 271.30 65.74ZM315.65 15.48L315.65 15.48L302.18 15.48L296.57 15.48L296.57 69.84L302.18 69.84L315.65 69.84C331.06 69.84 341.57 58.75 341.57 42.62C341.57 26.50 331.06 15.48 315.65 15.48ZM315.65 64.73L302.18 64.73L302.18 20.59L315.65 20.59C327.67 20.59 335.38 29.16 335.38 42.70C335.38 56.16 327.67 64.73 315.65 64.73ZM348.77 50.90L348.77 50.90L348.77 50.90C348.84 62.42 356.33 70.63 366.91 70.63C371.81 70.63 377.71 68.98 380.30 63.65L380.66 63.65L380.66 69.84L385.92 69.84L385.92 15.48L380.66 15.48L380.66 38.16L380.30 38.16C377.71 32.83 371.81 31.25 366.91 31.25C356.33 31.25 348.84 39.38 348.77 50.90ZM354.10 50.90L354.10 50.90C354.10 42.26 358.56 36.07 366.91 36.07C375.26 36.07 380.59 41.76 380.59 50.90L380.59 50.90L380.66 50.90L380.66 50.90L380.59 50.90L380.59 50.90C380.59 60.19 375.26 65.74 366.91 65.74C358.56 65.74 354.10 59.54 354.10 50.90ZM393.12 15.48L430.70 15.48L430.70 20.88L398.74 20.88L398.74 38.95L429.48 38.95L429.48 44.06L398.74 44.06L398.74 64.44L430.70 64.44L430.70 69.84L393.12 69.84ZM473.11 50.90C473.11 39.31 465.41 31.25 454.82 31.25C444.24 31.25 436.46 39.31 436.46 50.90C436.46 50.90 436.46 50.90 436.46 50.90C436.46 50.90 436.46 50.90 436.46 50.90L436.46 50.90C436.46 62.50 444.60 70.63 455.11 70.63L455.11 70.63C472.46 70.63 473.18 56.23 473.18 56.23L467.35 56.23C466.34 66.24 455.11 65.74 455.11 65.74L455.11 65.74L455.11 65.74C447.26 65.74 442.51 60.34 442.01 52.42L467.57 52.42L471.17 52.42L473.11 52.42C473.11 51.91 473.18 51.41 473.18 50.90L473.18 50.90C473.18 50.90 473.18 50.90 473.18 50.90C473.18 50.90 473.11 50.90 473.11 50.90ZM454.82 36.07C462.10 36.07 466.27 40.68 467.35 47.52L442.22 47.52C443.30 40.68 447.62 36.07 454.82 36.07ZM516.96 55.58L516.46 53.42C515.09 47.52 511.49 46.01 509.98 46.01L509.98 45.65C511.20 45.43 518.69 41.69 518.69 31.97C518.69 22.82 511.70 15.98 501.77 15.98L480.38 15.98L480.38 69.98L485.93 69.98L485.93 48.02L500.26 48.02C505.37 48.02 509.18 48.67 511.06 55.58L511.06 55.58C513.72 65.74 515.66 69.98 515.66 69.98L522.50 69.98C518.33 62.28 516.96 55.58 516.96 55.58ZM501.77 42.91L485.93 42.91L485.93 21.24L501.77 21.24C508.82 21.24 513.14 25.70 513.14 31.97C513.14 38.23 508.82 42.91 501.77 42.91ZM549.58 31.39C548.78 31.32 548.06 31.25 547.27 31.25C542.38 31.25 537.91 32.83 535.39 38.23L535.03 38.23L535.03 32.04L529.70 32.04L529.70 69.84L535.03 69.84L535.03 63.72L535.03 51.48L535.03 51.48L535.03 51.48L535.03 51.48C535.03 42.19 538.92 36.65 547.27 36.65C548.06 36.65 548.86 36.72 549.58 36.86ZM609.26 31.97C609.26 31.97 606.38 14.69 583.42 14.69C583.42 14.69 556.78 13.46 556.78 42.62C556.78 42.62 555.91 70.63 583.42 70.63C583.42 70.63 601.34 71.28 604.15 59.33L604.51 59.33L604.51 69.84L609.91 69.84L609.91 40.82L577.15 40.82L577.15 46.30L604.58 46.30C604.58 46.30 604.01 65.52 583.42 65.52C583.42 65.52 562.97 66.24 562.97 42.62C562.97 42.62 561.60 19.80 583.42 19.80C583.42 19.80 599.83 19.44 603.22 31.97ZM648.94 32.04L648.94 38.23L648.58 38.23C646.06 32.90 640.15 31.32 635.26 31.32C624.67 31.32 617.18 39.46 617.11 50.98L617.11 50.98C617.18 62.50 624.67 70.63 635.26 70.63C640.15 70.63 646.06 69.05 648.58 63.72L648.94 63.72L648.94 70.63C648.94 70.63 649.51 82.30 636.12 82.30C636.12 82.30 623.59 82.87 623.59 70.63L618.12 70.63C618.12 70.63 617.11 87.19 636.26 87.19C636.26 87.19 654.26 88.42 654.26 70.63L654.26 32.04ZM648.94 50.98L648.94 50.98C648.94 60.19 643.54 65.81 635.26 65.81C626.90 65.81 622.44 59.62 622.44 50.98C622.44 42.34 626.90 36.14 635.26 36.14C643.54 36.14 648.94 41.69 648.94 50.98L648.94 50.98L648.94 50.98Z"/></svg>