<svg xmlns="http://www.w3.org/2000/svg" xmlns:xlink="http://www.w3.org/1999/xlink" width="593.0640000000001" height="86.4"><path fill="#111111" d="M17.86 20.45L1.30 70.85L7.63 70.85L11.66 58.10L33.19 58.10L37.22 70.85L43.56 70.85L27.00 20.45ZM13.32 52.78L21.96 25.78L22.82 25.78L31.46 52.78ZM48.89 44.78L53.71 46.94C55.73 42.34 59.33 39.10 65.59 39.10C71.93 39.10 75.67 42.41 75.67 47.74L75.67 49.54L61.34 50.83C53.21 51.62 48.38 55.01 48.38 61.20C48.38 67.61 53.57 71.86 61.49 71.86C69.19 71.86 73.08 68.18 74.74 64.80L75.67 64.80L75.67 70.85L81.14 70.85L81.14 48.02C81.14 39.60 75.24 34.13 65.74 34.13C56.95 34.13 51.41 39.24 48.89 44.78ZM53.93 61.06C53.93 57.46 57.10 55.66 62.06 55.22L75.67 53.93L75.67 54.79C75.67 62.14 70.70 67.18 62.21 67.18C57.10 67.18 53.93 64.94 53.93 61.06ZM91.58 20.45L91.58 70.85L111.96 70.85C120.60 70.85 127.01 65.88 127.01 57.38C127.01 51.05 122.83 47.16 118.22 46.01L118.22 45.14C122.90 43.85 126.86 40.10 126.86 33.77C126.86 25.34 120.60 20.45 112.03 20.45ZM97.49 25.85L111.53 25.85C117.36 25.85 121.18 29.16 121.18 34.20C121.18 39.46 117.58 42.84 111.67 42.84L97.49 42.84ZM97.49 48.24L111.60 48.24C117.72 48.24 121.25 51.55 121.25 56.88C121.25 61.99 117.58 65.45 111.67 65.45L97.49 65.45ZM135.94 20.45L135.94 70.85L141.26 70.85L141.26 64.73L142.27 64.73C144.29 68.18 147.82 71.86 155.09 71.86C164.45 71.86 171.72 64.22 171.72 52.99C171.72 41.76 164.45 34.13 155.09 34.13C147.82 34.13 144.29 37.80 142.27 41.26L141.41 41.26L141.41 20.45ZM153.79 39.10C161.14 39.10 166.18 44.28 166.18 52.99C166.18 61.70 161.14 66.89 153.79 66.89C146.38 66.89 141.41 61.49 141.41 52.99C141.41 44.50 146.38 39.10 153.79 39.10ZM178.70 40.32L178.70 50.98C178.70 64.22 185.98 71.86 198.36 71.86C210.02 71.86 216.86 64.87 216.86 53.71L216.86 52.56L210.96 52.56L210.96 53.71C210.96 61.49 207.07 66.46 198.36 66.46C189.58 66.46 184.61 60.91 184.61 51.19L184.61 40.10C184.61 30.38 189.58 24.84 198.36 24.84C206.78 24.84 210.96 29.88 210.96 37.73L210.96 38.74L216.86 38.74L216.86 37.51C216.86 26.64 210.31 19.44 198.36 19.44C186.12 19.44 178.70 27.07 178.70 40.32ZM223.42 52.99C223.42 63.94 231.19 71.86 241.70 71.86C251.57 71.86 257.04 65.30 258.48 58.25L253.01 57.17C252.00 62.42 248.76 66.82 241.70 66.82C234.29 66.82 228.96 61.13 228.96 52.99C228.96 44.86 234.29 39.17 241.56 39.17C248.11 39.17 252.22 43.20 252.86 48.82L258.34 47.66C257.04 40.03 250.78 34.13 241.56 34.13C231.19 34.13 223.42 42.05 223.42 52.99ZM266.69 20.45L266.69 70.85L281.95 70.85C294.77 70.85 302.33 64.58 302.33 51.05L302.33 40.25C302.33 26.71 294.77 20.45 281.95 20.45ZM272.59 25.85L281.81 25.85C291.53 25.85 296.42 29.81 296.42 40.18L296.42 51.12C296.42 61.49 291.60 65.45 281.81 65.45L272.59 65.45ZM345.10 20.45L339.62 20.45L339.62 41.26L338.76 41.26C336.74 37.80 333.22 34.13 325.94 34.13C316.58 34.13 309.31 41.76 309.31 52.99C309.31 64.22 316.58 71.86 325.94 71.86C333.22 71.86 336.74 68.18 338.76 64.73L339.77 64.73L339.77 70.85L345.10 70.85ZM327.24 39.10C334.66 39.10 339.62 44.50 339.62 52.99C339.62 61.49 334.66 66.89 327.24 66.89C319.97 66.89 314.86 61.70 314.86 52.99C314.86 44.28 319.97 39.10 327.24 39.10ZM355.97 20.45L355.97 70.85L387.94 70.85L387.94 65.45L361.87 65.45L361.87 48.24L385.63 48.24L385.63 42.91L361.87 42.91L361.87 25.85L387.65 25.85L387.65 20.45ZM394.13 52.70C394.13 63.50 401.40 71.86 412.34 71.86C421.13 71.86 425.45 67.03 427.97 62.50L423.14 59.98C421.20 64.01 418.03 66.96 412.27 66.96C405.22 66.96 400.32 62.28 399.89 54.79L429.19 54.79L429.19 51.84C429.19 41.26 421.99 34.13 411.91 34.13C401.76 34.13 394.13 42.19 394.13 52.70ZM399.89 50.26C400.54 43.13 405.29 39.02 411.91 39.02C418.61 39.02 423.29 43.13 423.43 50.26ZM473.90 35.06C473.90 26.06 467.35 20.45 458.28 20.45L437.76 20.45L437.76 70.85L443.66 70.85L443.66 49.68L455.18 49.68L466.27 70.85L472.82 70.85L461.16 49.46C468.65 48.38 473.90 43.06 473.90 35.06ZM443.66 25.85L457.63 25.85C464.33 25.85 468.00 29.16 468.00 35.06C468.00 40.97 464.18 44.28 457.63 44.28L443.66 44.28ZM487.22 35.14L481.97 35.14L481.97 70.85L487.44 70.85L487.44 49.03C487.44 43.27 490.46 40.32 495.65 40.32L501.70 40.32L501.70 34.99L497.16 34.99C492.12 34.99 489.38 36.86 488.09 40.39L487.22 40.39ZM507.10 50.98C507.10 64.22 514.37 71.86 526.61 71.86C538.20 71.86 544.90 64.87 544.90 53.71L544.90 46.73L524.16 46.73L524.16 52.06L538.99 52.06L538.99 53.71C538.99 61.49 535.25 66.46 526.61 66.46C517.97 66.46 513.00 60.91 513.00 51.19L513.00 40.10C513.00 30.38 517.97 24.84 526.68 24.84C535.10 24.84 538.99 29.81 538.99 37.73L538.99 38.38L544.90 38.38L544.90 37.73C544.90 26.64 538.56 19.44 526.68 19.44C514.51 19.44 507.10 27.07 507.10 40.32ZM582.34 35.14L582.34 41.26L581.33 41.26C579.31 37.80 575.78 34.13 568.51 34.13C559.15 34.13 551.88 41.62 551.88 52.63C551.88 63.65 559.15 71.14 568.51 71.14C575.78 71.14 579.31 67.46 581.33 64.01L582.19 64.01L582.19 78.26C582.19 79.70 581.47 80.42 580.18 80.42L554.90 80.42L554.90 85.25L582.26 85.25C585.50 85.25 587.66 83.09 587.66 79.70L587.66 35.14ZM569.81 66.10C562.54 66.10 557.42 61.13 557.42 52.63C557.42 44.06 562.54 39.10 569.81 39.10C577.22 39.10 582.19 44.35 582.19 52.63C582.19 60.91 577.22 66.10 569.81 66.10Z"/></svg>