<svg xmlns="http://www.w3.org/2000/svg" xmlns:xlink="http://www.w3.org/1999/xlink" width="591.264" height="86.4"><path fill="#111111" d="M17.06 20.45L1.30 70.85L8.93 70.85L12.60 58.75L32.90 58.75L36.58 70.85L44.21 70.85L28.44 20.45ZM14.54 52.13L22.32 26.78L23.18 26.78L30.96 52.13ZM49.39 44.42L55.22 47.09C56.88 42.98 60.26 40.18 66.02 40.18C71.78 40.18 75.17 43.06 75.17 47.88L75.17 48.89L62.14 50.11C53.06 50.98 48.67 54.65 48.67 61.06C48.67 67.39 53.78 71.86 61.70 71.86C68.98 71.86 72.65 68.47 74.16 65.30L75.17 65.30L75.17 70.85L81.79 70.85L81.79 48.17C81.79 39.67 75.67 34.13 66.17 34.13C57.53 34.13 51.91 38.95 49.39 44.42ZM55.51 60.77C55.51 57.17 58.75 55.73 62.86 55.37L75.17 54.22L75.17 55.15C75.17 61.27 71.14 66.24 62.86 66.24C58.18 66.24 55.51 64.08 55.51 60.77ZM91.58 20.45L91.58 70.85L112.54 70.85C121.18 70.85 127.44 65.74 127.44 57.24C127.44 51.34 123.77 47.38 118.94 46.01L118.94 45.14C123.98 43.85 127.30 39.89 127.30 33.98C127.30 25.34 121.10 20.45 112.39 20.45ZM98.78 27.07L111.74 27.07C116.86 27.07 120.38 29.95 120.38 34.56C120.38 39.38 117.07 42.26 111.89 42.26L98.78 42.26ZM98.78 48.89L112.03 48.89C117.22 48.89 120.53 51.84 120.53 56.66C120.53 61.34 117.00 64.22 111.89 64.22L98.78 64.22ZM135.65 20.45L135.65 70.85L142.27 70.85L142.27 65.23L143.28 65.23C145.22 68.47 148.46 71.86 155.38 71.86C164.66 71.86 171.94 64.08 171.94 52.99C171.94 41.90 164.66 34.13 155.38 34.13C148.46 34.13 145.22 37.51 143.28 40.75L142.42 40.75L142.42 20.45ZM153.65 40.18C160.42 40.18 165.17 44.78 165.17 52.99C165.17 61.20 160.42 65.81 153.65 65.81C146.74 65.81 142.42 60.91 142.42 52.99C142.42 45.07 146.74 40.18 153.65 40.18ZM178.13 40.03L178.13 51.26C178.13 64.37 185.47 71.86 197.86 71.86C209.95 71.86 216.72 64.66 216.72 53.42L216.72 52.42L209.52 52.42L209.52 53.42C209.52 60.48 205.92 65.23 197.86 65.23C189.79 65.23 185.33 60.34 185.33 51.55L185.33 39.74C185.33 30.96 189.79 26.06 197.86 26.06C205.92 26.06 209.52 30.89 209.52 37.87L209.52 38.88L216.72 38.88L216.72 37.58C216.72 26.78 209.95 19.44 197.86 19.44C185.47 19.44 178.13 26.93 178.13 40.03ZM222.62 52.99C222.62 63.94 230.40 71.86 241.06 71.86C251.50 71.86 256.61 64.87 258.19 58.18L251.50 56.88C250.56 61.42 247.82 65.66 241.06 65.66C234.14 65.66 229.39 60.62 229.39 52.99C229.39 45.36 234.14 40.32 240.91 40.32C247.18 40.32 250.85 44.21 251.42 49.18L258.05 47.81C256.61 39.96 250.42 34.13 240.91 34.13C230.40 34.13 222.62 42.05 222.62 52.99ZM265.68 20.45L265.68 70.85L281.23 70.85C294.05 70.85 301.68 64.37 301.68 51.26L301.68 40.03C301.68 26.93 294.05 20.45 281.23 20.45ZM272.88 27.07L281.09 27.07C289.87 27.07 294.48 30.96 294.48 40.18L294.48 51.12C294.48 60.34 289.87 64.22 281.09 64.22L272.88 64.22ZM344.16 20.45L337.39 20.45L337.39 40.75L336.53 40.75C334.58 37.51 331.34 34.13 324.43 34.13C315.14 34.13 307.87 41.90 307.87 52.99C307.87 64.08 315.14 71.86 324.43 71.86C331.34 71.86 334.58 68.47 336.53 65.23L337.54 65.23L337.54 70.85L344.16 70.85ZM326.16 40.18C333.07 40.18 337.39 45.07 337.39 52.99C337.39 60.91 333.07 65.81 326.16 65.81C319.39 65.81 314.64 61.20 314.64 52.99C314.64 44.78 319.39 40.18 326.16 40.18ZM354.38 20.45L354.38 70.85L386.93 70.85L386.93 64.22L361.58 64.22L361.58 48.89L384.62 48.89L384.62 42.26L361.58 42.26L361.58 27.07L386.64 27.07L386.64 20.45ZM392.54 52.70C392.54 63.50 400.03 71.86 410.98 71.86C419.40 71.86 423.94 67.18 426.60 62.86L420.91 59.62C419.04 63.36 416.02 65.95 410.83 65.95C404.50 65.95 400.03 61.92 399.60 55.44L427.97 55.44L427.97 52.06C427.97 41.69 420.77 34.13 410.40 34.13C400.18 34.13 392.54 42.19 392.54 52.70ZM399.60 49.97C400.10 43.56 404.21 40.03 410.40 40.03C416.59 40.03 420.77 43.78 420.91 49.97ZM472.46 35.35C472.46 26.35 466.13 20.45 456.91 20.45L435.89 20.45L435.89 70.85L443.09 70.85L443.09 50.26L453.02 50.26L463.68 70.85L471.60 70.85L460.37 49.97C467.57 48.60 472.46 43.13 472.46 35.35ZM443.09 27.07L456.12 27.07C462.10 27.07 465.26 30.02 465.26 35.35C465.26 40.68 461.95 43.63 456.12 43.63L443.09 43.63ZM486.58 35.14L480.10 35.14L480.10 70.85L486.86 70.85L486.86 49.82C486.86 44.50 489.60 41.62 494.64 41.62L500.83 41.62L500.83 34.99L496.66 34.99C491.54 34.99 488.66 37.15 487.44 40.90L486.58 40.90ZM505.58 51.26C505.58 64.37 512.93 71.86 525.24 71.86C537.19 71.86 543.74 64.66 543.74 53.42L543.74 46.01L522.94 46.01L522.94 52.56L536.54 52.56L536.54 53.42C536.54 60.48 533.23 65.23 525.24 65.23C517.25 65.23 512.78 60.34 512.78 51.55L512.78 39.74C512.78 30.96 517.25 26.06 525.24 26.06C533.23 26.06 536.54 30.74 536.54 37.87L536.54 38.52L543.74 38.52L543.74 37.87C543.74 26.78 537.19 19.44 525.24 19.44C512.93 19.44 505.58 26.93 505.58 40.03ZM579.60 35.14L579.60 40.75L578.59 40.75C576.65 37.51 573.41 34.13 566.50 34.13C557.21 34.13 549.94 41.69 549.94 52.56C549.94 63.43 557.21 70.99 566.50 70.99C573.41 70.99 576.65 67.61 578.59 64.37L579.46 64.37L579.46 77.18C579.46 78.62 578.74 79.34 577.44 79.34L553.10 79.34L553.10 85.25L580.32 85.25C583.78 85.25 586.22 82.80 586.22 79.20L586.22 35.14ZM568.22 64.94C561.46 64.94 556.70 60.55 556.70 52.56C556.70 44.57 561.46 40.18 568.22 40.18C575.14 40.18 579.46 44.86 579.46 52.56C579.46 60.26 575.14 64.94 568.22 64.94Z"/></svg>