<svg xmlns="http://www.w3.org/2000/svg" xmlns:xlink="http://www.w3.org/1999/xlink" width="616.8960000000001" height="106.63200000000002"><path fill="#111111" d="M36.50 80.64L32.83 68.11L11.23 68.11L7.56 80.64L1.08 80.64L16.34 30.24L27.72 30.24L42.98 80.64L36.50 80.64ZM22.46 32.83L21.60 32.83L12.89 62.50L31.18 62.50L22.46 32.83ZM76.25 75.02L76.25 74.59L75.38 74.59Q73.66 78.19 70.60 79.92Q67.54 81.65 64.15 81.65L64.15 81.65Q60.62 81.65 57.60 80.46Q54.58 79.27 52.31 76.93Q50.04 74.59 48.74 71.21Q47.45 67.82 47.45 63.36L47.45 63.36L47.45 62.21Q47.45 57.82 48.74 54.43Q50.04 51.05 52.31 48.71Q54.58 46.37 57.60 45.14Q60.62 43.92 64.01 43.92L64.01 43.92Q67.68 43.92 70.67 45.54Q73.66 47.16 75.38 50.54L75.38 50.54L76.25 50.54L76.25 44.93L81.86 44.93L81.86 73.30Q81.86 75.46 83.81 75.46L83.81 75.46L85.61 75.46L85.61 80.64L81.79 80.64Q79.34 80.64 77.80 79.06Q76.25 77.47 76.25 75.02L76.25 75.02ZM64.73 76.32L64.73 76.32Q67.25 76.32 69.37 75.38Q71.50 74.45 73.01 72.72Q74.52 70.99 75.38 68.58Q76.25 66.17 76.25 63.22L76.25 63.22L76.25 62.35Q76.25 59.47 75.38 57.06Q74.52 54.65 72.97 52.92Q71.42 51.19 69.30 50.22Q67.18 49.25 64.73 49.25L64.73 49.25Q62.21 49.25 60.12 50.18Q58.03 51.12 56.48 52.81Q54.94 54.50 54.07 56.92Q53.21 59.33 53.21 62.21L53.21 62.21L53.21 63.36Q53.21 69.48 56.41 72.90Q59.62 76.32 64.73 76.32ZM92.23 80.64L92.23 75.02L96.55 75.02L96.55 35.86L92.23 35.86L92.23 30.24L112.61 30.24Q116.21 30.24 118.98 31.25Q121.75 32.26 123.66 33.98Q125.57 35.71 126.54 38.12Q127.51 40.54 127.51 43.34L127.51 43.34L127.51 44.21Q127.51 46.30 126.86 48.02Q126.22 49.75 125.06 51.12Q123.91 52.49 122.36 53.46Q120.82 54.43 119.02 54.94L119.02 54.94L119.02 55.80Q122.62 56.81 125.06 59.65Q127.51 62.50 127.51 66.60L127.51 66.60L127.51 67.46Q127.51 70.27 126.54 72.68Q125.57 75.10 123.66 76.86Q121.75 78.62 118.98 79.63Q116.21 80.64 112.61 80.64L112.61 80.64L92.23 80.64ZM102.60 58.18L102.60 75.02L112.18 75.02Q116.42 75.02 119.09 72.90Q121.75 70.78 121.75 67.03L121.75 67.03L121.75 66.60Q121.75 62.71 119.23 60.44Q116.71 58.18 112.39 58.18L112.39 58.18L102.60 58.18ZM102.60 35.86L102.60 52.56L112.39 52.56Q116.71 52.56 119.23 50.33Q121.75 48.10 121.75 44.21L121.75 44.21L121.75 43.78Q121.75 40.10 119.09 37.98Q116.42 35.86 112.18 35.86L112.18 35.86L102.60 35.86ZM142.78 75.17L142.78 80.64L137.16 80.64L137.16 30.24L142.78 30.24L142.78 50.54L143.64 50.54Q145.51 47.30 148.82 45.61Q152.14 43.92 156.02 43.92L156.02 43.92Q159.34 43.92 162.29 45.14Q165.24 46.37 167.51 48.67Q169.78 50.98 171.11 54.36Q172.44 57.74 172.44 62.06L172.44 62.06L172.44 63.50Q172.44 67.90 171.14 71.28Q169.85 74.66 167.58 76.97Q165.31 79.27 162.29 80.46Q159.26 81.65 155.88 81.65L155.88 81.65Q154.15 81.65 152.35 81.25Q150.55 80.86 148.93 80.03Q147.31 79.20 145.94 78.01Q144.58 76.82 143.64 75.17L143.64 75.17L142.78 75.17ZM154.73 76.32L154.73 76.32Q157.32 76.32 159.48 75.42Q161.64 74.52 163.26 72.86Q164.88 71.21 165.78 68.83Q166.68 66.46 166.68 63.50L166.68 63.50L166.68 62.06Q166.68 59.18 165.78 56.84Q164.88 54.50 163.26 52.81Q161.64 51.12 159.44 50.18Q157.25 49.25 154.73 49.25L154.73 49.25Q152.21 49.25 150.05 50.22Q147.89 51.19 146.27 52.92Q144.65 54.65 143.71 57.06Q142.78 59.47 142.78 62.35L142.78 62.35L142.78 63.22Q142.78 66.17 143.71 68.58Q144.65 70.99 146.27 72.72Q147.89 74.45 150.05 75.38Q152.21 76.32 154.73 76.32ZM198.58 76.03L198.58 76.03Q201.67 76.03 203.87 74.99Q206.06 73.94 207.47 72.18Q208.87 70.42 209.56 68.15Q210.24 65.88 210.24 63.36L210.24 63.36L210.24 62.50L216.29 62.50L216.29 63.36Q216.29 67.18 215.14 70.52Q213.98 73.87 211.75 76.36Q209.52 78.84 206.21 80.24Q202.90 81.65 198.58 81.65L198.58 81.65Q190.22 81.65 185.54 76.39Q180.86 71.14 180.86 61.06L180.86 61.06L180.86 49.82Q180.86 40.03 185.54 34.63Q190.22 29.23 198.58 29.23L198.58 29.23Q202.90 29.23 206.21 30.64Q209.52 32.04 211.75 34.52Q213.98 37.01 215.14 40.36Q216.29 43.70 216.29 47.52L216.29 47.52L216.29 48.38L210.24 48.38L210.24 47.52Q210.17 45.07 209.48 42.77Q208.80 40.46 207.40 38.70Q205.99 36.94 203.83 35.89Q201.67 34.85 198.58 34.85L198.58 34.85Q192.74 34.85 189.83 39.10Q186.91 43.34 186.91 50.26L186.91 50.26L186.91 60.62Q186.91 68.04 189.83 72.04Q192.74 76.03 198.58 76.03ZM254.38 66.67L259.99 67.97Q259.42 70.92 258.01 73.44Q256.61 75.96 254.45 77.80Q252.29 79.63 249.41 80.64Q246.53 81.65 243.00 81.65L243.00 81.65Q239.26 81.65 235.91 80.42Q232.56 79.20 230.04 76.86Q227.52 74.52 226.04 71.14Q224.57 67.75 224.57 63.36L224.57 63.36L224.57 62.50Q224.57 58.18 226.04 54.72Q227.52 51.26 230.04 48.89Q232.56 46.51 235.91 45.22Q239.26 43.92 243.00 43.92L243.00 43.92Q246.38 43.92 249.26 44.93Q252.14 45.94 254.34 47.77Q256.54 49.61 257.94 52.13Q259.34 54.65 259.85 57.60L259.85 57.60L254.23 58.90Q254.02 57.02 253.19 55.26Q252.36 53.50 250.96 52.16Q249.55 50.83 247.54 50.04Q245.52 49.25 242.86 49.25L242.86 49.25Q240.26 49.25 238.00 50.22Q235.73 51.19 234.00 52.96Q232.27 54.72 231.30 57.17Q230.33 59.62 230.33 62.50L230.33 62.50L230.33 63.36Q230.33 66.38 231.30 68.80Q232.27 71.21 234.00 72.86Q235.73 74.52 238.03 75.42Q240.34 76.32 243.00 76.32L243.00 76.32Q245.66 76.32 247.64 75.49Q249.62 74.66 251.03 73.33Q252.43 72.00 253.26 70.27Q254.09 68.54 254.38 66.67L254.38 66.67ZM269.64 35.86L269.64 30.24L286.20 30.24Q295.56 30.24 299.88 34.70Q304.20 39.17 304.20 48.96L304.20 48.96L304.20 61.92Q304.20 71.71 299.88 76.18Q295.56 80.64 286.20 80.64L286.20 80.64L269.64 80.64L269.64 74.95L273.96 74.95L273.96 35.86L269.64 35.86ZM280.01 75.02L285.34 75.02Q288.65 75.02 291.06 74.38Q293.47 73.73 295.06 72.18Q296.64 70.63 297.40 68.04Q298.15 65.45 298.15 61.49L298.15 61.49L298.15 49.39Q298.15 45.43 297.40 42.84Q296.64 40.25 295.06 38.70Q293.47 37.15 291.06 36.50Q288.65 35.86 285.34 35.86L285.34 35.86L280.01 35.86L280.01 75.02ZM342.36 80.64L342.36 75.17L341.50 75.17Q340.63 76.82 339.30 78.05Q337.97 79.27 336.42 80.06Q334.87 80.86 333.14 81.25Q331.42 81.65 329.83 81.65L329.83 81.65Q326.23 81.65 323.14 80.42Q320.04 79.20 317.70 76.90Q315.36 74.59 314.03 71.17Q312.70 67.75 312.70 63.36L312.70 63.36L312.70 62.21Q312.70 57.89 314.06 54.47Q315.43 51.05 317.74 48.71Q320.04 46.37 323.14 45.14Q326.23 43.92 329.69 43.92L329.69 43.92Q333.36 43.92 336.56 45.54Q339.77 47.16 341.50 50.54L341.50 50.54L342.36 50.54L342.36 30.24L347.98 30.24L347.98 80.64L342.36 80.64ZM330.41 76.32L330.41 76.32Q332.93 76.32 335.09 75.38Q337.25 74.45 338.87 72.72Q340.49 70.99 341.42 68.58Q342.36 66.17 342.36 63.22L342.36 63.22L342.36 62.35Q342.36 59.47 341.42 57.06Q340.49 54.65 338.87 52.92Q337.25 51.19 335.05 50.22Q332.86 49.25 330.41 49.25L330.41 49.25Q327.89 49.25 325.69 50.18Q323.50 51.12 321.88 52.85Q320.26 54.58 319.36 56.95Q318.46 59.33 318.46 62.21L318.46 62.21L318.46 63.36Q318.46 66.38 319.36 68.76Q320.26 71.14 321.88 72.83Q323.50 74.52 325.66 75.42Q327.82 76.32 330.41 76.32ZM359.28 80.64L359.28 30.24L389.81 30.24L389.81 35.86L365.33 35.86L365.33 52.56L389.38 52.56L389.38 58.18L365.33 58.18L365.33 75.02L390.24 75.02L390.24 80.64L359.28 80.64ZM435.74 64.51L406.94 64.51Q407.16 69.84 410.26 73.08Q413.35 76.32 418.90 76.32L418.90 76.32Q421.42 76.32 423.29 75.74Q425.16 75.17 426.49 74.16Q427.82 73.15 428.65 71.82Q429.48 70.49 429.98 68.98L429.98 68.98L435.31 70.42Q433.80 75.38 429.73 78.52Q425.66 81.65 418.75 81.65L418.75 81.65Q414.94 81.65 411.73 80.32Q408.53 78.98 406.22 76.54Q403.92 74.09 402.62 70.70Q401.33 67.32 401.33 63.22L401.33 63.22L401.33 61.49Q401.33 57.74 402.66 54.50Q403.99 51.26 406.37 48.92Q408.74 46.58 411.95 45.25Q415.15 43.92 418.90 43.92L418.90 43.92Q423.29 43.92 426.49 45.54Q429.70 47.16 431.75 49.54Q433.80 51.91 434.77 54.72Q435.74 57.53 435.74 59.90L435.74 59.90L435.74 64.51ZM418.90 49.25L418.90 49.25Q416.52 49.25 414.47 50.00Q412.42 50.76 410.87 52.13Q409.32 53.50 408.35 55.33Q407.38 57.17 407.09 59.33L407.09 59.33L430.13 59.33Q429.98 57.02 429.01 55.15Q428.04 53.28 426.49 51.98Q424.94 50.69 422.96 49.97Q420.98 49.25 418.90 49.25ZM478.44 62.50L478.44 80.64L472.39 80.64L472.39 63.79Q472.39 61.92 471.53 60.91Q470.66 59.90 468.50 59.90L468.50 59.90L452.81 59.90L452.81 80.64L446.76 80.64L446.76 30.24L464.76 30.24Q468.65 30.24 471.53 31.36Q474.41 32.47 476.32 34.34Q478.22 36.22 479.20 38.70Q480.17 41.18 480.17 43.92L480.17 43.92L480.17 46.08Q480.17 48.89 478.62 51.70Q477.07 54.50 473.83 56.02L473.83 56.02L473.83 56.88Q475.99 57.24 477.22 58.61Q478.44 59.98 478.44 62.50L478.44 62.50ZM452.81 35.86L452.81 54.29L464.04 54.29Q469.15 54.29 471.64 52.09Q474.12 49.90 474.12 45.65L474.12 45.65L474.12 44.35Q474.12 40.54 471.64 38.20Q469.15 35.86 464.04 35.86L464.04 35.86L452.81 35.86ZM488.95 50.11L488.95 44.93L501.91 44.93L501.91 49.68L502.78 49.68Q504.14 46.73 506.66 45.32Q509.18 43.92 512.42 43.92L512.42 43.92Q517.82 43.92 521.14 47.45Q524.45 50.98 524.66 57.74L524.66 57.74L518.76 58.61Q518.76 53.64 516.38 51.44Q514.01 49.25 510.55 49.25L510.55 49.25Q508.32 49.25 506.70 50.11Q505.08 50.98 504.00 52.49Q502.92 54.00 502.42 56.02Q501.91 58.03 501.91 60.34L501.91 60.34L501.91 75.46L510.98 75.46L510.98 80.64L488.09 80.64L488.09 75.46L496.30 75.46L496.30 50.11L488.95 50.11ZM545.98 62.06L545.98 56.45L568.44 56.45L568.44 80.64L562.82 80.64L562.82 74.59L561.96 74.59Q560.74 77.76 557.64 79.70Q554.54 81.65 550.44 81.65L550.44 81.65Q542.30 81.65 537.66 76.39Q533.02 71.14 533.02 61.06L533.02 61.06L533.02 49.82Q533.02 40.03 537.70 34.63Q542.38 29.23 550.73 29.23L550.73 29.23Q555.05 29.23 558.36 30.64Q561.67 32.04 563.90 34.52Q566.14 37.01 567.29 40.36Q568.44 43.70 568.44 47.52L568.44 47.52L568.44 48.38L562.39 48.38L562.39 47.52Q562.39 45.07 561.71 42.77Q561.02 40.46 559.62 38.70Q558.22 36.94 556.02 35.89Q553.82 34.85 550.73 34.85L550.73 34.85Q544.90 34.85 541.98 39.10Q539.06 43.34 539.06 50.26L539.06 50.26L539.06 60.62Q539.06 68.04 541.98 72.04Q544.90 76.03 550.87 76.03L550.87 76.03Q556.27 76.03 559.33 72.58Q562.39 69.12 562.39 62.93L562.39 62.93L562.39 62.06L545.98 62.06ZM606.24 87.70L606.24 75.17L605.38 75.17Q603.65 78.41 600.66 80.03Q597.67 81.65 594.14 81.65L594.14 81.65Q590.54 81.65 587.38 80.42Q584.21 79.20 581.80 76.90Q579.38 74.59 577.98 71.17Q576.58 67.75 576.58 63.36L576.58 63.36L576.58 62.21Q576.58 57.89 578.02 54.47Q579.46 51.05 581.83 48.71Q584.21 46.37 587.38 45.14Q590.54 43.92 594.00 43.92L594.00 43.92Q597.89 43.92 600.80 45.61Q603.72 47.30 605.38 50.54L605.38 50.54L606.24 50.54L606.24 44.93L611.86 44.93L611.86 89.42Q611.86 91.87 610.31 93.46Q608.76 95.04 606.31 95.04L606.31 95.04L583.06 95.04L583.06 89.86L604.30 89.86Q606.24 89.86 606.24 87.70L606.24 87.70ZM594.29 76.32L594.29 76.32Q596.81 76.32 598.97 75.38Q601.13 74.45 602.75 72.72Q604.37 70.99 605.30 68.58Q606.24 66.17 606.24 63.22L606.24 63.22L606.24 62.35Q606.24 59.47 605.30 57.06Q604.37 54.65 602.75 52.92Q601.13 51.19 598.93 50.22Q596.74 49.25 594.29 49.25L594.29 49.25Q591.77 49.25 589.57 50.18Q587.38 51.12 585.76 52.85Q584.14 54.58 583.24 56.95Q582.34 59.33 582.34 62.21L582.34 62.21L582.34 63.36Q582.34 66.38 583.24 68.76Q584.14 71.14 585.76 72.83Q587.38 74.52 589.54 75.42Q591.70 76.32 594.29 76.32Z"/></svg>