<svg xmlns="http://www.w3.org/2000/svg" xmlns:xlink="http://www.w3.org/1999/xlink" width="591.408" height="86.4"><path fill="#111111" d="M15.70 20.45L0.79 70.85L9.50 70.85L12.82 59.26L31.82 59.26L35.14 70.85L43.85 70.85L29.02 20.45ZM14.98 51.55L21.89 27.58L22.75 27.58L29.74 51.55ZM47.88 43.85L54.50 47.59C56.45 43.63 59.62 41.04 64.87 41.04C70.20 41.04 73.15 43.78 73.15 47.88L73.15 48.82L59.47 50.26C51.62 51.05 47.16 54.79 47.16 60.84C47.16 67.46 52.42 71.86 60.41 71.86C67.90 71.86 71.06 68.26 72.22 65.88L73.22 65.88L73.22 70.85L81.00 70.85L81.00 48.10C81.00 39.67 74.81 34.13 65.16 34.13C56.52 34.13 51.26 38.45 47.88 43.85ZM55.37 60.48C55.37 57.60 57.82 56.30 61.56 55.87L73.15 54.65L73.15 55.44C73.15 60.91 69.41 65.30 62.06 65.30C57.74 65.30 55.37 63.36 55.37 60.48ZM90.07 20.45L90.07 70.85L112.03 70.85C120.67 70.85 126.94 65.66 126.94 57.24C126.94 51.19 123.34 47.38 118.44 46.01L118.44 45.14C123.41 43.78 126.86 39.96 126.86 33.98C126.86 25.34 120.67 20.45 111.96 20.45ZM98.42 28.22L111.17 28.22C115.78 28.22 118.87 30.53 118.87 34.85C118.87 39.31 115.85 41.69 111.24 41.69L98.42 41.69ZM98.42 49.46L111.31 49.46C115.92 49.46 118.94 51.91 118.94 56.30C118.94 60.70 115.85 63.07 111.24 63.07L98.42 63.07ZM134.57 20.45L134.57 70.85L142.34 70.85L142.34 65.52L143.35 65.52C145.30 68.62 148.46 71.86 155.09 71.86C164.23 71.86 171.58 64.01 171.58 52.99C171.58 41.98 164.23 34.13 155.09 34.13C148.46 34.13 145.30 37.30 143.35 40.46L142.49 40.46L142.49 20.45ZM153.00 41.18C159.12 41.18 163.66 45.43 163.66 52.99C163.66 60.55 159.12 64.80 153.00 64.80C146.74 64.80 142.49 60.34 142.49 52.99C142.49 45.65 146.74 41.18 153.00 41.18ZM176.98 39.96L176.98 51.34C176.98 64.58 184.90 71.86 197.28 71.86C210.02 71.86 216.65 64.66 216.65 53.50L216.65 52.13L208.30 52.13L208.30 53.50C208.30 59.83 205.13 64.22 197.28 64.22C189.58 64.22 185.33 59.47 185.33 51.62L185.33 39.67C185.33 32.11 189.72 27.07 197.28 27.07C204.77 27.07 208.30 31.39 208.30 37.80L208.30 39.17L216.65 39.17L216.65 37.66C216.65 26.64 209.74 19.44 197.28 19.44C184.75 19.44 176.98 27.14 176.98 39.96ZM221.83 52.99C221.83 64.01 229.82 71.86 240.34 71.86C250.56 71.86 256.25 65.59 257.90 58.18L250.13 56.38C249.19 60.91 246.53 64.58 240.41 64.58C234.07 64.58 229.75 59.98 229.75 52.99C229.75 46.01 234.22 41.40 240.34 41.40C246.24 41.40 249.48 45.07 250.06 49.61L257.83 47.81C256.18 39.82 249.98 34.13 240.26 34.13C229.82 34.13 221.83 41.98 221.83 52.99ZM264.67 20.45L264.67 70.85L281.09 70.85C294.26 70.85 301.68 64.22 301.68 50.83L301.68 40.46C301.68 27.00 294.26 20.45 281.09 20.45ZM273.02 28.22L281.09 28.22C289.58 28.22 293.33 32.18 293.33 40.39L293.33 50.90C293.33 59.11 289.58 63.07 281.09 63.07L273.02 63.07ZM344.09 20.45L336.17 20.45L336.17 40.46L335.30 40.46C333.43 37.30 330.19 34.13 323.57 34.13C314.50 34.13 307.08 41.98 307.08 52.99C307.08 64.01 314.50 71.86 323.57 71.86C330.19 71.86 333.43 68.62 335.30 65.52L336.31 65.52L336.31 70.85L344.09 70.85ZM325.66 41.18C331.92 41.18 336.17 45.65 336.17 52.99C336.17 60.34 331.92 64.80 325.66 64.80C319.54 64.80 315.00 60.55 315.00 52.99C315.00 45.43 319.54 41.18 325.66 41.18ZM353.59 20.45L353.59 70.85L386.64 70.85L386.64 63.14L361.94 63.14L361.94 49.32L384.26 49.32L384.26 41.69L361.94 41.69L361.94 28.15L386.28 28.15L386.28 20.45ZM391.68 52.70C391.68 63.65 399.31 71.86 410.11 71.86C419.11 71.86 423.43 66.96 426.02 62.93L419.26 59.11C417.74 62.21 415.08 64.94 409.97 64.94C404.21 64.94 400.25 61.06 399.96 55.51L427.32 55.51L427.32 52.06C427.32 41.54 420.12 34.13 409.75 34.13C399.38 34.13 391.68 42.05 391.68 52.70ZM399.96 49.61C400.54 44.28 404.06 41.04 409.68 41.04C415.15 41.04 418.82 44.35 419.11 49.61ZM472.03 35.86C472.03 26.57 465.55 20.45 456.19 20.45L434.59 20.45L434.59 70.85L442.94 70.85L442.94 51.19L452.09 51.19L462.10 70.85L471.31 70.85L460.58 50.69C467.42 49.03 472.03 43.56 472.03 35.86ZM442.94 28.22L455.33 28.22C460.58 28.22 463.68 31.03 463.68 35.86C463.68 40.61 460.51 43.42 455.33 43.42L442.94 43.42ZM486.86 35.14L479.16 35.14L479.16 70.85L487.08 70.85L487.08 50.33C487.08 45.14 490.10 42.48 494.93 42.48L500.69 42.48L500.69 34.99L496.80 34.99C491.98 34.99 489.02 36.72 487.73 40.61L486.86 40.61ZM504.79 51.34C504.79 64.58 512.71 71.86 525.10 71.86C537.55 71.86 544.32 64.87 544.32 53.28L544.32 45.36L523.08 45.36L523.08 52.85L535.97 52.85L535.97 53.42C535.97 59.98 532.87 64.22 525.10 64.22C517.39 64.22 513.14 59.47 513.14 51.62L513.14 39.67C513.14 32.11 517.54 27.07 525.10 27.07C532.51 27.07 535.97 31.39 535.97 38.02L535.97 38.59L544.32 38.59L544.32 38.02C544.32 26.57 537.41 19.44 525.10 19.44C512.57 19.44 504.79 27.14 504.79 39.96ZM578.95 35.14L578.95 40.46L577.94 40.46C576.07 37.30 572.83 34.13 566.21 34.13C557.14 34.13 549.72 41.69 549.72 52.49C549.72 63.22 557.14 70.85 566.21 70.85C572.83 70.85 576.07 67.61 577.94 64.51L578.81 64.51L578.81 76.18C578.81 77.62 578.09 78.34 576.79 78.34L553.10 78.34L553.10 85.25L580.25 85.25C583.99 85.25 586.73 82.58 586.73 78.77L586.73 35.14ZM568.30 63.79C562.18 63.79 557.64 59.76 557.64 52.49C557.64 45.14 562.18 41.18 568.30 41.18C574.56 41.18 578.81 45.36 578.81 52.49C578.81 59.54 574.56 63.79 568.30 63.79Z"/></svg>