<svg xmlns="http://www.w3.org/2000/svg" xmlns:xlink="http://www.w3.org/1999/xlink" width="616.8960000000001" height="106.63200000000002"><path fill="#111111" d="M33.05 80.64L30.60 69.84L13.46 69.84L11.02 80.64L1.08 80.64L13.10 30.24L30.96 30.24L42.98 80.64L33.05 80.64ZM21.38 34.99L15.48 60.77L28.51 60.77L22.68 34.99L21.38 34.99ZM74.09 75.46L72.79 75.46Q71.35 78.84 68.76 80.24Q66.17 81.65 62.71 81.65L62.71 81.65Q59.47 81.65 56.63 80.42Q53.78 79.20 51.62 76.82Q49.46 74.45 48.20 71.06Q46.94 67.68 46.94 63.36L46.94 63.36L46.94 62.21Q46.94 57.96 48.17 54.58Q49.39 51.19 51.48 48.82Q53.57 46.44 56.34 45.18Q59.11 43.92 62.28 43.92L62.28 43.92Q66.10 43.92 68.44 45.22Q70.78 46.51 72.14 49.25L72.14 49.25L73.44 49.25L73.44 44.93L82.51 44.93L82.51 69.84Q82.51 72.00 84.46 72.00L84.46 72.00L85.82 72.00L85.82 80.64L79.63 80.64Q77.18 80.64 75.64 79.20Q74.09 77.76 74.09 75.46L74.09 75.46ZM64.73 73.01L64.73 73.01Q68.69 73.01 71.06 70.38Q73.44 67.75 73.44 63.22L73.44 63.22L73.44 62.35Q73.44 57.82 71.06 55.19Q68.69 52.56 64.73 52.56L64.73 52.56Q60.77 52.56 58.39 55.19Q56.02 57.82 56.02 62.35L56.02 62.35L56.02 63.22Q56.02 67.75 58.39 70.38Q60.77 73.01 64.73 73.01ZM91.44 80.64L91.44 71.57L96.19 71.57L96.19 39.31L91.44 39.31L91.44 30.24L113.54 30.24Q117.14 30.24 119.92 31.25Q122.69 32.26 124.60 33.98Q126.50 35.71 127.48 38.12Q128.45 40.54 128.45 43.34L128.45 43.34L128.45 44.21Q128.45 48.53 126.04 51.12Q123.62 53.71 119.95 54.72L119.95 54.72L119.95 56.02Q123.62 57.02 126.04 59.65Q128.45 62.28 128.45 66.60L128.45 66.60L128.45 67.46Q128.45 70.27 127.48 72.68Q126.50 75.10 124.60 76.86Q122.69 78.62 119.92 79.63Q117.14 80.64 113.54 80.64L113.54 80.64L91.44 80.64ZM105.70 59.90L105.70 71.57L112.61 71.57Q115.63 71.57 117.50 70.27Q119.38 68.98 119.38 65.95L119.38 65.95L119.38 65.52Q119.38 62.50 117.50 61.20Q115.63 59.90 112.61 59.90L112.61 59.90L105.70 59.90ZM105.70 39.31L105.70 50.83L112.61 50.83Q115.63 50.83 117.50 49.57Q119.38 48.31 119.38 45.29L119.38 45.29L119.38 44.86Q119.38 41.83 117.50 40.57Q115.63 39.31 112.61 39.31L112.61 39.31L105.70 39.31ZM145.37 75.46L145.37 80.64L136.30 80.64L136.30 30.24L145.37 30.24L145.37 50.11L146.66 50.11Q148.10 47.16 150.84 45.54Q153.58 43.92 157.82 43.92L157.82 43.92Q160.99 43.92 163.84 45.14Q166.68 46.37 168.80 48.71Q170.93 51.05 172.19 54.43Q173.45 57.82 173.45 62.14L173.45 62.14L173.45 63.43Q173.45 67.82 172.22 71.21Q171 74.59 168.91 76.93Q166.82 79.27 163.98 80.46Q161.14 81.65 157.82 81.65L157.82 81.65Q155.38 81.65 153.58 81.14Q151.78 80.64 150.44 79.78Q149.11 78.91 148.21 77.80Q147.31 76.68 146.66 75.46L146.66 75.46L145.37 75.46ZM154.87 73.01L154.87 73.01Q159.12 73.01 161.75 70.38Q164.38 67.75 164.38 63.22L164.38 63.22L164.38 62.35Q164.38 57.82 161.75 55.19Q159.12 52.56 154.87 52.56L154.87 52.56Q150.62 52.56 148.00 55.26Q145.37 57.96 145.37 62.35L145.37 62.35L145.37 63.22Q145.37 67.61 148.00 70.31Q150.62 73.01 154.87 73.01ZM198.43 73.01L198.43 73.01Q201.17 73.01 202.93 72.18Q204.70 71.35 205.67 69.95Q206.64 68.54 207.00 66.71Q207.36 64.87 207.36 62.93L207.36 62.93L207.36 61.63L216.86 61.63L216.86 62.93Q216.86 71.93 212.15 76.79Q207.43 81.65 198.43 81.65L198.43 81.65Q189.79 81.65 184.75 76.39Q179.71 71.14 179.71 61.06L179.71 61.06L179.71 49.82Q179.71 45.00 181.01 41.15Q182.30 37.30 184.75 34.67Q187.20 32.04 190.66 30.64Q194.11 29.23 198.43 29.23L198.43 29.23Q202.90 29.23 206.35 30.53Q209.81 31.82 212.15 34.27Q214.49 36.72 215.68 40.18Q216.86 43.63 216.86 47.95L216.86 47.95L216.86 49.25L207.36 49.25L207.36 47.95Q207.36 46.15 206.93 44.35Q206.50 42.55 205.49 41.11Q204.48 39.67 202.75 38.77Q201.02 37.87 198.43 37.87L198.43 37.87Q196.06 37.87 194.33 38.77Q192.60 39.67 191.45 41.22Q190.30 42.77 189.76 44.82Q189.22 46.87 189.22 49.10L189.22 49.10L189.22 61.78Q189.22 64.22 189.72 66.28Q190.22 68.33 191.30 69.84Q192.38 71.35 194.15 72.18Q195.91 73.01 198.43 73.01ZM251.86 65.30L260.78 67.54Q259.56 73.87 254.99 77.76Q250.42 81.65 242.78 81.65L242.78 81.65Q238.82 81.65 235.40 80.42Q231.98 79.20 229.46 76.90Q226.94 74.59 225.50 71.21Q224.06 67.82 224.06 63.50L224.06 63.50L224.06 62.64Q224.06 58.32 225.50 54.86Q226.94 51.41 229.50 48.96Q232.06 46.51 235.48 45.22Q238.90 43.92 242.78 43.92L242.78 43.92Q250.27 43.92 254.92 47.81Q259.56 51.70 260.78 58.03L260.78 58.03L251.86 60.34Q251.42 57.17 249.12 54.86Q246.82 52.56 242.64 52.56L242.64 52.56Q240.70 52.56 238.97 53.28Q237.24 54.00 235.94 55.33Q234.65 56.66 233.89 58.57Q233.14 60.48 233.14 62.86L233.14 62.86L233.14 63.29Q233.14 65.66 233.89 67.50Q234.65 69.34 235.94 70.56Q237.24 71.78 238.97 72.40Q240.70 73.01 242.64 73.01L242.64 73.01Q246.82 73.01 249.01 70.92Q251.21 68.83 251.86 65.30L251.86 65.30ZM267.70 39.31L267.70 30.24L285.98 30.24Q295.34 30.24 299.88 34.60Q304.42 38.95 304.42 48.10L304.42 48.10L304.42 62.78Q304.42 71.93 299.88 76.28Q295.34 80.64 285.98 80.64L285.98 80.64L267.70 80.64L267.70 71.50L272.45 71.50L272.45 39.31L267.70 39.31ZM281.95 71.57L285.98 71.57Q290.95 71.57 292.93 69.23Q294.91 66.89 294.91 61.92L294.91 61.92L294.91 48.10Q294.91 43.78 292.93 41.54Q290.95 39.31 285.98 39.31L285.98 39.31L281.95 39.31L281.95 71.57ZM339.70 80.64L339.70 75.46L338.40 75.46Q337.82 76.68 337.00 77.80Q336.17 78.91 334.84 79.78Q333.50 80.64 331.67 81.14Q329.83 81.65 327.24 81.65L327.24 81.65Q323.93 81.65 321.08 80.46Q318.24 79.27 316.12 76.93Q313.99 74.59 312.80 71.21Q311.62 67.82 311.62 63.43L311.62 63.43L311.62 62.14Q311.62 57.82 312.88 54.43Q314.14 51.05 316.33 48.71Q318.53 46.37 321.44 45.14Q324.36 43.92 327.60 43.92L327.60 43.92Q331.92 43.92 334.44 45.54Q336.96 47.16 338.40 50.11L338.40 50.11L339.70 50.11L339.70 30.24L348.77 30.24L348.77 80.64L339.70 80.64ZM330.19 73.01L330.19 73.01Q334.44 73.01 337.07 70.31Q339.70 67.61 339.70 63.22L339.70 63.22L339.70 62.35Q339.70 57.96 337.07 55.26Q334.44 52.56 330.19 52.56L330.19 52.56Q325.94 52.56 323.32 55.19Q320.69 57.82 320.69 62.35L320.69 62.35L320.69 63.22Q320.69 67.75 323.32 70.38Q325.94 73.01 330.19 73.01ZM358.42 80.64L358.42 30.24L390.24 30.24L390.24 39.31L367.92 39.31L367.92 50.83L389.38 50.83L389.38 59.90L367.92 59.90L367.92 71.57L391.10 71.57L391.10 80.64L358.42 80.64ZM436.39 65.74L410.18 65.74Q410.26 67.32 410.94 68.65Q411.62 69.98 412.81 70.96Q414.00 71.93 415.55 72.47Q417.10 73.01 418.82 73.01L418.82 73.01Q422.21 73.01 424.01 71.82Q425.81 70.63 426.60 68.98L426.60 68.98L434.38 73.30Q433.73 74.66 432.58 76.14Q431.42 77.62 429.59 78.84Q427.75 80.06 425.12 80.86Q422.50 81.65 418.97 81.65L418.97 81.65Q414.94 81.65 411.62 80.35Q408.31 79.06 405.90 76.61Q403.49 74.16 402.16 70.63Q400.82 67.10 400.82 62.64L400.82 62.64L400.82 62.21Q400.82 58.10 402.23 54.72Q403.63 51.34 406.08 48.96Q408.53 46.58 411.80 45.25Q415.08 43.92 418.82 43.92L418.82 43.92Q423.43 43.92 426.74 45.54Q430.06 47.16 432.22 49.64Q434.38 52.13 435.38 55.12Q436.39 58.10 436.39 60.91L436.39 60.91L436.39 65.74ZM418.75 52.13L418.75 52.13Q415.30 52.13 413.14 53.89Q410.98 55.66 410.33 57.96L410.33 57.96L427.18 57.96Q426.74 55.44 424.48 53.78Q422.21 52.13 418.75 52.13ZM479.74 63.22L479.74 80.64L470.23 80.64L470.23 65.52Q470.23 63.79 469.33 62.71Q468.43 61.63 466.34 61.63L466.34 61.63L455.40 61.63L455.40 80.64L445.90 80.64L445.90 30.24L465.19 30.24Q469.08 30.24 472.03 31.32Q474.98 32.40 476.96 34.31Q478.94 36.22 479.99 38.74Q481.03 41.26 481.03 44.14L481.03 44.14L481.03 45.86Q481.03 48.96 479.38 51.66Q477.72 54.36 474.26 55.80L474.26 55.80L474.26 57.10Q476.78 57.38 478.26 59.04Q479.74 60.70 479.74 63.22L479.74 63.22ZM455.40 39.31L455.40 52.56L464.47 52.56Q467.93 52.56 469.73 50.94Q471.53 49.32 471.53 46.37L471.53 46.37L471.53 45.50Q471.53 42.98 469.73 41.15Q467.93 39.31 464.47 39.31L464.47 39.31L455.40 39.31ZM488.59 53.57L488.59 44.93L503.71 44.93L503.71 50.11L505.01 50.11Q506.02 47.16 508.43 45.54Q510.84 43.92 514.22 43.92L514.22 43.92Q519.55 43.92 522.79 47.27Q526.03 50.62 526.03 57.46L526.03 57.46L526.03 59.04L516.67 59.90L516.67 58.90Q516.67 55.94 515.16 54.18Q513.65 52.42 510.62 52.42L510.62 52.42Q507.60 52.42 505.87 54.50Q504.14 56.59 504.14 60.48L504.14 60.48L504.14 72.00L512.35 72.00L512.35 80.64L487.73 80.64L487.73 72.00L495.07 72.00L495.07 53.57L488.59 53.57ZM547.49 64.22L547.49 55.15L569.09 55.15L569.09 80.64L560.45 80.64L560.45 75.02L559.15 75.02Q558.29 77.83 555.84 79.74Q553.39 81.65 548.50 81.65L548.50 81.65Q545.04 81.65 542.02 80.35Q538.99 79.06 536.76 76.50Q534.53 73.94 533.23 70.16Q531.94 66.38 531.94 61.34L531.94 61.34L531.94 49.54Q531.94 44.64 533.34 40.86Q534.74 37.08 537.23 34.49Q539.71 31.90 543.17 30.56Q546.62 29.23 550.80 29.23L550.80 29.23Q555.12 29.23 558.50 30.64Q561.89 32.04 564.26 34.52Q566.64 37.01 567.86 40.36Q569.09 43.70 569.09 47.52L569.09 47.52L569.09 48.38L559.58 48.38L559.58 47.52Q559.58 42.98 557.24 40.64Q554.90 38.30 550.66 38.30L550.66 38.30Q546.62 38.30 544.03 41.00Q541.44 43.70 541.44 50.26L541.44 50.26L541.44 60.91Q541.44 72.58 550.94 72.58L550.94 72.58Q555.19 72.58 557.39 70.31Q559.58 68.04 559.58 64.22L559.58 64.22L547.49 64.22ZM603.94 84.24L603.94 75.46L602.64 75.46Q602.06 76.68 601.24 77.80Q600.41 78.91 599.08 79.78Q597.74 80.64 595.91 81.14Q594.07 81.65 591.48 81.65L591.48 81.65Q588.17 81.65 585.32 80.46Q582.48 79.27 580.36 76.93Q578.23 74.59 577.04 71.21Q575.86 67.82 575.86 63.43L575.86 63.43L575.86 62.14Q575.86 57.82 577.12 54.43Q578.38 51.05 580.57 48.71Q582.77 46.37 585.68 45.14Q588.60 43.92 591.84 43.92L591.84 43.92Q596.16 43.92 598.68 45.54Q601.20 47.16 602.64 50.11L602.64 50.11L603.94 50.11L603.94 44.93L613.01 44.93L613.01 89.42Q613.01 91.87 611.46 93.46Q609.91 95.04 607.46 95.04L607.46 95.04L583.42 95.04L583.42 86.40L601.99 86.40Q603.94 86.40 603.94 84.24L603.94 84.24ZM594.43 73.01L594.43 73.01Q598.68 73.01 601.31 70.31Q603.94 67.61 603.94 63.22L603.94 63.22L603.94 62.35Q603.94 57.96 601.31 55.26Q598.68 52.56 594.43 52.56L594.43 52.56Q590.18 52.56 587.56 55.19Q584.93 57.82 584.93 62.35L584.93 62.35L584.93 63.22Q584.93 67.75 587.56 70.38Q590.18 73.01 594.43 73.01Z"/></svg>