<svg xmlns="http://www.w3.org/2000/svg" xmlns:xlink="http://www.w3.org/1999/xlink" width="616.8960000000001" height="106.63200000000002"><path fill="#111111" d="M30.96 80.64L30.17 68.11L9.94 68.11L3.82 80.64L-3.02 80.64L21.96 30.24L33.48 30.24L37.08 80.64L30.96 80.64ZM27.07 32.90L12.67 62.50L29.81 62.50L27.94 32.90L27.07 32.90ZM69.91 75.02L69.05 75.02Q66.82 78.84 63.76 80.24Q60.70 81.65 57.31 81.65L57.31 81.65Q54.43 81.65 52.13 80.60Q49.82 79.56 48.24 77.69Q46.66 75.82 45.79 73.19Q44.93 70.56 44.93 67.39L44.93 67.39Q44.93 62.86 46.22 58.61Q47.52 54.36 50.00 51.12Q52.49 47.88 56.16 45.90Q59.83 43.92 64.66 43.92L64.66 43.92Q68.33 43.92 70.92 45.61Q73.51 47.30 74.30 50.54L74.30 50.54L75.17 50.54L76.32 44.93L81.94 44.93L75.60 74.59Q75.46 75.24 75.74 75.56Q76.03 75.89 76.54 75.89L76.54 75.89Q77.04 75.89 77.54 75.53L77.54 75.53L80.14 73.66L83.16 77.90L79.92 80.35Q79.13 80.93 77.94 81.29Q76.75 81.65 75.53 81.65L75.53 81.65Q74.45 81.65 73.44 81.36Q72.43 81.07 71.60 80.46Q70.78 79.85 70.27 78.88Q69.77 77.90 69.77 76.46L69.77 76.46Q69.77 76.10 69.80 75.74Q69.84 75.38 69.91 75.02L69.91 75.02ZM59.04 76.32L59.04 76.32Q61.92 76.32 64.48 74.99Q67.03 73.66 68.94 71.35Q70.85 69.05 71.93 65.92Q73.01 62.78 73.01 59.11L73.01 59.11Q73.01 54.65 70.99 51.95Q68.98 49.25 64.73 49.25L64.73 49.25Q61.34 49.25 58.79 50.69Q56.23 52.13 54.43 54.54Q52.63 56.95 51.73 60.12Q50.83 63.29 50.83 66.67L50.83 66.67Q50.83 71.42 52.92 73.87Q55.01 76.32 59.04 76.32ZM88.27 80.64L88.27 75.02L93.02 75.02L101.30 35.86L96.55 35.86L96.55 30.24L116.42 30.24Q122.98 30.24 126.25 33.59Q129.53 36.94 129.53 42.12L129.53 42.12Q129.53 44.28 128.74 46.37Q127.94 48.46 126.50 50.15Q125.06 51.84 122.94 53.10Q120.82 54.36 118.22 54.94L118.22 54.94L118.22 55.80Q121.25 56.66 122.90 59.15Q124.56 61.63 124.56 64.87L124.56 64.87Q124.56 68.33 123.19 71.24Q121.82 74.16 119.45 76.25Q117.07 78.34 113.76 79.49Q110.45 80.64 106.56 80.64L106.56 80.64L88.27 80.64ZM102.60 58.18L99.07 75.02L107.35 75.02Q109.73 75.02 111.85 74.30Q113.98 73.58 115.56 72.25Q117.14 70.92 118.04 69.08Q118.94 67.25 118.94 65.09L118.94 65.09Q118.94 61.78 116.86 59.98Q114.77 58.18 111.10 58.18L111.10 58.18L102.60 58.18ZM107.35 35.86L103.82 52.56L112.32 52.56Q114.48 52.56 116.53 51.88Q118.58 51.19 120.17 49.90Q121.75 48.60 122.69 46.69Q123.62 44.78 123.62 42.34L123.62 42.34Q123.62 39.31 121.54 37.58Q119.45 35.86 115.63 35.86L115.63 35.86L107.35 35.86ZM145.66 29.23L151.20 29.23L146.66 50.54L147.53 50.54Q149.54 47.59 152.71 45.76Q155.88 43.92 160.13 43.92L160.13 43.92Q162.94 43.92 165.35 44.89Q167.76 45.86 169.49 47.70Q171.22 49.54 172.22 52.09Q173.23 54.65 173.23 57.74L173.23 57.74Q173.23 63.29 171.65 67.68Q170.06 72.07 167.33 75.20Q164.59 78.34 160.88 79.99Q157.18 81.65 152.93 81.65L152.93 81.65Q149.54 81.65 146.52 80.03Q143.50 78.41 142.34 75.17L142.34 75.17L141.48 75.17L140.33 80.64L134.78 80.64L145.66 29.23ZM152.78 76.32L152.78 76.32Q155.74 76.32 158.40 75.06Q161.06 73.80 163.04 71.50Q165.02 69.19 166.18 65.95Q167.33 62.71 167.33 58.82L167.33 58.82Q167.33 54.43 164.99 51.84Q162.65 49.25 158.33 49.25L158.33 49.25Q155.16 49.25 152.50 50.62Q149.83 51.98 147.89 54.36Q145.94 56.74 144.86 59.83Q143.78 62.93 143.78 66.38L143.78 66.38Q143.78 71.14 146.16 73.73Q148.54 76.32 152.78 76.32ZM194.11 76.03L194.11 76.03Q197.21 76.03 199.55 75.10Q201.89 74.16 203.54 72.50Q205.20 70.85 206.32 68.51Q207.43 66.17 208.15 63.36L208.15 63.36L208.37 62.50L214.42 62.50L214.20 63.36Q213.12 67.68 211.50 71.10Q209.88 74.52 207.47 76.86Q205.06 79.20 201.60 80.42Q198.14 81.65 193.39 81.65L193.39 81.65Q189.86 81.65 187.20 80.64Q184.54 79.63 182.70 77.80Q180.86 75.96 179.93 73.44Q178.99 70.92 178.99 67.82L178.99 67.82Q178.99 66.31 179.17 64.62Q179.35 62.93 179.71 61.06L179.71 61.06L182.09 49.82Q184.25 39.60 189.61 34.42Q194.98 29.23 203.76 29.23L203.76 29.23Q207.22 29.23 209.92 30.24Q212.62 31.25 214.45 33.01Q216.29 34.78 217.26 37.26Q218.23 39.74 218.23 42.62L218.23 42.62Q218.23 44.93 217.58 47.52L217.58 47.52L217.37 48.38L211.32 48.38L211.54 47.52Q211.90 46.15 212.00 45.11Q212.11 44.06 212.11 43.06L212.11 43.06Q212.11 39.24 209.92 36.97Q207.72 34.70 202.82 34.70L202.82 34.70Q199.94 34.70 197.57 35.86Q195.19 37.01 193.32 39.06Q191.45 41.11 190.12 43.96Q188.78 46.80 188.06 50.26L188.06 50.26L185.83 60.62Q185.47 62.28 185.29 63.72Q185.11 65.16 185.11 66.46L185.11 66.46Q185.11 71.28 187.27 73.66Q189.43 76.03 194.11 76.03ZM251.71 66.67L257.04 68.40Q256.10 71.14 254.45 73.55Q252.79 75.96 250.31 77.76Q247.82 79.56 244.55 80.60Q241.27 81.65 237.17 81.65L237.17 81.65Q233.78 81.65 231.01 80.60Q228.24 79.56 226.30 77.62Q224.35 75.67 223.27 72.94Q222.19 70.20 222.19 66.82L222.19 66.82Q222.19 62.14 223.81 57.96Q225.43 53.78 228.38 50.65Q231.34 47.52 235.51 45.72Q239.69 43.92 244.80 43.92L244.80 43.92Q248.11 43.92 250.78 44.86Q253.44 45.79 255.31 47.48Q257.18 49.18 258.19 51.52Q259.20 53.86 259.20 56.66L259.20 56.66Q259.20 56.81 259.20 56.99Q259.20 57.17 259.13 57.74L259.13 57.74L253.37 58.61Q253.44 58.18 253.44 57.96Q253.44 57.74 253.44 57.46L253.44 57.46Q253.44 55.73 252.90 54.25Q252.36 52.78 251.17 51.66Q249.98 50.54 248.15 49.90Q246.31 49.25 243.79 49.25L243.79 49.25Q240.41 49.25 237.56 50.62Q234.72 51.98 232.60 54.32Q230.47 56.66 229.28 59.76Q228.10 62.86 228.10 66.24L228.10 66.24Q228.10 71.35 230.83 73.84Q233.57 76.32 238.32 76.32L238.32 76.32Q241.20 76.32 243.43 75.49Q245.66 74.66 247.32 73.33Q248.98 72.00 250.06 70.27Q251.14 68.54 251.71 66.67L251.71 66.67ZM272.66 35.86L272.66 30.24L290.16 30.24Q297.79 30.24 301.68 33.66Q305.57 37.08 305.57 43.56L305.57 43.56Q305.57 44.93 305.39 46.37Q305.21 47.81 304.85 49.39L304.85 49.39L302.11 61.92Q301.03 67.03 299.45 70.60Q297.86 74.16 295.42 76.39Q292.97 78.62 289.40 79.63Q285.84 80.64 280.73 80.64L280.73 80.64L264.38 80.64L264.38 75.02L269.14 75.02L277.42 35.86L272.66 35.86ZM275.18 75.02L280.66 75.02Q283.97 75.02 286.52 74.38Q289.08 73.73 290.95 72.18Q292.82 70.63 294.12 68.04Q295.42 65.45 296.21 61.49L296.21 61.49L298.73 49.39Q299.09 47.52 299.23 46.30Q299.38 45.07 299.38 43.92L299.38 43.92Q299.38 39.31 296.78 37.58Q294.19 35.86 288.94 35.86L288.94 35.86L283.46 35.86L275.18 75.02ZM334.58 75.02L333.72 75.02Q331.42 78.84 328.25 80.24Q325.08 81.65 321.55 81.65L321.55 81.65Q318.67 81.65 316.30 80.64Q313.92 79.63 312.26 77.80Q310.61 75.96 309.67 73.33Q308.74 70.70 308.74 67.54L308.74 67.54Q308.74 63.07 310.10 58.82Q311.47 54.58 314.06 51.26Q316.66 47.95 320.44 45.94Q324.22 43.92 329.11 43.92L329.11 43.92Q332.93 43.92 335.48 45.50Q338.04 47.09 338.98 50.54L338.98 50.54L339.84 50.54L344.30 29.23L349.92 29.23L340.27 74.59Q340.06 75.89 341.21 75.89L341.21 75.89Q341.64 75.89 342.14 75.53L342.14 75.53L344.74 73.66L347.83 77.90L344.59 80.35Q343.80 80.93 342.68 81.29Q341.57 81.65 340.20 81.65L340.20 81.65Q339.12 81.65 338.11 81.36Q337.10 81.07 336.28 80.46Q335.45 79.85 334.94 78.88Q334.44 77.90 334.44 76.46L334.44 76.46Q334.44 76.10 334.48 75.74Q334.51 75.38 334.58 75.02L334.58 75.02ZM323.28 76.32L323.28 76.32Q326.16 76.32 328.79 74.99Q331.42 73.66 333.40 71.35Q335.38 69.05 336.53 65.92Q337.68 62.78 337.68 59.11L337.68 59.11Q337.68 54.65 335.45 51.95Q333.22 49.25 328.97 49.25L328.97 49.25Q325.58 49.25 322.96 50.72Q320.33 52.20 318.46 54.61Q316.58 57.02 315.61 60.19Q314.64 63.36 314.64 66.74L314.64 66.74Q314.64 76.32 323.28 76.32ZM354.53 80.64L365.26 30.24L393.70 30.24L393.70 35.86L370.08 35.86L366.55 52.56L388.51 52.56L388.51 58.18L365.33 58.18L361.80 75.02L384.62 75.02L384.62 80.64L354.53 80.64ZM433.30 64.51L404.64 64.51Q404.50 65.09 404.42 65.81Q404.35 66.53 404.35 67.32L404.35 67.32Q404.35 71.28 406.66 73.84Q408.96 76.39 414.00 76.39L414.00 76.39Q416.52 76.39 418.50 75.82Q420.48 75.24 421.92 74.20Q423.36 73.15 424.40 71.82Q425.45 70.49 426.17 68.98L426.17 68.98L430.78 71.57Q429.77 73.66 428.26 75.49Q426.74 77.33 424.66 78.70Q422.57 80.06 419.83 80.86Q417.10 81.65 413.57 81.65L413.57 81.65Q410.33 81.65 407.63 80.68Q404.93 79.70 402.98 77.87Q401.04 76.03 399.96 73.37Q398.88 70.70 398.88 67.32L398.88 67.32Q398.88 62.78 400.32 58.57Q401.76 54.36 404.50 51.12Q407.23 47.88 411.26 45.90Q415.30 43.92 420.41 43.92L420.41 43.92Q424.01 43.92 426.67 45.04Q429.34 46.15 431.06 48.06Q432.79 49.97 433.66 52.38Q434.52 54.79 434.52 57.38L434.52 57.38Q434.52 59.33 434.09 61.13L434.09 61.13L433.30 64.51ZM419.69 49.25L419.69 49.25Q417.17 49.25 414.97 50.00Q412.78 50.76 410.98 52.13Q409.18 53.50 407.88 55.33Q406.58 57.17 405.86 59.33L405.86 59.33L428.76 59.33Q428.98 58.18 428.98 57.17L428.98 57.17Q428.98 53.28 426.31 51.26Q423.65 49.25 419.69 49.25ZM476.78 62.50L472.90 80.64L466.85 80.64L470.45 63.79Q470.59 63.22 470.59 62.42L470.59 62.42Q470.59 61.20 469.91 60.55Q469.22 59.90 467.57 59.90L467.57 59.90L451.66 59.90L447.26 80.64L441.22 80.64L451.94 30.24L469.01 30.24Q475.42 30.24 478.98 33.48Q482.54 36.72 482.54 42.55L482.54 42.55Q482.54 47.30 480.02 50.76Q477.50 54.22 473.18 56.02L473.18 56.02L473.18 56.88Q474.98 57.02 475.99 58.07Q477.00 59.11 477.00 60.91L477.00 60.91Q477.00 61.56 476.78 62.50L476.78 62.50ZM456.77 35.86L452.88 54.29L463.97 54.29Q466.63 54.29 468.94 53.46Q471.24 52.63 472.90 51.12Q474.55 49.61 475.49 47.59Q476.42 45.58 476.42 43.20L476.42 43.20Q476.42 39.60 474.26 37.73Q472.10 35.86 467.86 35.86L467.86 35.86L456.77 35.86ZM493.49 75.46L498.67 51.12Q498.89 50.26 498.46 49.79Q498.02 49.32 497.38 49.32L497.38 49.32Q496.80 49.32 496.30 49.68L496.30 49.68L489.74 54.14L486.86 49.90L493.27 45.58Q495.72 43.92 498.24 43.92L498.24 43.92Q500.47 43.92 502.13 45.18Q503.78 46.44 504.00 49.25L504.00 49.25L504.86 49.25Q506.95 46.30 509.54 45.11Q512.14 43.92 514.94 43.92L514.94 43.92Q520.13 43.92 523.08 46.91Q526.03 49.90 526.03 54.79L526.03 54.79Q526.03 56.66 525.60 58.61L525.60 58.61L519.48 59.04Q519.84 57.24 519.84 56.02L519.84 56.02Q519.84 52.56 517.93 50.90Q516.02 49.25 513.00 49.25L513.00 49.25Q510.84 49.25 509.08 50.08Q507.31 50.90 506.02 52.31Q504.72 53.71 503.82 55.58Q502.92 57.46 502.49 59.47L502.49 59.47L499.10 75.46L507.60 75.46L507.60 80.64L484.70 80.64L484.70 75.46L493.49 75.46ZM546.19 62.06L546.19 56.45L568.22 56.45L563.04 80.64L557.28 80.64L558.72 74.59L557.86 74.59Q555.98 77.76 552.60 79.70Q549.22 81.65 544.82 81.65L544.82 81.65Q541.80 81.65 539.28 80.75Q536.76 79.85 534.92 78.05Q533.09 76.25 532.08 73.58Q531.07 70.92 531.07 67.46L531.07 67.46Q531.07 66.02 531.22 64.51Q531.36 63.00 531.79 61.06L531.79 61.06L534.17 49.82Q536.26 39.74 541.80 34.49Q547.34 29.23 556.13 29.23L556.13 29.23Q559.58 29.23 562.28 30.28Q564.98 31.32 566.82 33.19Q568.66 35.06 569.63 37.62Q570.60 40.18 570.60 43.20L570.60 43.20Q570.60 45.50 570.10 47.52L570.10 47.52L569.88 48.38L563.83 48.38L564.05 47.52Q564.55 45.50 564.55 43.49L564.55 43.49Q564.55 39.67 562.28 37.19Q560.02 34.70 555.12 34.70L555.12 34.70Q552.17 34.70 549.76 35.86Q547.34 37.01 545.44 39.06Q543.53 41.11 542.20 43.96Q540.86 46.80 540.14 50.26L540.14 50.26L537.91 60.62Q537.26 63.86 537.26 66.38L537.26 66.38Q537.26 71.14 539.50 73.66Q541.73 76.18 546.41 76.18L546.41 76.18Q551.88 76.18 555.55 72.79Q559.22 69.41 560.66 63.79L560.66 63.79L561.10 62.06L546.19 62.06ZM598.68 87.70L601.27 75.60L600.41 75.60Q598.32 78.62 595.19 80.14Q592.06 81.65 588.31 81.65L588.31 81.65Q585.22 81.65 582.66 80.60Q580.10 79.56 578.30 77.69Q576.50 75.82 575.53 73.15Q574.56 70.49 574.56 67.25L574.56 67.25Q574.56 62.28 576.04 58.03Q577.51 53.78 580.21 50.65Q582.91 47.52 586.69 45.72Q590.47 43.92 595.01 43.92L595.01 43.92Q599.26 43.92 602.03 45.76Q604.80 47.59 605.66 50.54L605.66 50.54L606.53 50.54L607.75 44.93L613.37 44.93L603.94 89.42Q603.36 91.87 601.49 93.46Q599.62 95.04 597.17 95.04L597.17 95.04L575.42 95.04L575.42 89.86L596.23 89.86Q598.25 89.86 598.68 87.70L598.68 87.70ZM589.54 76.32L589.54 76.32Q592.85 76.32 595.58 74.84Q598.32 73.37 600.30 70.96Q602.28 68.54 603.36 65.45Q604.44 62.35 604.44 59.18L604.44 59.18Q604.44 54.72 601.92 51.98Q599.40 49.25 595.15 49.25L595.15 49.25Q591.77 49.25 589.03 50.69Q586.30 52.13 584.39 54.54Q582.48 56.95 581.44 60.12Q580.39 63.29 580.39 66.67L580.39 66.67Q580.39 71.14 582.73 73.73Q585.07 76.32 589.54 76.32Z"/></svg>