<svg xmlns="http://www.w3.org/2000/svg" xmlns:xlink="http://www.w3.org/1999/xlink" width="591.552" height="86.4"><path fill="#111111" d="M14.26 20.45L0.29 70.85L10.08 70.85L13.03 59.76L30.74 59.76L33.70 70.85L43.49 70.85L29.52 20.45ZM15.34 50.98L21.46 28.37L22.32 28.37L28.44 50.98ZM46.37 43.34L53.71 48.10C55.94 44.35 58.90 41.90 63.65 41.90C68.54 41.90 71.14 44.57 71.14 47.95L71.14 48.82L56.81 50.40C50.18 51.12 45.65 55.01 45.65 60.70C45.65 67.54 50.98 71.86 59.04 71.86C66.74 71.86 69.41 68.11 70.27 66.53L71.28 66.53L71.28 70.85L80.21 70.85L80.21 48.02C80.21 39.67 73.87 34.13 64.15 34.13C55.44 34.13 50.62 38.02 46.37 43.34ZM55.15 60.19C55.15 58.10 56.81 56.88 60.19 56.45L71.14 55.15L71.14 55.73C71.14 60.62 67.61 64.37 61.27 64.37C57.24 64.37 55.15 62.64 55.15 60.19ZM88.56 20.45L88.56 70.85L111.53 70.85C120.17 70.85 126.43 65.59 126.43 57.24C126.43 51.12 122.83 47.38 117.94 46.01L117.94 45.14C122.83 43.78 126.43 40.03 126.43 33.98C126.43 25.34 120.24 20.45 111.53 20.45ZM98.06 29.38L110.59 29.38C114.62 29.38 117.36 31.18 117.36 35.21C117.36 39.24 114.62 41.11 110.59 41.11L98.06 41.11ZM98.06 50.04L110.59 50.04C114.62 50.04 117.36 51.98 117.36 56.02C117.36 60.05 114.62 61.92 110.59 61.92L98.06 61.92ZM133.49 20.45L133.49 70.85L142.42 70.85L142.42 65.81L143.42 65.81C145.30 68.83 148.46 71.86 154.80 71.86C163.73 71.86 171.22 63.94 171.22 52.99C171.22 42.05 163.73 34.13 154.80 34.13C148.46 34.13 145.30 37.15 143.42 40.18L142.56 40.18L142.56 20.45ZM152.35 42.19C157.82 42.19 162.14 46.08 162.14 52.99C162.14 59.90 157.82 63.79 152.35 63.79C146.74 63.79 142.56 59.76 142.56 52.99C142.56 46.22 146.74 42.19 152.35 42.19ZM175.82 39.89L175.82 51.41C175.82 64.80 184.32 71.86 196.70 71.86C210.02 71.86 216.58 64.73 216.58 53.57L216.58 51.84L207.07 51.84L207.07 53.57C207.07 59.26 204.26 63.22 196.70 63.22C189.29 63.22 185.33 58.61 185.33 51.70L185.33 39.60C185.33 33.26 189.58 28.08 196.70 28.08C203.62 28.08 207.07 31.97 207.07 37.73L207.07 39.46L216.58 39.46L216.58 37.73C216.58 26.50 209.45 19.44 196.70 19.44C183.96 19.44 175.82 27.36 175.82 39.89ZM221.04 52.99C221.04 64.08 229.25 71.86 239.62 71.86C249.62 71.86 255.89 66.31 257.62 58.18L248.69 55.94C247.75 60.48 245.23 63.50 239.76 63.50C233.93 63.50 230.11 59.33 230.11 52.99C230.11 46.66 234.29 42.48 239.76 42.48C245.23 42.48 248.04 45.94 248.69 50.11L257.62 47.81C255.74 39.67 249.55 34.13 239.62 34.13C229.25 34.13 221.04 41.90 221.04 52.99ZM263.66 20.45L263.66 70.85L280.94 70.85C294.48 70.85 301.68 64.15 301.68 50.40L301.68 40.90C301.68 27.14 294.48 20.45 280.94 20.45ZM273.17 29.38L281.09 29.38C289.22 29.38 292.18 33.41 292.18 40.61L292.18 50.69C292.18 57.89 289.22 61.92 281.09 61.92L273.17 61.92ZM344.02 20.45L334.94 20.45L334.94 40.18L334.08 40.18C332.21 37.15 329.04 34.13 322.70 34.13C313.78 34.13 306.29 42.05 306.29 52.99C306.29 63.94 313.78 71.86 322.70 71.86C329.04 71.86 332.21 68.83 334.08 65.81L335.09 65.81L335.09 70.85L344.02 70.85ZM325.15 42.19C330.77 42.19 334.94 46.22 334.94 52.99C334.94 59.76 330.77 63.79 325.15 63.79C319.68 63.79 315.36 59.90 315.36 52.99C315.36 46.08 319.68 42.19 325.15 42.19ZM352.80 20.45L352.80 70.85L386.35 70.85L386.35 62.06L362.30 62.06L362.30 49.75L383.90 49.75L383.90 41.11L362.30 41.11L362.30 29.23L385.92 29.23L385.92 20.45ZM390.82 52.70C390.82 63.79 398.52 71.86 409.18 71.86C418.75 71.86 422.93 66.82 425.38 63.07L417.60 58.61C416.38 61.13 414.07 63.94 409.03 63.94C403.85 63.94 400.46 60.26 400.25 55.66L426.67 55.66L426.67 52.13C426.67 41.40 419.40 34.13 409.03 34.13C398.52 34.13 390.82 41.90 390.82 52.70ZM400.32 49.32C400.90 45.07 403.85 42.05 408.96 42.05C413.64 42.05 416.81 44.93 417.31 49.32ZM471.60 36.36C471.60 26.78 464.98 20.52 455.47 20.52L433.30 20.52L433.30 70.85L442.80 70.85L442.80 52.20L451.22 52.20L460.51 70.85L471.02 70.85L460.80 51.41C467.28 49.46 471.60 43.99 471.60 36.36ZM442.80 29.45L454.54 29.45C459.07 29.45 462.10 32.11 462.10 36.36C462.10 40.61 459.07 43.27 454.54 43.27L442.80 43.27ZM487.15 35.14L478.22 35.14L478.22 70.85L487.30 70.85L487.30 50.83C487.30 45.79 490.61 43.34 495.22 43.34L500.54 43.34L500.54 34.99L496.94 34.99C492.41 34.99 489.38 36.36 488.02 40.32L487.15 40.32ZM504 51.41C504 64.80 512.50 71.86 524.88 71.86C537.91 71.86 544.90 65.16 544.90 53.14L544.90 44.78L523.15 44.78L523.15 53.14L535.39 53.14L535.39 53.50C535.39 59.54 532.44 63.22 524.88 63.22C517.46 63.22 513.50 58.61 513.50 51.70L513.50 39.60C513.50 33.26 517.75 28.08 524.88 28.08C531.79 28.08 535.39 32.11 535.39 38.16L535.39 38.74L544.90 38.74L544.90 38.16C544.90 26.35 537.62 19.44 524.88 19.44C512.14 19.44 504 27.36 504 39.89ZM578.30 35.14L578.30 40.18L577.30 40.18C575.42 37.15 572.26 34.13 565.92 34.13C556.99 34.13 549.50 41.76 549.50 52.42C549.50 63.07 556.99 70.70 565.92 70.70C572.26 70.70 575.42 67.68 577.30 64.66L578.16 64.66L578.16 75.17C578.16 76.61 577.44 77.33 576.14 77.33L553.10 77.33L553.10 85.25L580.18 85.25C584.21 85.25 587.23 82.37 587.23 78.34L587.23 35.14ZM568.37 62.64C562.90 62.64 558.58 59.04 558.58 52.42C558.58 45.79 562.90 42.19 568.37 42.19C573.98 42.19 578.16 45.94 578.16 52.42C578.16 58.90 573.98 62.64 568.37 62.64Z"/></svg>