<svg xmlns="http://www.w3.org/2000/svg" xmlns:xlink="http://www.w3.org/1999/xlink" width="616.8960000000001" height="106.63200000000002"><path fill="#111111" d="M28.08 80.64L27.94 69.84L11.30 69.84L6.70 80.64L-3.46 80.64L18.72 30.24L36.29 30.24L37.51 80.64L28.08 80.64ZM26.14 34.99L15.12 60.77L27.79 60.77L27.43 34.99L26.14 34.99ZM84.31 44.93L78.55 72.07L79.27 72.58L82.73 70.13L87.26 76.90L83.02 79.78Q80.21 81.65 77.11 81.65L77.11 81.65Q74.38 81.65 72.22 80.14Q70.06 78.62 69.48 75.89L69.48 75.89L68.18 75.89Q67.54 77.11 66.67 78.16Q65.81 79.20 64.55 79.96Q63.29 80.71 61.60 81.18Q59.90 81.65 57.60 81.65L57.60 81.65Q54.79 81.65 52.42 80.53Q50.04 79.42 48.28 77.44Q46.51 75.46 45.50 72.79Q44.50 70.13 44.50 66.96L44.50 66.96Q44.50 62.14 45.79 57.96Q47.09 53.78 49.54 50.65Q51.98 47.52 55.55 45.72Q59.11 43.92 63.58 43.92L63.58 43.92Q67.54 43.92 69.84 45.50Q72.14 47.09 72.94 49.68L72.94 49.68L74.23 49.68L75.24 44.93L84.31 44.93ZM61.13 73.01L61.13 73.01Q63.72 73.01 65.74 71.96Q67.75 70.92 69.08 69.19Q70.42 67.46 71.14 65.12Q71.86 62.78 71.86 60.19L71.86 60.19Q71.86 56.81 69.91 54.68Q67.97 52.56 64.73 52.56L64.73 52.56Q62.14 52.56 60.12 53.60Q58.10 54.65 56.74 56.38Q55.37 58.10 54.65 60.44Q53.93 62.78 53.93 65.38L53.93 65.38Q53.93 68.40 55.69 70.70Q57.46 73.01 61.13 73.01ZM88.27 80.64L88.27 71.57L93.02 71.57L99.86 39.31L95.11 39.31L95.11 30.24L116.64 30.24Q120.24 30.24 122.90 31.14Q125.57 32.04 127.30 33.62Q129.02 35.21 129.85 37.37Q130.68 39.53 130.68 41.98L130.68 41.98Q130.68 44.71 129.78 46.84Q128.88 48.96 127.30 50.54Q125.71 52.13 123.66 53.21Q121.61 54.29 119.23 54.86L119.23 54.86L119.23 56.16Q122.11 57.02 123.91 59.26Q125.71 61.49 125.71 65.52L125.71 65.52Q125.71 68.69 124.38 71.42Q123.05 74.16 120.67 76.21Q118.30 78.26 115.02 79.45Q111.74 80.64 107.86 80.64L107.86 80.64L88.27 80.64ZM104.83 59.90L102.38 71.57L108.58 71.57Q112.10 71.57 114.44 69.84Q116.78 68.11 116.78 64.87L116.78 64.87Q116.78 62.21 115.24 61.06Q113.69 59.90 111.02 59.90L111.02 59.90L104.83 59.90ZM109.22 39.31L106.78 50.83L112.97 50.83Q116.71 50.83 118.91 49.14Q121.10 47.45 121.10 44.14L121.10 44.14Q121.10 41.76 119.59 40.54Q118.08 39.31 115.42 39.31L115.42 39.31L109.22 39.31ZM144.43 29.23L153.58 29.23L149.11 50.11L150.41 50.11Q154.15 43.92 161.71 43.92L161.71 43.92Q167.26 43.92 170.50 47.66Q173.74 51.41 173.74 57.60L173.74 57.60Q173.74 63.14 172.19 67.61Q170.64 72.07 167.98 75.20Q165.31 78.34 161.71 79.99Q158.11 81.65 154.08 81.65L154.08 81.65Q151.70 81.65 150.08 81.14Q148.46 80.64 147.42 79.78Q146.38 78.91 145.80 77.80Q145.22 76.68 145.01 75.46L145.01 75.46L143.71 75.46L142.63 80.64L133.63 80.64L144.43 29.23ZM152.93 73.01L152.93 73.01Q155.52 72.94 157.61 71.89Q159.70 70.85 161.21 69.05Q162.72 67.25 163.51 64.91Q164.30 62.57 164.30 59.90L164.30 59.90Q164.30 56.52 162.32 54.54Q160.34 52.56 156.96 52.56L156.96 52.56Q154.44 52.56 152.46 53.57Q150.48 54.58 149.04 56.34Q147.60 58.10 146.84 60.52Q146.09 62.93 146.09 65.66L146.09 65.66Q146.09 69.12 147.89 71.06Q149.69 73.01 152.93 73.01ZM194.62 73.01L194.62 73.01Q197.28 73.01 199.19 72.14Q201.10 71.28 202.39 69.88Q203.69 68.47 204.44 66.64Q205.20 64.80 205.63 62.93L205.63 62.93L205.92 61.63L215.42 61.63L215.14 62.93Q214.13 67.61 212.40 71.10Q210.67 74.59 208.01 76.93Q205.34 79.27 201.67 80.46Q198.00 81.65 193.03 81.65L193.03 81.65Q189.65 81.65 186.84 80.64Q184.03 79.63 182.02 77.69Q180.00 75.74 178.88 72.97Q177.77 70.20 177.77 66.60L177.77 66.60Q177.77 65.30 177.91 64.01Q178.06 62.71 178.42 61.06L178.42 61.06L180.79 49.82Q183.02 39.38 188.71 34.31Q194.40 29.23 203.54 29.23L203.54 29.23Q207.14 29.23 209.99 30.38Q212.83 31.54 214.81 33.52Q216.79 35.50 217.84 38.16Q218.88 40.82 218.88 43.85L218.88 43.85Q218.88 44.86 218.74 45.86Q218.59 46.87 218.38 47.95L218.38 47.95L218.09 49.25L208.58 49.25L208.87 47.95Q209.30 46.22 209.30 44.64L209.30 44.64Q209.30 41.83 207.68 39.85Q206.06 37.87 202.03 37.87L202.03 37.87Q199.66 37.87 197.71 38.77Q195.77 39.67 194.33 41.22Q192.89 42.77 191.92 44.82Q190.94 46.87 190.44 49.10L190.44 49.10L187.78 61.78Q187.56 62.86 187.42 63.90Q187.27 64.94 187.27 65.88L187.27 65.88Q187.27 69.12 188.96 71.06Q190.66 73.01 194.62 73.01ZM250.34 65.30L258.77 67.54Q256.75 73.94 251.60 77.80Q246.46 81.65 237.82 81.65L237.82 81.65Q234.65 81.65 231.84 80.64Q229.03 79.63 226.94 77.62Q224.86 75.60 223.67 72.61Q222.48 69.62 222.48 65.66L222.48 65.66Q222.48 61.20 224.03 57.24Q225.58 53.28 228.53 50.33Q231.48 47.38 235.66 45.65Q239.83 43.92 245.16 43.92L245.16 43.92Q249.05 43.92 252.00 45.07Q254.95 46.22 256.90 48.20Q258.84 50.18 259.85 52.85Q260.86 55.51 260.86 58.46L260.86 58.46L251.64 60.26Q251.64 56.59 249.80 54.58Q247.97 52.56 243.86 52.56L243.86 52.56Q241.27 52.56 239.08 53.53Q236.88 54.50 235.26 56.20Q233.64 57.89 232.74 60.16Q231.84 62.42 231.84 65.02L231.84 65.02Q231.84 69.12 234.00 71.06Q236.16 73.01 239.47 73.01L239.47 73.01Q244.01 73.01 246.53 70.99Q249.05 68.98 250.34 65.30L250.34 65.30ZM271.80 39.31L271.80 30.24L290.88 30.24Q298.22 30.24 302.26 33.95Q306.29 37.66 306.29 43.78L306.29 43.78Q306.29 44.78 306.14 45.86Q306.00 46.94 305.78 48.10L305.78 48.10L302.62 63.22Q301.61 67.82 299.88 71.10Q298.15 74.38 295.45 76.50Q292.75 78.62 289.04 79.63Q285.34 80.64 280.44 80.64L280.44 80.64L264.53 80.64L264.53 71.57L269.71 71.57L276.55 39.31L271.80 39.31ZM279.22 71.57L282.38 71.57Q287.35 71.57 289.84 69.23Q292.32 66.89 293.33 61.92L293.33 61.92L296.28 48.10Q296.42 47.52 296.53 46.76Q296.64 46.01 296.64 45.36L296.64 45.36Q296.64 42.41 294.84 40.86Q293.04 39.31 289.22 39.31L289.22 39.31L286.06 39.31L279.22 71.57ZM347.62 50.11L342.94 72.07L343.66 72.58L347.54 69.84L352.08 76.61L347.40 79.78Q345.89 80.78 344.41 81.22Q342.94 81.65 341.50 81.65L341.50 81.65Q338.76 81.65 336.60 80.14Q334.44 78.62 333.86 75.89L333.86 75.89L332.57 75.89Q331.92 77.11 331.06 78.16Q330.19 79.20 328.93 79.96Q327.67 80.71 325.98 81.18Q324.29 81.65 321.98 81.65L321.98 81.65Q319.18 81.65 316.80 80.53Q314.42 79.42 312.66 77.44Q310.90 75.46 309.89 72.79Q308.88 70.13 308.88 66.96L308.88 66.96Q308.88 62.14 310.18 57.96Q311.47 53.78 313.92 50.65Q316.37 47.52 319.93 45.72Q323.50 43.92 327.96 43.92L327.96 43.92Q331.78 43.92 334.15 45.65Q336.53 47.38 337.25 50.11L337.25 50.11L338.54 50.11L342.94 29.23L352.08 29.23L347.62 50.11ZM325.51 73.01L325.51 73.01Q328.10 73.01 330.12 71.96Q332.14 70.92 333.47 69.19Q334.80 67.46 335.52 65.12Q336.24 62.78 336.24 60.19L336.24 60.19Q336.24 56.81 334.30 54.68Q332.35 52.56 329.11 52.56L329.11 52.56Q326.52 52.56 324.50 53.60Q322.49 54.65 321.12 56.38Q319.75 58.10 319.03 60.44Q318.31 62.78 318.31 65.38L318.31 65.38Q318.31 68.40 320.08 70.70Q321.84 73.01 325.51 73.01ZM353.81 80.64L353.81 79.78L364.32 30.24L394.20 30.24L394.20 39.31L371.88 39.31L369.43 50.83L388.94 50.83L388.94 59.90L367.49 59.90L365.04 71.57L386.28 71.57L386.28 80.64L353.81 80.64ZM434.66 65.74L408.46 65.74Q408.31 66.31 408.31 66.96L408.31 66.96Q408.31 69.55 410.29 71.28Q412.27 73.01 415.51 73.01L415.51 73.01Q418.90 73.01 420.91 71.78Q422.93 70.56 424.01 68.90L424.01 68.90L431.21 73.44Q430.34 74.88 428.94 76.32Q427.54 77.76 425.48 78.95Q423.43 80.14 420.66 80.89Q417.89 81.65 414.22 81.65L414.22 81.65Q410.90 81.65 408.13 80.60Q405.36 79.56 403.38 77.72Q401.40 75.89 400.28 73.33Q399.17 70.78 399.17 67.68L399.17 67.68Q399.17 62.78 400.64 58.46Q402.12 54.14 404.93 50.90Q407.74 47.66 411.84 45.79Q415.94 43.92 421.27 43.92L421.27 43.92Q425.02 43.92 427.79 45.11Q430.56 46.30 432.36 48.28Q434.16 50.26 435.06 52.78Q435.96 55.30 435.96 57.96L435.96 57.96Q435.96 58.82 435.85 59.72Q435.74 60.62 435.46 62.06L435.46 62.06L434.66 65.74ZM419.83 52.13L419.83 52.13Q416.45 52.13 413.96 53.82Q411.48 55.51 410.26 57.96L410.26 57.96L427.10 57.96Q427.10 55.22 425.41 53.68Q423.72 52.13 419.83 52.13ZM477.79 63.22L474.05 80.64L464.40 80.64L467.64 65.52Q467.78 64.80 467.78 64.37L467.78 64.37Q467.78 63.14 466.99 62.39Q466.20 61.63 464.54 61.63L464.54 61.63L454.10 61.63L450.07 80.64L440.64 80.64L451.30 30.24L469.01 30.24Q472.54 30.24 475.24 31.21Q477.94 32.18 479.77 33.80Q481.61 35.42 482.51 37.66Q483.41 39.89 483.41 42.34L483.41 42.34Q483.41 47.59 481.00 50.87Q478.58 54.14 473.62 55.80L473.62 55.80L473.62 57.10Q475.70 57.31 476.82 58.57Q477.94 59.83 477.94 61.78L477.94 61.78Q477.94 62.50 477.79 63.22L477.79 63.22ZM458.86 39.31L456.05 52.56L464.69 52.56Q468.50 52.56 470.95 50.54Q473.40 48.53 473.40 45.07L473.40 45.07Q473.40 42.34 471.92 40.82Q470.45 39.31 467.42 39.31L467.42 39.31L458.86 39.31ZM493.63 72.00L497.52 53.42L496.80 52.99L491.11 57.17L486.29 50.69L492.05 46.37Q493.70 45.14 495.54 44.53Q497.38 43.92 499.03 43.92L499.03 43.92Q501.91 43.92 504.07 45.50Q506.23 47.09 506.66 49.97L506.66 49.97L507.96 49.97Q509.40 46.94 511.99 45.43Q514.58 43.92 517.82 43.92L517.82 43.92Q521.93 43.92 524.48 46.48Q527.04 49.03 527.04 53.57L527.04 53.57Q527.04 54.50 526.93 55.40Q526.82 56.30 526.54 57.60L526.54 57.60L526.18 59.18L516.53 59.90L516.74 58.90Q516.96 57.82 516.96 56.95L516.96 56.95Q516.96 54.86 515.81 53.64Q514.66 52.42 512.35 52.42L512.35 52.42Q509.47 52.42 507.78 54.36Q506.09 56.30 505.30 59.90L505.30 59.90L502.70 72.00L511.34 72.00L511.34 80.64L486.72 80.64L486.72 72.00L493.63 72.00ZM546.91 64.22L546.91 55.15L569.16 55.15L569.16 56.02L563.98 80.64L555.34 80.64L556.56 75.02L555.26 75.02Q553.82 77.83 550.94 79.74Q548.06 81.65 543.17 81.65L543.17 81.65Q540.36 81.65 537.98 80.75Q535.61 79.85 533.88 78.05Q532.15 76.25 531.18 73.62Q530.21 70.99 530.21 67.54L530.21 67.54Q530.21 64.73 530.93 61.34L530.93 61.34L533.45 49.54Q535.68 39.10 541.40 34.16Q547.13 29.23 556.27 29.23L556.27 29.23Q559.87 29.23 562.72 30.35Q565.56 31.46 567.50 33.41Q569.45 35.35 570.49 37.91Q571.54 40.46 571.54 43.34L571.54 43.34Q571.54 44.35 571.39 45.47Q571.25 46.58 571.03 47.52L571.03 47.52L570.82 48.38L561.31 48.38L561.53 47.52Q561.74 46.66 561.82 46.01Q561.89 45.36 561.89 44.71L561.89 44.71Q561.89 41.69 560.02 40.00Q558.14 38.30 554.54 38.30L554.54 38.30Q552.53 38.30 550.73 38.95Q548.93 39.60 547.38 41.00Q545.83 42.41 544.68 44.68Q543.53 46.94 542.81 50.26L542.81 50.26L540.50 60.91Q540.22 62.21 540.14 63.07Q540.07 63.94 540.07 64.80L540.07 64.80Q540.07 68.69 542.09 70.63Q544.10 72.58 547.56 72.58L547.56 72.58Q551.81 72.58 554.51 70.31Q557.21 68.04 558.00 64.22L558.00 64.22L546.91 64.22ZM598.61 84.24L600.48 75.46L599.18 75.46Q598.39 76.68 597.38 77.80Q596.38 78.91 594.94 79.78Q593.50 80.64 591.48 81.14Q589.46 81.65 586.80 81.65L586.80 81.65Q584.21 81.65 581.94 80.78Q579.67 79.92 578.02 78.19Q576.36 76.46 575.39 73.84Q574.42 71.21 574.42 67.68L574.42 67.68Q574.42 63.22 575.75 58.93Q577.08 54.65 579.67 51.30Q582.26 47.95 586.12 45.94Q589.97 43.92 595.08 43.92L595.08 43.92Q599.47 43.92 601.74 45.61Q604.01 47.30 604.58 50.11L604.58 50.11L605.88 50.11L606.96 44.93L616.03 44.93L606.60 89.42Q606.02 91.87 604.15 93.46Q602.28 95.04 599.83 95.04L599.83 95.04L577.66 95.04L577.66 86.40L596.23 86.40Q598.18 86.40 598.61 84.24L598.61 84.24ZM591.48 73.01L591.48 73.01Q594.07 73.01 596.27 71.93Q598.46 70.85 600.08 69.05Q601.70 67.25 602.60 64.87Q603.50 62.50 603.50 59.90L603.50 59.90Q603.50 56.45 601.49 54.50Q599.47 52.56 595.80 52.56L595.80 52.56Q593.06 52.56 590.83 53.64Q588.60 54.72 587.05 56.48Q585.50 58.25 584.64 60.59Q583.78 62.93 583.78 65.38L583.78 65.38Q583.78 69.19 585.90 71.10Q588.02 73.01 591.48 73.01Z"/></svg>