<svg xmlns="http://www.w3.org/2000/svg" xmlns:xlink="http://www.w3.org/1999/xlink" width="595.9440000000001" height="86.4"><path fill="#111111" d="M19.01 20.45L1.30 70.85L5.62 70.85L10.22 57.17L33.55 57.17L38.16 70.85L42.48 70.85L24.77 20.45ZM11.45 53.71L21.46 24.19L22.32 24.19L32.33 53.71ZM48.10 45.36L51.26 46.80C53.86 41.33 57.74 37.44 64.87 37.44C72.14 37.44 76.46 41.33 76.46 47.45L76.46 50.47L59.98 51.98C53.28 52.63 47.81 55.58 47.81 61.42C47.81 67.90 53.14 71.86 61.06 71.86C69.48 71.86 73.66 67.82 75.60 64.01L76.46 64.01L76.46 70.85L80.06 70.85L80.06 47.74C80.06 39.46 74.52 34.13 65.02 34.13C56.02 34.13 50.54 39.74 48.10 45.36ZM51.41 61.56C51.41 57.96 54.50 55.58 60.70 55.01L76.46 53.57L76.46 54.14C76.46 63.43 69.98 68.69 61.20 68.69C55.37 68.69 51.41 66.24 51.41 61.56ZM91.44 20.45L91.44 70.85L111.02 70.85C119.66 70.85 126.14 66.02 126.14 57.53C126.14 50.69 121.32 46.80 117 45.94L117 45.07C121.10 43.92 126.14 40.39 126.14 33.48C126.14 25.42 119.74 20.45 111.31 20.45ZM95.33 23.90L111.02 23.90C117.94 23.90 122.26 27.94 122.26 33.62C122.26 39.53 118.22 43.78 111.17 43.78L95.33 43.78ZM95.33 47.23L110.74 47.23C118.37 47.23 122.26 51.19 122.26 57.24C122.26 63.00 118.37 67.39 111.17 67.39L95.33 67.39ZM136.22 20.45L136.22 70.85L139.68 70.85L139.68 63.94L140.69 63.94C142.70 67.82 146.66 71.86 154.51 71.86C164.09 71.86 171.36 64.37 171.36 52.99C171.36 41.62 164.09 34.13 154.51 34.13C146.66 34.13 142.70 38.16 140.69 42.05L139.82 42.05L139.82 20.45ZM153.86 37.44C162.07 37.44 167.62 43.49 167.62 52.99C167.62 62.50 162.07 68.54 153.86 68.54C145.66 68.54 139.82 62.35 139.82 52.99C139.82 43.63 145.66 37.44 153.86 37.44ZM179.57 40.82L179.57 50.47C179.57 64.01 186.77 71.86 199.01 71.86C210.10 71.86 217.01 65.16 217.01 54.07L217.01 52.85L213.12 52.85L213.12 54.07C213.12 63.14 208.73 68.40 199.01 68.40C189.22 68.40 183.46 61.85 183.46 50.62L183.46 40.68C183.46 29.45 189.07 22.90 199.01 22.90C208.08 22.90 213.12 28.37 213.12 37.44L213.12 38.45L217.01 38.45L217.01 37.44C217.01 26.35 210.74 19.44 199.01 19.44C186.98 19.44 179.57 27.29 179.57 40.82ZM224.50 52.99C224.50 64.01 232.42 71.86 242.57 71.86C251.57 71.86 257.54 65.95 258.91 58.39L255.31 57.67C254.23 64.01 250.06 68.54 242.57 68.54C234.43 68.54 228.24 61.92 228.24 52.99C228.24 44.06 234.36 37.44 242.50 37.44C249.41 37.44 254.30 41.69 255.10 48.24L258.70 47.52C257.54 40.10 251.28 34.13 242.50 34.13C232.42 34.13 224.50 41.98 224.50 52.99ZM268.13 20.45L268.13 70.85L283.03 70.85C295.70 70.85 303.26 64.94 303.26 50.76L303.26 40.54C303.26 26.35 295.70 20.45 283.03 20.45ZM272.02 23.90L282.82 23.90C293.98 23.90 299.38 28.08 299.38 40.18L299.38 51.12C299.38 63.22 294.26 67.39 282.82 67.39L272.02 67.39ZM346.61 20.45L343.01 20.45L343.01 42.05L342.14 42.05C340.13 38.16 336.17 34.13 328.32 34.13C318.74 34.13 311.47 41.62 311.47 52.99C311.47 64.37 318.74 71.86 328.32 71.86C336.17 71.86 340.13 67.82 342.14 63.94L343.15 63.94L343.15 70.85L346.61 70.85ZM328.97 37.44C337.18 37.44 343.01 43.63 343.01 52.99C343.01 62.35 337.18 68.54 328.97 68.54C320.76 68.54 315.22 62.50 315.22 52.99C315.22 43.49 320.76 37.44 328.97 37.44ZM358.42 20.45L358.42 70.85L389.52 70.85L389.52 67.39L362.30 67.39L362.30 47.30L387.22 47.30L387.22 43.85L362.30 43.85L362.30 23.90L389.23 23.90L389.23 20.45ZM396.58 52.70C396.58 63.50 403.63 71.86 414.50 71.86C423.79 71.86 427.75 66.74 430.13 61.85L426.67 60.48C424.66 65.02 421.27 68.54 414.50 68.54C406.37 68.54 400.82 62.93 400.32 53.78L431.21 53.78L431.21 51.48C431.21 40.61 423.94 34.13 414.29 34.13C404.28 34.13 396.58 42.19 396.58 52.70ZM400.32 50.62C401.18 42.48 406.94 37.44 414.29 37.44C421.70 37.44 427.18 42.05 427.46 50.62ZM476.14 34.63C476.14 25.56 469.22 20.45 460.44 20.45L440.71 20.45L440.71 70.85L444.60 70.85L444.60 48.82L458.50 48.82L470.38 70.85L474.70 70.85L462.53 48.74C470.30 47.95 476.14 42.98 476.14 34.63ZM444.60 23.90L460.01 23.90C467.78 23.90 472.25 27.79 472.25 34.63C472.25 41.47 467.78 45.36 460.01 45.36L444.60 45.36ZM488.38 35.14L484.92 35.14L484.92 70.85L488.52 70.85L488.52 47.88C488.52 41.33 491.90 38.30 497.38 38.30L503.21 38.30L503.21 34.99L498.02 34.99C493.20 34.99 490.68 36.36 489.24 39.53L488.38 39.53ZM509.54 50.54C509.54 64.01 516.60 71.86 528.84 71.86C539.86 71.86 546.70 65.16 546.70 54.07L546.70 47.88L526.10 47.88L526.10 51.34L542.81 51.34L542.81 54.07C542.81 63.14 538.49 68.40 528.84 68.40C519.05 68.40 513.43 61.85 513.43 50.62L513.43 40.68C513.43 29.45 519.05 22.90 528.98 22.90C537.98 22.90 542.81 28.37 542.81 37.44L542.81 38.09L546.70 38.09L546.70 37.44C546.70 26.35 540.65 19.44 528.91 19.44C516.96 19.44 509.54 27.29 509.54 40.82ZM586.58 35.14L586.58 42.05L585.58 42.05C583.56 38.16 579.60 34.13 571.75 34.13C562.18 34.13 554.90 41.47 554.90 52.70C554.90 63.94 562.18 71.28 571.75 71.28C579.60 71.28 583.56 67.25 585.58 63.36L586.44 63.36L586.44 79.92C586.44 81.36 585.72 82.08 584.42 82.08L557.78 82.08L557.78 85.25L585.43 85.25C588.31 85.25 590.04 83.52 590.04 80.50L590.04 35.14ZM572.40 67.97C564.19 67.97 558.65 62.06 558.65 52.70C558.65 43.34 564.19 37.44 572.40 37.44C580.61 37.44 586.44 43.49 586.44 52.70C586.44 61.92 580.61 67.97 572.40 67.97Z"/></svg>