<svg xmlns="http://www.w3.org/2000/svg" xmlns:xlink="http://www.w3.org/1999/xlink" width="587.91796875" height="84.375"><path fill="#111111" d="M39.09 66.80L34.21 53.44L12.76 53.44L7.95 66.80L0.98 66.80L20.53 15.61L26.44 15.61L46.02 66.80L39.09 66.80ZM23.48 23.94L14.80 47.88L32.20 47.88L23.48 23.94ZM49.11 47.64Q49.11 42.61 51.61 38.36Q54.11 34.10 58.38 31.61Q62.65 29.11 67.68 29.11L67.68 29.11Q72.70 29.11 76.96 31.61Q81.21 34.10 83.71 38.36Q86.20 42.61 86.20 47.64L86.20 47.64Q86.20 52.66 83.71 56.94Q81.21 61.21 76.96 63.70Q72.70 66.20 67.68 66.20L67.68 66.20Q62.65 66.20 58.38 63.70Q54.11 61.21 51.61 56.94Q49.11 52.66 49.11 47.64L49.11 47.64ZM56.32 58.25L78.71 58.25L78.71 36.95L56.32 36.95L56.32 58.25ZM79.98 28.76L86.73 28.76L86.73 57.90Q86.73 63.04 88.07 66.23L88.07 66.23L88.07 66.80L81.25 66.80Q80.68 65.74 80.33 62.79L80.33 62.79L80.23 43.73L79.98 28.76ZM113.94 66.80L96.19 66.80L96.19 15.61L112.92 15.61Q121.25 15.61 125.46 19.05Q129.66 22.50 129.66 29.25L129.66 29.25Q129.66 32.80 127.65 35.58Q125.65 38.36 122.06 39.87L122.06 39.87Q126.21 41.03 128.62 44.28Q131.03 47.53 131.03 52.03L131.03 52.03Q131.03 56.60 129.02 59.92Q127.02 63.25 123.19 65.00L123.19 65.00Q119.36 66.80 113.94 66.80L113.94 66.80ZM102.94 21.16L102.94 37.44L120.80 37.44L120.80 21.16L102.94 21.16ZM120.69 42.86L102.94 42.86L102.94 61.28L120.69 61.28L120.69 42.86ZM143.82 32.63L143.61 62.72L143.30 66.80L137.32 66.80L137.32 12.80L143.82 12.80L143.82 32.63ZM137.21 47.64Q137.21 42.61 139.71 38.36Q142.21 34.10 146.48 31.61Q150.75 29.11 155.78 29.11L155.78 29.11Q160.80 29.11 165.06 31.61Q169.31 34.10 171.81 38.36Q174.30 42.61 174.30 47.64L174.30 47.64Q174.30 52.66 171.81 56.94Q169.31 61.21 165.06 63.70Q160.80 66.20 155.78 66.20L155.78 66.20Q150.75 66.20 146.48 63.70Q142.21 61.21 139.71 56.94Q137.21 52.66 137.21 47.64L137.21 47.64ZM144.42 58.25L166.82 58.25L166.82 36.95L144.42 36.95L144.42 58.25ZM213.26 50.55L220.04 50.55Q219.41 55.93 216.93 59.73Q214.45 63.53 210.34 65.50L210.34 65.50Q206.19 67.50 200.64 67.50L200.64 67.50Q194.66 67.50 190.14 64.56Q185.63 61.63 183.13 56.18L183.13 56.18Q180.63 50.70 180.63 43.59L180.63 43.59L180.63 38.67Q180.63 31.54 183.18 26.14Q185.73 20.74 190.41 17.79L190.41 17.79Q195.08 14.91 201.23 14.91L201.23 14.91Q206.58 14.91 210.64 16.95Q214.70 18.98 217.13 22.85L217.13 22.85Q219.52 26.72 220.04 32.06L220.04 32.06L213.26 32.06Q212.38 26.05 209.46 23.26Q206.54 20.46 201.23 20.46L201.23 20.46Q196.95 20.46 193.83 22.61Q190.72 24.75 189.07 28.86L189.07 28.86Q187.42 33.08 187.42 38.85L187.42 38.85L187.42 43.80Q187.42 49.36 188.98 53.46Q190.55 57.55 193.54 59.77L193.54 59.77Q196.56 61.98 200.64 61.98L200.64 61.98Q204.50 61.98 207.02 60.86Q209.53 59.73 211.08 57.27L211.08 57.27Q212.63 54.77 213.26 50.55L213.26 50.55ZM243.49 62.19Q245.78 62.19 247.76 61.22Q249.75 60.26 251.02 58.57L251.02 58.57Q252.32 56.85 252.46 54.81L252.46 54.81L258.61 54.81Q258.43 58.11 256.36 61.05Q254.29 63.98 250.84 65.74L250.84 65.74Q247.25 67.50 243.49 67.50L243.49 67.50Q238.36 67.50 234.53 65.16Q230.70 62.82 228.62 58.43L228.62 58.43Q226.55 54 226.55 48.13L226.55 48.13L226.55 47.04Q226.55 41.45 228.60 37.14Q230.66 32.84 234.46 30.45L234.46 30.45Q238.32 28.05 243.46 28.05L243.46 28.05Q247.68 28.05 251.05 29.78Q254.43 31.50 256.43 34.66L256.43 34.66Q258.47 37.79 258.61 41.84L258.61 41.84L252.46 41.84Q252.28 39.41 251.07 37.48Q249.86 35.54 247.89 34.45L247.89 34.45Q245.88 33.40 243.46 33.40L243.46 33.40Q238.46 33.40 235.76 36.98Q233.05 40.57 233.05 47.29L233.05 47.29L233.05 48.52Q233.05 55.09 235.76 58.64Q238.46 62.19 243.49 62.19L243.49 62.19ZM281.11 66.80L266.94 66.80L266.94 15.61L281.39 15.61Q288.07 15.61 293.22 18.56Q298.37 21.52 301.15 26.96L301.15 26.96Q303.93 32.38 303.96 39.48L303.96 39.48L303.96 42.75Q303.96 49.99 301.17 55.44Q298.37 60.89 293.20 63.81L293.20 63.81Q287.96 66.73 281.11 66.80L281.11 66.80ZM281.57 21.16L273.69 21.16L273.69 61.28L280.79 61.28Q286.00 61.28 289.69 59.10Q293.38 56.92 295.35 52.73L295.35 52.73Q297.28 48.62 297.28 42.61L297.28 42.61L297.28 39.62Q297.28 33.86 295.44 29.72Q293.59 25.59 290.07 23.38L290.07 23.38Q286.52 21.20 281.57 21.16L281.57 21.16ZM341.02 32.63L341.02 12.80L347.52 12.80L347.52 66.80L341.54 66.80L341.23 62.72L341.02 32.63ZM309.66 47.64Q309.66 42.61 312.15 38.36Q314.65 34.10 318.92 31.61Q323.19 29.11 328.22 29.11L328.22 29.11Q333.25 29.11 337.50 31.61Q341.75 34.10 344.25 38.36Q346.75 42.61 346.75 47.64L346.75 47.64Q346.75 52.66 344.25 56.94Q341.75 61.21 337.50 63.70Q333.25 66.20 328.22 66.20L328.22 66.20Q323.19 66.20 318.92 63.70Q314.65 61.21 312.15 56.94Q309.66 52.66 309.66 47.64L309.66 47.64ZM316.23 47.39Q316.23 50.70 317.90 53.53Q319.57 56.36 322.40 58.03Q325.23 59.70 328.54 59.70L328.54 59.70Q331.88 59.70 334.71 58.03Q337.54 56.36 339.19 53.54Q340.84 50.73 340.84 47.39L340.84 47.39Q340.84 44.05 339.19 41.22Q337.54 38.39 334.71 36.74Q331.88 35.09 328.54 35.09L328.54 35.09Q325.23 35.09 322.40 36.74Q319.57 38.39 317.90 41.22Q316.23 44.05 316.23 47.39L316.23 47.39ZM385.56 37.62L385.56 43.14L363.38 43.14L363.38 61.28L389.14 61.28L389.14 66.80L356.63 66.80L356.63 15.61L388.79 15.61L388.79 21.16L363.38 21.16L363.38 37.62L385.56 37.62ZM411.64 67.50Q406.51 67.50 402.56 65.20Q398.60 62.89 396.42 58.64L396.42 58.64Q394.21 54.42 394.21 48.83L394.21 48.83L394.21 47.64Q394.21 41.98 396.37 37.53Q398.53 33.08 402.43 30.55L402.43 30.55Q406.30 28.05 410.84 28.05L410.84 28.05Q415.76 28.05 419.27 30.25Q422.79 32.45 424.65 36.67L424.65 36.67Q426.48 40.89 426.48 46.93L426.48 46.93L426.48 49.64L400.71 49.64Q400.78 53.30 402.24 56.16Q403.70 59.03 406.27 60.61L406.27 60.61Q408.80 62.19 412.00 62.19L412.00 62.19Q415.20 62.19 417.62 60.91Q420.05 59.63 422.02 57.06L422.02 57.06L425.99 60.15Q421.17 67.50 411.64 67.50L411.64 67.50ZM410.84 33.40Q408.23 33.40 406.14 34.70Q404.05 36 402.71 38.43L402.71 38.43Q401.34 40.92 400.92 44.30L400.92 44.30L419.98 44.30L419.98 43.80Q419.70 38.85 417.30 36.12Q414.91 33.40 410.84 33.40L410.84 33.40ZM464.91 66.80L453.80 46.09L441.77 46.09L441.77 66.80L434.99 66.80L434.99 15.61L451.93 15.61Q460.62 15.61 465.26 19.56Q469.90 23.52 469.90 31.01L469.90 31.01Q469.90 35.75 467.33 39.30Q464.77 42.86 460.13 44.65L460.13 44.65L472.15 66.38L472.15 66.80L464.91 66.80ZM441.77 21.16L441.77 40.57L459.88 40.57L459.88 21.16L441.77 21.16ZM497.07 28.76L496.93 34.38L484.84 34.35L484.84 66.80L478.34 66.80L478.34 28.76L497.07 28.76ZM541.51 41.31L541.51 60.08Q538.98 63.74 534.34 65.62Q529.70 67.50 523.41 67.50L523.41 67.50Q517.15 67.50 512.30 64.56Q507.45 61.63 504.81 56.21L504.81 56.21Q502.14 50.77 502.07 43.66L502.07 43.66L502.07 39.20Q502.07 31.54 504.49 26.07Q506.92 20.60 511.52 17.75L511.52 17.75Q516.09 14.91 522.63 14.91L522.63 14.91Q530.65 14.91 535.54 19.00Q540.42 23.10 541.51 30.62L541.51 30.62L534.76 30.62Q532.86 20.46 522.67 20.46L522.67 20.46Q515.92 20.46 512.40 25.21Q508.89 29.95 508.85 39.02L508.85 39.02L508.85 43.21Q508.85 48.90 510.63 53.16Q512.40 57.41 515.71 59.70L515.71 59.70Q519.05 61.98 523.44 61.98L523.44 61.98Q527.41 61.98 530.21 61.08Q533.00 60.19 534.80 58.29L534.80 58.29L534.80 46.79L522.95 46.79L522.95 41.31L541.51 41.31ZM549.32 47.64Q549.32 42.61 551.81 38.36Q554.31 34.10 558.58 31.61Q562.85 29.11 567.88 29.11L567.88 29.11Q572.91 29.11 577.16 31.61Q581.41 34.10 583.91 38.36Q586.41 42.61 586.41 47.64L586.41 47.64Q586.41 52.66 583.91 56.94Q581.41 61.21 577.16 63.70Q572.91 66.20 567.88 66.20L567.88 66.20Q562.85 66.20 558.58 63.70Q554.31 61.21 551.81 56.94Q549.32 52.66 549.32 47.64L549.32 47.64ZM555.89 47.39Q555.89 50.70 557.56 53.53Q559.23 56.36 562.06 58.03Q564.89 59.70 568.20 59.70L568.20 59.70Q571.54 59.70 574.37 58.03Q577.20 56.36 578.85 53.54Q580.50 50.73 580.50 47.39L580.50 47.39Q580.50 44.05 578.85 41.22Q577.20 38.39 574.37 36.74Q571.54 35.09 568.20 35.09L568.20 35.09Q564.89 35.09 562.06 36.74Q559.23 38.39 557.56 41.22Q555.89 44.05 555.89 47.39L555.89 47.39ZM577.05 66.80L585.32 66.80L577.58 79.31L569.32 79.31L577.05 66.80Z"/></svg>